<svg xmlns="http://www.w3.org/2000/svg" xmlns:xlink="http://www.w3.org/1999/xlink" viewBox="0 0 161.72 216.5"><defs><clipPath id="clip-path"><path d="M16.57,126.41v18.83c0,1.41,1,2,2.21,1.28l24.6-14.21a4.92,4.92,0,0,0,2.21-3.83V109.66c0-1.41-1-2-2.21-1.28l-24.6,14.21A4.82,4.82,0,0,0,16.57,126.41Z" style="fill:none"/></clipPath></defs><g id="Layer_2" data-name="Layer 2"><g id="Layer_1-2" data-name="Layer 1"><g id="freepik--bank-card--inject-2"><path d="M2.07,216A4.75,4.75,0,0,1,0,212.28V92.9a4.86,4.86,0,0,1,2.21-3.83L155.36.65a4.15,4.15,0,0,1,6.36,3.67V123.7a4.87,4.87,0,0,1-2.21,3.83L6.36,216A4.77,4.77,0,0,1,2.07,216Z" style="fill:#455a64"/><path d="M161.7,4c-.16-1.14-1.08-1.56-2.19-.91L6.36,91.46A4.42,4.42,0,0,0,4.8,93.11L.65,90.72a4.42,4.42,0,0,1,1.56-1.65L155.37.64A4.13,4.13,0,0,1,161.7,4Z" style="fill:#37474f"/><path d="M5.84,216.18a.44.44,0,0,1-.16.06,1.12,1.12,0,0,1-.31.1H5.2a1.65,1.65,0,0,1-.32.06H4.62a4.43,4.43,0,0,1-1.15,0A3.76,3.76,0,0,1,2.08,216,4.73,4.73,0,0,1,0,212.22V92.89a4.47,4.47,0,0,1,.65-2.17L4.8,93.11a4.54,4.54,0,0,0-.65,2.18V214.68a1.51,1.51,0,0,0,.73,1.47,1.08,1.08,0,0,0,.35.1,1.41,1.41,0,0,0,.41,0Z" style="fill:#263238"/><path d="M16.57,126.41v18.83c0,1.41,1,2,2.21,1.28l24.6-14.21a4.92,4.92,0,0,0,2.21-3.83V109.66c0-1.41-1-2-2.21-1.28l-24.6,14.21A4.82,4.82,0,0,0,16.57,126.41Z" style="fill:#0674ed"/><g style="clip-path:url(#clip-path)"><rect x="9.55" y="122.11" width="43.09" height="1" transform="translate(-57.17 32) rotate(-30.02)" style="fill:#fff"/><rect x="24.38" y="126.2" width="1" height="9.6" style="fill:#fff"/><rect x="36.82" y="119.06" width="1" height="9.58" style="fill:#fff"/><rect x="9.55" y="131.73" width="43.09" height="1" transform="translate(-61.99 33.3) rotate(-30.02)" style="fill:#fff"/></g><path d="M17.57,111.17c-.11-.06-.16-.22-.16-.48V100.24a1.28,1.28,0,0,1,.16-.67,1.23,1.23,0,0,1,.52-.49l4.46-2.58c1.11-.64,1.95-.83,2.51-.56s.84.93.84,2a4.58,4.58,0,0,1-.35,1.67,4.64,4.64,0,0,1-.93,1.47c1-.2,1.56.38,1.56,1.75a5.53,5.53,0,0,1-.4,2,6.64,6.64,0,0,1-1.22,2,7.86,7.86,0,0,1-2,1.63L18.1,111C17.87,111.24,17.69,111.24,17.57,111.17Zm4.55-9.56a2.65,2.65,0,0,0,.95-.9,2.27,2.27,0,0,0,.33-1.21c0-.48-.1-.76-.31-.85s-.53,0-1,.25l-2.2,1.28v2.7Zm.25,4.85a2.59,2.59,0,0,0,1.32-2.26c0-.5-.13-.81-.38-.91a1.25,1.25,0,0,0-1.07.23l-2.32,1.35v3Z" style="fill:#fff"/><path d="M26.17,106.1a1.6,1.6,0,0,1,0-.31l3.94-13.11a2.21,2.21,0,0,1,.23-.55,1,1,0,0,1,.38-.33l1.11-.64c.16-.09.28-.13.36-.1a.49.49,0,0,1,.23.28l3.94,8.57a1,1,0,0,1,0,.25.52.52,0,0,1-.27.46l-1.84,1.06a.5.5,0,0,1-.31.1c-.07,0-.12-.08-.18-.19l-.69-1.67-3.7,2.14-.69,2.46a1.18,1.18,0,0,1-.17.4,1.07,1.07,0,0,1-.31.25l-1.75,1.07C26.26,106.34,26.17,106.3,26.17,106.1Zm6.4-7.86L31.3,95.17,30,99.7Z" style="fill:#fff"/><path d="M37.88,99.45c-.11-.06-.16-.22-.16-.47V88.54a1.27,1.27,0,0,1,.16-.66,1.3,1.3,0,0,1,.54-.5l.94-.54a.93.93,0,0,1,.39-.15.43.43,0,0,1,.28.15l4.26,4.48V84.77a1.34,1.34,0,0,1,.16-.68A1.36,1.36,0,0,1,45,83.6l1.14-.66c.26-.15.43-.19.54-.12s.15.23.15.5V93.73a1.28,1.28,0,0,1-.15.66,1.34,1.34,0,0,1-.54.49l-1,.56a.82.82,0,0,1-.38.13.42.42,0,0,1-.28-.14L40.18,91v6.56a1.35,1.35,0,0,1-.15.65,1.44,1.44,0,0,1-.54.5l-1.14.65C38.16,99.48,38,99.51,37.88,99.45Z" style="fill:#fff"/><path d="M56.91,88.35a.52.52,0,0,1-.27.46l-1.9,1.09a1.39,1.39,0,0,1-.28.12.25.25,0,0,1-.19,0l-3.36-3.16h0v4.62a1.39,1.39,0,0,1-.15.66,1.59,1.59,0,0,1-.54.49l-1.14.66c-.24.14-.41.18-.52.12s-.16-.23-.16-.48V82.42a1.28,1.28,0,0,1,.16-.67,1.46,1.46,0,0,1,.52-.5l1.14-.66c.26-.14.43-.18.54-.12s.15.23.15.5v4.44l3.25-6.89a1,1,0,0,1,.19-.29,1.66,1.66,0,0,1,.31-.23l1.87-1.08c.19-.1.28,0,.28.15a1,1,0,0,1-.09.33l-3.61,7.44,3.71,3.28A.25.25,0,0,1,56.91,88.35Z" style="fill:#fff"/><path d="M64.82,82.74c-1-.51-1.46-1.77-1.46-3.79a10.75,10.75,0,0,1,1.42-5.46,10.91,10.91,0,0,1,4.07-3.94,9.25,9.25,0,0,1,2-.91,3.32,3.32,0,0,1,1.53-.15.17.17,0,0,1,.15.19h0a1.06,1.06,0,0,1-.09.35l-.54,1.38a.66.66,0,0,1-.21.31.47.47,0,0,1-.26,0,4.16,4.16,0,0,0-2.29.69,6.45,6.45,0,0,0-2.44,2.45,7.25,7.25,0,0,0-.86,3.6c0,1.38.3,2.25.9,2.59a2.53,2.53,0,0,0,2.47-.39,8.45,8.45,0,0,0,2.41-2,1.07,1.07,0,0,1,.26-.26.26.26,0,0,1,.21.07l.59.84a.27.27,0,0,1,.06.17.91.91,0,0,1-.18.37A11.42,11.42,0,0,1,68.89,82C67.15,83,65.78,83.24,64.82,82.74Z" style="fill:#fff"/><path d="M73.31,78.88a1.5,1.5,0,0,1,0-.3l4-13.12a1.57,1.57,0,0,1,.23-.55,1.26,1.26,0,0,1,.37-.32L79,63.94a.35.35,0,0,1,.6.19l3.94,8.56a1.13,1.13,0,0,1,0,.26.48.48,0,0,1-.27.45l-1.84,1.07a.57.57,0,0,1-.31.1.33.33,0,0,1-.18-.19l-.7-1.67-3.69,2.13-.68,2.47a1.36,1.36,0,0,1-.17.39,1.14,1.14,0,0,1-.32.26L73.57,79C73.4,79.13,73.31,79.08,73.31,78.88ZM79.71,71,78.45,68l-1.28,4.53Z" style="fill:#fff"/><path d="M85,72.24c-.1-.06-.16-.22-.16-.48V61.34a1.38,1.38,0,0,1,.16-.67,1.32,1.32,0,0,1,.53-.49L89.39,58c2.57-1.5,3.85-.94,3.86,1.66A6.11,6.11,0,0,1,92.79,62a6.73,6.73,0,0,1-1.35,2.11L93,67.23a.41.41,0,0,1,0,.22.55.55,0,0,1-.32.5L91,69a.7.7,0,0,1-.32.13c-.08,0-.14-.06-.19-.17l-1.4-3-1.81,1v3.44a1.2,1.2,0,0,1-.68,1.15l-1.14.66C85.3,72.24,85.12,72.3,85,72.24Zm4-8.42a3.65,3.65,0,0,0,1.3-1.17,2.84,2.84,0,0,0,.44-1.58c0-.61-.14-1-.4-1.11a1.62,1.62,0,0,0-1.19.26l-1.8,1v3.51Z" style="fill:#fff"/><path d="M94.66,66.67c-.11-.06-.16-.22-.16-.48V55.78a1.28,1.28,0,0,1,.16-.67,1.25,1.25,0,0,1,.52-.5l3.2-1.84q2.59-1.52,4-.85t1.35,3.75A10,10,0,0,1,102.32,61a10.93,10.93,0,0,1-3.94,3.73l-3.2,1.84C94.94,66.69,94.76,66.73,94.66,66.67Zm3.84-4.16a5.19,5.19,0,0,0,2-2,7.24,7.24,0,0,0,.67-3.37c0-1.4-.22-2.26-.67-2.58s-1.12-.21-2,.31L97,55.73V63.4Z" style="fill:#fff"/><path d="M16.57,162.33v4.47c0,1.41,1,2,2.21,1.28l24.6-14.21A4.89,4.89,0,0,0,45.57,150v-4.47c0-1.41-1-2-2.21-1.28L18.76,158.5A4.88,4.88,0,0,0,16.57,162.33Z" style="fill:#ebebeb"/><path d="M51.14,142.38v4.47c0,1.41,1,2,2.21,1.27L78,133.92a4.92,4.92,0,0,0,2.21-3.83v-4.47c0-1.41-1-2-2.21-1.28L53.35,138.55A4.86,4.86,0,0,0,51.14,142.38Z" style="fill:#ebebeb"/><path d="M85.7,122.42v4.47c0,1.41,1,2,2.21,1.28L112.51,114a4.85,4.85,0,0,0,2.21-3.82v-4.48c0-1.41-1-2-2.21-1.27l-24.6,14.2A4.91,4.91,0,0,0,85.7,122.42Z" style="fill:#ebebeb"/><path d="M120.25,102.47v4.47c0,1.41,1,2,2.21,1.28L147.07,94a4.87,4.87,0,0,0,2.21-3.83V85.71c0-1.41-1-2-2.21-1.28L122.46,98.64A4.91,4.91,0,0,0,120.25,102.47Z" style="fill:#ebebeb"/><path d="M135.51,107.87l-5.64,3.26a2.92,2.92,0,0,0-1.32,2.29v1.73c0,.84.59,1.19,1.32.76l5.64-3.25a2.92,2.92,0,0,0,1.33-2.3v-1.73C136.84,107.79,136.25,107.45,135.51,107.87Z" style="fill:#0674ed"/><path d="M148,100.69l-5.64,3.25a2.93,2.93,0,0,0-1.32,2.3V108c0,.84.59,1.18,1.32.76l5.64-3.26a2.91,2.91,0,0,0,1.33-2.29v-1.73C149.28,100.61,148.69,100.24,148,100.69Z" style="fill:#0674ed"/><path d="M76.74,153.77,147,113.24c1.22-.71,2.21-.13,2.21,1.28v2.07a4.87,4.87,0,0,1-2.21,3.83L76.74,161c-1.22.71-2.21.14-2.21-1.27v-2.08A4.87,4.87,0,0,1,76.74,153.77Z" style="fill:#0674ed"/></g></g></g></svg>