<svg xmlns="http://www.w3.org/2000/svg" viewBox="0 0 500 500"><g id="freepik--Money--inject-2"><rect x="252.35" y="100.73" width="104.49" height="196.26" style="fill:#0674ED;stroke:#263238;stroke-linecap:round;stroke-linejoin:round"></rect><path d="M346.13,124.18a10.05,10.05,0,0,1-10.05-10.05H272.45a10.05,10.05,0,0,1-10.05,10.05v148.7a10.05,10.05,0,0,1,10.05,10.05c0,.23,0,.45,0,.67h63.71c0-.22,0-.44,0-.67a10.05,10.05,0,0,1,10.05-10.05c.23,0,.45,0,.67,0V124.14C346.58,124.16,346.36,124.18,346.13,124.18ZM304.6,229.34a30.48,30.48,0,1,1,30.48-30.48A30.48,30.48,0,0,1,304.6,229.34Z" style="fill:#fff;stroke:#263238;stroke-linecap:round;stroke-linejoin:round"></path><rect x="266.57" y="109.79" width="104.49" height="196.26" transform="translate(35.89 -46.69) rotate(8.87)" style="fill:#0674ED;stroke:#263238;stroke-linecap:round;stroke-linejoin:round"></rect><path d="M371.37,140.53A10,10,0,0,1,363,129.06l-62.87-9.82a10.06,10.06,0,0,1-11.48,8.38L265.7,274.54A10.05,10.05,0,0,1,274.08,286c0,.22-.09.44-.14.65l62.94,9.83c0-.22,0-.44.07-.66a10,10,0,0,1,11.48-8.38c.22,0,.44.09.66.13l23-147C371.82,140.58,371.59,140.57,371.37,140.53ZM314.11,238a30.48,30.48,0,1,1,34.82-25.41A30.47,30.47,0,0,1,314.11,238Z" style="fill:#fff;stroke:#263238;stroke-linecap:round;stroke-linejoin:round"></path><rect x="284.17" y="126.38" width="104.49" height="196.26" transform="translate(106.42 -108.18) rotate(21.62)" style="fill:#0674ED;stroke:#263238;stroke-linecap:round;stroke-linejoin:round"></rect><path d="M402.55,170.39a10.05,10.05,0,0,1-5.64-13l-59.16-23.46a10,10,0,0,1-13,5.64l-54.8,138.24a10,10,0,0,1,5.64,13c-.09.21-.18.41-.28.61l59.22,23.48c.07-.21.13-.43.21-.64a10.06,10.06,0,0,1,13.05-5.63c.21.08.41.18.61.27l54.82-138.3Q402.87,170.51,402.55,170.39Zm-77.36,82.46a30.48,30.48,0,1,1,39.56-17.1A30.49,30.49,0,0,1,325.19,252.85Z" style="fill:#fff;stroke:#263238;stroke-linecap:round;stroke-linejoin:round"></path><rect x="298.57" y="148.21" width="104.49" height="196.26" transform="translate(207.64 -157.71) rotate(35.41)" style="fill:#0674ED;stroke:#263238;stroke-linecap:round;stroke-linejoin:round"></rect><path d="M427.94,209.53a10,10,0,0,1-2.36-14l-51.87-36.87a10.05,10.05,0,0,1-14,2.37L273.54,282.21a10,10,0,0,1,2.36,14c-.13.19-.27.35-.41.53l51.91,36.91c.12-.19.23-.38.37-.57a10,10,0,0,1,14-2.36c.18.13.35.27.52.41l86.21-121.25Q428.23,209.73,427.94,209.53Zm-94.78,61.65a30.48,30.48,0,1,1,42.5-7.18A30.48,30.48,0,0,1,333.16,271.18Z" style="fill:#fff;stroke:#263238;stroke-linecap:round;stroke-linejoin:round"></path><circle cx="276.82" cy="243.37" r="64.98" style="fill:#fff;stroke:#263238;stroke-linecap:round;stroke-linejoin:round"></circle><line x1="224.97" y1="204.84" x2="231.96" y2="204.84" style="fill:none;stroke:#263238;stroke-linecap:round;stroke-linejoin:round"></line><line x1="228.25" y1="200.59" x2="234.79" y2="200.59" style="fill:none;stroke:#263238;stroke-linecap:round;stroke-linejoin:round"></line><line x1="231.37" y1="197.29" x2="237.86" y2="197.29" style="fill:none;stroke:#263238;stroke-linecap:round;stroke-linejoin:round"></line><line x1="235.39" y1="193.79" x2="241.11" y2="193.79" style="fill:none;stroke:#263238;stroke-linecap:round;stroke-linejoin:round"></line><line x1="220.71" y1="211.21" x2="227.24" y2="211.21" style="fill:none;stroke:#263238;stroke-linecap:round;stroke-linejoin:round"></line><line x1="215.96" y1="221.35" x2="222.52" y2="221.35" style="fill:none;stroke:#263238;stroke-linecap:round;stroke-linejoin:round"></line><line x1="212.7" y1="233.62" x2="219.69" y2="233.62" style="fill:none;stroke:#263238;stroke-linecap:round;stroke-linejoin:round"></line><line x1="212.23" y1="247.31" x2="219.22" y2="247.31" style="fill:none;stroke:#263238;stroke-linecap:round;stroke-linejoin:round"></line><circle cx="282.96" cy="243.37" r="64.98" style="fill:#fff;stroke:#263238;stroke-linecap:round;stroke-linejoin:round"></circle><circle cx="282.96" cy="243.37" r="51.75" transform="translate(-17.78 464.38) rotate(-77.01)" style="fill:#fff;stroke:#263238;stroke-linecap:round;stroke-linejoin:round"></circle><path d="M283,191.62l-1,0a51.73,51.73,0,0,1,0,103.45l1,0a51.75,51.75,0,1,0,0-103.49Z" style="fill:#fff;stroke:#263238;stroke-linecap:round;stroke-linejoin:round"></path><path d="M285.38,275.64a.69.69,0,0,0-.55.65l.09,4.19a1.38,1.38,0,0,1-1.58,1.58h-5.49a1.38,1.38,0,0,1-1.58-1.58l.18-4.28a.67.67,0,0,0-.56-.65c-10.6-1.3-16.75-7.72-16.75-16.65v-4a1.43,1.43,0,0,1,1.59-1.58h9.67c1,0,1.59.47,1.59,1.21v1.3c0,4.75,3.07,8.84,9.39,8.84,6,0,8.47-3.63,8.47-7.35,0-6.6-12.1-7.63-21-13.4-5.77-3.53-9.77-8.09-9.77-16,0-9.77,6.05-16.66,16.75-18.24a.68.68,0,0,0,.56-.65l-.19-5a1.39,1.39,0,0,1,1.58-1.59h5.31a1.43,1.43,0,0,1,1.58,1.59l-.09,4.93a.67.67,0,0,0,.56.65c11.16,1.21,17.49,8,17.49,17.59v3.07a1.42,1.42,0,0,1-1.58,1.58h-9.77c-1,0-1.59-.37-1.59-.93V230c0-4.93-2.79-9.4-9.3-9.4-5.21,0-8.37,2.7-8.37,6.88,0,6.05,8.46,7,17.21,10.8,9.58,4.28,13.77,10.23,13.77,18.42C303,266.9,296.74,274.15,285.38,275.64Z" style="fill:#fff;stroke:#263238;stroke-linecap:round;stroke-linejoin:round"></path><path d="M287.37,275.64a.7.7,0,0,0-.56.65l.09,4.19a1.38,1.38,0,0,1-1.58,1.58h-5.49a1.38,1.38,0,0,1-1.58-1.58l.19-4.28a.68.68,0,0,0-.56-.65c-10.61-1.3-16.75-7.72-16.75-16.65v-4a1.42,1.42,0,0,1,1.58-1.58h9.68c1,0,1.58.47,1.58,1.21v1.3c0,4.75,3.07,8.84,9.4,8.84,5.95,0,8.47-3.63,8.47-7.35,0-6.6-12.1-7.63-21-13.4-5.77-3.53-9.77-8.09-9.77-16,0-9.77,6-16.66,16.74-18.24a.67.67,0,0,0,.56-.65l-.18-5a1.39,1.39,0,0,1,1.58-1.59H285a1.42,1.42,0,0,1,1.58,1.59l-.09,4.93a.68.68,0,0,0,.56.65c11.16,1.21,17.49,8,17.49,17.59v3.07a1.42,1.42,0,0,1-1.58,1.58h-9.77c-1,0-1.58-.37-1.58-.93V230c0-4.93-2.79-9.4-9.31-9.4-5.21,0-8.37,2.7-8.37,6.88,0,6.05,8.47,7,17.21,10.8,9.59,4.28,13.78,10.23,13.78,18.42C305,266.9,298.72,274.15,287.37,275.64Z" style="fill:#263238"></path></g><g id="freepik--Floor--inject-2"><line x1="29" y1="445.82" x2="440" y2="445.82" style="fill:none;stroke:#263238;stroke-linecap:round;stroke-linejoin:round"></line></g></svg>