<svg xmlns="http://www.w3.org/2000/svg" xmlns:xlink="http://www.w3.org/1999/xlink" viewBox="0 0 130 130"><defs><mask id="mask" x="17.48" y="96.73" width="94.3" height="3.02" maskUnits="userSpaceOnUse"><g id="mask-524"><polygon id="path-523" points="111.78 99.75 17.48 99.75 17.48 96.73 111.78 96.73 111.78 99.75" style="fill:#fff;fill-rule:evenodd"/></g></mask><mask id="mask-2" x="15" y="38" width="99.97" height="61.75" maskUnits="userSpaceOnUse"><g id="mask-526"><polygon id="path-525" points="15 99.75 114.97 99.75 114.97 38 15 38 15 99.75" style="fill:#fff;fill-rule:evenodd"/></g></mask><mask id="mask-18" x="15" y="38" width="99.97" height="61.75" maskUnits="userSpaceOnUse"><g id="mask-558"><polygon id="path-557" points="15 99.75 114.97 99.75 114.97 38 15 38 15 99.75" style="fill:#fff;fill-rule:evenodd"/></g></mask></defs><g id="Layer_2" data-name="Layer 2"><g id="Layer_1-2" data-name="Layer 1"><g id="pickup"><circle id="Oval-5" cx="65" cy="65" r="65" style="fill:#f0f0f0"/><g id="Page-1"><g id="Group-3"><g id="Fill-1-Clipped"><g style="mask:url(#mask)"><path id="Fill-1" d="M111.78,98.24c0,.83-21.11,1.51-47.15,1.51s-47.15-.68-47.15-1.51,21.11-1.51,47.15-1.51,47.15.67,47.15,1.51" style="fill:#bdbdbd"/></g></g></g><g id="Fill-4-Clipped"><g style="mask:url(#mask-2)"><polygon id="Fill-4" points="21.11 88.05 82.85 88.05 82.85 84.48 21.11 84.48 21.11 88.05" style="fill:#212121"/></g></g><g id="Fill-6-Clipped"><g style="mask:url(#mask-2)"><path id="Fill-6" d="M49.53,92.12a1.06,1.06,0,0,0,1.08-1.26l-.74-4.63A1.57,1.57,0,0,0,48.38,85H33.86a1.56,1.56,0,0,0-1.48,1.27l-.75,4.63a1.06,1.06,0,0,0,1.08,1.26Z" style="fill:#212121"/></g></g><g id="Fill-7-Clipped"><g style="mask:url(#mask-2)"><path id="Fill-7" d="M34.42,91.38a6.71,6.71,0,1,0,6.7-6.71,6.7,6.7,0,0,0-6.7,6.71" style="fill:#212121"/></g></g><g id="Fill-8-Clipped"><g style="mask:url(#mask-2)"><path id="Fill-8" d="M38.09,91.38a3,3,0,1,0,3-3,3,3,0,0,0-3,3" style="fill:#fff"/></g></g><g id="Stroke-9-Clipped"><g style="mask:url(#mask-2)"><line id="Stroke-9" x1="72.12" y1="72.64" x2="85.83" y2="72.64" style="fill:none;stroke:#212121;stroke-linecap:round;stroke-linejoin:round"/></g></g><g id="Fill-10-Clipped"><g style="mask:url(#mask-2)"><path id="Fill-10" d="M16.28,69.52a.64.64,0,0,1-.64-.63V39.28a.64.64,0,0,1,.64-.64H64.17a.64.64,0,0,1,.64.64V68.89a.64.64,0,0,1-.64.63Z" style="fill:#fff"/></g></g><g id="Fill-11-Clipped"><g style="mask:url(#mask-2)"><path id="Fill-11" d="M64.17,38H16.28A1.28,1.28,0,0,0,15,39.28v29.6a1.28,1.28,0,0,0,1.28,1.28H64.17a1.28,1.28,0,0,0,1.28-1.28V39.28A1.28,1.28,0,0,0,64.17,38ZM16.28,68.88H64.17V39.28H16.28Z" style="fill:#212121"/></g></g><g id="Fill-12-Clipped"><g style="mask:url(#mask-2)"><path id="Fill-12" d="M16.28,82.72a.64.64,0,0,1-.64-.64V68.89a.64.64,0,0,1,.64-.64H64.17a.64.64,0,0,1,.64.64V82.08a.64.64,0,0,1-.64.64Z" style="fill:#fff"/></g></g><g id="Fill-13-Clipped"><g style="mask:url(#mask-2)"><path id="Fill-13" d="M64.17,67.61H16.28A1.28,1.28,0,0,0,15,68.89V82.08a1.28,1.28,0,0,0,1.28,1.28H64.17a1.28,1.28,0,0,0,1.28-1.28V68.89a1.28,1.28,0,0,0-1.28-1.28ZM16.28,82.08H64.17V68.89H16.28Z" style="fill:#212121"/></g></g><g id="Fill-14-Clipped"><g style="mask:url(#mask-2)"><polygon id="Fill-14" points="16.28 82.08 64.17 82.08 64.17 81.05 16.28 81.05 16.28 82.08" style="fill:#bdbdbd"/></g></g><g id="Fill-15-Clipped"><g style="mask:url(#mask-2)"><path id="Fill-15" d="M73.43,88.92c-5.09,0-5.13,0-5.38-.34a.68.68,0,0,1-.14-.53c0-.52.06-21.8.07-33a3.22,3.22,0,0,1,3.2-3.2l13.9,0a5.2,5.2,0,0,1,4.29,2.62l5.7,11.18a4.72,4.72,0,0,0,3.21,2.24l13,1.54a3.59,3.59,0,0,1,3.09,3.49V85.61a3.19,3.19,0,0,1-3.2,3.19H89.84c-1.4,0-3.7,0-5.1,0,0,0-6.54.08-11.31.08" style="fill:#fff"/></g></g><g id="Fill-16-Clipped"><g style="mask:url(#mask-2)"><path id="Fill-16" d="M85.09,51.21h0l-13.9,0a3.85,3.85,0,0,0-3.84,3.83c0,11.06,0,32.12-.08,33a1.29,1.29,0,0,0,.3.9c.46.55.48.57,5.89.57,4.72,0,11.23-.08,11.3-.09l5.1,0h21.28A3.84,3.84,0,0,0,115,85.61V72.92a4.2,4.2,0,0,0-3.66-4.13l-13-1.54a4.13,4.13,0,0,1-2.71-1.89l-5.7-11.18a5.88,5.88,0,0,0-4.85-3m0,1.28a4.58,4.58,0,0,1,3.71,2.27l5.7,11.18a5.38,5.38,0,0,0,3.7,2.58l13,1.54a3,3,0,0,1,2.53,2.86V85.61a2.56,2.56,0,0,1-2.56,2.55H89.84c-1.4,0-3.7,0-5.11,0,0,0-6.51.08-11.28.08a41.94,41.94,0,0,1-4.91-.12c0-.22.08-33.08.08-33.08a2.59,2.59,0,0,1,2.56-2.57l13.9,0h0" style="fill:#212121"/></g></g><g id="Fill-17-Clipped"><g style="mask:url(#mask-2)"><path id="Fill-17" d="M76.13,69.78a1.92,1.92,0,0,1-1.92-1.91v-10A1.92,1.92,0,0,1,76.13,56l7.56,0a2.92,2.92,0,0,1,2.42,1.5l5.1,10.24a1.36,1.36,0,0,1-1.28,2.06Z" style="fill:#fff"/></g></g><g id="Fill-18-Clipped"><g style="mask:url(#mask-2)"><path id="Fill-18" d="M83.69,55.34h0l-7.56,0a2.56,2.56,0,0,0-2.56,2.56v10a2.56,2.56,0,0,0,2.56,2.55h13.8a2,2,0,0,0,1.86-3L86.68,57.19a3.56,3.56,0,0,0-3-1.85m0,1.28a2.25,2.25,0,0,1,1.85,1.14L90.64,68a.73.73,0,0,1-.71,1.14H76.13a1.28,1.28,0,0,1-1.28-1.27v-10a1.29,1.29,0,0,1,1.28-1.28l7.56,0h0" style="fill:#212121"/></g></g><g id="Fill-19-Clipped"><g style="mask:url(#mask-2)"><path id="Fill-19" d="M80.12,64.94a1.29,1.29,0,0,1-1.28-1.28V59.81a1.29,1.29,0,0,1,1.28-1.28h2.63a2.22,2.22,0,0,1,1.84,1.14l2.06,4.12a.73.73,0,0,1-.71,1.15Z" style="fill:#bdbdbd"/></g></g><g id="Fill-20-Clipped"><g style="mask:url(#mask-2)"><path id="Fill-20" d="M113.69,77.71a.65.65,0,0,1-.58-.37l-3.17-6.68a.64.64,0,0,1,.15-.74.65.65,0,0,1,.75-.09L114,71.62a.63.63,0,0,1,.33.55v4.9a.65.65,0,0,1-.5.63h-.14" style="fill:#fff"/></g></g><g id="Fill-21-Clipped"><g style="mask:url(#mask-18)"><path id="Fill-21" d="M110.52,69.11a1.32,1.32,0,0,0-.87.34,1.27,1.27,0,0,0-.28,1.48l3.16,6.69a1.29,1.29,0,0,0,1.16.73,1.33,1.33,0,0,0,.28,0,1.28,1.28,0,0,0,1-1.25v-4.9a1.28,1.28,0,0,0-.65-1.11l-3.17-1.79a1.26,1.26,0,0,0-.63-.16m0,1.28,3.17,1.78v4.9l-3.17-6.68" style="fill:#212121"/></g></g><g id="Stroke-22-Clipped"><g style="mask:url(#mask-2)"><line id="Stroke-22" x1="71.94" y1="75.56" x2="85.77" y2="75.56" style="fill:none;stroke:#212121;stroke-linecap:round;stroke-linejoin:round"/></g></g><g id="Fill-23-Clipped"><g style="mask:url(#mask-2)"><path id="Fill-23" d="M106.91,88.19h5.29a2,2,0,0,0,2-2V83.37H101.55Z" style="fill:#212121"/></g></g><g id="Fill-24-Clipped"><g style="mask:url(#mask-2)"><path id="Fill-24" d="M108.24,92.12a1.1,1.1,0,0,0,1.11-1.27l-.82-6.22a1.5,1.5,0,0,0-1.44-1.26H92.57a1.5,1.5,0,0,0-1.45,1.26l-.82,6.22a1.1,1.1,0,0,0,1.12,1.27Z" style="fill:#212121"/></g></g><g id="Fill-25-Clipped"><g style="mask:url(#mask-2)"><path id="Fill-25" d="M93.12,91.38a6.71,6.71,0,1,0,6.71-6.71,6.7,6.7,0,0,0-6.71,6.71" style="fill:#212121"/></g></g><g id="Fill-26-Clipped"><g style="mask:url(#mask-2)"><path id="Fill-26" d="M96.8,91.38a3,3,0,1,0,3-3,3,3,0,0,0-3,3" style="fill:#fff"/></g></g><g id="Stroke-27-Clipped"><g style="mask:url(#mask-2)"><line id="Stroke-27" x1="18.05" y1="75.56" x2="62.4" y2="75.56" style="fill:none;stroke:#212121;stroke-linecap:round;stroke-linejoin:round"/></g></g><g id="Fill-28-Clipped"><g style="mask:url(#mask-2)"><polygon id="Fill-28" points="21.11 85.19 31.09 85.19 31.09 82.67 21.11 82.67 21.11 85.19" style="fill:#212121"/></g></g><g id="Fill-29-Clipped"><g style="mask:url(#mask-2)"><polygon id="Fill-29" points="56.49 85.19 65.5 85.19 65.5 82.67 56.49 82.67 56.49 85.19" style="fill:#212121"/></g></g></g></g></g></g></svg>