<svg xmlns="http://www.w3.org/2000/svg" viewBox="0 0 500 372.56"><g id="Layer_2" data-name="Layer 2"><g id="Layer_1-2" data-name="Layer 1"><g id="freepik--background-complete--inject-8"><rect y="327.4" width="500" height="0.25" style="fill:#ebebeb"/><rect x="416.78" y="343.49" width="18.89" height="0.25" style="fill:#ebebeb"/><rect x="293.05" y="341.75" width="29.47" height="0.25" style="fill:#ebebeb"/><rect x="368.67" y="334.21" width="47.11" height="0.25" style="fill:#ebebeb"/><rect x="52.46" y="335.89" width="10.97" height="0.25" style="fill:#ebebeb"/><rect x="72.33" y="335.89" width="38.56" height="0.25" style="fill:#ebebeb"/><rect x="171" y="340.11" width="54.15" height="0.25" style="fill:#ebebeb"/><path d="M237,282.8H43.91a5.71,5.71,0,0,1-5.7-5.71V5.66A5.71,5.71,0,0,1,43.91,0H237a5.71,5.71,0,0,1,5.71,5.71h0V277.09A5.71,5.71,0,0,1,237,282.8ZM43.91.2a5.46,5.46,0,0,0-5.45,5.46V277.09a5.46,5.46,0,0,0,5.45,5.46H237a5.48,5.48,0,0,0,5.46-5.46V5.66A5.48,5.48,0,0,0,237,.2Z" style="fill:#ebebeb"/><path d="M453.31,282.8H260.21a5.73,5.73,0,0,1-5.71-5.71V5.66A5.72,5.72,0,0,1,260.21,0h193.1A5.71,5.71,0,0,1,459,5.66V277.09A5.7,5.7,0,0,1,453.31,282.8ZM260.21.2a5.48,5.48,0,0,0-5.46,5.46V277.09a5.48,5.48,0,0,0,5.46,5.46h193.1a5.48,5.48,0,0,0,5.46-5.46V5.66A5.48,5.48,0,0,0,453.31.2Z" style="fill:#ebebeb"/><path d="M296.76,20.34l-.85,1.71a.68.68,0,0,1-.51.37l-1.89.28a.69.69,0,0,0-.58.77.67.67,0,0,0,.2.39l1.37,1.34a.71.71,0,0,1,.2.6l-.33,1.88a.68.68,0,0,0,1,.72l1.69-.89a.72.72,0,0,1,.64,0l1.69.89a.69.69,0,0,0,.93-.26.73.73,0,0,0,.07-.46l-.32-1.88a.64.64,0,0,1,.2-.6l1.36-1.34a.68.68,0,0,0,0-1,.64.64,0,0,0-.39-.2l-1.89-.28a.68.68,0,0,1-.51-.37L298,20.34a.69.69,0,0,0-.9-.34A.7.7,0,0,0,296.76,20.34Z" style="fill:#f5f5f5"/><path d="M429.16,251.42l-1.28.94a.57.57,0,0,1-.52.08l-1.51-.51a.56.56,0,0,0-.72.34.59.59,0,0,0,0,.37l.5,1.51a.57.57,0,0,1-.08.52l-1,1.27a.58.58,0,0,0,.13.81.57.57,0,0,0,.33.11h1.59a.55.55,0,0,1,.47.25l.91,1.3a.57.57,0,0,0,.8.12.63.63,0,0,0,.2-.28l.48-1.51a.56.56,0,0,1,.37-.38l1.52-.46a.56.56,0,0,0,.37-.72.51.51,0,0,0-.2-.28l-1.29-.92a.52.52,0,0,1-.24-.47v-1.59a.56.56,0,0,0-.83-.5Z" style="fill:#f0f0f0"/><path d="M420.37,33.7,420,35.57a.66.66,0,0,1-.41.48l-1.77.71a.69.69,0,0,0-.39.88.74.74,0,0,0,.29.34l1.64,1a.67.67,0,0,1,.34.54l.12,1.91a.69.69,0,0,0,.75.63.72.72,0,0,0,.39-.17l1.43-1.26a.7.7,0,0,1,.62-.15l1.85.47a.67.67,0,0,0,.83-.48.69.69,0,0,0,0-.45l-.76-1.76a.7.7,0,0,1,0-.63l1-1.62a.68.68,0,0,0-.28-.92.67.67,0,0,0-.37-.08l-1.9.18a.67.67,0,0,1-.59-.25l-1.22-1.46a.68.68,0,0,0-1-.09A.66.66,0,0,0,420.37,33.7Z" style="fill:#f5f5f5"/><path d="M92.16,99.81l-.8.81a.37.37,0,0,1-.36.11l-1.12-.19a.42.42,0,0,0-.48.33.46.46,0,0,0,0,.26l.53,1a.42.42,0,0,1,0,.38l-.54,1a.41.41,0,0,0,.15.55.44.44,0,0,0,.28,0l1.12-.19a.43.43,0,0,1,.36.12l.8.83a.41.41,0,0,0,.57,0,.39.39,0,0,0,.12-.25l.17-1.12a.41.41,0,0,1,.23-.31l1-.5a.41.41,0,0,0,.18-.55.39.39,0,0,0-.18-.18l-1-.51a.42.42,0,0,1-.22-.31L92.86,100a.41.41,0,0,0-.49-.31A.45.45,0,0,0,92.16,99.81Z" style="fill:#f5f5f5"/><path d="M391.85,240.7l-.51,1a.41.41,0,0,1-.31.23l-1.13.16a.41.41,0,0,0-.34.47.4.4,0,0,0,.12.23l.81.79a.42.42,0,0,1,.12.37l-.19,1.12a.41.41,0,0,0,.34.47.43.43,0,0,0,.25,0l1-.53a.42.42,0,0,1,.38,0l1,.53a.41.41,0,0,0,.55-.18.43.43,0,0,0,0-.25l-.19-1.12a.42.42,0,0,1,.12-.37l.82-.79a.41.41,0,0,0,0-.58.39.39,0,0,0-.24-.12l-1.13-.16a.43.43,0,0,1-.31-.23l-.5-1a.41.41,0,0,0-.56-.15A.54.54,0,0,0,391.85,240.7Z" style="fill:#f5f5f5"/><path d="M137.35,20.45l-.13,1.13a.38.38,0,0,1-.21.32l-1,.54a.41.41,0,0,0-.18.55.39.39,0,0,0,.18.18l1,.47a.45.45,0,0,1,.24.3l.2,1.12a.41.41,0,0,0,.71.2l.76-.84a.41.41,0,0,1,.36-.13l1.13.15a.41.41,0,0,0,.46-.35.47.47,0,0,0-.05-.26l-.57-1a.42.42,0,0,1,0-.38l.5-1a.41.41,0,0,0-.2-.54.39.39,0,0,0-.26,0l-1.11.23a.42.42,0,0,1-.37-.1L138,20.2a.4.4,0,0,0-.57.08A.38.38,0,0,0,137.35,20.45Z" style="fill:#ebebeb"/><path d="M106.28,254.18l.24,2a.73.73,0,0,1-.24.61l-1.48,1.31a.71.71,0,0,0,0,1,.7.7,0,0,0,.38.22l1.94.38a.7.7,0,0,1,.51.42l.79,1.81a.7.7,0,0,0,.92.37.73.73,0,0,0,.34-.31l1-1.72a.69.69,0,0,1,.56-.36l2-.19a.7.7,0,0,0,.64-.75.7.7,0,0,0-.19-.43l-1.34-1.45a.71.71,0,0,1-.17-.64l.43-1.92a.71.71,0,0,0-.53-.85.69.69,0,0,0-.47,0l-1.79.83a.7.7,0,0,1-.66,0l-1.7-1a.7.7,0,0,0-1,.15A.72.72,0,0,0,106.28,254.18Z" style="fill:#ebebeb"/><path d="M193.54,44.89a1.33,1.33,0,1,0,1.33-1.33h0a1.32,1.32,0,0,0-1.32,1.32Z" style="fill:#f0f0f0"/><path d="M151.3,302.67a1.33,1.33,0,1,0,1.33-1.33h0A1.34,1.34,0,0,0,151.3,302.67Z" style="fill:#f5f5f5"/><path d="M177.67,20.92a4.86,4.86,0,1,0,4.86-4.86,4.87,4.87,0,0,0-4.86,4.86Z" style="fill:#f0f0f0"/><path d="M430.81,94.25a2.69,2.69,0,1,0,2.69-2.69A2.68,2.68,0,0,0,430.81,94.25Z" style="fill:#f0f0f0"/><circle cx="56.08" cy="257.86" r="1.35" style="fill:#f0f0f0"/><path d="M384.7,308.68a2.43,2.43,0,1,0,2.43-2.43h0a2.42,2.42,0,0,0-2.42,2.42Z" style="fill:#f0f0f0"/><path d="M64.37,69.65a30.24,30.24,0,0,0,41.4-10.73h0c.35-.59.68-1.19,1-1.79a37.36,37.36,0,0,1-45.53-37.5,30.26,30.26,0,0,0,3.16,50Z" style="fill:#f5f5f5"/><path d="M58.66,42.48a6.84,6.84,0,0,0,5.74,1.13,18,18,0,0,1-8.55-6.28A6.87,6.87,0,0,0,58.66,42.48Z" style="fill:#f0f0f0"/><path d="M88.31,66.48a6.89,6.89,0,0,0,4.36-3.91,17.53,17.53,0,0,1-4.85,2.29,18,18,0,0,1-5.31.76A6.91,6.91,0,0,0,88.31,66.48Z" style="fill:#f0f0f0"/><path d="M64.52,54.87a6.84,6.84,0,0,0,5.17-2.74,17.14,17.14,0,0,1-5.25,1,17.47,17.47,0,0,1-5.34-.55A6.87,6.87,0,0,0,64.52,54.87Z" style="fill:#f0f0f0"/><path d="M72.79,66.2a6.88,6.88,0,0,0,5.3,2.49,17.18,17.18,0,0,1-4-3.56,17.51,17.51,0,0,1-2.77-4.6A6.88,6.88,0,0,0,72.79,66.2Z" style="fill:#f0f0f0"/></g><g id="freepik--Shadow--inject-8"><ellipse id="freepik--path--inject-8" cx="250" cy="361.24" rx="193.89" ry="11.32" style="fill:#f5f5f5"/></g><g id="freepik--Globe--inject-8"><circle cx="273.28" cy="170.67" r="151.1" style="fill:#0674ed"/><circle cx="273.28" cy="170.67" r="151.1" style="fill:#fff;opacity:0.699999988079071;isolation:isolate"/><g style="opacity:0.20000000298023224"><path d="M420.88,203.15l-2.35-5.2-8.62-.94L403,192.69l-7.22-3.89-6-8.47-8.31-7.09-4.14,11.87,4.38,6.85,7.37,4.09,3.72,7.7,6.16,4.74,6.6,2.83-2.25,7.94L401,227.84l-1.67,9.5-9.19-.58-6.82,5.33-7.54,2.72-7.65-2.35-6.6-5.9-8.1-5.56-8.91-4.72-5-8.42-3.25-7.06-4.11-7.41L332,195l-.21-8.39-3.68-7.26-2.84,12.15-2.89,7.37.17,8.12-3.09,7.58-3.8,9-2,9,5.28,3.25,8.44.64-6.58,8.06-6,7.46-6.37,7.21-8,6.14-9.16,3.85-8.84,4.46-10.22,1.82-7.33,7.46-10.23,1.71-9.19,4.68L236,293l-10.17.1-7.1-3.57-10.1-.13,4.39-7.82,2.4-6.92,3-9.86L220,254.3l2-10.11,2.78-8.42,3.25-8.6-3-9.34,4.32-8.94-4.9-7.63L219,194.68l-7-5.4-4.38-7.36-3.33-7.49-2.44-7.94-1.24-8.6-2.93-9.13,7.91-7.47,4.72-9.09,8.29-5.2,7.94.77,9,1.06,8.88,1.76,9.71-1.58,7.54,7.89,9.73,3.1,8.67,5.06,8.61,5.19,8.71,5.17,6.16,8.66,9.4,4.25,8.78-1,8.53.79,8.4,1.82,10.08,3.21-3.18-12.34-3.16-10.34-6.4-3.2-5.24-7.13-7.54-2.83-7-3.18-.89-7.59L313,119l-1.82-8-9.64-4.56-10.28-2.23-9.2-1.76-6.72,5-8.82.62-9.71,1.48-11-9.54,6.66-6.42-.23-8.77,4.49-6.65,10.57-4.75,7.3-8.16,8.54,1.81,8.07,5.1H301l9.27-3.66,9.68,1.37,7.64-4.29,5.33-6.46,5.85-5.78,8.91-1.27,8.4,4.14h8.82l8.21,1.66,2.43,1.5h0A151.27,151.27,0,0,1,420.88,203.15Z" style="fill:#0674ed"/><polygon points="284.59 283.08 280.17 289.4 270.49 291.5 262.9 294.24 273.75 297.82 283.12 297.82 290.91 291.93 291.96 287.29 284.59 283.08" style="fill:#0674ed"/><path d="M171.39,282l-.18.09a151.39,151.39,0,0,1-41-62.82h0l-.75-3.93-1.25-2.44h0a150.26,150.26,0,0,1-1.46-79.15l1.83,6.64,2.2,9.32,5.57,8.72L136,168.62l4.75,8.91,1,9.72.62,8-1.15,7.92-4.61,7.39,2.9,9.59,4.71,8.27,2.9,7.16,1.21,9.86,5,6.88,2,8.44,5.64,6.57,3.9,7.47Z" style="fill:#0674ed"/><path d="M295.17,26.55,289.25,29l-7.56,4.34L274,37.42l-7.83,3.65-8.68,1.43-8.15,2.63-8.18-2.72-8.48-1.77-8.15-3.1-8.34.87-8.61,3.79-7,6.63-5.42,8.41-9.74,3.55-5.13,8.56-5.56,7.05-1.4,9.32-6.62,6.72L163.9,101l-5.83,7.11-2.32,8-7.53-1.1-8.28-1.57-5.68-1.92A151.15,151.15,0,0,1,293.07,20.84Z" style="fill:#0674ed"/></g><path d="M426.14,120.74c-22.94,19.55-74.38,11.93-86.9,7.81s7.48-1.89,17.54-4,13.81-10.86,28.94-4,15.08,8.86,21.51,1.32S439.14,109.67,426.14,120.74Z" style="fill:#fff"/><path d="M124.29,218.3c14.47,38.54,81,63.49,98.64,66.85s-7.68-7.2-18.33-16.34-9.3-22.13-31.91-24-23.88.6-26.57-12.66S116.09,196.47,124.29,218.3Z" style="fill:#fff"/><path d="M229.62,119.32c-40.42-8.23-78.94-32.6-82.51-45.86-2.11-7.82,3.71.11,10.28,2.56s20.66-6.24,24.66,4.19.58,16.12,11.72,19.88,18.33-1.31,24.7,7.59S240.66,121.57,229.62,119.32Z" style="fill:#fff"/><path d="M330.17,253.68c-55.06-3.35-110.62-28.42-117.83-45.31-4.25-10,4.94-.54,14.1,1.47s26.19-12.12,33.44.94,3.77,21.24,19.22,24.14,24-5.17,34.14,5.43S345.21,254.59,330.17,253.68Z" style="fill:#fff"/><path d="M364.6,296.77c-24,16.59-70.63,15.42-79.52,7.92-5.24-4.42,6.81-4.45,12.71-5.09s13.27-12.55,20.26-6.18,2.77,10,12.33,7.28,12.12-9.76,20.85-6.64S372.44,291.35,364.6,296.77Z" style="fill:#fff"/><path d="M334.44,77.89c29,7.66,60.26.84,65.6-9.2,3.15-5.92-2.51-1.26-7.47-1.55s-12.49-12.85-17.5-5.39-4,13.58-12.28,12.74-12-7.79-18.28-2.49S326.52,75.8,334.44,77.89Z" style="fill:#fff"/></g><g id="freepik--Character--inject-8"><polygon points="193.02 192.76 188.2 188.64 197.31 177.07 202.14 181.19 193.02 192.76" style="fill:#7f3e3b"/><path d="M190,186.69l5.35,4.41a.51.51,0,0,1,.12.66l-2.84,5a1,1,0,0,1-1.38.33l-.09-.07c-1.89-1.63-4.58-4-7-6-2.83-2.34-2.64-2-6-4.73-2-1.66-.79-4.07.21-3.55,4.56,2.35,5,2.63,10.08,3.4A3.09,3.09,0,0,1,190,186.69Z" style="fill:#263238"/><polygon points="197.31 177.08 192.62 183.04 197.44 187.16 202.14 181.19 197.31 177.08" style="opacity:0.20000000298023224;isolation:isolate"/><path d="M229.54,159.46c33.21,2.41,41.78,8.92,57.17,3.45l1.45-14.35-19.83-7.51s-23.92-3.3-42.37,1.62c-19.18,5.11-32.23,35.81-32.23,35.81l8.28,6S208.37,166.79,229.54,159.46Z"/><polygon points="194.17 175.45 192.06 179.38 200.65 186.63 203.61 183.71 194.17 175.45" style="fill:#263238"/><path d="M197.53,259.12l-29.6-4.49a18,18,0,0,1-15.07-20.51,17.58,17.58,0,0,1,.56-2.49h0a18,18,0,0,1,22.49-11.93,17.5,17.5,0,0,1,2.4.93l27.07,12.79a7.45,7.45,0,0,1,3.94,8.91L205.77,254A7.45,7.45,0,0,1,197.53,259.12Z" style="fill:#0674ed"/><path d="M197.53,259.12l-29.6-4.49a18,18,0,0,1-15.07-20.51,17.58,17.58,0,0,1,.56-2.49h0a18,18,0,0,1,22.49-11.93,17.5,17.5,0,0,1,2.4.93l27.07,12.79a7.45,7.45,0,0,1,3.94,8.91L205.77,254A7.45,7.45,0,0,1,197.53,259.12Z" style="opacity:0.4000000059604645;isolation:isolate"/><path d="M188.25,179.57c5.48,1.19,13.48,2,15-.74,8.89-16.17,22-42,24.86-47.78.44-.86-.1-1.64-1.52-2.25l-19.41-8.37c-4.06-1.49-9-.18-12.72,1.25-22.83,8.84-65.06,27-74.78,34.3C130,165.42,169.61,175.51,188.25,179.57Z" style="fill:#0674ed"/><path d="M188.25,179.57c5.48,1.19,13.48,2,15-.74,8.89-16.17,22-42,24.86-47.78.44-.86-.1-1.64-1.52-2.25l-19.41-8.37c-4.06-1.49-9-.18-12.72,1.25-22.83,8.84-65.06,27-74.78,34.3C130,165.42,169.61,175.51,188.25,179.57Z" style="opacity:0.20000000298023224;isolation:isolate"/><path d="M355.19,204.8c2.14,0,4.47-.5,2.57-2.5-11.39-11.94-29.83-30.88-33.93-35.08a4.64,4.64,0,0,0-2.17-1.29l-11-2.94c-2.09-.45-2.06,1.09-1.67,2.54,2.41,8.94,8.36,26.68,12.3,32.85C331.25,203.25,347.93,204.62,355.19,204.8Z" style="fill:#0674ed"/><path d="M355.19,204.8c2.14,0,4.47-.5,2.57-2.5-11.39-11.94-29.83-30.88-33.93-35.08a4.64,4.64,0,0,0-2.17-1.29l-11-2.94c-2.09-.45-2.06,1.09-1.67,2.54,2.41,8.94,8.36,26.68,12.3,32.85C331.25,203.25,347.93,204.62,355.19,204.8Z" style="opacity:0.20000000298023224;isolation:isolate"/><path d="M172.5,126.36c-3.09-.68-6.15-1.31-9.08-1.87l.19-1c2.94.56,6,1.19,9.1,1.87Z" style="fill:#0674ed"/><path d="M156.13,123.17a198.31,198.31,0,0,0-32.62-3.12,107.19,107.19,0,0,0-13.16.75l-.12-1a113.32,113.32,0,0,1,13.28-.75,200.37,200.37,0,0,1,32.79,3.13Z" style="fill:#0674ed"/><path d="M87.89,130.54c47.24-29,175,29.35,243.78,44.58,31.94,7.08,12.39,33.06-2.92,36.46s-202.86,16-264.53-12S65.77,144.14,87.89,130.54Z" style="fill:#0674ed"/><path d="M324.81,212.2a41.75,41.75,0,0,0,36.34-27.85c5.22-14.57,8.92-25,8.92-25h0a28.87,28.87,0,0,0-27-.92l-35.39,17.22Z" style="fill:#0674ed"/><path d="M323.1,191.75c2.37,5.91,9.21,12.93,14.26,17.56a40.94,40.94,0,0,0,14.21-9.6Z" style="opacity:0.20000000298023224;isolation:isolate"/><path d="M343.37,196.42a164.37,164.37,0,0,1-19.09.67c-6.38-.11-12.76-.63-19.12-1.28s-12.69-1.66-19-2.74c-25.25-4.53-49.94-11.85-74.29-20.21-6.09-2.08-12.17-4.23-18.3-6.4-3.09-1.06-6.11-2.15-9.39-3.15-1.71-.44-3.4-1-5.15-1.32l-2.63-.48a23.31,23.31,0,0,0-2.64-.38,57.31,57.31,0,0,0-21.34,1.6,66,66,0,0,0-10,3.73,68.48,68.48,0,0,0-9.23,5.27L131,173.27l-2.11,1.62-2,1.65c-.58.49-1.17,1-1.78,1.46-2.38,1.92-4.88,3.77-7.42,5.56a173.89,173.89,0,0,1-15.87,9.84A115.32,115.32,0,0,1,85.16,201a50.74,50.74,0,0,1-8.22,2.25c-.78.14-1.55.25-2.29.31a196,196,0,0,0,25.53,6.15c2.83-1.44,5.58-3,8.29-4.58a178.54,178.54,0,0,0,16.72-11.21c2.69-2,5.32-4.13,7.9-6.35.64-.55,1.28-1.13,1.91-1.69l1.7-1.51,1.68-1.39,1.75-1.33a58.69,58.69,0,0,1,7.44-4.61,52.65,52.65,0,0,1,8-3.31,46,46,0,0,1,17.09-1.89,15.69,15.69,0,0,1,2.16.24l2.16.3c1.44.24,2.86.65,4.29,1,2.94.78,6,1.76,9.1,2.7,6.16,1.93,12.36,3.89,18.58,5.78,24.88,7.56,50.23,14.12,76.13,17.82,6.48.88,13,1.64,19.5,2.13s13.08.73,19.65.61A165.87,165.87,0,0,0,343.9,201c2.57-.35,5.13-.78,7.67-1.27a39.69,39.69,0,0,0,4.28-5.14C351.73,195.39,347.56,196,343.37,196.42Z" style="fill:#fff;opacity:0.20000000298023224;isolation:isolate"/><path d="M231.34,212.2s-46.9-.25-91.47-4.5c-1-.1-3.87-5.17-6.92-6.43-.33,3.52.29,5.76-1.48,5.57-25.78-2.79-57-9.18-69.18-15.64-6.2-22.18-19.87-28.85-19.87-28.85-8.54,11.41-6.78,24.27,21.8,37.22,61.67,28,249.22,15.4,264.53,12Z" style="opacity:0.20000000298023224;isolation:isolate"/><path d="M139.88,193.34a7,7,0,0,0-4.47,12.36c30.83,24.82,88.43,64.38,102.7,74.13a19.65,19.65,0,0,0,7.19,3l35,6.79c4.19.81,5.85-1.54,4.09-4.9-10.88-20.75-35.94-62.89-50.49-77.19C201.4,196.23,162.42,193.74,139.88,193.34Z" style="fill:#0674ed"/><path d="M233.7,271.5l-94.23-73.23c-3.08-2.39-7.57.62-6.3,4.3a6.88,6.88,0,0,0,2.24,3.13c30.83,24.82,88.43,64.38,102.7,74.13a19.65,19.65,0,0,0,7.19,3l35,6.79c2.1.41,3.56,0,4.28-.89L253.13,281A52.21,52.21,0,0,1,233.7,271.5Z" style="opacity:0.20000000298023224;isolation:isolate"/><path d="M320.33,186.45a2.43,2.43,0,0,0-.91,4.5c11.94,7,33.89,17.74,39.33,20.38a6.72,6.72,0,0,0,2.64.66l12.46.55c1.49.07,1.95-.83,1.16-1.9-4.82-6.62-15.65-19.91-21.41-24.11C341.76,184.29,328.15,185.43,320.33,186.45Z" style="fill:#0674ed"/><path d="M356.8,208.67l-36.36-20.5a1.4,1.4,0,0,0-1.9.55,1.37,1.37,0,0,0-.05,1.26,2.31,2.31,0,0,0,.93,1c11.94,7,33.89,17.74,39.33,20.38a6.72,6.72,0,0,0,2.64.66l12.46.55a1.47,1.47,0,0,0,1.44-.52L364,210.94A18.13,18.13,0,0,1,356.8,208.67Z" style="opacity:0.20000000298023224;isolation:isolate"/><path d="M90.29,129.19q-1.23.63-2.4,1.35c-3,1.82-6.64,3.88-10.66,6.16C79.1,142.08,85,148.36,92.49,154l13.85-10.62C99.4,139,93.5,133.93,90.29,129.19Z" style="fill:#fff"/><path d="M111.28,146.26,98.93,158.37a93.54,93.54,0,0,0,9.77,5.36,8.35,8.35,0,0,0,11.09-4,5.16,5.16,0,0,0,.21-.49h0a8.35,8.35,0,0,0-4.17-10.55C114.32,147.89,112.79,147.09,111.28,146.26Z" style="fill:#fff"/><path d="M380.6,183c23.53,5,84.21,15,53.18-22.22,35.9,36.61-2.25,42.14-35,44A20.23,20.23,0,0,1,382.49,198a64.65,64.65,0,0,1-6.47-8.62A4.29,4.29,0,0,1,380.6,183Z" style="fill:#0674ed"/><path d="M380.6,183c23.53,5,84.21,15,53.18-22.22,35.9,36.61-2.25,42.14-35,44A20.23,20.23,0,0,1,382.49,198a64.65,64.65,0,0,1-6.47-8.62A4.29,4.29,0,0,1,380.6,183Z" style="fill:#fff;opacity:0.20000000298023224;isolation:isolate"/><path d="M291.31,69.29a6,6,0,0,1-1.15,4.41c-1.28,1.66-3.19.82-3.89-1s-.73-4.54,1.07-5.54a2.7,2.7,0,0,1,4,2.13Z" style="fill:#7f3e3b"/><path d="M291.31,69.29a6,6,0,0,1-1.15,4.41c-1.28,1.66-3.19.82-3.89-1s-.73-4.54,1.07-5.54a2.7,2.7,0,0,1,4,2.13Z" style="opacity:0.20000000298023224;isolation:isolate"/><path d="M288,69.88c-4.13-1.61-.44-10.39,4-10.14.6-3.5,6.88-3.68,11-1.41a19.57,19.57,0,0,1,7.72,7.9c2.95,4.93,7.92,5.39,7.62,7.16-.4,2.31-5.09-.93-6.55-.18s6.5,2.35,6.42,4.76-5.25-.65-6.87-1.31-2.87.71.86,2.9c4.91,2.87,2.05,4.33.1,2.87-3.82-2.88-7.88-1.76-4.92.82s-.5,3.46-2.79.67-4,2-8.75-1.79S289.52,77,288,69.88Z" style="fill:#263238"/><polygon points="213.31 206.4 203.21 217.13 198.32 212.06 208.42 201.34 213.31 206.4" style="fill:#7f3e3b"/><path d="M200.05,210.82l5.9,3.61a.47.47,0,0,1,.2.62l-2.36,5.19a1,1,0,0,1-1.32.51l-.14-.08c-2.11-1.34-2.68-1.91-5.36-3.55-3.13-1.91-5.33-2.23-9.06-4.37-2.26-1.29-1.35-3.8-.27-3.46,3.45,1,8.67,1.61,10.8,1.13A2.19,2.19,0,0,1,200.05,210.82Z" style="fill:#263238"/><polygon points="213.31 206.41 208.1 211.94 203.21 206.87 208.41 201.34 213.31 206.41" style="opacity:0.20000000298023224;isolation:isolate"/><path d="M247.85,180.8c19.86-11.17,54.75-7.27,54.75-27.48l-22-7.65s-29,7.58-43.52,20.58c-15.11,13.52-32,36-32,36l7.1,7.36S231,195.58,247.85,180.8Z" style="fill:#263238"/><polygon points="204.98 199.84 202.75 203.67 211.55 211.03 214.66 208.21 204.98 199.84" style="fill:#fff"/><path d="M284.8,98.13c-2.19.83-4.29,1.47-6.46,2.13s-4.34,1.21-6.57,1.7a68.26,68.26,0,0,1-6.83,1.22,33.06,33.06,0,0,1-7.57.21h-.25a3.83,3.83,0,0,1-1.78-.67,7.84,7.84,0,0,1-2.4-2.69,8.68,8.68,0,0,1-1-2.74,15.16,15.16,0,0,1-.08-4.41,32.48,32.48,0,0,1,1.74-7.07,58.9,58.9,0,0,1,2.65-6.29,61,61,0,0,1,3.24-5.92,2.4,2.4,0,0,1,4.33,2v.07c-.61,2-1.25,4-1.78,6.07s-1.06,4-1.45,6a30.82,30.82,0,0,0-.68,5.67,6.81,6.81,0,0,0,.25,2.06c0,.08.07.22.11.23s0,.1.06,0a.59.59,0,0,0-.24-.3l-2-.7a28.64,28.64,0,0,0,5.46-.62c2-.38,4-.86,6-1.4s4-1.12,6.05-1.74,4.06-1.28,6-1.89h.07a4.81,4.81,0,0,1,3.17,9.08Z" style="fill:#7f3e3b"/><path d="M262.25,78.82l6.18-2.62-5.14-5.75s-5.78,2.86-4.34,6.27Z" style="fill:#7f3e3b"/><path d="M270.88,71.88l-2.23-2.65a1.84,1.84,0,0,0-2.3-.44l-3.06,1.66,5.14,5.75,2.16-1.67a1.84,1.84,0,0,0,.33-2.59Z" style="fill:#7f3e3b"/><path d="M285.66,87c-6.22-.82-16.23,5.14-16.23,5.14a44,44,0,0,0,2.46,13.73,32.2,32.2,0,0,0,10.82-3.68C284.57,101.21,293,88,285.66,87Z" style="fill:#f0f0f0"/><path d="M285,86.93a101.49,101.49,0,0,1,24.34,5.42,9.1,9.1,0,0,1,5.85,9,183.45,183.45,0,0,1-10.08,52.47c-3.52.13-18.64-1.34-26-4C278.3,149.53,278,146,278,146a9.79,9.79,0,0,0-3.83.59,16.54,16.54,0,0,1-6.24-5.35c3.61-5.71,5.31-18.82,6.37-29.91.12-4.37.31-12.31,2.38-16.76C278.53,90.34,280.32,86.57,285,86.93Z" style="fill:#fff"/><path d="M291,99.35c-.13.39-.44.64-.67.55s-.33-.46-.2-.84.44-.64.68-.55S291.1,99,291,99.35Z" style="fill:#0674ed"/><path d="M301.61,78.06c-.74,4.7-1.37,10.22,1.06,13.74-2.12,2.77-6.78,4.76-11.34,5.62-2.66-3.6-2.1-6.84-.69-8.65,2.74-1.7,2.51-4.56,2.54-6.54Z" style="fill:#7f3e3b"/><path d="M291.33,97.42a5.71,5.71,0,0,1-.93-2.74c0-1.43-2.58-.64-2.58-.64A9.64,9.64,0,0,0,291.33,97.42Z" style="fill:#e0e0e0"/><path d="M291.33,97.42a2.59,2.59,0,0,1,2.39-1.76,8.36,8.36,0,0,1,3.67.58S293.77,97.64,291.33,97.42Z" style="fill:#e0e0e0"/><path d="M299.61,79.87c.06-.3.1-.6.13-.89l-6.56,3.26a11.62,11.62,0,0,1-.46,4.06C295.78,85.35,299.11,82.71,299.61,79.87Z" style="opacity:0.20000000298023224;isolation:isolate"/><path d="M305.25,72c-2.53,5.76-3.73,9.26-7.81,11.16-6.15,2.86-12.42-2.6-11.65-9,.69-5.78,4.72-14.22,11.34-14.39A8.68,8.68,0,0,1,305.25,72Z" style="fill:#7f3e3b"/><path d="M292.72,60.33c-.92,3.78,9.95,5.67,9.95,5.67s-5.93,10,1,9.57,7.29-8.76,1.91-13.86C301.8,58.13,295.42,56.9,292.72,60.33Z" style="fill:#263238"/><path d="M288.78,74.84a37.34,37.34,0,0,1,7.13,1,4.5,4.5,0,0,1-5.15,1.91,2.35,2.35,0,0,1-2-2.61C288.74,75,288.75,74.94,288.78,74.84Z" style="fill:#263238"/><path d="M292.32,76.82a5,5,0,0,0-3.09.16,2.74,2.74,0,0,0,1.53.82,5,5,0,0,0,3.08-.15A2.67,2.67,0,0,0,292.32,76.82Z" style="fill:#ff5652"/><path d="M289,74.85a1,1,0,0,0,.6,1,28.35,28.35,0,0,0,4.69.57,1.63,1.63,0,0,0,1.38-.52A41.71,41.71,0,0,0,289,74.85Z" style="fill:#fff"/><path d="M305.58,77.12a5.88,5.88,0,0,1-4.25,1.63c-2.1-.08-2.53-2.12-1.43-3.76s3.28-3.24,5.13-2.35a2.7,2.7,0,0,1,.55,4.48Z" style="fill:#7f3e3b"/><path d="M297.37,70.41c-.17.48-.57.77-.89.66s-.42-.61-.24-1.09.57-.77.89-.65S297.55,69.93,297.37,70.41Z" style="fill:#263238"/><path d="M291.4,68.16c-.18.48-.58.77-.89.65s-.42-.6-.25-1.08.58-.78.89-.66S291.57,67.68,291.4,68.16Z" style="fill:#263238"/><path d="M293.37,68.93A18.61,18.61,0,0,1,289.45,72a3,3,0,0,0,2.08,1.37Z" style="fill:#630f0f"/><path d="M299.6,68.36a.38.38,0,0,0,.15,0A.3.3,0,0,0,300,68s0,0,0,0a3,3,0,0,0-1.67-2.2A.3.3,0,0,0,298,66a.28.28,0,0,0,.14.38h0a2.45,2.45,0,0,1,1.31,1.75A.3.3,0,0,0,299.6,68.36Z" style="fill:#263238"/><path d="M290.07,65a.34.34,0,0,0,.28,0,2.35,2.35,0,0,1,2.12-.43.3.3,0,0,0,.38-.17h0a.3.3,0,0,0-.17-.38h0a2.94,2.94,0,0,0-2.68.5.29.29,0,0,0-.07.4v0A.27.27,0,0,0,290.07,65Z" style="fill:#263238"/><path d="M315.7,99.76c.56,3,.94,5.8,1.33,8.71s.63,5.82.85,8.76.34,5.91.31,8.93a48.24,48.24,0,0,1-.9,9.44l-.05.23a3.67,3.67,0,0,1-.77,1.6,54.52,54.52,0,0,1-4.85,5c-1.65,1.52-3.39,2.9-5.12,4.27s-3.53,2.61-5.34,3.84-3.64,2.38-5.59,3.48a2.4,2.4,0,0,1-2.86-3.81h0l4.51-4.43c1.49-1.48,3-3,4.43-4.46a83.68,83.68,0,0,0,7.9-9.13l-.83,1.83a45.93,45.93,0,0,0,.25-7.69c-.12-2.71-.33-5.47-.6-8.23s-.63-5.55-1-8.33-.79-5.59-1.19-8.29v-.06a4.81,4.81,0,0,1,9.48-1.6Z" style="fill:#7f3e3b"/><path d="M309.67,92.51c9.4,3.88,8.34,17.19,8.34,17.19-3.43,4.34-7.24,7.73-12.21,8.15a15.38,15.38,0,0,1-4-10.75C301.84,101.79,302.8,89.68,309.67,92.51Z" style="fill:#fff"/><path d="M296.27,148.06l-6.4.39,2.6,7.25s5.76-1.06,5.69-4.21Z" style="fill:#7f3e3b"/><path d="M285.41,153.42l1.34,2.38a2.23,2.23,0,0,0,2.7,1l3-1.1-2.6-7.25-3.57,1.91a2.23,2.23,0,0,0-.89,3Z" style="fill:#7f3e3b"/><path d="M301.64,89.05c-.27,1.44-1.48,6.23-7.92,6.61,2.24.69,2.35,6.47,2.35,6.47s7-5.86,7.59-11.09C303.46,89.67,301.64,89.05,301.64,89.05Z" style="fill:#0674ed"/><path d="M292.4,86.73c-.26,1.4-2.39,3.77-2,8-2.25-.65-5.58,2.76-5.58,2.76a23.16,23.16,0,0,1,4.89-10.08A6.45,6.45,0,0,1,292.4,86.73Z" style="fill:#0674ed"/></g></g></g></svg>