<svg xmlns="http://www.w3.org/2000/svg" viewBox="0 0 327.75 131.99"><g id="Layer_2" data-name="Layer 2"><g id="Layer_1-2" data-name="Layer 1"><g id="Page-1"><g id="GooglePay_mark_800_gray" data-name="GooglePay mark 800 gray"><g id="GPay-logo"><g id="Pay"><path id="Shape" d="M155,64.51v38.73h-12.1V7.63H175a28.53,28.53,0,0,1,20.74,8.31,27.88,27.88,0,0,1,1.36,39l-1.36,1.37A28.84,28.84,0,0,1,175,64.51Zm0-45.14v33.4h20.3a15.71,15.71,0,0,0,11.95-5,17,17,0,0,0-.37-23.71,16.41,16.41,0,0,0-11.58-4.73Z" style="fill:#3c4043"/><path id="Shape-2" data-name="Shape" d="M232.36,35.69c8.95,0,16,2.44,21.2,7.24s7.74,11.51,7.74,20v40.33H249.73V94.17h-.53c-5,7.47-11.65,11.21-20,11.21-7.06,0-13.07-2.14-17.81-6.41a20.33,20.33,0,0,1-7.14-16,19.62,19.62,0,0,1,7.59-16.16c5-4,11.8-6,20.22-6,7.22,0,13.08,1.38,17.74,4V61.92a14.42,14.42,0,0,0-5-10.91,17.49,17.49,0,0,0-11.65-4.5q-10.16,0-16,8.7L206.5,48.42C212.22,40,220.86,35.69,232.36,35.69Zm-15.63,47.5a10,10,0,0,0,4,8,14.71,14.71,0,0,0,9.4,3.2,19.09,19.09,0,0,0,13.6-5.72,18.1,18.1,0,0,0,6-13.5c-3.76-3.05-9-4.57-15.79-4.49a20.76,20.76,0,0,0-12.33,3.58C218.38,76.63,216.73,79.61,216.73,83.19Z" style="fill:#3c4043"/><polygon id="Path" points="327.75 37.82 287.31 131.99 274.83 131.99 289.87 99.05 263.33 37.82 276.49 37.82 295.65 84.79 295.88 84.79 314.6 37.82 327.75 37.82" style="fill:#3c4043;fill-rule:evenodd"/></g><g id="Super-G"><path id="Path-2" data-name="Path" d="M106.08,56.12a69,69,0,0,0-.9-11.13h-51V66.11H83.38a25.43,25.43,0,0,1-10.82,16.7V96.53H90C100.22,87,106.08,72.9,106.08,56.12Z" style="fill:#4285f4;fill-rule:evenodd"/><path id="Path-3" data-name="Path" d="M54.14,109.8c14.58,0,26.91-4.88,35.85-13.27L72.56,82.81a32.16,32.16,0,0,1-18.42,5.26c-14.13,0-26.08-9.68-30.37-22.65h-18V79.61A54,54,0,0,0,54.14,109.8Z" style="fill:#34a853;fill-rule:evenodd"/><path id="Path-4" data-name="Path" d="M23.77,65.42a33.63,33.63,0,0,1,0-21V30.27h-18a55.09,55.09,0,0,0,0,49.26Z" style="fill:#fbbc04;fill-rule:evenodd"/><path id="Path-5" data-name="Path" d="M54.14,21.73A29,29,0,0,1,74.89,30L90.37,14.26A51.87,51.87,0,0,0,54.14,0,54.06,54.06,0,0,0,5.81,30.27l18,14.19C28.06,31.42,40,21.73,54.14,21.73Z" style="fill:#ea4335;fill-rule:evenodd"/></g></g></g></g></g></g></svg>