<svg xmlns="http://www.w3.org/2000/svg" viewBox="0 0 110.74 119.33"><g id="Layer_2" data-name="Layer 2"><g id="Layer_1-2" data-name="Layer 1"><g id="Insti"><g id="Insti_landing" data-name="Insti landing"><g id="Group-13"><g id="Group-31"><path id="Fill-1" d="M56.81,114.47a53.94,53.94,0,1,1,53.93-53.94A54,54,0,0,1,56.81,114.47Z" style="fill:#c2d2ff;fill-rule:evenodd"/><path id="Fill-3" d="M103.22,100.79H10.41a67.35,67.35,0,0,0,92.81,0" style="fill:#fedf00;fill-rule:evenodd"/><path id="Fill-6" d="M1.27,48.38a1.27,1.27,0,1,1,1.27-1.27,1.27,1.27,0,0,1-1.27,1.27" style="fill:#fedf00;fill-rule:evenodd"/><path id="Fill-8" d="M96,18.22a1.28,1.28,0,1,1,1.27-1.28A1.27,1.27,0,0,1,96,18.22" style="fill:#2962ff;fill-rule:evenodd"/><path id="Fill-10" d="M54.61,11c.4,3.37.72,3.69,4.09,4.09-3.37.4-3.69.72-4.09,4.09-.4-3.37-.73-3.69-4.09-4.09,3.36-.4,3.69-.72,4.09-4.09" style="fill:#2962ff;fill-rule:evenodd"/><path id="Fill-12" d="M54.61,0a1.53,1.53,0,1,1-1.53,1.52A1.52,1.52,0,0,1,54.61,0" style="fill:#fedf00;fill-rule:evenodd"/><path id="Fill-15" d="M98.7,42.47c3.37-.4,3.69-.72,4.09-4.09.4,3.37.72,3.69,4.09,4.09-3.37.4-3.69.72-4.09,4.09-.4-3.37-.72-3.69-4.09-4.09" style="fill:#fff;fill-rule:evenodd"/><path id="Fill-17" d="M87.74,42.47A1.53,1.53,0,1,1,89.27,44a1.52,1.52,0,0,1-1.53-1.53" style="fill:#fff;fill-rule:evenodd"/><polygon id="Fill-19" points="39.25 92.62 90.55 92.62 90.55 87.87 39.25 87.87 39.25 92.62" style="fill:#003ce0;fill-rule:evenodd"/><path id="Fill-21" d="M64.36,93.75a.42.42,0,0,0,.42.42H75.05a.42.42,0,0,0,.42-.42V88.68a.42.42,0,0,0-.42-.42H64.78a.42.42,0,0,0-.42.42Z" style="fill:#003ce0;fill-rule:evenodd"/><path id="Fill-22" d="M55.5,95.72c0-3.77-2.76-6.82-6.16-6.82s-6.16,3-6.16,6.82Z" style="fill:#003ce0;fill-rule:evenodd"/><path id="Fill-23" d="M44.5,95.18a4.84,4.84,0,1,0,4.84-4.83,4.84,4.84,0,0,0-4.84,4.83" style="fill:#003ce0;fill-rule:evenodd"/><path id="Fill-24" d="M47.15,95.18A2.17,2.17,0,1,0,49.32,93a2.17,2.17,0,0,0-2.17,2.16" style="fill:#fff;fill-rule:evenodd"/><path id="Fill-25" d="M39.71,88.56a.67.67,0,0,1-.67-.68V54.56a.67.67,0,0,1,.67-.68H77.26a.67.67,0,0,1,.67.68V87.88a.67.67,0,0,1-.67.68Z" style="fill:#e6e7e8;fill-rule:evenodd"/><path id="Fill-26" d="M77.26,53.21H39.71a1.35,1.35,0,0,0-1.35,1.35V87.88a1.35,1.35,0,0,0,1.35,1.35H77.26a1.35,1.35,0,0,0,1.35-1.35V54.56a1.35,1.35,0,0,0-1.35-1.35ZM39.71,87.88H77.26V54.56H39.71Z" style="fill:#003ce0;fill-rule:evenodd"/><path id="Fill-27" d="M83.8,93.44a3.7,3.7,0,0,1-3.7-3.7l.05-22.35a3.74,3.74,0,0,1,3.72-3.71l8.42,0a6.54,6.54,0,0,1,5.13,2.9L103.1,76a13.19,13.19,0,0,1,1.62,5.89v7.85A3.71,3.71,0,0,1,101,93.45Z" style="fill:#7096ff;fill-rule:evenodd"/><path id="Fill-28" d="M92.3,62.92h0l-8.43,0a4.47,4.47,0,0,0-4.45,4.45l0,22.35a4.37,4.37,0,0,0,1.29,3.14,4.42,4.42,0,0,0,3.14,1.3H101a4.45,4.45,0,0,0,4.45-4.45V81.89a13.93,13.93,0,0,0-1.73-6.27l-5.67-9.45a7.27,7.27,0,0,0-5.76-3.25m0,1.48a5.8,5.8,0,0,1,4.48,2.54l5.68,9.44A12.67,12.67,0,0,1,104,81.89v7.85a3,3,0,0,1-3,3H83.79a3,3,0,0,1-3-3l0-22.35a3,3,0,0,1,3-3l8.42,0h0" style="fill:#003ce0;fill-rule:evenodd"/><path id="Fill-29" d="M99.21,78.64a1.67,1.67,0,0,1-.8-.25l-2.1-1.12a6.27,6.27,0,0,0-2.24-.6l-7.63-.25a2.08,2.08,0,0,1-2-2.06V69.05a2,2,0,0,1,2-2h5.33a3.35,3.35,0,0,1,2.64,1.45l5.34,8.48a1.29,1.29,0,0,1,.19,1.28.84.84,0,0,1-.75.42" style="fill:#fff;fill-rule:evenodd"/><path id="Fill-30" d="M91.8,66.33h0l-5.33,0a2.7,2.7,0,0,0-2.7,2.7v5.31a2.75,2.75,0,0,0,2.66,2.73l7.62.25a5.7,5.7,0,0,1,1.95.52L98.09,79a2.34,2.34,0,0,0,1.12.32,1.5,1.5,0,0,0,1.34-.77,1.84,1.84,0,0,0-.21-2L95,68.1a4,4,0,0,0-3.2-1.77m0,1.35a2.72,2.72,0,0,1,2.06,1.14L99.2,77.3c.26.42.25.67,0,.67a1.15,1.15,0,0,1-.48-.17l-2.11-1.13A7,7,0,0,0,94.09,76l-7.63-.24a1.41,1.41,0,0,1-1.35-1.39V69.05a1.36,1.36,0,0,1,1.35-1.35l5.33,0h0" style="fill:#003ce0;fill-rule:evenodd"/><path id="Fill-31" d="M90.07,73.59a1.41,1.41,0,0,1-1.35-1.39V70.8a1.37,1.37,0,0,1,1.35-1.36h1.42a2.7,2.7,0,0,1,2.06,1.14l2,3.22c.4.63.21.87-.42.53a6.86,6.86,0,0,0-2.5-.66Z" style="fill:#dddfe0;fill-rule:evenodd"/><path id="Fill-32" d="M95.06,95.72c0-3.77-2.76-6.82-6.16-6.82s-6.16,3-6.16,6.82Z" style="fill:#003ce0;fill-rule:evenodd"/><path id="Fill-33" d="M84.06,95.18a4.84,4.84,0,1,0,4.84-4.83,4.84,4.84,0,0,0-4.84,4.83" style="fill:#003ce0;fill-rule:evenodd"/><path id="Fill-34" d="M86.71,95.18A2.17,2.17,0,1,0,88.88,93a2.17,2.17,0,0,0-2.17,2.16" style="fill:#fff;fill-rule:evenodd"/><path id="Fill-35" d="M103.74,87.86a.66.66,0,0,1-.45-.17l-.64-.57a3.78,3.78,0,0,1-1.05-4,.67.67,0,0,1,.64-.45h1.5a.67.67,0,0,1,.67.67v3.89a.68.68,0,0,1-.4.61.66.66,0,0,1-.27.06" style="fill:#fff399;fill-rule:evenodd"/><path id="Fill-36" d="M103.74,82h-1.5a1.36,1.36,0,0,0-1.28.91,4.47,4.47,0,0,0,1.24,4.76l.64.57a1.31,1.31,0,0,0,.9.34,1.33,1.33,0,0,0,1.35-1.34V83.3A1.35,1.35,0,0,0,103.74,82m0,1.35v3.89l-.64-.57a3.13,3.13,0,0,1-.86-3.32h1.5" style="fill:#003ce0;fill-rule:evenodd"/><path id="Fill-37" d="M65.69,92.44a.72.72,0,1,0,.72-.73.73.73,0,0,0-.72.73" style="fill:#fff;fill-rule:evenodd"/><polygon id="Fill-38" points="9.59 92.28 67.34 92.28 67.34 86.93 9.59 86.93 9.59 92.28" style="fill:#00103d;fill-rule:evenodd"/><path id="Fill-39" d="M38.33,94.77a1.22,1.22,0,0,1-1.22-1.22v-5.7a1.22,1.22,0,0,1,1.22-1.21H49.89a1.22,1.22,0,0,1,1.22,1.21v5.7a1.22,1.22,0,0,1-1.22,1.22Z" style="fill:#fff;fill-rule:evenodd"/><path id="Fill-40" d="M49.89,85.89H38.33a2,2,0,0,0-2,2v5.7a2,2,0,0,0,2,2H49.89a2,2,0,0,0,2-2v-5.7a2,2,0,0,0-2-2m0,1.49a.47.47,0,0,1,.47.47v5.7a.48.48,0,0,1-.47.48H38.33a.49.49,0,0,1-.48-.48v-5.7a.48.48,0,0,1,.48-.47H49.89" style="fill:#00103d;fill-rule:evenodd"/><path id="Fill-41" d="M27.88,95.78c0-4.24-3.11-7.68-6.94-7.68S14,91.54,14,95.78Z" style="fill:#00103d;fill-rule:evenodd"/><path id="Fill-42" d="M15.5,95.17a5.45,5.45,0,1,0,5.44-5.45,5.44,5.44,0,0,0-5.44,5.45" style="fill:#00103d;fill-rule:evenodd"/><path id="Fill-43" d="M18.48,95.17a2.44,2.44,0,1,0,2.44-2.44,2.44,2.44,0,0,0-2.44,2.44" style="fill:#fff;fill-rule:evenodd"/><path id="Fill-44" d="M10.1,87.69A.74.74,0,0,1,9.36,87V79.07a.74.74,0,0,1,.74-.74H52.38a.74.74,0,0,1,.74.74V87a.74.74,0,0,1-.74.74Z" style="fill:#2962ff;fill-rule:evenodd"/><path id="Fill-45" d="M52.38,77.59H10.1a1.48,1.48,0,0,0-1.48,1.48V87a1.48,1.48,0,0,0,1.48,1.48H52.38A1.48,1.48,0,0,0,53.86,87V79.07a1.48,1.48,0,0,0-1.48-1.48ZM10.1,87H52.38V79.07H10.1Z" style="fill:#00103d;fill-rule:evenodd"/><polygon id="Fill-46" points="10.1 86.93 52.38 86.93 52.38 86.01 10.1 86.01 10.1 86.93" style="fill:#fff;fill-rule:evenodd"/><path id="Fill-47" d="M56.41,89.42a3,3,0,0,0,3,3H79.51a3,3,0,0,0,3-3l0-9.59A12.52,12.52,0,0,0,81,74.32L74.17,63.05a5.82,5.82,0,0,0-4.49-2.54l-10.23,0a3,3,0,0,0-3,3Z" style="fill:#2962ff;fill-rule:evenodd"/><path id="Fill-48" d="M69.68,59h-3a.74.74,0,0,0-.74.74.75.75,0,0,0,.75.74h3.46a5.23,5.23,0,0,1,1.7.53h0l0,0h0l.06,0h0l0,0h0l.06,0h0a5.9,5.9,0,0,1,1.23.9h0l0,0h0l0,0h.26s0,0,0,0h.1l0,0h0l0,0h0a0,0,0,0,0,0,0h.1l.29.48.77,1.28,1.09,1.8,1.24,2.07,1.24,2.07,1.09,1.81.77,1.28.29.48h.2v0h0a0,0,0,0,0,0,0A11.77,11.77,0,0,1,81.71,76a.73.73,0,0,0,.69.49.69.69,0,0,0,.25,0,.74.74,0,0,0,.45-1,10.46,10.46,0,0,0-.88-1.92L75.44,62.28a6.87,6.87,0,0,0-2.64-2.4l0,0,0,0-.09,0-.05,0,0,0A6.69,6.69,0,0,0,69.68,59ZM83.2,78.25h0a.74.74,0,0,0-.74.74v4.56s0,4.72,0,5.69h0v0h0v.1a3,3,0,0,1-3,3H72.24a.74.74,0,1,0,0,1.48h7.27A4.46,4.46,0,0,0,84,89.42V79a.75.75,0,0,0-.75-.74ZM55.69,80.74a.74.74,0,0,0-.74.74l0,7.93a4.44,4.44,0,0,0,4.43,4.45h8.43a.74.74,0,1,0,0-1.48H59.12a3,3,0,0,1-1.85-.86,2.94,2.94,0,0,1-.86-2h0v0h0v-.33h0v0h0V88.9h0v-.08h0v0h0v0h0v0h0v0h0v0h0v0h0v0h0v0h0c0-2.17,0-6.86,0-6.86a.74.74,0,0,0-.74-.74Zm6.58-21.69H59.44A4.47,4.47,0,0,0,55,63.5l0,10.32V77a.74.74,0,0,0,.74.74h0a.74.74,0,0,0,.74-.74V73.91h0v-.08s0-7.43,0-9.68h0v0h0V64h0v0h0v-.07h0v0h0v0h0v0h0v0h0v-.24a3,3,0,0,1,3-3h2.83a.74.74,0,1,0,0-1.48Z" style="fill:#00103d;fill-rule:evenodd"/><path id="Fill-49" d="M68.93,60.37H60.77a4.48,4.48,0,0,0-4.45,4.46l-.06,23.24a4.44,4.44,0,0,0,4.44,4.44H78.37a4.35,4.35,0,0,0,4.24-4.44V80.2a13.93,13.93,0,0,0-1.73-6.27L74.69,63.62a7.23,7.23,0,0,0-5.76-3.25m0,1.48a5.84,5.84,0,0,1,4.49,2.53l6.19,10.31a12.53,12.53,0,0,1,1.52,5.51v7.87a2.85,2.85,0,0,1-2.74,3h-2.7l-15,0h0a3,3,0,0,1-3-3l0-23.24a3,3,0,0,1,3-3l8.14,0h0" style="fill:#002ca3;fill-rule:evenodd"/><path id="Fill-50" d="M81,91.64a.73.73,0,0,1-.74-.73c0-3.62,0-10.68,0-10.68a11.75,11.75,0,0,0-1.41-5.12L72.71,64.9a5.05,5.05,0,0,0-3.85-2.17h0l-10.9,0h0a.74.74,0,0,1,0-1.48l10.91,0h0A6.53,6.53,0,0,1,74,64.14l6.14,10.2a13.4,13.4,0,0,1,1.62,5.9s0,7,0,10.66a.74.74,0,0,1-.74.74Z" style="fill:#fff;fill-rule:evenodd"/><path id="Fill-51" d="M77.11,76.54a1.94,1.94,0,0,1-.88-.27L73.8,75a6.76,6.76,0,0,0-2.46-.66L62.68,74a2.3,2.3,0,0,1-2.2-2.28v-6a2.23,2.23,0,0,1,2.22-2.23h6.07a3.71,3.71,0,0,1,2.91,1.59l6,9.6a1.42,1.42,0,0,1,.22,1.41.93.93,0,0,1-.83.47" style="fill:#fff;fill-rule:evenodd"/><path id="Fill-52" d="M68.78,62.72h0l-6.08,0a3,3,0,0,0-3,3v6a3,3,0,0,0,2.92,3l8.65.28a5.86,5.86,0,0,1,2.14.57l2.43,1.3a2.62,2.62,0,0,0,1.23.36,1.66,1.66,0,0,0,1.48-.85,2,2,0,0,0-.24-2.16l-6-9.6a4.45,4.45,0,0,0-3.53-2m0,1.49a3,3,0,0,1,2.27,1.25l6,9.6c.29.47.28.74,0,.74a1.21,1.21,0,0,1-.53-.19l-2.43-1.3a7.71,7.71,0,0,0-2.79-.75l-8.66-.27a1.56,1.56,0,0,1-1.48-1.54v-6a1.49,1.49,0,0,1,1.48-1.49h6.08" style="fill:#00103d;fill-rule:evenodd"/><path id="Fill-53" d="M66.64,70.85a1.4,1.4,0,0,1-1.35-1.39V67.54a1.35,1.35,0,0,1,1.35-1.35h1.93a2.66,2.66,0,0,1,2.06,1.13l2.47,3.92c.4.63.19.86-.47.51l-.2-.11A6.85,6.85,0,0,0,69.89,71Z" style="fill:#d0d2d3;fill-rule:evenodd"/><path id="Fill-54" d="M72.42,95.78c0-4.24-3.11-7.68-6.94-7.68s-6.93,3.44-6.93,7.68Z" style="fill:#00103d;fill-rule:evenodd"/><path id="Fill-55" d="M60,95.17a5.45,5.45,0,1,0,5.44-5.45A5.45,5.45,0,0,0,60,95.17" style="fill:#00103d;fill-rule:evenodd"/><path id="Fill-56" d="M63,95.17a2.44,2.44,0,1,0,2.44-2.44A2.44,2.44,0,0,0,63,95.17" style="fill:#fff;fill-rule:evenodd"/><path id="Fill-57" d="M82.19,86.91a.73.73,0,0,1-.49-.19L81,86.07a4.24,4.24,0,0,1-1.18-4.52.76.76,0,0,1,.71-.5h1.68a.74.74,0,0,1,.74.74v4.38a.72.72,0,0,1-.44.67.66.66,0,0,1-.3.07" style="fill:#fff;fill-rule:evenodd"/><path id="Fill-58" d="M82.19,80.31H80.5a1.48,1.48,0,0,0-1.4,1,5,5,0,0,0,1.39,5.32l.71.64a1.48,1.48,0,0,0,1,.38,1.46,1.46,0,0,0,.61-.13,1.49,1.49,0,0,0,.88-1.35V81.79a1.49,1.49,0,0,0-1.49-1.48m0,1.48v4.38l-.71-.65a3.48,3.48,0,0,1-1-3.73h1.69" style="fill:#00103d;fill-rule:evenodd"/><path id="Fill-59" d="M70,81.86H57.6a.74.74,0,0,1,0-1.48H70a.74.74,0,1,1,0,1.48" style="fill:#00103d;fill-rule:evenodd"/><path id="Fill-60" d="M39.35,92.08a.82.82,0,0,0,.82.81.82.82,0,0,0,0-1.63.82.82,0,0,0-.82.82" style="fill:#00103d;fill-rule:evenodd"/><path id="Fill-61" d="M50.4,81.86H12.09a.74.74,0,1,1,0-1.48H50.4a.74.74,0,0,1,0,1.48" style="fill:#00103d;fill-rule:evenodd"/><path id="Fill-62" d="M64.4,34.58a.74.74,0,0,1-.74-.74V17.07a.74.74,0,0,1,1.48,0V33.84a.74.74,0,0,1-.74.74" style="fill:#00103d;fill-rule:evenodd"/><polygon id="Fill-63" points="66.92 20.02 64.4 17.51 61.89 20.02 61.89 17.89 64.4 15.37 66.92 17.89 66.92 20.02" style="fill:#00103d;fill-rule:evenodd"/><path id="Fill-64" d="M26.69,78.33a.74.74,0,0,1-.74-.74V48.51a.74.74,0,0,1,.74-.74h6.92a.74.74,0,0,1,.74.74V77.59a.74.74,0,0,1-.74.74Z" style="fill:#fedf00;fill-rule:evenodd"/><path id="Fill-65" d="M33.61,47H26.7a1.49,1.49,0,0,0-1.49,1.48V77.59a1.49,1.49,0,0,0,1.49,1.49h6.91a1.49,1.49,0,0,0,1.48-1.49V48.51A1.48,1.48,0,0,0,33.61,47ZM26.7,77.59h6.91V48.51H26.7Z" style="fill:#00103d;fill-rule:evenodd"/><path id="Fill-66" d="M13.74,78.33a.74.74,0,0,1-.74-.74V57.73a.74.74,0,0,1,.74-.74h6.91a.74.74,0,0,1,.74.74V77.59a.74.74,0,0,1-.74.74Z" style="fill:#fff;fill-rule:evenodd"/><path id="Fill-67" d="M20.65,56.24H13.74a1.49,1.49,0,0,0-1.48,1.49V77.59a1.49,1.49,0,0,0,1.48,1.49h6.91a1.49,1.49,0,0,0,1.48-1.49V57.73a1.49,1.49,0,0,0-1.48-1.49ZM13.74,77.59h6.91V57.73H13.74Z" style="fill:#00103d;fill-rule:evenodd"/><path id="Fill-68" d="M39.65,78.33a.74.74,0,0,1-.74-.74V39.3a.74.74,0,0,1,.74-.74h6.91a.74.74,0,0,1,.74.74V77.59a.74.74,0,0,1-.74.74Z" style="fill:#2962ff;fill-rule:evenodd"/><path id="Fill-69" d="M46.56,37.82H39.65a1.48,1.48,0,0,0-1.48,1.48V77.59a1.49,1.49,0,0,0,1.48,1.49h6.91a1.49,1.49,0,0,0,1.49-1.49V39.3a1.49,1.49,0,0,0-1.49-1.48ZM39.65,77.59h6.91V39.3H39.65Z" style="fill:#00103d;fill-rule:evenodd"/><path id="Fill-70" d="M11,46.82a2.76,2.76,0,1,0,3.91,3.91l8.49-8.49-3.91-3.91Z" style="fill:#fff;fill-rule:evenodd"/><path id="Fill-71" d="M11,46.82h0Zm8.49-7.44-8,8a2,2,0,0,0,0,2.86,2.08,2.08,0,0,0,2.86,0l8-8Zm-6.53,12.9a3.48,3.48,0,0,1-2.48-1,3.5,3.5,0,0,1,0-5L19,37.81a.76.76,0,0,1,1.05,0l3.91,3.91a.74.74,0,0,1,0,1.05l-8.49,8.49a3.51,3.51,0,0,1-2.48,1Z" style="fill:#00103d;fill-rule:evenodd"/><polygon id="Fill-72" points="39.34 26.29 39.33 29.41 42.29 26.45 42.29 19.42 35.27 19.42 32.31 22.38 35.42 22.38 29.92 27.89 33.83 31.8 39.34 26.29" style="fill:#2962ff;fill-rule:evenodd"/><path id="Fill-73" d="M31,27.88l2.86,2.87,5-5a.74.74,0,0,1,.81-.17.75.75,0,0,1,.46.69v1.33l1.47-1.48v-6h-6L34.1,21.64h1.32A.74.74,0,0,1,36,22.9Zm2.86,4.66a.79.79,0,0,1-.53-.22l-3.91-3.91a.74.74,0,0,1,0-1.05l4.24-4.24H32.31a.74.74,0,0,1-.53-1.26l3-3a.75.75,0,0,1,.53-.22h7a.74.74,0,0,1,.74.74v7a.73.73,0,0,1-.21.52l-3,3a.74.74,0,0,1-.81.16.73.73,0,0,1-.46-.68V28.08l-4.24,4.24a.74.74,0,0,1-.52.22Z" style="fill:#00103d;fill-rule:evenodd"/><polygon id="Fill-74" points="29.92 27.89 19.47 38.33 23.38 42.24 33.83 31.8 29.92 27.89" style="fill:#fedf00;fill-rule:evenodd"/><path id="Fill-75" d="M20.52,38.33l2.86,2.86,9.4-9.39-2.86-2.87ZM23.38,43a.73.73,0,0,1-.52-.21L19,38.86a.74.74,0,0,1,0-1L29.39,27.36a.74.74,0,0,1,1.05,0l3.91,3.91a.74.74,0,0,1,0,1.05L23.91,42.77a.77.77,0,0,1-.53.21Z" style="fill:#00103d;fill-rule:evenodd"/><path id="Stroke-76" d="M10.41,100.79h92.81" style="fill:none;stroke:#00103d;stroke-linecap:round;stroke-linejoin:round"/></g></g></g></g></g></g></svg>