<svg xmlns="http://www.w3.org/2000/svg" viewBox="0 0 112.09 119.33"><g id="Layer_2" data-name="Layer 2"><g id="Layer_1-2" data-name="Layer 1"><g id="Insti"><g id="Insti_landing" data-name="Insti landing"><g id="Group-13"><g id="Group-34"><path id="Fill-1" d="M58.16,114.47a53.94,53.94,0,1,1,53.93-53.94,54,54,0,0,1-53.93,53.94" style="fill:#c2d2ff;fill-rule:evenodd"/><path id="Fill-3" d="M63.12,96.69A8.76,8.76,0,0,1,61,96.51L35.7,92.25a20.58,20.58,0,0,0-4.55-.39A20.11,20.11,0,0,0,18.8,96.65a.78.78,0,0,1-.5.19h-.16a.79.79,0,0,1-.56-.38c-7.73-12.5-7.48-12.78-7-13.34L23.13,69.4A10.41,10.41,0,0,1,30.48,66l29.85-.93a3.3,3.3,0,1,1,.21,6.6l-12.72.4a4,4,0,0,0-2.92,6.63l1.2,1.37c3.82,4.39,11.6,6.2,17.22,6a19.94,19.94,0,0,0,3.81-.47l18.63-4.33a6.83,6.83,0,0,1,1.35-.17,7,7,0,0,1,4.29,1.3.83.83,0,0,1,.34.73.81.81,0,0,1-.46.66L67,95.73a9.54,9.54,0,0,1-3.9,1" style="fill:#00103d;fill-rule:evenodd"/><path id="Fill-5" d="M60.31,64.29l-29.86.92a11.3,11.3,0,0,0-7.92,3.64L10,82.56c-1,1.07-1.18,1.29,6.87,14.32a1.63,1.63,0,0,0,1.14.76l.3,0a1.6,1.6,0,0,0,1-.39,19.05,19.05,0,0,1,16.19-4.22l25.33,4.27a10.16,10.16,0,0,0,2.3.19,10.52,10.52,0,0,0,4.24-1.05L91.64,84.59a1.64,1.64,0,0,0,.23-2.8,7.85,7.85,0,0,0-4.78-1.45,7.62,7.62,0,0,0-1.51.2L66.94,84.87a19,19,0,0,1-3.64.44c-5.44.17-12.94-1.56-16.59-5.74l-1.19-1.38A3.14,3.14,0,0,1,45,74.83a3.18,3.18,0,0,1,2.84-1.92l12.72-.39a4.12,4.12,0,1,0-.25-8.23m0,1.63a2.49,2.49,0,1,1,.15,5l-12.72.39a4.83,4.83,0,0,0-3.5,8l1.19,1.37c3.8,4.36,11.56,6.5,17.87,6.3a19.5,19.5,0,0,0,4-.49L86,82.13A6,6,0,0,1,87.14,82a6.19,6.19,0,0,1,3.78,1.15L66.66,95a8.7,8.7,0,0,1-5.55.71L35.84,91.45a20.36,20.36,0,0,0-4.72-.4,20.79,20.79,0,0,0-12.85,5s-7.4-12-7.06-12.37L23.74,70a9.62,9.62,0,0,1,6.76-3.11l29.86-.92" style="fill:#00103d;fill-rule:evenodd"/><path id="Fill-7" d="M104.57,100.79H11.76a67.35,67.35,0,0,0,92.81,0" style="fill:#fedf00;fill-rule:evenodd"/><path id="Fill-10" d="M104.57,101.46H11.76a.67.67,0,0,1-.68-.67.68.68,0,0,1,.68-.68h92.81a.68.68,0,0,1,.67.68.67.67,0,0,1-.67.67" style="fill:#00103d;fill-rule:evenodd"/><polygon id="Fill-12" points="34.87 17.34 32.72 17.34 32.45 15.07 32.45 4.75 32.72 2.48 34.87 2.48 35.14 4.74 35.14 15.07 34.87 17.34" style="fill:#00103d;fill-rule:evenodd"/><polygon id="Fill-14" points="26.36 10.99 26.36 8.83 28.64 8.56 38.96 8.56 41.23 8.83 41.23 10.99 38.96 11.26 28.64 11.26 26.36 10.99" style="fill:#00103d;fill-rule:evenodd"/><polygon id="Fill-16" points="27.78 5.42 29.3 3.89 31.1 5.31 38.4 12.61 39.81 14.4 38.29 15.93 36.49 14.52 29.2 7.22 27.78 5.42" style="fill:#00103d;fill-rule:evenodd"/><polygon id="Fill-18" points="38.29 3.89 39.81 5.42 38.4 7.22 31.1 14.52 29.3 15.93 27.78 14.4 29.19 12.61 36.49 5.31 38.29 3.89" style="fill:#00103d;fill-rule:evenodd"/><path id="Fill-20" d="M39.13,9.91A5.34,5.34,0,1,1,33.8,4.58a5.33,5.33,0,0,1,5.33,5.33" style="fill:#00103d;fill-rule:evenodd"/><path id="Fill-22" d="M33.8,13.47a3.56,3.56,0,1,1,3.56-3.56,3.56,3.56,0,0,1-3.56,3.56" style="fill:#c2d2ff;fill-rule:evenodd"/><polygon id="Fill-24" points="63.38 90.96 52.94 90.96 51.63 79.94 51.63 29.99 52.94 19.01 63.38 19.01 64.69 29.98 64.69 79.94 63.38 90.96" style="fill:#2962ff;fill-rule:evenodd"/><path id="Fill-26" d="M51.63,40.29a.8.8,0,0,1-.81-.81V29.9l1.3-11a.83.83,0,0,1,.82-.72h3.92a.82.82,0,0,1,0,1.63h-3.2L52.45,30.05v9.43a.82.82,0,0,1-.82.81ZM64.69,41a.82.82,0,0,1-.82-.81V30L62.66,19.82H60.13a.82.82,0,1,1,0-1.63h3.25a.85.85,0,0,1,.82.72L65.5,30V40.15a.82.82,0,0,1-.81.81ZM51.63,68a.82.82,0,0,1-.81-.82V42.74a.8.8,0,0,1,.81-.81.82.82,0,0,1,.82.81V67.21a.84.84,0,0,1-.82.82Zm13.06.67a.82.82,0,0,1-.82-.82V43.41a.82.82,0,0,1,1.63,0V67.88a.83.83,0,0,1-.81.82ZM56.86,91.77H52.94a.83.83,0,0,1-.82-.72l-1.3-11.11V70.48a.81.81,0,0,1,.81-.82.82.82,0,0,1,.82.82v9.39l1.21,10.27h3.23a.82.82,0,0,1,0,1.63Zm3.26,0h0a.82.82,0,1,1,0-1.63h2.54l1.21-10.27V71.13a.82.82,0,0,1,1.63,0V80l-1.3,11a.85.85,0,0,1-.82.72Z" style="fill:#00103d;fill-rule:evenodd"/><polygon id="Fill-28" points="57.29 86.06 56.53 79.65 56.53 30.28 57.29 23.9 59.03 23.9 59.79 30.27 59.79 79.65 59.03 86.06 57.29 86.06" style="fill:#002ca3;fill-rule:evenodd"/><polygon id="Fill-30" points="22.19 60.2 22.19 49.76 33.2 48.46 83.16 48.46 94.13 49.76 94.13 60.2 83.16 61.51 33.2 61.51 22.19 60.2" style="fill:#2962ff;fill-rule:evenodd"/><path id="Fill-32" d="M70.4,49.27H45.92a.82.82,0,0,1,0-1.63H70.4a.82.82,0,0,1,0,1.63ZM22.19,54.49a.81.81,0,0,1-.82-.82V49.76a.83.83,0,0,1,.72-.82l11.11-1.3h9.46a.82.82,0,1,1,0,1.63H33.25L23,50.49v3.17h0a.81.81,0,0,1-.81.82Zm71.94,0a.82.82,0,0,1-.81-.82V50.48L83.11,49.27H73.66a.82.82,0,1,1,0-1.63h9.59l11,1.29a.83.83,0,0,1,.72.82v3.93a.84.84,0,0,1-.82.82ZM42,62.32H33.1L22.09,61a.81.81,0,0,1-.72-.81V56.94a.82.82,0,1,1,1.63,0v2.54l10.27,1.21H42a.82.82,0,1,1,0,1.63Zm27.74,0H45.26a.82.82,0,1,1,0-1.63H69.73a.82.82,0,0,1,0,1.63Zm13.42,0H73a.82.82,0,1,1,0-1.63H83.11l10.21-1.21V57a.8.8,0,0,1,.81-.81A.82.82,0,0,1,95,57V60.2a.81.81,0,0,1-.72.81L83.17,62.32Z" style="fill:#00103d;fill-rule:evenodd"/><polygon id="Fill-34" points="33.49 56.61 27.08 55.85 27.08 54.11 33.49 53.35 82.86 53.35 89.24 54.11 89.24 55.86 82.87 56.61 33.49 56.61" style="fill:#002ca3;fill-rule:evenodd"/><polygon id="Fill-36" points="29.03 33.24 36.41 25.85 45.13 32.72 80.45 68.04 87.29 76.73 79.91 84.11 71.22 77.28 35.9 41.95 29.03 33.24" style="fill:#2962ff;fill-rule:evenodd"/><path id="Fill-38" d="M51.81,40.23a.83.83,0,0,1-.57-.25l-6.65-6.65L36.48,27l-2.25,2.24h0a.86.86,0,0,1-1.16,0,.84.84,0,0,1,0-1.16l2.77-2.77a.82.82,0,0,1,1.08-.05l8.77,6.92,6.71,6.69a.83.83,0,0,1,0,1.15.86.86,0,0,1-.59.25M42.12,49a.83.83,0,0,1-.58-.23l-6.29-6.29-6.86-8.71a.82.82,0,0,1,.06-1.08l2.32-2.3a.81.81,0,0,1,1.14,0,.8.8,0,0,1,0,1.14l-1.8,1.8,6.4,8.1,6.18,6.19a0,0,0,0,0,0,0A.81.81,0,0,1,42.12,49m29.3,10.87a.75.75,0,0,1-.57-.25L53.54,42.3a.91.91,0,0,1-.23-.59.86.86,0,0,1,.23-.57.84.84,0,0,1,1.16,0L72,58.45a.81.81,0,0,1,0,1.14.78.78,0,0,1-.59.25m-9.69,8.74a.85.85,0,0,1-.58-.22L43.85,51.05a.78.78,0,0,1-.24-.57.73.73,0,0,1,.24-.57.8.8,0,0,1,1.14,0L62.3,67.2a.85.85,0,0,1,.25.57.88.88,0,0,1-.25.59.87.87,0,0,1-.57.22M84.51,80.31a.76.76,0,0,1-.57-.24.81.81,0,0,1,0-1.14l2.26-2.27-6.37-8.09-6.68-6.66a.85.85,0,0,1,0-1.16.84.84,0,0,1,1.16,0l6.77,6.79,6.85,8.68a.82.82,0,0,1-.06,1.08l-.47.47a.19.19,0,0,1-.07.06L85.1,80.07a.82.82,0,0,1-.59.24m-4.6,4.62a.81.81,0,0,1-.51-.18l-8.74-6.9L65.76,73a.09.09,0,0,1,0,0l-2.27-2.26a.81.81,0,0,1,1.14-1.14l7.15,7.12L79.84,83l1.8-1.79a.81.81,0,0,1,1.14,0,.8.8,0,0,1,.24.57.82.82,0,0,1-.24.59l-2.3,2.3a.87.87,0,0,1-.57.24" style="fill:#00103d;fill-rule:evenodd"/><polygon id="Fill-40" points="74.48 73.61 39.56 38.69 35.57 33.62 36.8 32.39 41.87 36.39 76.78 71.3 80.75 76.34 79.52 77.58 74.48 73.61" style="fill:#002ca3;fill-rule:evenodd"/><polygon id="Fill-42" points="79.91 25.85 87.29 33.24 80.42 41.95 45.1 77.27 36.41 84.11 29.03 76.73 35.87 68.05 71.19 32.72 79.91 25.85" style="fill:#2962ff;fill-rule:evenodd"/><path id="Fill-44" d="M65,39.76a.79.79,0,0,1-.59-.25.83.83,0,0,1-.23-.57.78.78,0,0,1,.23-.57l6.3-6.28,8.71-6.87a.8.8,0,0,1,1.08.07l2.31,2.3a.83.83,0,0,1,0,1.15.85.85,0,0,1-1.15,0L79.84,27l-8.11,6.38-6.18,6.18a.77.77,0,0,1-.57.25m8.74,9.69a.81.81,0,0,1-.57-1.39l6.66-6.66,6.39-8.1L84,31.06v0a.78.78,0,0,1-.23-.57.81.81,0,0,1,1.38-.58l2.78,2.77a.82.82,0,0,1,.06,1.08L81,42.51,76.61,46.9l0,.05-2.25,2.27a.84.84,0,0,1-.59.23M45.37,59.37a.8.8,0,0,1-.81-.82.8.8,0,0,1,.22-.57L62.09,40.67a.84.84,0,0,1,1.16,0,.81.81,0,0,1,0,1.14L45.94,59.12a.77.77,0,0,1-.57.25m8.74,9.69a.81.81,0,0,1-.57-.23.84.84,0,0,1,0-1.16l17.3-17.29a.83.83,0,0,1,1.15,0,.75.75,0,0,1,.25.57.83.83,0,0,1-.25.57L54.7,68.83a.86.86,0,0,1-.59.23M31.34,79.84a.81.81,0,0,1-.59-.24l-2.3-2.3a.82.82,0,0,1-.06-1.08l6.9-8.74,7.19-7.2a.82.82,0,1,1,1.16,1.16l-7.15,7.14-6.38,8.08,1.78,1.78a0,0,0,0,1,0,0,.84.84,0,0,1,0,1.16.87.87,0,0,1-.57.22m5.07,5.09a.87.87,0,0,1-.57-.24l-.47-.48,0,0-2.25-2.27a.76.76,0,0,1-.25-.58.8.8,0,0,1,.25-.58.83.83,0,0,1,1.14,0L36.48,83l8.09-6.38L51.23,70v0a.83.83,0,0,1,1.14,0,.74.74,0,0,1,.25.57.83.83,0,0,1-.25.57L45.61,77.9l-8.69,6.85a.81.81,0,0,1-.51.18" style="fill:#00103d;fill-rule:evenodd"/><polygon id="Fill-46" points="35.57 76.34 39.53 71.3 74.45 36.38 79.52 32.39 80.75 33.62 76.76 38.69 41.84 73.61 36.8 77.58 35.57 76.34" style="fill:#002ca3;fill-rule:evenodd"/><path id="Fill-48" d="M58.16,81.61A26.63,26.63,0,1,1,84.79,55,26.65,26.65,0,0,1,58.16,81.61" style="fill:#fedf00;fill-rule:evenodd"/><path id="Fill-50" d="M58.16,27.54A27.45,27.45,0,1,0,85.61,55,27.47,27.47,0,0,0,58.16,27.54m0,1.63A25.82,25.82,0,1,1,32.35,55,25.81,25.81,0,0,1,58.16,29.17" style="fill:#00103d;fill-rule:evenodd"/><path id="Fill-52" d="M58.16,29.17A25.82,25.82,0,1,0,84,55,25.83,25.83,0,0,0,58.16,29.17m0,1.63A24.19,24.19,0,1,1,34,55,24.2,24.2,0,0,1,58.16,30.8" style="fill:#e0c600;fill-rule:evenodd"/><path id="Fill-54" d="M58.16,80a25,25,0,0,1,0-50,.82.82,0,0,1,0,1.64,23.37,23.37,0,1,0,0,46.73.82.82,0,0,1,.82.82.82.82,0,0,1-.82.81" style="fill:#fff;fill-rule:evenodd"/><path id="Fill-56" d="M58.16,73a18,18,0,1,1,18-18,18.06,18.06,0,0,1-18,18" style="fill:#c2d2ff;fill-rule:evenodd"/><path id="Fill-58" d="M58.16,36.13A18.86,18.86,0,1,0,77,55,18.87,18.87,0,0,0,58.16,36.13m0,1.63A17.22,17.22,0,1,1,40.94,55,17.24,17.24,0,0,1,58.16,37.76" style="fill:#00103d;fill-rule:evenodd"/><path id="Fill-60" d="M1.27,49.73a1.27,1.27,0,1,1,1.27-1.27,1.27,1.27,0,0,1-1.27,1.27" style="fill:#fedf00;fill-rule:evenodd"/><path id="Fill-62" d="M97.35,19.56a1.27,1.27,0,1,1,1.27-1.27,1.27,1.27,0,0,1-1.27,1.27" style="fill:#2962ff;fill-rule:evenodd"/><path id="Fill-64" d="M56,11c.4,3.37.73,3.69,4.1,4.09-3.37.4-3.7.72-4.1,4.09-.39-3.37-.72-3.69-4.09-4.09,3.37-.4,3.7-.72,4.09-4.09" style="fill:#2962ff;fill-rule:evenodd"/><path id="Fill-66" d="M56,0a1.53,1.53,0,1,1-1.52,1.52A1.52,1.52,0,0,1,56,0" style="fill:#fedf00;fill-rule:evenodd"/><path id="Fill-69" d="M100.05,42.47c3.37-.4,3.69-.72,4.09-4.09.4,3.37.72,3.69,4.09,4.09-3.37.4-3.69.72-4.09,4.09-.4-3.37-.72-3.69-4.09-4.09" style="fill:#fff;fill-rule:evenodd"/><path id="Fill-71" d="M91.78,42.47A1.53,1.53,0,1,1,93.31,44a1.53,1.53,0,0,1-1.53-1.53" style="fill:#fff;fill-rule:evenodd"/><path id="Fill-73" d="M64.85,99.82a9.14,9.14,0,0,1-2.16-.17L37.44,95.38a20,20,0,0,0-16.91,4.4.78.78,0,0,1-.5.19h-.15a.78.78,0,0,1-.57-.38c-7.73-12.5-7.47-12.78-7-13.34L24.87,72.53a10.41,10.41,0,0,1,7.34-3.37l29.86-.93a3.3,3.3,0,1,1,.2,6.6l-12.72.4A4,4,0,0,0,46,77.63a4,4,0,0,0,.65,4.23l1.19,1.37c3.82,4.39,11.61,6.2,17.23,6a19,19,0,0,0,3.8-.47L87.5,84.46a6.74,6.74,0,0,1,1.35-.17,7,7,0,0,1,4.28,1.3A.82.82,0,0,1,93,87L68.75,98.86a9.54,9.54,0,0,1-3.9,1" style="fill:#fff;fill-rule:evenodd"/><path id="Fill-75" d="M62,67.42l-29.85.92A11.26,11.26,0,0,0,24.27,72L11.74,85.7c-1,1.06-1.17,1.28,6.88,14.31a1.6,1.6,0,0,0,1.13.76l.31,0a1.62,1.62,0,0,0,1-.39,19,19,0,0,1,16.19-4.22l25.33,4.27a10.12,10.12,0,0,0,2.3.19,10.47,10.47,0,0,0,4.23-1L93.37,87.72a1.63,1.63,0,0,0,.24-2.79,7.89,7.89,0,0,0-4.79-1.46,7.72,7.72,0,0,0-1.51.2L68.68,88a19.1,19.1,0,0,1-3.65.44c-5.43.17-12.94-1.56-16.58-5.74l-1.2-1.37A3.2,3.2,0,0,1,49.58,76l12.72-.39A4.12,4.12,0,1,0,62,67.42m.05,1.63a2.49,2.49,0,1,1,.16,5l-12.72.39a4.83,4.83,0,0,0-3.51,8l1.2,1.37c3.79,4.36,11.55,6.5,17.86,6.3a20.26,20.26,0,0,0,4-.48l18.63-4.33a6.94,6.94,0,0,1,1.19-.16,6.19,6.19,0,0,1,3.79,1.15L68.4,98.13a8.91,8.91,0,0,1-3.58.88,8.69,8.69,0,0,1-2-.16L37.57,94.58a20.36,20.36,0,0,0-4.72-.4,20.82,20.82,0,0,0-12.85,5s-7.4-12-7-12.37L25.47,73.08A9.65,9.65,0,0,1,32.24,70l29.85-.92" style="fill:#00103d;fill-rule:evenodd"/></g></g></g></g></g></g></svg>