<svg xmlns="http://www.w3.org/2000/svg" viewBox="0 0 112.48 119.02"><g id="Layer_2" data-name="Layer 2"><g id="Layer_1-2" data-name="Layer 1"><g id="Insti"><g id="Insti_landing" data-name="Insti landing"><g id="Group-13"><g id="Group-14"><path id="Fill-1" d="M58.15,114.12a54.33,54.33,0,1,1,54.33-54.33,54.39,54.39,0,0,1-54.33,54.33" style="fill:#c2d2ff;fill-rule:evenodd"/><path id="Fill-3" d="M104.89,100.34H11.4a67.83,67.83,0,0,0,93.49,0" style="fill:#fedf00;fill-rule:evenodd"/><path id="Fill-6" d="M104.89,101H11.4a.68.68,0,0,1,0-1.36h93.49a.68.68,0,1,1,0,1.36" style="fill:#00103d;fill-rule:evenodd"/><path id="Fill-8" d="M1.28,48.91a1.28,1.28,0,1,1,1.28-1.28,1.28,1.28,0,0,1-1.28,1.28" style="fill:#fedf00;fill-rule:evenodd"/><path id="Fill-10" d="M97.18,18a1.28,1.28,0,1,1,1.28-1.28A1.28,1.28,0,0,1,97.18,18" style="fill:#2962ff;fill-rule:evenodd"/><path id="Fill-12" d="M55.92,9.85c.41,3.4.73,3.72,4.13,4.12-3.4.41-3.72.73-4.13,4.13-.4-3.4-.72-3.72-4.12-4.13,3.4-.4,3.72-.72,4.12-4.12" style="fill:#2962ff;fill-rule:evenodd"/><path id="Fill-14" d="M55.92,0a1.54,1.54,0,1,1-1.53,1.54A1.54,1.54,0,0,1,55.92,0" style="fill:#fedf00;fill-rule:evenodd"/><path id="Fill-17" d="M100.34,41.6c3.4-.41,3.72-.73,4.12-4.13.41,3.4.73,3.72,4.13,4.13-3.4.4-3.72.72-4.13,4.12-.4-3.4-.72-3.72-4.12-4.12" style="fill:#fff;fill-rule:evenodd"/><path id="Fill-19" d="M89.3,41.6a1.54,1.54,0,1,1,3.07,0,1.54,1.54,0,0,1-3.07,0" style="fill:#fff;fill-rule:evenodd"/><polygon id="Fill-22" points="31.38 91.74 89.56 91.74 89.56 86.35 31.38 86.35 31.38 91.74" style="fill:#00103d;fill-rule:evenodd"/><path id="Fill-24" d="M60.34,94.24A1.23,1.23,0,0,1,59.11,93V87.27a1.23,1.23,0,0,1,1.23-1.22H72a1.22,1.22,0,0,1,1.22,1.22V93A1.22,1.22,0,0,1,72,94.24Z" style="fill:#fff;fill-rule:evenodd"/><path id="Fill-25" d="M72,85.3H60.33a2,2,0,0,0-2,2V93a2,2,0,0,0,2,2H72a2,2,0,0,0,2-2V87.27a2,2,0,0,0-2-2m0,1.5a.48.48,0,0,1,.48.47V93a.48.48,0,0,1-.48.47H60.33a.48.48,0,0,1-.48-.47V87.27a.48.48,0,0,1,.48-.47H72" style="fill:#00103d;fill-rule:evenodd"/><path id="Fill-26" d="M49.8,95.26c0-4.27-3.12-7.73-7-7.73s-7,3.46-7,7.73Z" style="fill:#00103d;fill-rule:evenodd"/><path id="Fill-27" d="M37.33,94.65a5.49,5.49,0,1,0,5.49-5.49,5.48,5.48,0,0,0-5.49,5.49" style="fill:#00103d;fill-rule:evenodd"/><path id="Fill-28" d="M40.34,94.65a2.46,2.46,0,1,0,2.46-2.46,2.46,2.46,0,0,0-2.46,2.46" style="fill:#fff;fill-rule:evenodd"/><polygon id="Fill-29" points="31.9 86.37 74.49 86.37 74.49 48.57 31.9 48.57 31.9 86.37" style="fill:#fff;fill-rule:evenodd"/><path id="Fill-30" d="M75.23,51.73a.75.75,0,0,0-.74.75V73.65a.75.75,0,0,0,1.49,0V52.48a.75.75,0,0,0-.75-.75m0,25.65a.74.74,0,0,0-.74.75v8.24H61.56a.75.75,0,0,0,0,1.49H74.49A1.49,1.49,0,0,0,76,86.37V78.13a.74.74,0,0,0-.75-.75m-18.15,9H35.92a.75.75,0,1,0,0,1.49H57.08a.75.75,0,1,0,0-1.49M31.15,64a.76.76,0,0,0-.75.75V82.67a.08.08,0,0,1,0,.08v.08a.09.09,0,0,0,0,0s0,0,0,0v3a.75.75,0,0,0,1.5,0V64.74a.76.76,0,0,0-.75-.75M41.37,47.07H31.9a1.5,1.5,0,0,0-1.5,1.5V57a.09.09,0,0,0,0,0s0,0,0,0v.08a.08.08,0,0,1,0,.08v3a.75.75,0,0,0,1.5,0V48.57h9.47a.75.75,0,0,0,0-1.5m25.65,0H45.85a.75.75,0,0,0,0,1.5H67a.75.75,0,0,0,0-1.5m7.47,0h-3a.75.75,0,0,0,0,1.5h3a.75.75,0,0,0,0-1.5" style="fill:#00103d;fill-rule:evenodd"/><path id="Fill-31" d="M31.9,87.11a.75.75,0,0,1-.75-.74V78.43a.76.76,0,0,1,.75-.75H74.49a.75.75,0,0,1,.74.75v7.94a.74.74,0,0,1-.74.74Z" style="fill:#2962ff;fill-rule:evenodd"/><path id="Fill-32" d="M74.49,76.94H31.9a1.49,1.49,0,0,0-1.49,1.49v7.94a1.49,1.49,0,0,0,1.49,1.49H74.49A1.49,1.49,0,0,0,76,86.37V78.43a1.49,1.49,0,0,0-1.49-1.49ZM31.9,86.37H74.49V78.43H31.9Z" style="fill:#00103d;fill-rule:evenodd"/><polygon id="Fill-33" points="31.9 86.35 74.49 86.35 74.49 85.42 31.9 85.42 31.9 86.35" style="fill:#fff;fill-rule:evenodd"/><path id="Fill-34" d="M81.53,92.58a3.74,3.74,0,0,1-3.73-3.73l.06-26.1A3.76,3.76,0,0,1,81.6,59l10.31,0a6.59,6.59,0,0,1,5.17,2.91l6.83,11.36a13.31,13.31,0,0,1,1.63,5.94v9.65a3.74,3.74,0,0,1-3.73,3.74Z" style="fill:#2962ff;fill-rule:evenodd"/><path id="Fill-35" d="M91.92,58.24h0l-10.31,0a4.5,4.5,0,0,0-4.48,4.49l-.07,26.1a4.49,4.49,0,0,0,4.47,4.48h20.3a4.49,4.49,0,0,0,4.48-4.48V79.19a14.24,14.24,0,0,0-1.74-6.31L97.72,61.52a7.3,7.3,0,0,0-5.8-3.28m0,1.49a5.87,5.87,0,0,1,4.52,2.56l6.83,11.36a12.63,12.63,0,0,1,1.52,5.55l0,9.65a3,3,0,0,1-3,3H81.52a3,3,0,0,1-3-3l.06-26.1a3,3,0,0,1,3-3l10.31,0h0" style="fill:#00103d;fill-rule:evenodd"/><path id="Fill-36" d="M91.16,59.59h0l-8.21,0a4.49,4.49,0,0,0-4.48,4.48L78.4,87.5A4.47,4.47,0,0,0,82.87,92L98,92h2.71a4.37,4.37,0,0,0,4.27-4.46V79.56a14,14,0,0,0-1.74-6.31L97,62.87a7.29,7.29,0,0,0-5.8-3.28m0,1.49a5.89,5.89,0,0,1,4.52,2.55L101.92,74a12.5,12.5,0,0,1,1.53,5.54V87.5a2.88,2.88,0,0,1-2.76,3H98l-15.08,0h0a3,3,0,0,1-3-3L80,64.09a3,3,0,0,1,3-3l8.2,0h0" style="fill:#002ca3;fill-rule:evenodd"/><path id="Fill-37" d="M103.31,91.1a.76.76,0,0,1-.75-.75c0-3.64,0-10.75,0-10.75a12.07,12.07,0,0,0-1.42-5.16L95,64.15A5.08,5.08,0,0,0,91.09,62h0l-11,0h0a.75.75,0,0,1,0-1.5l11,0h0a6.62,6.62,0,0,1,5.16,2.91l6.18,10.29a13.27,13.27,0,0,1,1.63,5.93s0,7.1,0,10.74a.75.75,0,0,1-.74.76Z" style="fill:#fff;fill-rule:evenodd"/><path id="Fill-38" d="M99.4,75.88a2,2,0,0,1-.89-.27l-2.44-1.32a6.92,6.92,0,0,0-2.48-.66l-8.73-.28a2.31,2.31,0,0,1-2.21-2.29V65a2.25,2.25,0,0,1,2.24-2.25H91a3.74,3.74,0,0,1,2.93,1.61L100,74a1.47,1.47,0,0,1,.22,1.42,1,1,0,0,1-.84.47" style="fill:#fff;fill-rule:evenodd"/><path id="Fill-39" d="M91,62h0l-6.13,0a3,3,0,0,0-3,3v6.09a3.06,3.06,0,0,0,2.94,3l8.72.29a6,6,0,0,1,2.15.57l2.45,1.31a2.55,2.55,0,0,0,1.24.36,1.65,1.65,0,0,0,1.49-.85,2.06,2.06,0,0,0-.24-2.18l-6.09-9.67A4.45,4.45,0,0,0,91,62m0,1.5a3,3,0,0,1,2.29,1.26l6.09,9.67c.29.47.28.74,0,.74a1.3,1.3,0,0,1-.53-.18l-2.45-1.31a7.63,7.63,0,0,0-2.81-.76l-8.72-.28a1.56,1.56,0,0,1-1.49-1.54V65a1.5,1.5,0,0,1,1.49-1.5H91" style="fill:#00103d;fill-rule:evenodd"/><path id="Fill-40" d="M89,70.15a1.55,1.55,0,0,1-1.49-1.54V67A1.5,1.5,0,0,1,89,65.45h1.68A3,3,0,0,1,93,66.71l2.34,3.72c.44.69.21.95-.5.56a7.75,7.75,0,0,0-2.8-.74Z" style="fill:#d0d2d3;fill-rule:evenodd"/><path id="Fill-41" d="M94.67,95.26c0-4.27-3.13-7.73-7-7.73s-7,3.46-7,7.73Z" style="fill:#00103d;fill-rule:evenodd"/><path id="Fill-42" d="M82.2,94.65a5.49,5.49,0,1,0,5.49-5.49,5.48,5.48,0,0,0-5.49,5.49" style="fill:#00103d;fill-rule:evenodd"/><path id="Fill-43" d="M85.21,94.65a2.46,2.46,0,1,0,2.46-2.46,2.46,2.46,0,0,0-2.46,2.46" style="fill:#fff;fill-rule:evenodd"/><path id="Fill-44" d="M104.52,86.32a.73.73,0,0,1-.5-.19l-.72-.65a4.27,4.27,0,0,1-1.19-4.55.76.76,0,0,1,.71-.51h1.7a.76.76,0,0,1,.75.75v4.41a.75.75,0,0,1-.45.68.8.8,0,0,1-.3.06" style="fill:#fff;fill-rule:evenodd"/><path id="Fill-45" d="M104.52,79.67h-1.7a1.48,1.48,0,0,0-1.41,1A5,5,0,0,0,102.8,86l.72.65a1.5,1.5,0,0,0,1,.38A1.49,1.49,0,0,0,106,85.58V81.17a1.5,1.5,0,0,0-1.49-1.5m0,1.5v4.41l-.72-.65a3.51,3.51,0,0,1-1-3.76h1.7" style="fill:#00103d;fill-rule:evenodd"/><path id="Fill-46" d="M92.19,81.24H79.74a.75.75,0,0,1,0-1.49H92.19a.75.75,0,1,1,0,1.49" style="fill:#00103d;fill-rule:evenodd"/><path id="Fill-47" d="M61.37,91.53a.82.82,0,1,0,.82-.82.82.82,0,0,0-.82.82" style="fill:#00103d;fill-rule:evenodd"/><path id="Fill-48" d="M72.49,81.24H33.9a.75.75,0,1,1,0-1.49H72.49a.75.75,0,1,1,0,1.49" style="fill:#00103d;fill-rule:evenodd"/><path id="Fill-49" d="M31.9,73.76a1.36,1.36,0,0,0,1.36,1.36H52.93a1.36,1.36,0,0,0,1.36-1.36V49.93a1.36,1.36,0,0,0-1.36-1.36H33.26a1.36,1.36,0,0,0-1.36,1.36Z" style="fill:#d6e1ff;fill-rule:evenodd"/><path id="Fill-50" d="M13,72.88a2.24,2.24,0,0,1-2.24-2.24V18A2.24,2.24,0,0,1,13,15.78H40.85a4.57,4.57,0,0,1,3,1.36l7,7.84a5.33,5.33,0,0,1,1.18,3.1V70.64a2.25,2.25,0,0,1-2.24,2.24Z" style="fill:#ffea47;fill-rule:evenodd"/><path id="Fill-51" d="M40.85,15H13a3,3,0,0,0-3,3V70.64a3,3,0,0,0,3,3H49.81a3,3,0,0,0,3-3V28.08a6,6,0,0,0-1.37-3.6l-7-7.83A5.24,5.24,0,0,0,40.85,15m0,1.5a3.84,3.84,0,0,1,2.49,1.11l7,7.83a4.55,4.55,0,0,1,1,2.61V70.64a1.49,1.49,0,0,1-1.49,1.49H13a1.49,1.49,0,0,1-1.49-1.49V18A1.49,1.49,0,0,1,13,16.53H40.85" style="fill:#00103d;fill-rule:evenodd"/><path id="Fill-52" d="M15.66,69a1.36,1.36,0,0,1-1.36-1.36V21a1.36,1.36,0,0,1,1.36-1.36h27a3.09,3.09,0,0,1,2.19,1.08l2.85,3.71a4.63,4.63,0,0,1,.83,2.43V67.63A1.36,1.36,0,0,1,47.13,69Z" style="fill:#fedf00;fill-rule:evenodd"/><path id="Fill-53" d="M15.66,43.59a1.36,1.36,0,0,1-1.36-1.36V21a1.36,1.36,0,0,1,1.36-1.36h27a3.13,3.13,0,0,1,2.19,1.08l2.85,3.71a4.63,4.63,0,0,1,.83,2.43V42.23a1.36,1.36,0,0,1-1.36,1.36Z" style="fill:#2962ff;fill-rule:evenodd"/><path id="Fill-54" d="M47,42.84a.74.74,0,0,1-.75-.75V27.53a4.38,4.38,0,0,0-.76-2.22l-1.92-2.5a2.72,2.72,0,0,0-1.81-.9H38.85a.75.75,0,1,1,0-1.49h2.91a4.12,4.12,0,0,1,3,1.47l1.93,2.51a5.91,5.91,0,0,1,1.07,3.13V42.09a.75.75,0,0,1-.75.75" style="fill:#002ca3;fill-rule:evenodd"/><path id="Fill-55" d="M12.34,70.6a.76.76,0,0,1-.75-.75v-51a2.24,2.24,0,0,1,2.24-2.24H41A4.62,4.62,0,0,1,44,17.91l7,7.64a.75.75,0,0,1,0,1.06.75.75,0,0,1-1.06-.05l-7-7.64A3.17,3.17,0,0,0,41,18.06H13.83a.75.75,0,0,0-.74.75v51a.76.76,0,0,1-.75.75" style="fill:#fff;fill-rule:evenodd"/><path id="Fill-56" d="M50.45,70.6a.76.76,0,0,1-.75-.75V27.55a3.71,3.71,0,0,0-.81-2.09l-6-6.54A3.17,3.17,0,0,0,41,18.06H12.34a.75.75,0,1,1,0-1.49H41A4.62,4.62,0,0,1,44,17.91l6,6.54a5.21,5.21,0,0,1,1.21,3.1v42.3a.76.76,0,0,1-.75.75" style="fill:#e0c600;fill-rule:evenodd"/><polygon id="Fill-57" points="24.73 50.65 38.04 50.65 38.04 49.08 24.73 49.08 24.73 50.65" style="fill:#fff;fill-rule:evenodd"/><polygon id="Fill-58" points="24.73 57.14 38.04 57.14 38.04 55.57 24.73 55.57 24.73 57.14" style="fill:#fff;fill-rule:evenodd"/><polygon id="Fill-59" points="24.73 63.63 38.04 63.63 38.04 62.05 24.73 62.05 24.73 63.63" style="fill:#fff;fill-rule:evenodd"/><path id="Fill-60" d="M43.2,25.84V18a40.27,40.27,0,0,1,4.08,3.46,40,40,0,0,1,2.85,4.34Z" style="fill:#00103d;fill-rule:evenodd"/><path id="Fill-61" d="M42.45,16.53V26.59h9A57.42,57.42,0,0,0,47.84,21a59,59,0,0,0-5.39-4.47m1.49,3A28.9,28.9,0,0,1,46.72,22a28,28,0,0,1,2.09,3.11H43.94V19.58" style="fill:#00103d;fill-rule:evenodd"/><path id="Fill-62" d="M31.46,37.68a7.47,7.47,0,1,1,7.47-7.47,7.48,7.48,0,0,1-7.47,7.47" style="fill:#2962ff;fill-rule:evenodd"/><path id="Fill-63" d="M31.46,22a8.22,8.22,0,1,0,8.22,8.21A8.22,8.22,0,0,0,31.46,22m0,1.49a6.73,6.73,0,1,1-6.72,6.72,6.72,6.72,0,0,1,6.72-6.72" style="fill:#fff;fill-rule:evenodd"/><path id="Fill-64" d="M31.46,33.09a2.88,2.88,0,1,1,2.88-2.88,2.89,2.89,0,0,1-2.88,2.88" style="fill:#fff;fill-rule:evenodd"/><path id="Fill-65" d="M31.46,26.59a3.63,3.63,0,1,0,3.63,3.62,3.62,3.62,0,0,0-3.63-3.62m0,1.49a2.14,2.14,0,1,1-2.13,2.13,2.13,2.13,0,0,1,2.13-2.13" style="fill:#00103d;fill-rule:evenodd"/><path id="Fill-66" d="M31.46,38.26a.74.74,0,0,1-.74-.75v-7.3a.75.75,0,0,1,1.49,0v7.3a.74.74,0,0,1-.75.75" style="fill:#fff;fill-rule:evenodd"/><path id="Fill-67" d="M31.46,31a.66.66,0,0,1-.3-.07l-6.63-2.95a.75.75,0,0,1-.37-1,.74.74,0,0,1,1-.38l6.32,2.82,6.32-2.82a.75.75,0,0,1,.61,1.37l-6.62,2.95a.67.67,0,0,1-.31.07" style="fill:#fff;fill-rule:evenodd"/><path id="Fill-68" d="M73.82,36.09a5.57,5.57,0,1,1,5.56-5.57,5.57,5.57,0,0,1-5.56,5.57" style="fill:#c2d2ff;fill-rule:evenodd"/><path id="Fill-69" d="M73.82,24.27a6.25,6.25,0,1,0,6.24,6.25,6.25,6.25,0,0,0-6.24-6.25m0,1.36a4.89,4.89,0,1,1-4.9,4.89,4.88,4.88,0,0,1,4.9-4.89" style="fill:#00103d;fill-rule:evenodd"/><path id="Fill-70" d="M75.37,30.52A1.56,1.56,0,1,1,73.81,29a1.55,1.55,0,0,1,1.56,1.55" style="fill:#00103d;fill-rule:evenodd"/><path id="Fill-71" d="M73.82,36.51a.68.68,0,0,1-.68-.68V30.52a.68.68,0,1,1,1.35,0v5.31a.68.68,0,0,1-.67.68" style="fill:#00103d;fill-rule:evenodd"/><path id="Fill-72" d="M73.82,31.2a.67.67,0,0,1-.28-.06L68.72,29a.68.68,0,0,1-.34-.9.67.67,0,0,1,.89-.34l4.55,2,4.54-2a.67.67,0,0,1,.89.34.68.68,0,0,1-.34.9l-4.82,2.15a.66.66,0,0,1-.27.06" style="fill:#00103d;fill-rule:evenodd"/></g></g></g></g></g></g></svg>