<svg xmlns="http://www.w3.org/2000/svg" viewBox="0 0 266.96 246.29"><g id="Layer_2" data-name="Layer 2"><g id="Layer_1-2" data-name="Layer 1"><g id="Layer_2-2" data-name="Layer 2"><g id="Layer_1-2-2" data-name="Layer 1-2"><g id="freepik--Globe--inject-2"><ellipse cx="124.34" cy="101.64" rx="134.31" ry="20.77" transform="translate(-29.43 55.32) rotate(-22.5)" style="fill:#0674ed"/><ellipse cx="124.34" cy="101.64" rx="134.31" ry="20.77" transform="translate(-29.43 55.32) rotate(-22.5)" style="opacity:0.20000000298023224;isolation:isolate"/><path d="M168.56,6c-1.51-.45-3.05-.87-4.57-1.25l.24-1c1.54.38,3.09.81,4.61,1.26Z" style="fill:#0674ed"/><path d="M157.06,3.21A123.19,123.19,0,0,0,133.83,1V0a124.19,124.19,0,0,1,23.41,2.22Z" style="fill:#0674ed"/><path d="M133.94,246.29v-1A121.52,121.52,0,0,0,180.61,236l.38.93A122.51,122.51,0,0,1,133.94,246.29Z" style="fill:#0674ed"/><circle cx="133.88" cy="123.15" r="119.61" transform="translate(-47.87 130.74) rotate(-45)" style="fill:#0674ed"/><g style="opacity:0.20000000298023224"><path d="M222.76,65.23l18.83,5.92A119.56,119.56,0,0,0,147.14,4.26l-5.73,15.29-15.9,5.13s-17.75,16.38-17.68,17.44-.3,17.44-.3,17.44L95.29,75.45,84.83,82.32l-.06,15.54L91,113l9.39-1.72,8.18-9.88-1.33-6.67,19.31-10.89,14.83,7.93,21.07-8.36,13.6,8.44-17.63,16.62-27.69,7.16L111,123.82,91.64,140.63l4.71,21,15.41,10.2L142,173.38l17.37,18.43,10.94,19.28,6.53,8.34,10.57-5.8,10.73-26.82,7.37-34.32-4-19.91-8.33,5.88-6-12.72-12-12.31-4.07-8.06L197.31,118l27.52-4.19,9.53-20.55-9.91-16.09-16,4.08-11.51.08-3.8-7.44,14-1.85Z" style="fill:#fff"/><path d="M77.7,226.33l-6-18.07L43.46,191.47l-9.32-2.34a119.7,119.7,0,0,0,95.8,53.58l-.81-2s-31.34-10.08-32.34-10S77.7,226.33,77.7,226.33Z" style="fill:#fff"/><path d="M27.06,114.54l1.15-33,20-12.62L61.74,36.25l-8.62-1.43A119.63,119.63,0,0,0,20.52,161.3l19.31-12.38Z" style="fill:#fff"/></g><path d="M242.09,72.21c-17.8,14.72-58,36.43-106.53,56.52C87.94,148.47,44.78,161.46,21.46,164c.59,1.66,1.22,3.33,1.91,5a119,119,0,0,0,25,37.94c24.47-4.29,63.16-16.48,105.43-34,43-17.82,79.52-36.91,99.65-51.27a119,119,0,0,0-9.12-44.23C243.64,75.64,242.9,73.9,242.09,72.21Z" style="opacity:0.20000000298023224;isolation:isolate"/><path d="M248.42,50.25,266.7,94.39c4.39,10.6-47.6,42.2-116.13,70.58s-127.63,42.81-132,32.21L.28,153c4.39,10.6,63.51-3.82,132-32.21S252.83,60.84,248.42,50.25Z" style="fill:#0674ed"/><path d="M248.42,50.25,266.7,94.39c4.39,10.6-47.6,42.2-116.13,70.58s-127.63,42.81-132,32.21L.28,153c4.39,10.6,63.51-3.82,132-32.21S252.83,60.84,248.42,50.25Z" style="fill:#fff;opacity:0.5;isolation:isolate"/><path d="M58.94,158.09l9.47-3,10.15,13.53q-.91-8.13-1.79-16.31c3.13-1.05,6.24-2.13,9.36-3.21q5.78,6.48,11.51,13-1.62-8-3.2-15.92,4.64-1.67,9.26-3.39,2.28,14.49,4.67,28.92-4.73,1.71-9.49,3.38-6.47-7.32-13-14.62,1,9.21,2,18.39-4.78,1.59-9.59,3.14Q68.65,170,58.94,158.09Z" style="fill:#fff"/><path d="M112.94,139.21q4.64-1.77,9.24-3.61,4.8,6.77,9.57,13.54-.72-8.38-1.41-16.82c3-1.24,6.09-2.51,9.12-3.78q5.47,6.44,10.9,12.87-1.41-8.15-2.79-16.33,4.53-2,9-4,1.94,14.89,4,29.72l-9.25,4q-6.12-7.25-12.32-14.51.76,9.5,1.58,19-4.67,1.89-9.35,3.74Q122.11,151.11,112.94,139.21Z" style="fill:#fff"/><path d="M165.53,117.08c3-1.37,6-2.77,9-4.17q4.51,6.77,9,13.54-.54-8.64-1-17.32c3-1.44,5.93-2.88,8.89-4.35q5.16,6.39,10.27,12.78-1.2-8.37-2.38-16.73,4.41-2.23,8.8-4.52,1.57,15.28,3.24,30.49-4.48,2.3-9,4.55-5.78-7.2-11.61-14.4.54,9.8,1.15,19.53-4.54,2.19-9.1,4.32Q174.21,128.93,165.53,117.08Z" style="fill:#fff"/></g></g></g></g></g></svg>