<svg xmlns="http://www.w3.org/2000/svg" viewBox="0 0 500 500"><g id="freepik--background-complete--inject-628"><rect y="382.4" width="500" height="0.25" style="fill:#ebebeb"></rect><rect x="416.78" y="398.49" width="33.12" height="0.25" style="fill:#ebebeb"></rect><rect x="322.53" y="401.21" width="8.69" height="0.25" style="fill:#ebebeb"></rect><rect x="396.59" y="389.21" width="19.19" height="0.25" style="fill:#ebebeb"></rect><rect x="52.46" y="390.89" width="43.19" height="0.25" style="fill:#ebebeb"></rect><rect x="104.56" y="390.89" width="6.33" height="0.25" style="fill:#ebebeb"></rect><rect x="131.47" y="395.11" width="93.68" height="0.25" style="fill:#ebebeb"></rect><path d="M237,337.8H43.91a5.71,5.71,0,0,1-5.7-5.71V60.66A5.71,5.71,0,0,1,43.91,55H237a5.71,5.71,0,0,1,5.71,5.71V332.09A5.71,5.71,0,0,1,237,337.8ZM43.91,55.2a5.46,5.46,0,0,0-5.45,5.46V332.09a5.46,5.46,0,0,0,5.45,5.46H237a5.47,5.47,0,0,0,5.46-5.46V60.66A5.47,5.47,0,0,0,237,55.2Z" style="fill:#ebebeb"></path><path d="M453.31,337.8H260.21a5.72,5.72,0,0,1-5.71-5.71V60.66A5.72,5.72,0,0,1,260.21,55h193.1A5.71,5.71,0,0,1,459,60.66V332.09A5.71,5.71,0,0,1,453.31,337.8ZM260.21,55.2a5.47,5.47,0,0,0-5.46,5.46V332.09a5.47,5.47,0,0,0,5.46,5.46h193.1a5.47,5.47,0,0,0,5.46-5.46V60.66a5.47,5.47,0,0,0-5.46-5.46Z" style="fill:#ebebeb"></path><path d="M74.6,278c2.55-1.62,6.57-21.87,18.23-34.33,10.21-3.75,27.92-27,30.42-45.36,11.38-5,19.07-29.41,42.23-45.37l25,49,4.76,180.39H32.89S70.69,293.32,74.6,278Z" style="fill:#f5f5f5"></path><path d="M152.44,263.4c6.68-25.48,28.48-53.28,28.48-53.28s.68-14.67-15.44-57.15c33.38,45.31,83,120.07,90.88,125.06,3.91,15.29,41.72,104.37,41.72,104.37H107.81s12.6-43.57,6.24-54.39S152.21,284.21,152.44,263.4Z" style="fill:#ebebeb"></path><path d="M169.21,294.66c2.6-1.37,7.34-18.39,19.44-28.87,10.35-3.14,40.89-35.13,44-50.52,2.72-7,23.33-18.28,31.84-25.74L272,248.3l14.08,134.1H123.78S164.75,307.51,169.21,294.66Z" style="fill:#f5f5f5"></path><path d="M254.48,256.64c0-8.88,14.67-16.15,14.67-16.15s-.56-2-4.62-51c10.71,42,78.78,100.93,86.43,105.13,3.37,12.85,38,87.74,38,87.74H181.37s13.17-9.6,23.58-36.89C208.92,335.11,253.52,274.14,254.48,256.64Z" style="fill:#ebebeb"></path><path d="M238.2,317.84c2.54-1,6.56-13.53,18.22-21.23,10.21-2.32,27.92-16.73,30.42-28.06,11.38-3.09,26.79-22,42.23-28.06l10,43.25,19.75,98.66H196.48S234.28,327.3,238.2,317.84Z" style="fill:#f5f5f5"></path><path d="M319.08,283.74c4.32,5.14,19.53,7.72,19.53,7.72s-3.41-14.93-9.54-51c12.49,30.89,83,74.26,90.88,77.35,3.91,9.46,41.72,64.56,41.72,64.56H333.27s-4.2-30.19-10.56-36.89S318.85,296.61,319.08,283.74Z" style="fill:#ebebeb"></path><path d="M296.64,94h.4c0-13.81,10.45-24.55,24.66-24.55a31.3,31.3,0,0,1,23.64,11.38c9.24.11,17.76,5.93,21.8,14.09a14.31,14.31,0,0,1,5.17-.93,17.66,17.66,0,0,1,17.11,15.35,15.25,15.25,0,0,1,0,3.09H283.7a16,16,0,0,1-.66-3.09A13.42,13.42,0,0,1,296.64,94Z" style="fill:#f5f5f5"></path><path d="M170.08,86.23h.21a12.75,12.75,0,0,1,13.07-13,16.61,16.61,0,0,1,12.52,6,13.36,13.36,0,0,1,11.55,7.47,7.67,7.67,0,0,1,2.74-.5,9.37,9.37,0,0,1,9.07,8.14,8.2,8.2,0,0,1,0,1.64h-56a8.26,8.26,0,0,1-.35-1.64A7.12,7.12,0,0,1,170.08,86.23Z" style="fill:#fafafa"></path><circle cx="417.15" cy="171.96" r="27.4" style="fill:#f0f0f0"></circle><path d="M329.38,167.75h.38c0-13,9.87-23.2,23.3-23.2a29.6,29.6,0,0,1,22.34,10.76A23.84,23.84,0,0,1,396,168.63a13.7,13.7,0,0,1,4.89-.88,16.71,16.71,0,0,1,16.17,14.51,15.06,15.06,0,0,1,0,2.92h-100a14.33,14.33,0,0,1-.63-2.92A12.7,12.7,0,0,1,329.38,167.75Z" style="fill:#fafafa"></path><path d="M63.12,110h0A11.14,11.14,0,0,1,73.28,98c3.17-7.94,10.83-13.39,20.38-13.39a28.13,28.13,0,0,1,22.92,12.62c.35,0,.71,0,1.07,0a21,21,0,0,1,18,11h.39A14.75,14.75,0,0,1,150.36,121a13.13,13.13,0,0,1,0,2.58H58.62a14.1,14.1,0,0,1-.55-2.58A11.29,11.29,0,0,1,63.12,110Z" style="fill:#f5f5f5"></path></g><g id="freepik--Shadow--inject-628"><ellipse id="freepik--path--inject-628" cx="250" cy="416.24" rx="193.89" ry="11.32" style="fill:#f5f5f5"></ellipse></g><g id="freepik--Character--inject-628"><path d="M271.36,234.47a1.68,1.68,0,0,1-1.35-.68l-9.59-13.15-110.74-3.49-8.9,11.61a1.66,1.66,0,0,1-2.63-2l9.41-12.29a1.62,1.62,0,0,1,1.37-.65l112.41,3.55a1.68,1.68,0,0,1,1.29.68l10.07,13.8a1.67,1.67,0,0,1-1.34,2.64Z" style="fill:#263238"></path><path d="M182.17,229.91a1.61,1.61,0,0,1-.37,0,1.65,1.65,0,0,1-1.25-2l2.56-11.41a1.66,1.66,0,0,1,3.24.72l-2.56,11.42A1.66,1.66,0,0,1,182.17,229.91Z" style="fill:#263238"></path><path d="M233.57,231.34A1.66,1.66,0,0,1,232,230l-2.57-11.45a1.66,1.66,0,0,1,3.24-.73l2.57,11.45a1.67,1.67,0,0,1-1.26,2A2.2,2.2,0,0,1,233.57,231.34Z" style="fill:#263238"></path><polygon points="384.97 223.29 385.99 216.75 371.36 211.09 370.33 217.63 384.97 223.29" style="fill:#ff8b7b"></polygon><path d="M383.23,215.52,379,221.65a.59.59,0,0,0,.05.72l4.11,4.42a1,1,0,0,0,1.52-.13c1.44-2.17,2-3.29,3.88-6,1.15-1.65,5.14-6.7,6.71-9s-.47-4.15-1.33-3.35c-3.81,3.56-7.63,6-9.77,6.54A1.56,1.56,0,0,0,383.23,215.52Z" style="fill:#0674ED"></path><polygon points="370.34 217.63 371.36 211.09 379.46 214.22 377.88 220.55 370.34 217.63" style="opacity:0.2"></polygon><path d="M289.53,203.78s31.2-3.82,51.34-4.48a41.59,41.59,0,0,1,12.79,1.6c16.18,4.64,23.06,10.63,23.06,10.63l-2.31,9.91s-9.1-3.48-26.94-6.47a42,42,0,0,0-7.92-.54c-19.32.52-28.06,7.5-28.06,7.5Z" style="fill:#0674ED"></path><path d="M289.53,203.78s31.2-3.82,51.34-4.48a41.59,41.59,0,0,1,12.79,1.6c16.18,4.64,23.06,10.63,23.06,10.63l-2.31,9.91s-9.1-3.48-26.94-6.47a42,42,0,0,0-7.92-.54c-19.32.52-28.06,7.5-28.06,7.5Z" style="opacity:0.2"></path><path d="M374.09,208.27c0-.05,4.28,2.23,4.28,2.23l-3,13.32-4-1.14Z" style="fill:#263238"></path><path d="M279,133.14c.34.42.83.59,1.1.37s.23-.73-.11-1.15-.82-.58-1.09-.37S278.7,132.73,279,133.14Z" style="fill:#263238"></path><path d="M279.82,133.76a19.45,19.45,0,0,0,4.84,2c-.19,1.27-1.7,2-1.7,2Z" style="fill:#ff5652"></path><path d="M275.71,132a.31.31,0,0,0,.11-.16,2.49,2.49,0,0,1,1.49-1.7.32.32,0,0,0,.2-.4.31.31,0,0,0-.39-.2,3.1,3.1,0,0,0-1.91,2.13.32.32,0,0,0,.22.39A.31.31,0,0,0,275.71,132Z" style="fill:#263238"></path><path d="M267.9,143c2,4.54,4.73,13,2.09,16.89,0,0,2.32,4.53,11.13,2.65,9.68-2.07,3.6-5.8,3.6-5.8-5.56-.13-6.26-4.08-6.13-8Z" style="fill:#ff8b7b"></path><path d="M269.07,161.79c-1-1.37-2.15-2.95-.69-3.83,1.61-1,11-3.62,14.52-3.2a3.46,3.46,0,0,1,3.25,3.71Z" style="fill:#0674ED"></path><polygon points="347.11 223.1 352.13 219.95 343.58 205.19 338.56 208.34 347.11 223.1" style="fill:#ff8b7b"></polygon><polygon points="343.58 205.2 348.39 213.5 343.37 216.64 338.56 208.35 343.58 205.2" style="opacity:0.2"></polygon><path d="M288.69,204.16s18.39-24.77,35-26.33c11.36-1.07,24.43,31.68,24.43,31.68l-8.38,4s-7.42-5.69-14.78-19.79c-2,9.87-4.82,20.15-10.66,26.35-5.66,6-28.43,2.89-28.43,2.89Z" style="fill:#0674ED"></path><path d="M327.51,198.38c.5-2.58-.06-7.12-1.89-9.51a27.2,27.2,0,0,1-.69,4.89Q326.24,196.24,327.51,198.38Z" style="opacity:0.2"></path><path d="M271.09,171.38c-2.19,3.73-4.43,7.64-6.53,11.5s-4.12,7.77-5.84,11.68l-.61,1.46c-.11.26-.19.47-.26.66l-.23.61-.42,1.41-.4,1.5c-.49,2.06-.94,4.22-1.35,6.39L253,219.83l-5-.23a121.11,121.11,0,0,1-.26-13.87c.1-2.33.25-4.67.57-7.07l.26-1.83c.12-.64.23-1.26.38-1.9l.27-1c.09-.35.18-.68.28-.95l.57-1.72a108.55,108.55,0,0,1,5.59-13c2.1-4.18,4.33-8.16,6.85-12.17Z" style="fill:#ff8b7b"></path><path d="M265.83,161.49c-5.48,1.9-10.59,15.73-10.59,15.73l14.28,4.3s4.87-5.55,5.9-11.37C276.6,163.51,271.78,159.41,265.83,161.49Z" style="fill:#0674ED"></path><path d="M265.83,161.49c-5.48,1.9-10.59,15.73-10.59,15.73l14.28,4.3s4.87-5.55,5.9-11.37C276.6,163.51,271.78,159.41,265.83,161.49Z" style="fill:#fff;opacity:0.6000000000000001"></path><path d="M250.51,217.07l6.59.63-.23,5.5s-10,.84-8.84-4.52Z" style="fill:#ff8b7b"></path><polygon points="262.25 220.56 262.61 223.57 256.87 223.2 257.1 217.7 262.25 220.56" style="fill:#ff8b7b"></polygon><path d="M297.65,161.61c2.68,6.08,8,24.37,10.51,51.79a5.66,5.66,0,0,1-4.45,6l-16.25,3.47a13.43,13.43,0,0,1-16-10.71c-2-11.13-5.26-26.88-10.1-40.31A8.67,8.67,0,0,1,267,160.7c.83-.25,1.67-.49,2.5-.72a128.31,128.31,0,0,1,14.73-3.14c1.85-.23,3.68-.33,5.28-.38A8.66,8.66,0,0,1,297.65,161.61Z" style="fill:#0674ED"></path><path d="M297.65,161.61c2.68,6.08,8,24.37,10.51,51.79a5.66,5.66,0,0,1-4.45,6l-16.25,3.47a13.43,13.43,0,0,1-16-10.71c-2-11.13-5.26-26.88-10.1-40.31A8.67,8.67,0,0,1,267,160.7c.83-.25,1.67-.49,2.5-.72a128.31,128.31,0,0,1,14.73-3.14c1.85-.23,3.68-.33,5.28-.38A8.66,8.66,0,0,1,297.65,161.61Z" style="fill:#fff;opacity:0.6000000000000001"></path><path d="M293.71,171.94c-1.82,3.81-3.66,7.81-5.36,11.74a126.64,126.64,0,0,0-4.56,11.87l-.45,1.46c-.1.42-.22.77-.31,1.25-.18.92-.35,1.93-.48,3-.26,2.06-.46,4.22-.64,6.38l-1,13.14-5,.3a117.42,117.42,0,0,1-1.72-13.48c-.14-2.28-.27-4.56-.21-6.93,0-1.19.06-2.39.19-3.67.06-.62.2-1.36.3-2l.39-1.76c.53-2.32,1.17-4.57,1.89-6.76s1.5-4.37,2.32-6.5a127,127,0,0,1,5.65-12.51Z" style="fill:#ff8b7b"></path><path d="M287.47,162.39c-5.25,1.92-8.87,15.81-8.87,15.81l14.68,4.31s4.25-5.57,4.66-11.42C298.41,164.42,293.18,160.31,287.47,162.39Z" style="fill:#0674ED"></path><path d="M287.47,162.39c-5.25,1.92-8.87,15.81-8.87,15.81l14.68,4.31s4.25-5.57,4.66-11.42C298.41,164.42,293.18,160.31,287.47,162.39Z" style="fill:#fff;opacity:0.6000000000000001"></path><path d="M278.13,218.22l6.63.63.35,5.54s-9.82.84-9.28-4.55Z" style="fill:#ff8b7b"></path><polygon points="290.19 221.72 290.87 224.75 285.12 224.39 284.76 218.85 290.19 221.72" style="fill:#ff8b7b"></polygon><path d="M264.38,143.34c4.39,4.89,6.72,8,11.41,8.55,7,.86,11.52-6.53,8.68-12.63-2.57-5.49-9.33-12.56-16-10.61A9,9,0,0,0,264.38,143.34Z" style="fill:#ff8b7b"></path><path d="M277.5,138.3c2-1.48,1.49-3.05.18-4.26a13,13,0,0,0-4.12-2,4.46,4.46,0,0,0,2.47-5.23c-.78-4-6.69-3.74-8.6-1.92-5.48-1.83-11.77,5.52-10.35,8.44-2.2,1.76-1,5.27.65,5.54-2.83,3.09-1.51,8,5.86,8.47,3.22.2,6.1,4.86,8.49,3.11S281,144.44,277.5,138.3Z" style="fill:#263238"></path><path d="M273.54,139.63a7.42,7.42,0,0,0,4.3,2.06c2.14.23,2.61-1.51,1.51-3.13-1-1.46-3.27-3.33-5.18-2.82S272.15,138.24,273.54,139.63Z" style="fill:#ff8b7b"></path><path d="M348.43,206.17s1.51,3.92,1.51,3.92L339.25,216l-2.09-3.1Z" style="fill:#263238"></path><path d="M350.66,217.2l-5.9,2.64a.54.54,0,0,0-.3.58l1.09,5.28a.86.86,0,0,0,1.21.62c2.11-1,5.14-2.5,7.81-3.7,3.13-1.4,4.58-1.84,8.25-3.49,2.22-1,1.83-3.51.81-3.3-4.65,1-6.81,1.82-11.47,1.2A2.84,2.84,0,0,0,350.66,217.2Z" style="fill:#0674ED"></path><path d="M410.71,234.47a1.66,1.66,0,0,1-1.34-.68l-9.59-13.15L289,217.15l-8.9,11.61a1.66,1.66,0,0,1-2.64-2l9.42-12.29a1.62,1.62,0,0,1,1.37-.65l112.41,3.55A1.66,1.66,0,0,1,402,218l10.07,13.8a1.66,1.66,0,0,1-.36,2.32A1.71,1.71,0,0,1,410.71,234.47Z" style="fill:#263238"></path><path d="M321.53,229.91a1.55,1.55,0,0,1-.37,0,1.66,1.66,0,0,1-1.26-2l2.57-11.41a1.66,1.66,0,0,1,3.24.72l-2.57,11.42A1.64,1.64,0,0,1,321.53,229.91Z" style="fill:#263238"></path><path d="M372.92,231.34a1.67,1.67,0,0,1-1.62-1.3l-2.57-11.45a1.66,1.66,0,0,1,3.24-.73l2.58,11.45a1.68,1.68,0,0,1-1.26,2A2.33,2.33,0,0,1,372.92,231.34Z" style="fill:#263238"></path><path d="M138.43,334.57h-24c-12.5,0-22.63,18.12-22.63,40.47s10.13,40.46,22.63,40.46h24c12.5,0,22.63-18.11,22.63-40.46S150.93,334.57,138.43,334.57Z"></path><path d="M246.62,334.57h-24c-12.5,0-22.63,18.12-22.63,40.47s10.13,40.46,22.63,40.46h24c12.5,0,22.63-18.11,22.63-40.46S259.12,334.57,246.62,334.57Z"></path><rect x="68.04" y="351.93" width="366.09" height="32.32" rx="11.78"></rect><path d="M116.75,286.3H106.48a3.63,3.63,0,0,1-3.67-4.18l2.8-22.82a4.88,4.88,0,0,1,4.69-4.17h10.28a3.63,3.63,0,0,1,3.66,4.17l-2.8,22.82A4.87,4.87,0,0,1,116.75,286.3Z" style="fill:#263238"></path><path d="M116.75,287.13H106.48A4.47,4.47,0,0,1,102,282l2.8-22.82a5.71,5.71,0,0,1,5.51-4.9h10.28a4.51,4.51,0,0,1,3.41,1.49,4.58,4.58,0,0,1,1.08,3.62l-2.8,22.81A5.72,5.72,0,0,1,116.75,287.13ZM110.3,256a4.07,4.07,0,0,0-3.86,3.45l-2.8,22.81a2.89,2.89,0,0,0,.67,2.31,2.81,2.81,0,0,0,2.17.94h10.27a4.07,4.07,0,0,0,3.87-3.45l2.8-22.82a2.9,2.9,0,0,0-.67-2.31,2.87,2.87,0,0,0-2.17-.93Z" style="fill:#263238"></path><path d="M122.57,235.67l-16.45,53.87H269.41L294.31,224l-24.9-.87H139.55A17.75,17.75,0,0,0,122.57,235.67Z" style="fill:#0674ED"></path><path d="M444.13,353.73a6.26,6.26,0,0,0,6.08-7.35l-8.57-39.56a7,7,0,0,0-7-5.51H321.24a2.43,2.43,0,0,0-2.37,2.88c1.81,8.14,7.64,35.13,9.86,45.47a5.15,5.15,0,0,0,5.14,4.07Z" style="fill:#263238"></path><path d="M215.92,360H439.21L427.7,240.89a14.4,14.4,0,0,0-13.86-13L283,223.57a17.77,17.77,0,0,0-17.61,12.56l-16.31,53.41H217.63Z" style="fill:#0674ED"></path><path d="M215.92,360H439.21L427.7,240.89a14.4,14.4,0,0,0-13.86-13L283,223.57a17.77,17.77,0,0,0-17.61,12.56l-16.31,53.41H217.63Z" style="fill:#263238;opacity:0.30000000000000004"></path><path d="M125.7,285.48a5.71,5.71,0,0,1-5.47-7.35l11.86-39.55a7.76,7.76,0,0,1,7.46-5.52H252.94a2.23,2.23,0,0,1,2.14,2.88c-2.49,8.15-10.56,35.14-13.64,45.47a5.72,5.72,0,0,1-5.48,4.07Z" style="fill:#263238"></path><path d="M221,348.57H69.6l-8.82-44.24a12.38,12.38,0,0,1,12.14-14.79H217.63a12.37,12.37,0,0,1,12.13,14.79Z" style="fill:#0674ED"></path><circle cx="85.14" cy="314.14" r="12.83" style="fill:#263238"></circle><circle cx="85.14" cy="314.14" r="8.6" style="fill:#fff"></circle><path d="M85.14,323.16a9,9,0,1,1,9-9A9,9,0,0,1,85.14,323.16Zm0-17.21a8.19,8.19,0,1,0,8.19,8.19A8.19,8.19,0,0,0,85.14,306Z" style="fill:#0674ED"></path><path d="M128.12,303a6.25,6.25,0,1,1-6.24-6.25A6.24,6.24,0,0,1,128.12,303Z" style="fill:#fff"></path><path d="M170.12,303a6.25,6.25,0,1,1-6.25-6.25A6.24,6.24,0,0,1,170.12,303Z" style="fill:#fff"></path><circle cx="205.41" cy="314.14" r="12.83" style="fill:#263238"></circle><circle cx="205.41" cy="314.14" r="8.6" style="fill:#fff"></circle><path d="M205.41,323.16a9,9,0,1,1,9-9A9,9,0,0,1,205.41,323.16Zm0-17.21a8.19,8.19,0,1,0,8.19,8.19A8.19,8.19,0,0,0,205.41,306Z" style="fill:#0674ED"></path><path d="M194.13,348.58h-8.38l-8.21-15.66a12,12,0,0,0-10.64-6.27h-41a12,12,0,0,0-10.64,6.27l-8.21,15.66H98.69l10.65-20.33A12,12,0,0,1,120,322h52.84a12,12,0,0,1,10.64,6.27Z" style="fill:#263238;opacity:0.30000000000000004"></path><path d="M189.5,348.58h-8.58l-8.41-16.83A12.18,12.18,0,0,0,161.62,325H119.67a12.18,12.18,0,0,0-10.89,6.73l-8.41,16.83H91.79l10.91-21.84A12.17,12.17,0,0,1,113.59,320H167.7a12.17,12.17,0,0,1,10.89,6.74Z" style="fill:#fff"></path><path d="M160.71,337.45a6.2,6.2,0,0,0-5.55-3.44H127.58a6.2,6.2,0,0,0-5.55,3.44l-5.56,11.13h49.8Z" style="fill:#263238;opacity:0.30000000000000004"></path><path d="M227.62,354.83v13.95a6.28,6.28,0,0,1-6.26,6.26H166.78a4.38,4.38,0,0,1-3.92-2.43h0a7.13,7.13,0,0,0-6.38-3.93H124.81a7.13,7.13,0,0,0-6.38,3.93h0a4.38,4.38,0,0,1-3.92,2.43H69.19a6.28,6.28,0,0,1-6.26-6.26V354.83a6.27,6.27,0,0,1,6.26-6.25H221.36A6.27,6.27,0,0,1,227.62,354.83Z" style="fill:#fff"></path><path d="M221.36,375.87H166.78a5.18,5.18,0,0,1-4.66-2.88,6.32,6.32,0,0,0-5.64-3.48H124.81a6.3,6.3,0,0,0-5.63,3.47,5.2,5.2,0,0,1-4.67,2.89H69.19a7.1,7.1,0,0,1-7.09-7.09V354.83a7.09,7.09,0,0,1,7.09-7.08H221.36a7.09,7.09,0,0,1,7.09,7.08v13.95A7.1,7.1,0,0,1,221.36,375.87Zm-96.55-8h31.67a8,8,0,0,1,7.12,4.4,3.53,3.53,0,0,0,3.18,2h54.58a5.44,5.44,0,0,0,5.43-5.43V354.83a5.43,5.43,0,0,0-5.43-5.42H69.19a5.43,5.43,0,0,0-5.43,5.42v13.95a5.44,5.44,0,0,0,5.43,5.43h45.32a3.53,3.53,0,0,0,3.18-2A8,8,0,0,1,124.81,367.85Z" style="fill:#263238"></path><path d="M227.62,358.19v6.72a6.27,6.27,0,0,1-6.26,6.25H166.78a4.37,4.37,0,0,1-3.92-2.42h0a7.11,7.11,0,0,0-6.38-3.93H124.81a7.11,7.11,0,0,0-6.38,3.93h0a4.37,4.37,0,0,1-3.92,2.42H69.19a6.27,6.27,0,0,1-6.26-6.25v-6.72a6.28,6.28,0,0,1,6.26-6.26H221.36A6.28,6.28,0,0,1,227.62,358.19Z" style="fill:#263238"></path><path d="M246.54,300.12H226.07a.62.62,0,0,1-.63-.62.63.63,0,0,1,.63-.62h20.47a.62.62,0,0,1,.62.62A.62.62,0,0,1,246.54,300.12Z" style="fill:#0674ED"></path><path d="M317.25,355.72a.62.62,0,0,1-.62-.62L315.78,229a.64.64,0,0,1,.62-.63h0a.62.62,0,0,1,.62.62l.84,126.15a.63.63,0,0,1-.62.63Z" style="fill:#0674ED"></path><path d="M390.83,355.72a.62.62,0,0,1-.61-.56L376.8,229a.61.61,0,0,1,.55-.68.62.62,0,0,1,.68.55L391.45,355a.62.62,0,0,1-.55.69Z" style="fill:#0674ED"></path><path d="M328,360l-19.1-37.44a5.22,5.22,0,0,0-4.65-2.85H262.89a5.2,5.2,0,0,0-4.64,2.85L239.14,360Z"></path><path d="M310.07,345h16a3.35,3.35,0,0,0,3-4.88l-9.79-19.2a3.37,3.37,0,0,0-3-1.83h-16a3.35,3.35,0,0,0-3,4.88l9.79,19.2A3.37,3.37,0,0,0,310.07,345Z"></path><path d="M273.22,375c0-22.35,10.13-40.47,22.63-40.47h-24c-12.5,0-22.63,18.12-22.63,40.47s10.13,40.46,22.63,40.46h24C283.35,415.5,273.22,397.39,273.22,375Z"></path><path d="M273.22,375c0-22.35,10.13-40.47,22.63-40.47h-24c-12.5,0-22.63,18.12-22.63,40.47s10.13,40.46,22.63,40.46h24C283.35,415.5,273.22,397.39,273.22,375Z" style="fill:#263238;opacity:0.7000000000000001"></path><ellipse cx="295.85" cy="375.04" rx="22.63" ry="40.47" style="fill:#263238"></ellipse><ellipse cx="297.67" cy="375.04" rx="16.05" ry="31.55" style="fill:#fff"></ellipse><ellipse cx="296.2" cy="375.04" rx="15.35" ry="27.31" style="fill:#263238"></ellipse><ellipse cx="292.83" cy="375.04" rx="11.21" ry="19.94"></ellipse><path d="M257.92,345H242a3.35,3.35,0,0,1-3-4.88l9.79-19.2a3.36,3.36,0,0,1,3-1.83h16a3.35,3.35,0,0,1,3,4.88l-9.79,19.2A3.36,3.36,0,0,1,257.92,345Z" style="fill:#263238"></path><rect x="261.52" y="319.05" width="55.72" height="5.5" rx="2.75" style="fill:#263238"></rect><path d="M436.15,360l-19.1-37.44a5.22,5.22,0,0,0-4.65-2.85H371.08a5.2,5.2,0,0,0-4.64,2.85L347.33,360Z"></path><path d="M418.26,345h16a3.35,3.35,0,0,0,3-4.88l-9.79-19.2a3.37,3.37,0,0,0-3-1.83h-16a3.35,3.35,0,0,0-3,4.88l9.79,19.2A3.37,3.37,0,0,0,418.26,345Z"></path><path d="M381.41,375c0-22.35,10.13-40.47,22.63-40.47H380c-12.5,0-22.63,18.12-22.63,40.47S367.53,415.5,380,415.5h24C391.54,415.5,381.41,397.39,381.41,375Z"></path><path d="M381.41,375c0-22.35,10.13-40.47,22.63-40.47H380c-12.5,0-22.63,18.12-22.63,40.47S367.53,415.5,380,415.5h24C391.54,415.5,381.41,397.39,381.41,375Z" style="fill:#263238;opacity:0.7000000000000001"></path><ellipse cx="404.04" cy="375.04" rx="22.63" ry="40.47" style="fill:#263238"></ellipse><ellipse cx="405.86" cy="375.04" rx="16.05" ry="31.55" style="fill:#fff"></ellipse><ellipse cx="404.39" cy="375.04" rx="15.35" ry="27.31" style="fill:#263238"></ellipse><ellipse cx="401.02" cy="375.04" rx="11.21" ry="19.94"></ellipse><path d="M366.11,345h-16a3.35,3.35,0,0,1-3-4.88l9.79-19.2a3.36,3.36,0,0,1,3-1.83h16a3.35,3.35,0,0,1,3,4.88l-9.79,19.2A3.36,3.36,0,0,1,366.11,345Z" style="fill:#263238"></path><rect x="369.71" y="319.05" width="55.72" height="5.5" rx="2.75" style="fill:#263238"></rect><path d="M311.55,238.42v42.4a4.67,4.67,0,0,1-4.66,4.67H267.68a4.67,4.67,0,0,1-4.5-5.92l12.09-43.35a4.65,4.65,0,0,1,4.66-3.41l27.12.94A4.67,4.67,0,0,1,311.55,238.42Z" style="fill:#263238"></path><path d="M373.83,285.49h-48.2a4.66,4.66,0,0,1-4.66-4.67V239.07a4.66,4.66,0,0,1,4.82-4.66l43.81,1.25a4.66,4.66,0,0,1,4.47,4.16l4.4,40.5A4.67,4.67,0,0,1,373.83,285.49Z" style="fill:#263238"></path><path d="M419.67,285.49H391.45a4.67,4.67,0,0,1-4.64-4.16l-4.31-39.89a4.66,4.66,0,0,1,4.8-5.17l28.31,1a4.67,4.67,0,0,1,4.48,4.16l4.22,38.89A4.68,4.68,0,0,1,419.67,285.49Z" style="fill:#263238"></path><path d="M270.42,294.31h-4.76a1.66,1.66,0,1,1,0-3.32h4.76a7.24,7.24,0,0,0,5.94-3.1l3.52-5a1.66,1.66,0,1,1,2.73,1.9l-3.53,5A10.56,10.56,0,0,1,270.42,294.31Z" style="fill:#263238"></path><path d="M288.31,286.3H278a3.63,3.63,0,0,1-3.66-4.18l2.8-22.82a4.87,4.87,0,0,1,4.69-4.17h10.27a3.63,3.63,0,0,1,3.67,4.17L293,282.12A4.87,4.87,0,0,1,288.31,286.3Z"></path><path d="M288.31,287.13H278a4.48,4.48,0,0,1-3.41-1.5,4.55,4.55,0,0,1-1.08-3.61l2.8-22.82a5.72,5.72,0,0,1,5.52-4.9h10.27a4.44,4.44,0,0,1,4.49,5.11l-2.8,22.81A5.71,5.71,0,0,1,288.31,287.13ZM281.86,256a4.07,4.07,0,0,0-3.87,3.45l-2.8,22.81a2.86,2.86,0,0,0,.68,2.31,2.81,2.81,0,0,0,2.16.94h10.28a4.06,4.06,0,0,0,3.86-3.45L295,259.2a2.9,2.9,0,0,0-.67-2.31,2.84,2.84,0,0,0-2.17-.93Z"></path><path d="M286.37,286.3H276.1a3.63,3.63,0,0,1-3.67-4.18l2.8-22.82a4.87,4.87,0,0,1,4.69-4.17H290.2a3.63,3.63,0,0,1,3.66,4.17l-2.8,22.82A4.87,4.87,0,0,1,286.37,286.3Z" style="fill:#263238"></path><path d="M286.37,287.13H276.1a4.45,4.45,0,0,1-4.49-5.11l2.8-22.82a5.71,5.71,0,0,1,5.51-4.9H290.2a4.51,4.51,0,0,1,3.41,1.49,4.58,4.58,0,0,1,1.08,3.62l-2.8,22.81A5.73,5.73,0,0,1,286.37,287.13ZM279.92,256a4.08,4.08,0,0,0-3.87,3.45l-2.79,22.81a2.89,2.89,0,0,0,.67,2.31,2.81,2.81,0,0,0,2.17.94h10.27a4.07,4.07,0,0,0,3.87-3.45L293,259.2a2.87,2.87,0,0,0-.68-2.31,2.83,2.83,0,0,0-2.16-.93Z" style="fill:#263238"></path><path d="M272.43,282.12l2.8-22.82a4.87,4.87,0,0,1,4.69-4.17h8.31" style="fill:#263238"></path><path d="M272.43,283h-.1a.84.84,0,0,1-.72-.93l2.8-22.82a5.71,5.71,0,0,1,5.51-4.9h8.31a.83.83,0,1,1,0,1.66h-8.31a4.08,4.08,0,0,0-3.87,3.45l-2.79,22.81A.84.84,0,0,1,272.43,283Z" style="fill:#fff"></path><polygon points="191.8 233.06 170.14 233.06 145.27 285.48 166.94 285.48 191.8 233.06" style="fill:#fff;opacity:0.1"></polygon><polygon points="208.66 233.06 198.31 233.06 173.45 285.48 183.79 285.48 208.66 233.06" style="fill:#fff;opacity:0.1"></polygon><polygon points="357.94 235.33 346.75 235.01 333.37 285.48 344.64 285.48 357.94 235.33" style="fill:#fff;opacity:0.1"></polygon><polygon points="366.64 235.58 361.3 235.42 348.03 285.48 353.41 285.48 366.64 235.58" style="fill:#fff;opacity:0.1"></polygon><path d="M249.77,202.63c4.76,0,10.88,4.2,9.67,14s-7.93,11.71-12.69,11.71" style="fill:#0674ED"></path><ellipse cx="248.26" cy="215.46" rx="12.99" ry="8.5" transform="translate(-13.55 414.24) rotate(-78.16)" style="fill:#263238"></ellipse><ellipse cx="248.26" cy="215.46" rx="8.71" ry="5.7" transform="translate(-13.55 414.24) rotate(-78.16)" style="fill:#fff"></ellipse><path d="M247.25,224.41a4.33,4.33,0,0,1-3.28-1.56c-1.49-1.67-2.16-4.45-1.81-7.43.57-4.91,3.77-8.9,7.12-8.9a4.32,4.32,0,0,1,3.28,1.55c1.48,1.67,2.16,4.45,1.81,7.43C253.79,220.41,250.6,224.41,247.25,224.41Zm2-17.21c-3,0-5.91,3.72-6.45,8.3a9,9,0,0,0,1.65,6.9,3.66,3.66,0,0,0,2.77,1.33c3,0,5.91-3.73,6.45-8.31h0c.32-2.79-.29-5.37-1.65-6.9A3.68,3.68,0,0,0,249.28,207.2Z" style="fill:#0674ED"></path><path d="M216.42,202.63c4.75,0,10.88,4.2,9.67,14s-7.94,11.71-12.69,11.71" style="fill:#0674ED"></path><ellipse cx="214.91" cy="215.46" rx="12.99" ry="8.5" transform="translate(-40.06 381.59) rotate(-78.16)" style="fill:#263238"></ellipse><ellipse cx="214.91" cy="215.46" rx="8.71" ry="5.7" transform="translate(-40.06 381.59) rotate(-78.16)" style="fill:#fff"></ellipse><path d="M213.9,224.41a4.32,4.32,0,0,1-3.28-1.56c-1.49-1.67-2.17-4.45-1.82-7.43.58-4.91,3.77-8.9,7.12-8.9a4.29,4.29,0,0,1,3.28,1.55c1.49,1.67,2.17,4.45,1.82,7.43C220.44,220.41,217.25,224.41,213.9,224.41Zm2-17.21c-3,0-5.9,3.72-6.44,8.3a9,9,0,0,0,1.65,6.9,3.64,3.64,0,0,0,2.77,1.33c3,0,5.9-3.73,6.44-8.31h0a9,9,0,0,0-1.65-6.9A3.67,3.67,0,0,0,215.92,207.2Z" style="fill:#0674ED"></path><path d="M183.07,202.63c4.75,0,10.88,4.2,9.67,14s-7.94,11.71-12.69,11.71" style="fill:#0674ED"></path><ellipse cx="181.56" cy="215.46" rx="12.99" ry="8.5" transform="translate(-66.57 348.95) rotate(-78.16)" style="fill:#263238"></ellipse><ellipse cx="181.56" cy="215.46" rx="8.71" ry="5.7" transform="translate(-66.57 348.95) rotate(-78.16)" style="fill:#fff"></ellipse><path d="M180.54,224.41a4.33,4.33,0,0,1-3.28-1.56c-1.48-1.67-2.16-4.45-1.81-7.43.58-4.91,3.77-8.9,7.12-8.9a4.31,4.31,0,0,1,3.28,1.55c1.49,1.67,2.16,4.45,1.81,7.43C187.09,220.41,183.89,224.41,180.54,224.41Zm2-17.21c-3,0-5.91,3.72-6.44,8.3-.33,2.79.28,5.37,1.64,6.9a3.66,3.66,0,0,0,2.77,1.33c3,0,5.91-3.73,6.45-8.31h0a9,9,0,0,0-1.65-6.9A3.68,3.68,0,0,0,182.57,207.2Z" style="fill:#0674ED"></path><path d="M149.71,202.63c4.76,0,10.88,4.2,9.67,14s-7.93,11.71-12.69,11.71" style="fill:#0674ED"></path><ellipse cx="148.2" cy="215.46" rx="12.99" ry="8.5" transform="translate(-93.08 316.3) rotate(-78.16)" style="fill:#263238"></ellipse><ellipse cx="148.2" cy="215.46" rx="8.71" ry="5.7" transform="translate(-93.08 316.3) rotate(-78.16)" style="fill:#fff"></ellipse><path d="M147.19,224.41a4.32,4.32,0,0,1-3.28-1.56c-1.49-1.67-2.16-4.45-1.81-7.43.57-4.91,3.77-8.9,7.12-8.9a4.32,4.32,0,0,1,3.28,1.55c1.48,1.67,2.16,4.45,1.81,7.43C153.73,220.41,150.54,224.41,147.19,224.41Zm2-17.21c-3,0-5.91,3.72-6.45,8.3a9,9,0,0,0,1.65,6.9,3.66,3.66,0,0,0,2.77,1.33c3,0,5.91-3.73,6.44-8.31h0c.33-2.79-.28-5.37-1.64-6.9A3.68,3.68,0,0,0,149.22,207.2Z" style="fill:#0674ED"></path></g></svg>
