<svg xmlns="http://www.w3.org/2000/svg" viewBox="0 0 500 500"><g id="freepik--background-complete--inject-630"><path d="M239.31,56.21a9.8,9.8,0,0,1-1.27-.28,10.27,10.27,0,0,0-3.47-.09,9.47,9.47,0,0,0-4.65,2,9.73,9.73,0,0,0-3.28,5.22v.06l-.2.77-.3-.73a10.41,10.41,0,0,0-3.92-4.76,10.1,10.1,0,0,0-4.8-1.63,13.28,13.28,0,0,0-4.71.6,3.83,3.83,0,0,1,1.2-.52,9.93,9.93,0,0,1,3.53-.45,10.24,10.24,0,0,1,5,1.6,10.73,10.73,0,0,1,4.15,5l-.5,0,0-.06a10,10,0,0,1,3.48-5.47,9.64,9.64,0,0,1,8.47-1.77A4.24,4.24,0,0,1,239.31,56.21Z" style="fill:#e0e0e0"></path><path d="M156.81,60.48a10.71,10.71,0,0,1-1.15,1.33,29.6,29.6,0,0,0-2.82,3.84,28,28,0,0,0-4.2,14.9v.19l-.52,0a25,25,0,0,0-6.86-13.67,34.64,34.64,0,0,0-5-4.07,1.7,1.7,0,0,1,.41.19c.26.15.66.34,1.13.65a22.56,22.56,0,0,1,3.73,3,24.62,24.62,0,0,1,7.12,13.85l-.52,0v-.2a27.33,27.33,0,0,1,4.41-15.1,25.14,25.14,0,0,1,3-3.77c.39-.42.73-.71,1-.91A1.9,1.9,0,0,1,156.81,60.48Z" style="fill:#e0e0e0"></path><polygon points="32.13 449.3 53.07 446.36 52.17 430.87 84.7 438.25 89.77 420.25 115.92 426.54 145.51 413 151.97 417.3 189.15 411.61 202.3 388.48 227.58 376.05 245.69 393.67 246.62 379.74 271.02 375.59 277.42 380.84 281.78 373.42 316.52 373.33 324.56 361.33 426.93 332.25 454.19 312.44 483.93 323.04 462.01 226.62 421.09 160.24 378.23 193.92 324.76 84.37 254.88 123.09 159.17 244.96 76.5 199.82 23.66 297.19 16.85 468.54 16.85 468.54 32.13 449.3" style="fill:#ebebeb"></polygon><polygon points="76.5 199.82 172.93 284.84 159.17 244.96 76.5 199.82" style="fill:#e0e0e0"></polygon><polygon points="324.76 84.37 382.59 253.78 378.23 193.92 324.76 84.37" style="fill:#e0e0e0"></polygon><polygon points="421.09 160.24 471.66 269.08 464.25 225.32 421.09 160.24" style="fill:#e0e0e0"></polygon></g><g id="freepik--Floor--inject-630"><path d="M484.61,323.06s-.68-.22-2-.68l-5.87-2.06-22.6-8h.11L403,346.79l-.06,0h-.08l-41.12-6.13.17,0-45.21,32.66-.06,0h-.08l-34.74.09.22-.12-4.36,7.43-.15.25-.23-.19-6.4-5.25.2.06-24.39,4.15.21-.24c-.29,4.41-.61,9.16-.93,13.93l0,.56-.4-.39c-1.85-1.8-3.84-3.74-5.85-5.68L227.39,376l.3,0-25.28,12.42.11-.1-13.15,23.13-.07.11-.12,0L152,417.31h-.09l-.08-.05L145.38,413h.23L116,426.51l-.07,0h-.07l-26.15-6.3.24-.14-5.07,18,0,.18-.18,0L52.14,430.8l.19-.17c.33,5.71.61,10.77.88,15.5v.13l-.12,0-21,2.9.07,0L20.82,463.4q-2,2.42-2.95,3.68c-.67.82-1,1.23-1,1.23s.32-.43,1-1.27l2.92-3.71L32,449l0,0h0l20.94-3-.12.15c-.28-4.73-.58-9.79-.91-15.5l0-.21.21.05,32.53,7.34-.22.14q2.42-8.62,5-18l.05-.19.19.05L116,426.09l-.14,0,29.58-13.55.12-.05.11.07,6.47,4.29-.17,0,37.17-5.69-.18.12,13.15-23.14,0-.07.08,0,25.27-12.42.17-.09.13.13L240,387.57l5.84,5.69-.44.17c.32-4.78.64-9.53.94-13.93v-.2l.2,0,24.4-4.15.11,0,.09.08,6.4,5.25-.38.07c1.51-2.56,3-5.11,4.36-7.43l.07-.12h.15l34.74-.08-.15.05,45.24-32.61.07-.06.09,0,41.11,6.18-.13,0,51.37-34.36.05,0,.05,0,22.56,8.1,5.85,2.12C484,322.8,484.61,323.06,484.61,323.06Z" style="fill:#263238"></path><path d="M356.82,428.84l.12-.2.39-.59,1.55-2.26,5.89-8.45,0,0h.07l51-7.87,21.8-3.31.14,0,.09.11,4.74,5.58-.1-.07,15,5.56.07,0,0,.07,6.71,13.2c.77,1.55,1.38,2.75,1.81,3.61.19.39.34.7.45.94a1.69,1.69,0,0,1,.14.33,2.3,2.3,0,0,1-.19-.3c-.12-.24-.29-.54-.5-.92l-1.89-3.56-6.87-13.13.11.09-15-5.47-.06,0,0-.05-4.76-5.56.23.08-21.8,3.33-51,7.67.1-.06-6,8.36-1.62,2.21-.42.56C356.88,428.79,356.83,428.85,356.82,428.84Z" style="fill:#263238"></path></g><g id="freepik--Car--inject-630"><rect x="100.13" y="285.79" width="323.59" height="55.87" transform="translate(-80.92 91.27) rotate(-17.17)" style="fill:#0674ED"></rect><g style="opacity:0.6000000000000001"><rect x="100.13" y="285.79" width="323.59" height="55.87" transform="translate(-80.92 91.27) rotate(-17.17)"></rect></g><rect x="60.38" y="296.05" width="29.84" height="78.65" rx="7.14" transform="translate(-95.62 37.16) rotate(-17.16)" style="fill:#455a64"></rect><path d="M75.89,375.35a2.66,2.66,0,0,1,.49-2.37c.38-.6.58-1,.4-1.55s-.55-.78-1.2-1.07a2.51,2.51,0,0,1-1.24-4.06c.37-.6.58-1,.39-1.55s-.55-.78-1.19-1.07a2.51,2.51,0,0,1-1.24-4.06c.37-.59.57-1,.39-1.55s-.55-.78-1.19-1.06a2.7,2.7,0,0,1-1.74-1.69,2.66,2.66,0,0,1,.5-2.37c.37-.6.57-1,.39-1.55s-.55-.78-1.19-1.07a2.51,2.51,0,0,1-1.24-4.06c.37-.59.57-1,.39-1.55s-.55-.78-1.19-1.06A2.7,2.7,0,0,1,65.68,342a2.66,2.66,0,0,1,.5-2.37c.37-.6.57-1,.39-1.55s-.55-.79-1.19-1.07a2.52,2.52,0,0,1-1.25-4.06c.38-.6.58-1,.4-1.55s-.56-.79-1.2-1.07a2.52,2.52,0,0,1-1.24-4.07c.37-.59.57-1,.39-1.55s-.55-.78-1.19-1.07a2.51,2.51,0,0,1-1.24-4.06c.37-.59.57-1,.39-1.55s-.55-.78-1.19-1.07a2.63,2.63,0,0,1-1.74-1.69,2.66,2.66,0,0,1,.49-2.37c.38-.6.58-1,.4-1.56s-.56-.78-1.2-1.06A2.52,2.52,0,0,1,56,306.18c.37-.6.57-1,.39-1.56s-.55-.78-1.2-1.07a2.72,2.72,0,0,1-1.74-1.69l1-.3c.18.6.55.79,1.19,1.08a2.69,2.69,0,0,1,1.75,1.69,2.72,2.72,0,0,1-.5,2.38c-.37.6-.57,1-.39,1.55s.55.79,1.19,1.07a2.52,2.52,0,0,1,1.24,4.07c-.37.59-.57,1-.39,1.55s.55.78,1.2,1.07a2.51,2.51,0,0,1,1.24,4.06c-.37.6-.58,1-.39,1.55s.55.78,1.19,1.07a2.51,2.51,0,0,1,1.24,4.06c-.37.6-.57,1-.39,1.56s.55.78,1.19,1.06A2.52,2.52,0,0,1,65,333.45c-.37.59-.57,1-.39,1.55s.55.78,1.2,1.06A2.52,2.52,0,0,1,67,340.13c-.37.59-.58,1-.4,1.55s.56.78,1.2,1.06a2.51,2.51,0,0,1,1.24,4.06c-.37.6-.57,1-.39,1.55s.55.78,1.19,1.07a2.51,2.51,0,0,1,1.24,4.06c-.37.6-.57,1-.39,1.55s.55.78,1.19,1.06a2.7,2.7,0,0,1,1.74,1.69,2.66,2.66,0,0,1-.5,2.37c-.37.6-.57,1-.39,1.55s.55.78,1.19,1.07a2.51,2.51,0,0,1,1.24,4.06c-.37.6-.57,1-.39,1.55s.55.78,1.19,1.07a2.51,2.51,0,0,1,1.24,4.06c-.37.59-.57,1-.39,1.55Z" style="fill:#263238"></path><path d="M80.91,374.8a2.74,2.74,0,0,1,.48-2.41,1.83,1.83,0,0,0,.38-1.6c-.2-.64-.65-.84-1.22-1.1a2.58,2.58,0,0,1-1.27-4.13,1.8,1.8,0,0,0,.38-1.6c-.2-.64-.65-.84-1.22-1.1a2.58,2.58,0,0,1-1.27-4.13,1.78,1.78,0,0,0,.38-1.59c-.2-.64-.65-.85-1.21-1.11a2.58,2.58,0,0,1-1.28-4.13,1.78,1.78,0,0,0,.38-1.59c-.2-.64-.65-.85-1.21-1.11a2.74,2.74,0,0,1-1.76-1.71,2.77,2.77,0,0,1,.48-2.41,1.8,1.8,0,0,0,.38-1.6c-.2-.63-.64-.84-1.21-1.1a2.59,2.59,0,0,1-1.28-4.13,1.75,1.75,0,0,0,.38-1.59c-.19-.64-.64-.85-1.21-1.11a2.74,2.74,0,0,1-1.75-1.72,2.77,2.77,0,0,1,.47-2.41,1.75,1.75,0,0,0,.38-1.59c-.19-.64-.64-.85-1.21-1.11a2.59,2.59,0,0,1-1.28-4.13A1.76,1.76,0,0,0,67,323c-.2-.64-.64-.84-1.21-1.1a2.59,2.59,0,0,1-1.28-4.13,1.77,1.77,0,0,0,.38-1.6c-.19-.64-.64-.84-1.21-1.1a2.59,2.59,0,0,1-1.28-4.13,1.77,1.77,0,0,0,.38-1.6c-.2-.64-.64-.85-1.21-1.11a2.59,2.59,0,0,1-1.28-4.13,1.8,1.8,0,0,0,.38-1.6c-.2-.65-.65-.85-1.22-1.11a2.76,2.76,0,0,1-1.75-1.73l1-.29c.19.64.64.85,1.21,1.11a2.59,2.59,0,0,1,1.28,4.13,1.82,1.82,0,0,0-.38,1.61c.2.64.65.84,1.21,1.1a2.58,2.58,0,0,1,1.28,4.13,1.8,1.8,0,0,0-.38,1.6c.2.64.65.85,1.22,1.11a2.58,2.58,0,0,1,1.27,4.13,1.78,1.78,0,0,0-.38,1.59c.2.64.65.85,1.22,1.11a2.58,2.58,0,0,1,1.27,4.13,1.8,1.8,0,0,0-.38,1.6c.2.64.65.84,1.22,1.1a2.58,2.58,0,0,1,1.27,4.13,1.83,1.83,0,0,0-.38,1.6c.2.64.65.84,1.22,1.1a2.58,2.58,0,0,1,1.27,4.13,1.78,1.78,0,0,0-.38,1.59c.2.64.65.85,1.22,1.11a2.58,2.58,0,0,1,1.27,4.13,1.78,1.78,0,0,0-.38,1.59c.2.64.65.85,1.21,1.11a2.57,2.57,0,0,1,1.28,4.12,1.8,1.8,0,0,0-.38,1.6c.2.64.64.84,1.21,1.1A2.59,2.59,0,0,1,78,359.25a1.77,1.77,0,0,0-.38,1.6c.2.63.64.84,1.21,1.1a2.59,2.59,0,0,1,1.28,4.13,1.75,1.75,0,0,0-.38,1.59c.19.64.64.85,1.21,1.11a2.58,2.58,0,0,1,1.27,4.12,1.8,1.8,0,0,0-.37,1.6Z" style="fill:#263238"></path><path d="M85.66,373.33a2.74,2.74,0,0,1,.47-2.41,1.75,1.75,0,0,0,.38-1.59c-.19-.64-.64-.85-1.21-1.11A2.58,2.58,0,0,1,84,364.09a1.77,1.77,0,0,0,.37-1.59c-.19-.64-.64-.85-1.21-1.11a2.58,2.58,0,0,1-1.27-4.12,1.83,1.83,0,0,0,.38-1.6c-.2-.64-.65-.85-1.22-1.11a2.58,2.58,0,0,1-1.27-4.12,1.83,1.83,0,0,0,.38-1.6c-.2-.64-.65-.84-1.22-1.1a2.58,2.58,0,0,1-1.27-4.13,1.78,1.78,0,0,0,.38-1.59c-.2-.64-.65-.85-1.21-1.11a2.57,2.57,0,0,1-1.28-4.12,1.8,1.8,0,0,0,.38-1.6c-.2-.64-.65-.84-1.21-1.11A2.57,2.57,0,0,1,73.48,330a1.8,1.8,0,0,0,.38-1.6c-.2-.64-.65-.85-1.21-1.1a2.58,2.58,0,0,1-1.28-4.13,1.8,1.8,0,0,0,.38-1.6c-.2-.64-.65-.85-1.21-1.11a2.58,2.58,0,0,1-1.28-4.13,1.78,1.78,0,0,0,.38-1.59c-.2-.64-.65-.85-1.21-1.11a2.58,2.58,0,0,1-1.28-4.13,1.8,1.8,0,0,0,.38-1.6c-.2-.64-.65-.84-1.22-1.1A2.59,2.59,0,0,1,65,302.62a1.83,1.83,0,0,0,.38-1.6c-.2-.64-.65-.85-1.22-1.11a2.74,2.74,0,0,1-1.75-1.72l.95-.3c.2.64.65.85,1.22,1.11a2.6,2.6,0,0,1,1.28,4.14,1.77,1.77,0,0,0-.38,1.6c.2.64.64.85,1.21,1.11A2.59,2.59,0,0,1,68,310a1.79,1.79,0,0,0-.38,1.6c.2.64.65.84,1.21,1.1a2.58,2.58,0,0,1,1.28,4.13,1.8,1.8,0,0,0-.38,1.6c.2.64.64.84,1.21,1.1a2.58,2.58,0,0,1,1.28,4.13,1.8,1.8,0,0,0-.38,1.6c.2.64.65.85,1.21,1.11a2.57,2.57,0,0,1,1.28,4.12,1.8,1.8,0,0,0-.38,1.6c.2.64.65.85,1.21,1.11a2.58,2.58,0,0,1,1.28,4.12,1.8,1.8,0,0,0-.38,1.6c.2.64.64.84,1.21,1.1a2.59,2.59,0,0,1,1.28,4.13,1.75,1.75,0,0,0-.38,1.59c.19.64.64.85,1.21,1.11A2.58,2.58,0,0,1,80.66,351a1.83,1.83,0,0,0-.38,1.6c.2.64.65.84,1.22,1.1a2.58,2.58,0,0,1,1.27,4.13,1.83,1.83,0,0,0-.38,1.6c.2.64.65.84,1.22,1.1a2.58,2.58,0,0,1,1.27,4.13,1.83,1.83,0,0,0-.38,1.6c.2.64.65.84,1.22,1.1A2.58,2.58,0,0,1,87,371.44a1.81,1.81,0,0,0-.38,1.59Z" style="fill:#263238"></path><path d="M90.4,371.86a2.72,2.72,0,0,1,.48-2.4,1.8,1.8,0,0,0,.38-1.6c-.2-.64-.65-.85-1.21-1.11a2.58,2.58,0,0,1-1.28-4.12,1.8,1.8,0,0,0,.38-1.6c-.2-.64-.64-.84-1.21-1.1a2.59,2.59,0,0,1-1.28-4.13,1.77,1.77,0,0,0,.38-1.6c-.2-.64-.64-.84-1.21-1.1A2.59,2.59,0,0,1,84.55,349a1.75,1.75,0,0,0,.38-1.59c-.19-.64-.64-.85-1.21-1.11a2.58,2.58,0,0,1-1.27-4.12,1.83,1.83,0,0,0,.38-1.6c-.2-.64-.65-.84-1.22-1.1a2.58,2.58,0,0,1-1.27-4.13,1.83,1.83,0,0,0,.38-1.6c-.2-.64-.65-.84-1.22-1.1a2.58,2.58,0,0,1-1.27-4.13,1.83,1.83,0,0,0,.38-1.6c-.2-.64-.65-.84-1.22-1.1a2.58,2.58,0,0,1-1.27-4.13,1.83,1.83,0,0,0,.38-1.6c-.2-.64-.65-.84-1.22-1.1a2.78,2.78,0,0,1-1.75-1.73,2.73,2.73,0,0,1,.48-2.4,1.83,1.83,0,0,0,.38-1.6c-.2-.64-.65-.84-1.22-1.1a2.78,2.78,0,0,1-1.75-1.73,2.72,2.72,0,0,1,.48-2.4,1.83,1.83,0,0,0,.38-1.6c-.2-.64-.65-.85-1.22-1.11a2.74,2.74,0,0,1-1.75-1.72,2.77,2.77,0,0,1,.47-2.41,1.77,1.77,0,0,0,.38-1.6c-.2-.65-.65-.85-1.21-1.12a2.73,2.73,0,0,1-1.76-1.72l1-.29c.2.64.65.84,1.21,1.11a2.58,2.58,0,0,1,1.28,4.13,1.83,1.83,0,0,0-.38,1.6c.2.64.65.85,1.22,1.11a2.58,2.58,0,0,1,1.27,4.13,1.8,1.8,0,0,0-.37,1.6c.19.64.64.85,1.21,1.11a2.58,2.58,0,0,1,1.27,4.12,1.8,1.8,0,0,0-.37,1.6c.19.64.64.85,1.21,1.11A2.58,2.58,0,0,1,77,322.18a1.77,1.77,0,0,0-.37,1.59c.19.64.64.85,1.21,1.11A2.58,2.58,0,0,1,79.08,329a1.77,1.77,0,0,0-.37,1.59c.19.64.64.85,1.21,1.11a2.58,2.58,0,0,1,1.27,4.13,1.77,1.77,0,0,0-.37,1.59c.19.64.64.85,1.21,1.11a2.58,2.58,0,0,1,1.27,4.12,1.83,1.83,0,0,0-.38,1.6c.2.64.65.84,1.22,1.1a2.58,2.58,0,0,1,1.27,4.13,1.78,1.78,0,0,0-.38,1.59c.2.64.65.85,1.21,1.11a2.58,2.58,0,0,1,1.28,4.13,1.78,1.78,0,0,0-.38,1.59c.2.64.65.85,1.21,1.11a2.57,2.57,0,0,1,1.28,4.12,1.8,1.8,0,0,0-.38,1.6c.2.64.65.85,1.21,1.11A2.57,2.57,0,0,1,91.74,370a1.8,1.8,0,0,0-.38,1.6Z" style="fill:#263238"></path><path d="M95.15,370.4a2.74,2.74,0,0,1,.48-2.41,1.83,1.83,0,0,0,.38-1.6c-.2-.64-.65-.84-1.22-1.1a2.58,2.58,0,0,1-1.27-4.13,1.78,1.78,0,0,0,.38-1.59c-.2-.64-.65-.85-1.22-1.11a2.58,2.58,0,0,1-1.27-4.13,1.78,1.78,0,0,0,.38-1.59c-.2-.64-.65-.85-1.21-1.11a2.57,2.57,0,0,1-1.28-4.12,1.8,1.8,0,0,0,.38-1.6c-.2-.64-.65-.84-1.21-1.1a2.58,2.58,0,0,1-1.28-4.13,1.75,1.75,0,0,0,.38-1.59c-.2-.64-.64-.85-1.21-1.11a2.59,2.59,0,0,1-1.28-4.13,1.75,1.75,0,0,0,.38-1.59c-.19-.64-.64-.85-1.21-1.11a2.74,2.74,0,0,1-1.75-1.72A2.78,2.78,0,0,1,83,327a1.75,1.75,0,0,0,.38-1.59c-.19-.64-.64-.85-1.21-1.11a2.74,2.74,0,0,1-1.75-1.72,2.77,2.77,0,0,1,.47-2.41,1.75,1.75,0,0,0,.38-1.59c-.19-.65-.64-.85-1.21-1.11a2.59,2.59,0,0,1-1.28-4.13,1.77,1.77,0,0,0,.38-1.6c-.19-.64-.64-.84-1.21-1.1a2.59,2.59,0,0,1-1.28-4.13,1.77,1.77,0,0,0,.38-1.6c-.2-.64-.64-.85-1.21-1.11a2.59,2.59,0,0,1-1.28-4.13,1.8,1.8,0,0,0,.38-1.6c-.2-.64-.65-.85-1.22-1.11a2.76,2.76,0,0,1-1.75-1.72l1-.3c.19.64.64.85,1.21,1.11a2.72,2.72,0,0,1,1.75,1.72,2.76,2.76,0,0,1-.47,2.42,1.8,1.8,0,0,0-.38,1.6c.2.64.65.84,1.22,1.11a2.58,2.58,0,0,1,1.27,4.13,1.78,1.78,0,0,0-.38,1.59c.2.64.65.85,1.22,1.11a2.58,2.58,0,0,1,1.27,4.13,1.78,1.78,0,0,0-.38,1.59c.2.64.65.85,1.22,1.11a2.58,2.58,0,0,1,1.27,4.13,1.83,1.83,0,0,0-.38,1.6c.2.64.65.84,1.22,1.1a2.58,2.58,0,0,1,1.27,4.13,1.83,1.83,0,0,0-.38,1.6c.2.64.65.84,1.22,1.1a2.58,2.58,0,0,1,1.27,4.13,1.8,1.8,0,0,0-.38,1.6c.2.64.65.84,1.22,1.1a2.58,2.58,0,0,1,1.27,4.13,1.78,1.78,0,0,0-.38,1.59c.2.64.65.85,1.21,1.11A2.57,2.57,0,0,1,90.16,348a1.8,1.8,0,0,0-.38,1.6c.2.64.64.84,1.21,1.1a2.59,2.59,0,0,1,1.28,4.13,1.77,1.77,0,0,0-.38,1.6c.2.64.64.84,1.21,1.1a2.59,2.59,0,0,1,1.28,4.13,1.75,1.75,0,0,0-.38,1.59c.19.64.64.85,1.21,1.11a2.58,2.58,0,0,1,1.27,4.13,1.77,1.77,0,0,0-.37,1.59Z" style="fill:#263238"></path><polygon points="295.15 263.19 103.84 322.29 105.06 257.13 248.72 212.76 295.15 263.19" style="fill:#455a64"></polygon><path d="M233.17,233.17l-17.43,36.05" style="fill:#263238"></path><path d="M215.74,269.22c-.13-.06,3.67-8.18,8.48-18.14s8.82-18,8.95-17.91-3.67,8.18-8.48,18.14S215.87,269.29,215.74,269.22Z" style="fill:#fafafa"></path><path d="M219,246.08l-11.54,22.38" style="fill:#263238"></path><path d="M207.49,268.46c-.12-.06,2.35-5.13,5.54-11.31s5.87-11.13,6-11.07-2.35,5.13-5.54,11.31S207.62,268.53,207.49,268.46Z" style="fill:#fafafa"></path><path d="M166.05,256.15q-10.71,19.61-21.41,39.21" style="fill:#263238"></path><path d="M144.64,295.36c-.13-.07,4.56-8.91,10.47-19.73s10.81-19.55,10.94-19.48-4.57,8.9-10.48,19.73S144.76,295.42,144.64,295.36Z" style="fill:#fafafa"></path><path d="M145.75,276.7a277.08,277.08,0,0,1-14.36,25.19" style="fill:#263238"></path><path d="M131.39,301.89a4.52,4.52,0,0,1,.52-1l1.59-2.67c1.34-2.25,3.19-5.37,5.17-8.84s3.72-6.66,5-9l1.49-2.73a4.55,4.55,0,0,1,.61-1,5.41,5.41,0,0,1-.43,1.07c-.3.67-.76,1.62-1.35,2.8-1.17,2.35-2.86,5.56-4.85,9s-3.88,6.58-5.31,8.78c-.71,1.11-1.3,2-1.73,2.59A5.27,5.27,0,0,1,131.39,301.89Z" style="fill:#fafafa"></path><path d="M87.1,325.07l10.66-65.68a10.72,10.72,0,0,1,7.42-8.54l133-41.08s10.92-3.85,17.17,5L244.82,218,179,238.31l18.23,55.12L189.09,296l-17.41-55.38-51.51,15.91a17.5,17.5,0,0,0-12.32,17.36l1.69,46.68Z" style="fill:#263238"></path><path d="M100.56,368.65,87.1,325.07l189.66-58.59,1.58-15.75L244.82,218l10.53-3.25,37.19,33.64,84.72-14.64s20.06-4.26,26.36,8.44l4.79,11.12-52.66,11.86-23.66,54.13L211.91,356.41l-36-33-59.78,18.46-3.67,26.58Z" style="fill:#0674ED"></path><path d="M123.71,204.81l-11,3.4,11.41,36.95,24.27-7.5-6.93-22.43a6.29,6.29,0,0,0-3.09-3.71L125.87,205A2.84,2.84,0,0,0,123.71,204.81Zm-7.45,9.62-1.56-5,8.55-2.64a2.85,2.85,0,0,1,2.18.2l5.56,2.93Z" style="fill:#0674ED"></path><g style="opacity:0.4"><path d="M123.71,204.81l-11,3.4,11.41,36.95,24.27-7.5-6.93-22.43a6.29,6.29,0,0,0-3.09-3.71L125.87,205A2.84,2.84,0,0,0,123.71,204.81Zm-7.45,9.62-1.56-5,8.55-2.64a2.85,2.85,0,0,1,2.18.2l5.56,2.93Z"></path></g><path d="M117.32,206.79l-8.15,2.51a2.88,2.88,0,0,0-1.89,3.6l10.56,34.2,24.27-7.5-6.82-22.06a7.22,7.22,0,0,0-3.56-4.27l-12-6.27A3.15,3.15,0,0,0,117.32,206.79ZM110,216.37l-.71-2.3a2.86,2.86,0,0,1,1.9-3.59l5.68-1.76a3.16,3.16,0,0,1,2.41.22l5.44,2.88Z" style="fill:#0674ED"></path><path d="M132.21,209.53l1-1.86a1.28,1.28,0,0,1,1.05-.69,3.89,3.89,0,0,1,4.23,2.47,1.22,1.22,0,0,1,0,.88l-.72,1.83a2.2,2.2,0,0,1-2.28,1.36,4.63,4.63,0,0,1-2.92-1.51A2.16,2.16,0,0,1,132.21,209.53Z" style="fill:#0674ED"></path><path d="M132,235.41a10.71,10.71,0,0,1-.41-1.13c-.26-.78-.6-1.8-1-3.06-.86-2.61-2-6.27-3.39-10.55l.31.16-8.45,2.63c0,.07.33-.62.17-.33h0v0l0,.06,0,.14.08.26.17.53c.1.35.21.69.32,1l.63,2.05,1.19,3.9c.75,2.49,1.44,4.78,2,6.78l-.25-.13,6.15-1.79,1.72-.48a5.64,5.64,0,0,1,.64-.15,2.75,2.75,0,0,1-.54.21l-1.65.57-6.2,2-.19.07-.06-.2-2.14-6.76c-.39-1.25-.79-2.55-1.21-3.89-.21-.67-.42-1.36-.64-2.05-.1-.34-.21-.69-.32-1l-.16-.53-.08-.26,0-.13,0-.07v0h0c-.15.29.21-.4.18-.33l8.45-2.59.24-.08.07.24c1.34,4.39,2.44,8.14,3.2,10.77.36,1.25.65,2.27.88,3A6.61,6.61,0,0,1,132,235.41Z" style="fill:#263238"></path><path d="M119.19,223.2a17,17,0,0,1-3.8-1.62,16.19,16.19,0,0,1-3.57-2.08,16.31,16.31,0,0,1,3.8,1.62A16.81,16.81,0,0,1,119.19,223.2Z" style="fill:#263238"></path><path d="M130.85,214a13.91,13.91,0,0,1-1.51,3.5,14.47,14.47,0,0,1-2,3.26,14.07,14.07,0,0,1,1.51-3.5A14.76,14.76,0,0,1,130.85,214Z" style="fill:#263238"></path><path d="M123.68,237.57a21,21,0,0,1-1.91,3.7,23.11,23.11,0,0,1-2.14,3.56,13.52,13.52,0,0,1,1.69-3.82A13.87,13.87,0,0,1,123.68,237.57Z" style="fill:#263238"></path><path d="M139.43,239a14.53,14.53,0,0,1-4.1-1.47,14.33,14.33,0,0,1-3.76-2.21,24.64,24.64,0,0,1,4,1.74A24.35,24.35,0,0,1,139.43,239Z" style="fill:#263238"></path><path d="M138.28,209.7c0,.05-.25.33-.84.46a4.12,4.12,0,0,1-2.31-.16,2.74,2.74,0,0,1-1.62-1.67c-.18-.61,0-1,0-1s.07.36.3.83a2.78,2.78,0,0,0,1.47,1.33,5.17,5.17,0,0,0,2.06.27C137.93,209.77,138.24,209.63,138.28,209.7Z" style="fill:#263238"></path><rect x="160.79" y="196.86" width="67.02" height="25.79" transform="translate(-53.25 66.68) rotate(-17.17)" style="fill:#0674ED"></rect><g style="opacity:0.4"><rect x="204.83" y="190.22" width="21.98" height="25.79" transform="translate(-50.33 72.74) rotate(-17.17)"></rect></g><path d="M224.23,193.12c0,.13-14.31,4.69-32,10.17S160,213.1,160,213s14.3-4.69,32.05-10.17S224.19,193,224.23,193.12Z" style="fill:#263238"></path><rect x="164.03" y="208.64" width="4.3" height="7.23" transform="translate(-55.24 58.5) rotate(-17.17)" style="fill:#fafafa"></rect><rect x="186.61" y="201.66" width="4.3" height="7.23" transform="translate(-52.18 64.85) rotate(-17.17)" style="fill:#fafafa"></rect><rect x="143.7" y="177.11" width="54.3" height="25.79" rx="2.53" transform="translate(-48.47 58.89) rotate(-17.17)" style="fill:#455a64"></rect><path d="M172.46,182.18c0,.13-5.5,2-12.39,4.1s-12.5,3.74-12.54,3.6,5.5-2,12.39-4.1S172.42,182,172.46,182.18Z" style="fill:#263238"></path><path d="M173.57,185.75c0,.14-5.51,2-12.39,4.1s-12.51,3.74-12.55,3.61,5.51-2,12.39-4.1S173.52,185.62,173.57,185.75Z" style="fill:#263238"></path><path d="M174.67,189.33c0,.14-5.5,2-12.39,4.1s-12.5,3.74-12.54,3.6,5.5-2,12.39-4.1S174.63,189.19,174.67,189.33Z" style="fill:#263238"></path><path d="M175.78,192.91c0,.14-5.51,2-12.39,4.1s-12.51,3.74-12.55,3.6,5.51-2,12.39-4.1S175.73,192.77,175.78,192.91Z" style="fill:#263238"></path><path d="M176.88,196.49c0,.13-5.5,2-12.39,4.1s-12.5,3.74-12.54,3.6,5.5-2,12.39-4.1S176.84,196.35,176.88,196.49Z" style="fill:#263238"></path><circle cx="162.82" cy="375.94" r="35.99" transform="translate(-112.93 72.95) rotate(-18.89)" style="fill:#455a64"></circle><path d="M128.26,386l0,.09a36,36,0,0,0,69.07-20.24l0-.09Z" style="fill:#455a64"></path><path d="M138.58,383.05a25.27,25.27,0,1,0,17.13-31.36A25.27,25.27,0,0,0,138.58,383.05Z" style="fill:#fafafa"></path><path d="M155.71,351.69a25.27,25.27,0,0,0-17.13,31.36l48.49-14.22A25.28,25.28,0,0,0,155.71,351.69Z" style="fill:#e0e0e0"></path><path d="M148.05,380.27a15.39,15.39,0,1,0,10.44-19.1A15.39,15.39,0,0,0,148.05,380.27Z" style="fill:#263238"></path><path d="M126.53,378.58s.45,3.28-.18,3.69l-2.78,1.83.91,2.95s2.81-.32,3.63,1.26,1.59,3,1.59,3l3.22-5.2Z" style="fill:#455a64"></path><path d="M131.12,359.6a16.6,16.6,0,0,1-3.15,2.64,22.27,22.27,0,0,1-3.27.64l-.27,3.09s2.73.75,2.89,2.53.36,3.34.36,3.34l4.94-3.6Z" style="fill:#455a64"></path><path d="M136.79,351.3a16.77,16.77,0,0,1-3.78,1.62,22.06,22.06,0,0,1-3.31-.33l-1.15,2.87s2.39,1.52,2,3.26S130,362,130,362l5.78-2Z" style="fill:#455a64"></path><path d="M145,346.44a16.57,16.57,0,0,1-4.1.2,22.45,22.45,0,0,1-3-1.47l-2.08,2.3s1.71,2.25.76,3.76-1.74,2.88-1.74,2.88l6.13.12Z" style="fill:#455a64"></path><path d="M153.06,341.69a16.44,16.44,0,0,1-4.1-.26,22.22,22.22,0,0,1-2.81-1.79l-2.32,2s1.45,2.43.33,3.83-2,2.66-2,2.66l6.07.81Z" style="fill:#455a64"></path><path d="M161.84,341.48a16.86,16.86,0,0,1-3.72-1.74,22.74,22.74,0,0,1-2-2.69l-2.91,1.05s.46,2.8-1.08,3.68-2.88,1.74-2.88,1.74l5.35,3Z" style="fill:#455a64"></path><path d="M171,341.21a17,17,0,0,1-3.37-2.35,22.32,22.32,0,0,1-1.47-3l-3,.54s0,2.83-1.69,3.45-3.14,1.21-3.14,1.21l4.77,3.84Z" style="fill:#455a64"></path><path d="M180.07,343.81a16.44,16.44,0,0,1-2.86-2.95,21.13,21.13,0,0,1-.89-3.21l-3.09,0s-.56,2.78-2.31,3.06-3.31.6-3.31.6l4,4.67Z" style="fill:#455a64"></path><path d="M187.43,349.78a16.77,16.77,0,0,1-1.72-3.73,22,22,0,0,1,.24-3.32l-2.9-1.08s-1.45,2.44-3.21,2.12-3.32-.54-3.32-.54L178.7,349Z" style="fill:#455a64"></path><path d="M192.64,358.23a16.37,16.37,0,0,1,.22-4.1,21.24,21.24,0,0,1,1.75-2.83l-2.07-2.3s-2.41,1.48-3.82.38-2.69-2-2.69-2l-.73,6.08Z" style="fill:#455a64"></path><path d="M196.57,366.09a16.63,16.63,0,0,1,.8-4,22,22,0,0,1,2.15-2.55l-1.72-2.57s-2.61,1.12-3.84-.17-2.37-2.38-2.37-2.38L190,360.3Z" style="fill:#455a64"></path><path d="M127.32,368.5s-.58,3.53-1.28,3.8L123,373.53l.28,3.08s2.83.25,3.3,2,1,3.23,1,3.23l4.22-4.44Z" style="fill:#455a64"></path><path d="M199.35,374.06s-.45-3.27.18-3.68l2.78-1.83-.92-3s-2.81.33-3.62-1.26-1.59-3-1.59-3L193,366.58Z" style="fill:#455a64"></path><path d="M194.76,393a16.28,16.28,0,0,1,3.15-2.63,21,21,0,0,1,3.26-.65l.27-3.08s-2.73-.76-2.88-2.54-.36-3.34-.36-3.34l-4.95,3.61Z" style="fill:#455a64"></path><path d="M189.09,401.34a16.28,16.28,0,0,1,3.77-1.61,22.36,22.36,0,0,1,3.32.32l1.15-2.87s-2.4-1.51-2-3.26.62-3.3.62-3.3l-5.78,2Z" style="fill:#455a64"></path><path d="M180.91,406.2A16.3,16.3,0,0,1,185,406a21.46,21.46,0,0,1,3,1.46l2.08-2.29s-1.72-2.26-.77-3.76,1.74-2.88,1.74-2.88l-6.12-.12Z" style="fill:#455a64"></path><path d="M172.82,411a16.58,16.58,0,0,1,4.1.27,22,22,0,0,1,2.81,1.78l2.32-2s-1.45-2.43-.34-3.82,2-2.67,2-2.67l-6.07-.81Z" style="fill:#455a64"></path><path d="M164,411.16a16.36,16.36,0,0,1,3.72,1.75,21.2,21.2,0,0,1,2,2.69l2.91-1.06s-.47-2.79,1.08-3.68,2.88-1.73,2.88-1.73l-5.36-3Z" style="fill:#455a64"></path><path d="M154.87,411.43a16.48,16.48,0,0,1,3.37,2.36,21.75,21.75,0,0,1,1.47,3l3-.54s0-2.83,1.69-3.44,3.14-1.22,3.14-1.22l-4.77-3.84Z" style="fill:#455a64"></path><path d="M145.8,408.83a16.76,16.76,0,0,1,2.87,2.95,22.07,22.07,0,0,1,.88,3.21l3.1,0s.55-2.77,2.31-3.06,3.31-.6,3.31-.6l-4-4.67Z" style="fill:#455a64"></path><path d="M138.45,402.86a16.33,16.33,0,0,1,1.71,3.74,22.36,22.36,0,0,1-.23,3.32l2.9,1.07s1.45-2.44,3.2-2.12,3.32.54,3.32.54l-2.18-5.73Z" style="fill:#455a64"></path><path d="M133.23,394.41a16.83,16.83,0,0,1-.21,4.11,22.17,22.17,0,0,1-1.76,2.83l2.08,2.3s2.41-1.49,3.81-.39,2.69,2,2.69,2l.74-6.08Z" style="fill:#455a64"></path><path d="M129.3,386.55a16.54,16.54,0,0,1-.8,4,22.12,22.12,0,0,1-2.14,2.55l1.72,2.58s2.6-1.12,3.83.16,2.38,2.39,2.38,2.39l1.59-5.91Z" style="fill:#455a64"></path><path d="M198.56,384.14s.57-3.53,1.27-3.8l3.1-1.23-.29-3.08s-2.82-.25-3.29-2-1-3.22-1-3.22l-4.21,4.43Z" style="fill:#455a64"></path><circle cx="392.86" cy="304.88" r="35.99" transform="translate(-77.54 143.59) rotate(-18.89)" style="fill:#455a64"></circle><path d="M358.3,314.92s0,.06,0,.09a36,36,0,1,0,69.07-20.25.32.32,0,0,0,0-.09Z" style="fill:#455a64"></path><path d="M368.61,312a25.26,25.26,0,1,0,17.14-31.35A25.27,25.27,0,0,0,368.61,312Z" style="fill:#fafafa"></path><path d="M385.75,280.64A25.27,25.27,0,0,0,368.61,312l48.49-14.21A25.26,25.26,0,0,0,385.75,280.64Z" style="fill:#e0e0e0"></path><path d="M378.09,309.21a15.39,15.39,0,1,0,10.44-19.1A15.38,15.38,0,0,0,378.09,309.21Z" style="fill:#263238"></path><path d="M356.57,307.52s.45,3.28-.18,3.69L353.6,313l.92,3s2.81-.33,3.62,1.26,1.6,3,1.6,3L363,315Z" style="fill:#455a64"></path><path d="M361.16,288.54a16.23,16.23,0,0,1-3.15,2.64,21.29,21.29,0,0,1-3.27.65l-.27,3.08s2.73.76,2.89,2.53.35,3.35.35,3.35l5-3.61Z" style="fill:#455a64"></path><path d="M366.83,280.25a16.41,16.41,0,0,1-3.78,1.61,22.36,22.36,0,0,1-3.32-.32l-1.15,2.87s2.4,1.51,2,3.26S360,291,360,291l5.78-2Z" style="fill:#455a64"></path><path d="M375,275.39a16.74,16.74,0,0,1-4.1.19,21.14,21.14,0,0,1-3-1.46l-2.08,2.29s1.72,2.26.77,3.76-1.74,2.88-1.74,2.88l6.12.12Z" style="fill:#455a64"></path><path d="M383.1,270.64a16.58,16.58,0,0,1-4.1-.27,21.13,21.13,0,0,1-2.81-1.79l-2.33,2.05s1.45,2.43.34,3.82-2.05,2.67-2.05,2.67l6.07.8Z" style="fill:#455a64"></path><path d="M391.88,270.43a16.56,16.56,0,0,1-3.72-1.75,21.2,21.2,0,0,1-2-2.69l-2.9,1.06s.46,2.79-1.08,3.68-2.89,1.73-2.89,1.73l5.36,3Z" style="fill:#455a64"></path><path d="M401,270.16a16.48,16.48,0,0,1-3.37-2.36,21.74,21.74,0,0,1-1.47-3l-3.05.55s0,2.83-1.69,3.44-3.14,1.22-3.14,1.22l4.77,3.83Z" style="fill:#455a64"></path><path d="M410.11,272.76a16.76,16.76,0,0,1-2.87-2.95,22.42,22.42,0,0,1-.88-3.21l-3.1-.05s-.55,2.78-2.31,3.07-3.31.6-3.31.6l4,4.67Z" style="fill:#455a64"></path><path d="M417.47,278.73a16.68,16.68,0,0,1-1.72-3.74,22.07,22.07,0,0,1,.24-3.32l-2.91-1.07s-1.45,2.43-3.2,2.12-3.32-.54-3.32-.54l2.18,5.72Z" style="fill:#455a64"></path><path d="M422.68,287.18a16.46,16.46,0,0,1,.22-4.11,21.24,21.24,0,0,1,1.75-2.83l-2.07-2.3s-2.42,1.48-3.82.39-2.69-2-2.69-2l-.74,6.08Z" style="fill:#455a64"></path><path d="M426.61,295a16.63,16.63,0,0,1,.8-4,23,23,0,0,1,2.14-2.55l-1.72-2.57s-2.6,1.12-3.83-.16-2.37-2.39-2.37-2.39l-1.6,5.91Z" style="fill:#455a64"></path><path d="M357.36,297.44s-.58,3.54-1.28,3.81l-3.1,1.22.29,3.08s2.82.26,3.3,2,.95,3.23.95,3.23l4.22-4.44Z" style="fill:#455a64"></path><path d="M429.38,303s-.45-3.28.18-3.69l2.79-1.83-.92-3s-2.81.33-3.63-1.25-1.59-3-1.59-3L423,295.52Z" style="fill:#455a64"></path><path d="M424.79,322a16.6,16.6,0,0,1,3.15-2.64,22.59,22.59,0,0,1,3.27-.65l.27-3.08s-2.73-.76-2.89-2.53-.35-3.34-.35-3.34l-4.95,3.6Z" style="fill:#455a64"></path><path d="M419.12,330.29a16.77,16.77,0,0,1,3.78-1.62,22.07,22.07,0,0,1,3.32.33l1.14-2.88s-2.39-1.51-2-3.25.63-3.31.63-3.31l-5.78,2Z" style="fill:#455a64"></path><path d="M411,335.15a16.61,16.61,0,0,1,4.1-.2,22.93,22.93,0,0,1,3,1.46l2.08-2.29s-1.72-2.25-.77-3.76,1.74-2.88,1.74-2.88l-6.12-.12Z" style="fill:#455a64"></path><path d="M402.85,339.89a16.58,16.58,0,0,1,4.1.27,22.22,22.22,0,0,1,2.81,1.79l2.33-2s-1.46-2.44-.34-3.83,2.05-2.66,2.05-2.66l-6.07-.81Z" style="fill:#455a64"></path><path d="M394.07,340.11a16.4,16.4,0,0,1,3.72,1.74,21.63,21.63,0,0,1,2,2.69l2.91-1.05s-.46-2.8,1.08-3.69,2.89-1.73,2.89-1.73l-5.36-3Z" style="fill:#455a64"></path><path d="M384.91,340.38a16.32,16.32,0,0,1,3.37,2.35,22.32,22.32,0,0,1,1.47,3l3.05-.54s0-2.84,1.69-3.45,3.14-1.21,3.14-1.21l-4.77-3.84Z" style="fill:#455a64"></path><path d="M375.84,337.78a16.44,16.44,0,0,1,2.86,3,21.13,21.13,0,0,1,.89,3.21l3.09,0s.56-2.78,2.32-3.07,3.31-.6,3.31-.6l-4-4.67Z" style="fill:#455a64"></path><path d="M368.48,331.81a16.55,16.55,0,0,1,1.72,3.73,22.07,22.07,0,0,1-.24,3.32l2.91,1.07s1.44-2.43,3.2-2.11,3.32.53,3.32.53l-2.18-5.72Z" style="fill:#455a64"></path><path d="M363.27,323.36a16.37,16.37,0,0,1-.22,4.1,21.24,21.24,0,0,1-1.75,2.83l2.07,2.3s2.42-1.48,3.82-.39,2.69,2,2.69,2l.74-6.07Z" style="fill:#455a64"></path><path d="M359.34,315.5a16.63,16.63,0,0,1-.8,4,22.12,22.12,0,0,1-2.14,2.55l1.72,2.57s2.6-1.12,3.83.17,2.37,2.38,2.37,2.38l1.6-5.91Z" style="fill:#455a64"></path><path d="M428.59,313.09s.58-3.53,1.28-3.81l3.1-1.22-.29-3.08s-2.82-.25-3.3-2-.95-3.23-.95-3.23l-4.22,4.44Z" style="fill:#455a64"></path><path d="M91.9,333.58h1a0,0,0,0,1,0,0v22.66a0,0,0,0,1,0,0h-1A6.91,6.91,0,0,1,85,349.33v-8.85A6.91,6.91,0,0,1,91.9,333.58Z" transform="translate(-97.83 41.62) rotate(-17.17)" style="fill:#0674ED"></path><g style="opacity:0.30000000000000004"><path d="M91.9,333.58h1a0,0,0,0,1,0,0v22.66a0,0,0,0,1,0,0h-1A6.91,6.91,0,0,1,85,349.33v-8.85A6.91,6.91,0,0,1,91.9,333.58Z" transform="translate(-97.83 41.62) rotate(-17.17)" style="fill:#fff"></path></g><path d="M97.76,259.39s2.57,1.42,3.49,6.12c.65,3.26-.06,25.73-.56,39.18a15,15,0,0,1-9.87,13.57l-2.93,1.06Z" style="fill:#455a64"></path><path d="M239.61,209.33c-.12.13-2-1.29-5.28-4l-6-4.93-3.69-3.11a11.35,11.35,0,0,0-4.35-2.47,10.91,10.91,0,0,0-5.4-.21c-.88.19-1.92.55-2.95.86l-3.13,1-13.61,4.14L164,209.94l-31.3,9.14L119.05,223l-3.16.9-.77.22-.69.22a10.91,10.91,0,0,0-5.37,4.15,11.38,11.38,0,0,0-1.79,4.66c-.31,1.68-.59,3.26-.86,4.74-.56,3-1,5.5-1.43,7.59-.82,4.16-1.36,6.45-1.54,6.42s0-2.37.54-6.58c.27-2.11.6-4.68,1-7.66q.32-2.24.66-4.77a12.66,12.66,0,0,1,6.54-9.76,13.47,13.47,0,0,1,1.54-.71l.82-.28.77-.24,3.14-1,13.6-4.14,31.24-9.33,31.29-9.14,13.67-3.91,3.16-.9c1-.28,2-.6,3.15-.82a12.63,12.63,0,0,1,6.35.43,12.85,12.85,0,0,1,4.88,3l3.56,3.25L235,204.6C238.08,207.52,239.72,209.19,239.61,209.33Z" style="fill:#263238"></path><path d="M230.83,201.62l-.32.13-.95.32-3.67,1.18-13.53,4.27-44.71,13.87-44.76,13.73-13.58,4.11-3.7,1.09-1,.27-.34.08a1.33,1.33,0,0,1,.32-.13l1-.32,3.67-1.19,13.53-4.26,44.72-13.88,44.75-13.73,13.58-4.1,3.7-1.09,1-.27Z" style="fill:#263238"></path><path d="M130.83,243.79c-.14,0-2-4.92-4.07-11.09s-3.71-11.21-3.58-11.26,2,4.92,4.07,11.09S131,243.74,130.83,243.79Z" style="fill:#263238"></path><path d="M173.81,231.77c-.13,0-2.07-5.11-4.32-11.52s-4-11.65-3.84-11.69,2.07,5.11,4.33,11.52S174,231.73,173.81,231.77Z" style="fill:#263238"></path><path d="M216.65,216.76c-.13.06-2.28-4.69-4.81-10.59s-4.46-10.75-4.33-10.81,2.29,4.69,4.81,10.6S216.78,216.7,216.65,216.76Z" style="fill:#263238"></path><path d="M407.06,225.14a4.94,4.94,0,0,0-3.19,6.38c3.29,9.14,10.22,28.78,13.54,37.83a5.72,5.72,0,0,0,7.34,3.39l15.17-4.49a1,1,0,0,0,.69-1.3l-3.05-9.9a1,1,0,0,0-1.3-.68l-10.78,3.36-12.27-31.42a5,5,0,0,0-6.15-3.17Z" style="fill:#263238"></path><path d="M434.36,235.6c-.45.43-14.49,5.58-11.73,13.09s17.69,2.54,17.69,2.54Z" style="fill:#263238"></path><polygon points="252.63 215.58 286.74 248.71 292.55 248.38 255.35 214.74 252.63 215.58" style="fill:#455a64"></polygon><polygon points="276.76 266.48 291.07 262.06 278.34 250.73 273.55 249.07 270.81 255.76 276.98 259.8 276.76 266.48" style="fill:#263238"></polygon><path d="M260.71,267l14.69-4.09c1.91-.62,2.37-4.5,1-8.66h0c-1.21-3.73-3.49-6.48-5.36-6.5l-15.41,2.87Z" style="fill:#0674ED"></path><path d="M291.07,262.06s.07.16.18.46.28.77.49,1.35c.43,1.21,1,3,1.83,5.2l6.65,19.16,2.19,6.36a21.14,21.14,0,0,1,1.46,7.16,20.09,20.09,0,0,1-5.78,14.72,19.47,19.47,0,0,1-7.39,4.64c-2.83.94-5.72,1.79-8.66,2.72l-18.22,5.63-32.3,10-.14,0-.1-.1-29-29.1,0,0v0c-1.81-6-3.25-10.69-4.23-13.94-.48-1.61-.85-2.84-1.1-3.71l-.28-1c-.06-.22-.08-.33-.08-.33a1.72,1.72,0,0,1,.13.31c.07.24.18.55.31.95l1.18,3.68,4.37,13.9,0-.07,29.12,29-.24-.06,32.28-10,18.23-5.62c2.93-.92,5.85-1.77,8.64-2.7a18.94,18.94,0,0,0,7.22-4.51,19.7,19.7,0,0,0,5.69-14.37,21.07,21.07,0,0,0-1.41-7.05l-2.16-6.36c-2.73-8.1-4.95-14.66-6.49-19.22-.75-2.25-1.33-4-1.74-5.23-.19-.58-.33-1-.44-1.36S291.07,262.06,291.07,262.06Z" style="fill:#263238"></path><path d="M403.62,242.18a1.31,1.31,0,0,1-.31.09l-.9.21-3.47.75-12.81,2.65c-10.83,2.18-25.79,5.14-42.38,8.15-8.29,1.5-16.2,2.87-23.42,4-1.8.29-3.57.53-5.28.78s-3.38.49-5,.66a27.2,27.2,0,0,1-9.05-.18,17.58,17.58,0,0,1-6.73-3.21,33.35,33.35,0,0,1-4.17-3.8c-1.06-1.13-1.84-2-2.37-2.66l-.59-.71c-.13-.16-.19-.25-.18-.26s.08.07.22.22l.63.68c.55.6,1.36,1.49,2.43,2.59a34.66,34.66,0,0,0,4.2,3.71,17.55,17.55,0,0,0,6.64,3.09,27.37,27.37,0,0,0,8.93.1c1.6-.18,3.26-.43,5-.69s3.47-.5,5.27-.8c7.21-1.13,15.12-2.51,23.41-4,16.58-3,31.56-5.9,42.4-8L398.9,243l3.49-.66.91-.16A1.29,1.29,0,0,1,403.62,242.18Z" style="fill:#263238"></path><path d="M332.25,255.8a53,53,0,0,1-2.37-6.82,51.72,51.72,0,0,1-1.87-7,49,49,0,0,1,2.37,6.82A50,50,0,0,1,332.25,255.8Z" style="fill:#263238"></path><path d="M220.46,291.46a1.87,1.87,0,0,1,.37-.17A6.19,6.19,0,0,1,222,291a2.3,2.3,0,0,1,1.83.38,2.46,2.46,0,0,1,1,2.27,3.67,3.67,0,0,1-1.63,2.53,10.69,10.69,0,0,1-3.18,1.3l-7.46,2.15a6.39,6.39,0,0,1-2.09.32,2.58,2.58,0,0,1-1.9-.91,2.26,2.26,0,0,1-.31-2,3.19,3.19,0,0,1,1.1-1.59,10.57,10.57,0,0,1,3.12-1.46c1-.35,1.95-.65,2.81-.92l4.09-1.24a11.88,11.88,0,0,1,1.51-.44,1.53,1.53,0,0,1-.37.18c-.24.11-.61.26-1.08.43-1,.36-2.34.82-4.05,1.39-.85.28-1.79.6-2.78,1a11.18,11.18,0,0,0-3,1.43,2.71,2.71,0,0,0-.93,1.39,1.77,1.77,0,0,0,.23,1.61,2.13,2.13,0,0,0,1.57.73,6.05,6.05,0,0,0,1.93-.3l7.47-2.12a10.81,10.81,0,0,0,3.08-1.2,3.36,3.36,0,0,0,1.52-2.25,2.18,2.18,0,0,0-.83-2,2.1,2.1,0,0,0-1.64-.41C221,291.29,220.47,291.51,220.46,291.46Z" style="fill:#263238"></path><rect x="425.41" y="246.07" width="2.6" height="16" transform="translate(-55.98 137.25) rotate(-17.16)" style="fill:#263238"></rect><path d="M437.5,252a64.08,64.08,0,0,1-3.4-7.37,65.07,65.07,0,0,1-2.92-7.57,60.29,60.29,0,0,1,3.4,7.37A61.66,61.66,0,0,1,437.5,252Z" style="fill:#455a64"></path><g style="opacity:0.30000000000000004"><path d="M262.16,343.83c1-4.44-3.21-9.24-7.75-8.79-2.54.25-5,1.84-7.47,1.38-3.28-.59-4.92-4.2-6-7.34s-2.79-6.74-6.07-7.29c-3.46-.58-6.28,2.62-8.23,5.54s-4.45,6.25-7.95,6.13c-3.8-.13-6.62-4.42-10.41-4.19a5.66,5.66,0,0,0-4.83,4.26c-.59,2.21.89,4.33,1.1,6.62.17,1.82,16.86,16,16.86,16Z"></path></g><path d="M88.35,372.4l4,12.91A10.12,10.12,0,0,0,105,392l14.09-4.35s4.78-2.45,3.31-7.21-3.92-21.14-3-25.4.8-10.06,8.52-12.45l38.33-11.83a14,14,0,0,1,13.11,3.6l26.49,23.24a14.23,14.23,0,0,0,13.94,3.49l113.27-35a15.15,15.15,0,0,0,9.75-9.24l13.66-37.11a18.83,18.83,0,0,1,12.12-11.49l27.95-8.64s15.07-2,21.11,10.17L424,261s-11.33-21.1-35.19-13.92c-17.62,5.3-28.56,8.82-28.56,8.82s-12.11,2.17-18.26,17c-5.14,12.4-18.61,49.06-18.61,49.06L220.87,353.6,186.5,324.5A21.9,21.9,0,0,0,163,318.08L126.1,329.49a29.31,29.31,0,0,0-13.38,8.5,28.89,28.89,0,0,0-7.1,18.66l-.1,10.47Z" style="fill:#263238"></path><g style="opacity:0.30000000000000004"><path d="M264.05,286.88c-4.53,1-5.52,6.8-3.76,11.1,1,2.4,3.17,4.55,2.81,7.12-.29,2-2,3.4-2.88,5.2a6.86,6.86,0,0,0,2.75,8.59,7.44,7.44,0,0,0,9-1.62c1.32-1.51,2-3.52,3.39-5,1.54-1.62,3.76-2.38,5.54-3.74s3.1-3.91,1.89-5.78c-1.08-1.65-3.41-1.78-5.16-2.69-2.09-1.08-3.31-3.3-4.23-5.47s-1.69-4.48-3.3-6.2-4.37-2.65-6.35-1.37"></path></g><g style="opacity:0.30000000000000004"><path d="M296.44,274.66a5.84,5.84,0,0,0,2.75,10.87c3,.12,6-2.1,8.9-1.17,3.72,1.2,4.83,6.9,8.7,7.44,2.67.37,4.91-2.07,6-4.54s1.64-5.27,3.49-7.24c1.53-1.63,3.78-2.47,5.18-4.21a6.05,6.05,0,0,0-4.62-9.84c-4.22-.06-7.74,4.2-11.93,3.7-2.57-.31-4.54-2.31-6.61-3.84s-5.06-2.64-7.14-1.11c-3.14,2.28-1.62,8.5-5.22,9.91"></path></g><g style="opacity:0.30000000000000004"><path d="M310.29,301.49a3.84,3.84,0,0,0-4.66,3.37,4,4,0,0,0,4.26,3.95,4.13,4.13,0,0,0,3.38-4.8,4.28,4.28,0,0,0-5.08-3.06"></path></g><g style="opacity:0.30000000000000004"><path d="M290.11,331.83c-1-1.91.24-4.39,2.1-5.49s4.14-1.18,6.3-1.26,4.44-.18,6.28-1.33c1.31-.82,2.33-2.13,3.8-2.65a5.4,5.4,0,0,1,4.53.73,15.77,15.77,0,0,1,3.43,3.25"></path></g><g style="opacity:0.30000000000000004"><path d="M385.76,233.07c0,3.16-1.47,7.14-3.86,9.2a11.18,11.18,0,0,1-8.83,2.55c-3.27-.49-6.49-2.43-9.68-1.55-2.17.61-3.79,2.43-5.82,3.43a8.4,8.4,0,0,1-8.46-.73,6.67,6.67,0,0,1-3.07-6.83s33.66-5.8,35.29-5.95C382.58,233.08,385.76,233.07,385.76,233.07Z"></path></g><g style="opacity:0.30000000000000004"><path d="M321.4,243.39a3.86,3.86,0,0,1,.52,4,3.74,3.74,0,0,1-3.4,2c-2-.08-3.81-1.72-5.71-1.18-1.63.46-2.39,2.29-3.68,3.4a4.86,4.86,0,0,1-5.36.54,5.62,5.62,0,0,1-2.53-5.26Z"></path></g><g style="opacity:0.30000000000000004"><path d="M227.18,281.24a6.37,6.37,0,0,1-3.24,8.79c-2.06.73-4.32.32-6.5.28s-4.67.5-5.76,2.4c-1.33,2.32.14,5.16,1.37,7.54s2,5.72-.05,7.38c-1.57,1.25-3.9.72-5.69-.19s-3.53-2.16-5.54-2.23c-3.16-.11-5.56,2.66-8.36,4.12a10.68,10.68,0,0,1-15.52-11l0-1.33Z"></path></g><g style="opacity:0.30000000000000004"><path d="M94.4,322.89c-1.33,3.07-.09,8.13,2.36,10.41a8.38,8.38,0,0,0,9.34,1.26c2.1-1.09,3.69-3.08,5.91-3.89,2.54-.94,5.35-.16,8.06-.15s5.94-1.43,6.08-4.13c.1-2.18-1.85-4.58-.52-6.3,1.05-1.36,3.19-.9,4.82-1.44a3.85,3.85,0,0,0,.56-7.07Z"></path></g><path d="M238.11,197.39h0a8.63,8.63,0,0,0,9.36,5.68l17.19-2.43L254.32,176.5l-13.61,11.38A8.63,8.63,0,0,0,238.11,197.39Z" style="fill:#263238"></path><rect x="241.77" y="198.22" width="2.83" height="14.37" transform="translate(-49.79 80.92) rotate(-17.16)" style="fill:#263238"></rect><path d="M61.23,334.16a7.5,7.5,0,0,1-.51-1.23c-.32-.9-.72-2-1.21-3.41-1-2.88-2.34-6.88-3.79-11.3-.72-2.22-1.43-4.32-2-6.26A14.79,14.79,0,0,1,53,306.6a7.57,7.57,0,0,1,1.13-3.47,4.27,4.27,0,0,1,.62-.78c.16-.16.25-.24.27-.22s-.31.36-.72,1.1a7.89,7.89,0,0,0-.93,3.4c-.26,3,1.48,7,2.86,11.42s2.75,8.44,3.65,11.36c.42,1.38.78,2.54,1,3.46A5.92,5.92,0,0,1,61.23,334.16Z" style="fill:#fafafa"></path><path d="M86.47,346.22a3.5,3.5,0,0,1-1.08-1.43,8.28,8.28,0,0,1-.87-4.25,8.39,8.39,0,0,1,1.34-4.13c.63-.93,1.2-1.35,1.24-1.31s-.4.56-.93,1.5a9.4,9.4,0,0,0-1.13,4,9.3,9.3,0,0,0,.68,4.06C86.13,345.62,86.54,346.17,86.47,346.22Z" style="fill:#fafafa"></path><path d="M166.32,319.48a.72.72,0,0,1-.25.1l-.75.24-2.89.88-10.67,3.13-15.83,4.58-4.58,1.31c-1.56.44-3.14.92-4.71,1.51a36.74,36.74,0,0,0-9.16,4.81,20.35,20.35,0,0,0-6.14,7.49,29.85,29.85,0,0,0-2.7,8.75c-.89,5.84-.52,11.23-.35,15.78v.15l-.14,0L96.5,372.18l-3.18,1.05-.83.26-.29.07s.08-.05.27-.13l.81-.31L96.43,372,108,367.89l-.13.19c-.22-4.55-.63-10,.25-15.87a30.29,30.29,0,0,1,2.72-8.9,20.81,20.81,0,0,1,6.29-7.69,37.1,37.1,0,0,1,9.29-4.87c1.59-.59,3.19-1.07,4.75-1.51l4.59-1.3,15.86-4.47,10.71-3,2.92-.78.76-.19Z" style="fill:#fafafa"></path><path d="M200.87,310.79a12.38,12.38,0,0,1-1.17-2.37c-.65-1.49-1.48-3.59-2.29-5.94s-1.43-4.52-1.84-6.1a12,12,0,0,1-.52-2.59,14.45,14.45,0,0,1,.88,2.49c.49,1.54,1.17,3.68,2,6s1.57,4.45,2.13,6A14.47,14.47,0,0,1,200.87,310.79Z" style="fill:#fafafa"></path><path d="M175.81,236.36c.14,0,4.15,11.85,9,26.56s8.61,26.67,8.48,26.72-4.16-11.85-9-26.56S175.67,236.41,175.81,236.36Z" style="fill:#fafafa"></path><path d="M236.73,213l-.35.14-1,.34-4,1.29-14.65,4.63-48.41,15.09-48.46,15L111.47,252a43.12,43.12,0,0,0-6.22,2.17,9.3,9.3,0,0,0-3.27,2.48,13.67,13.67,0,0,0-.81,1.2,4.87,4.87,0,0,1,.72-1.27,9.39,9.39,0,0,1,3.27-2.6,41.73,41.73,0,0,1,6.23-2.26l8.35-2.63L168.16,234l48.45-14.95,14.7-4.48,4-1.19,1.05-.3A1.72,1.72,0,0,1,236.73,213Z" style="fill:#fafafa"></path></g><g id="freepik--Plant--inject-630"><path d="M459.39,294c-1,1.38-2.84.92-3.71.08a7,7,0,0,1-1.57-3.22c-.76-2.65-1.53-5.44-1-8.14a4.48,4.48,0,0,1,1-2.21,2.37,2.37,0,0,1,2.24-.75,3.47,3.47,0,0,1,2,2.06,19.36,19.36,0,0,1,1.92,8.32,6.84,6.84,0,0,1-.91,3.86" style="fill:#0674ED"></path><g style="opacity:0.2"><path d="M459.39,294c-1,1.38-2.84.92-3.71.08a7,7,0,0,1-1.57-3.22c-.76-2.65-1.53-5.44-1-8.14a4.48,4.48,0,0,1,1-2.21,2.37,2.37,0,0,1,2.24-.75,3.47,3.47,0,0,1,2,2.06,19.36,19.36,0,0,1,1.92,8.32,6.84,6.84,0,0,1-.91,3.86"></path></g><path d="M455.77,300.93a8.36,8.36,0,0,0-5.18-.63,4.37,4.37,0,0,0-2.56,1.14,1.84,1.84,0,0,0,0,2.56,2.47,2.47,0,0,0,1.61.41c1.37,0,2.89-.26,4,.56.63.47,1,1.26,1.79,1.49a1.77,1.77,0,0,0,1.94-.87,3,3,0,0,0,.22-2.22A3.4,3.4,0,0,0,455.77,300.93Z" style="fill:#0674ED"></path><path d="M462,295.93a5,5,0,0,1-.78-4.61,9,9,0,0,1,2.73-4,14.83,14.83,0,0,1,4.89-2.88,5.21,5.21,0,0,1,2.2-.37,2.31,2.31,0,0,1,1.85,1.11c.51,1,0,2.17-.52,3.15a36.67,36.67,0,0,1-3.21,4.88,8.59,8.59,0,0,1-3.53,3c-1.47.56-3,.49-3.77-.52" style="fill:#0674ED"></path><path d="M459.45,314.72a2.69,2.69,0,0,1-.09-.62c0-.46-.1-1-.16-1.71a24.66,24.66,0,0,0-.39-2.5,19.41,19.41,0,0,0-.91-3,10.87,10.87,0,0,0-1.51-2.67,5.3,5.3,0,0,0-3.51-2.09,2.69,2.69,0,0,1-.62-.09,2.78,2.78,0,0,1,.63,0,4.9,4.9,0,0,1,1.68.44,5.67,5.67,0,0,1,2,1.6,10.42,10.42,0,0,1,1.56,2.73,17.51,17.51,0,0,1,.91,3,21.79,21.79,0,0,1,.33,2.53c.05.73.07,1.32.08,1.72A2.78,2.78,0,0,1,459.45,314.72Z" style="fill:#263238"></path><path d="M459.33,313.41a1.29,1.29,0,0,1,0-.29v-.83c0-.72,0-1.76,0-3.05-.06-2.57-.28-6.13-.71-10s-1-7.43-1.53-9.95c-.12-.63-.24-1.2-.36-1.7s-.21-.92-.3-1.27-.14-.6-.19-.81a1.2,1.2,0,0,1-.05-.29,1.33,1.33,0,0,1,.1.28l.24.79c.11.35.22.77.34,1.27s.27,1.06.4,1.7a94.86,94.86,0,0,1,1.61,9.95c.42,3.91.62,7.48.63,10.06,0,1.29,0,2.33,0,3.05,0,.34,0,.61-.05.83A1.36,1.36,0,0,1,459.33,313.41Z" style="fill:#263238"></path><path d="M459.32,306.54a4.85,4.85,0,0,1,0-.87,22.85,22.85,0,0,1,.27-2.35,30.79,30.79,0,0,1,.76-3.42,31.41,31.41,0,0,1,1.43-4A21.53,21.53,0,0,1,466,289.3a9.89,9.89,0,0,1,1-.91c.16-.13.29-.26.43-.36l.38-.27a4.85,4.85,0,0,1,.73-.46,25.34,25.34,0,0,0-2.39,2.13A22.63,22.63,0,0,0,462,296a33.25,33.25,0,0,0-1.44,4c-.37,1.26-.62,2.42-.81,3.39s-.28,1.78-.35,2.33A8.12,8.12,0,0,1,459.32,306.54Z" style="fill:#263238"></path></g><g id="freepik--Birds--inject-630"><path d="M167.93,133.27s-.9-.31-2.57-.68a20.32,20.32,0,0,0-7.16-.28,19.3,19.3,0,0,0-9.66,4.17,20,20,0,0,0-6.81,10.82l0,.12-.2.77-.3-.73A21.47,21.47,0,0,0,133,137.6a20.88,20.88,0,0,0-10-3.32,22.31,22.31,0,0,0-7.12.65c-1.64.44-2.51.82-2.53.77a2.76,2.76,0,0,1,.62-.3,15.1,15.1,0,0,1,1.86-.66,21.23,21.23,0,0,1,7.19-.83,21,21,0,0,1,10.2,3.29,21.85,21.85,0,0,1,8.39,10.06l-.5,0,0-.12a20.38,20.38,0,0,1,7-11.08,19.45,19.45,0,0,1,9.91-4.15,19.71,19.71,0,0,1,7.26.44,14.92,14.92,0,0,1,1.89.6A3.2,3.2,0,0,1,167.93,133.27Z" style="fill:#263238"></path><path d="M239.56,94s-.5-.14-1.42-.33a11.24,11.24,0,0,0-3.92-.11A10.58,10.58,0,0,0,229,95.81a10.86,10.86,0,0,0-3.7,5.89l0,.07-.2.77-.29-.73a11.78,11.78,0,0,0-4.44-5.37,11.41,11.41,0,0,0-5.43-1.84,12.29,12.29,0,0,0-3.9.32c-.9.22-1.39.42-1.4.38s.1-.08.33-.19a8.67,8.67,0,0,1,1-.39A11.66,11.66,0,0,1,220.58,96a12.05,12.05,0,0,1,4.66,5.58l-.5,0,0-.07a11.26,11.26,0,0,1,3.91-6.14,10.64,10.64,0,0,1,5.5-2.29,10.84,10.84,0,0,1,4,.28,7.88,7.88,0,0,1,1,.35C239.45,93.88,239.57,93.94,239.56,94Z" style="fill:#263238"></path><path d="M192.73,77.87s-.49.56-1.38,1.56A33.78,33.78,0,0,0,188,84a33.08,33.08,0,0,0-5,17.67v.22l-.51,0a29.07,29.07,0,0,0-3.23-9.56,30.09,30.09,0,0,0-9.18-10.26c-1.09-.75-1.72-1.13-1.7-1.17a1.58,1.58,0,0,1,.48.23,14.57,14.57,0,0,1,1.33.77,26.74,26.74,0,0,1,4.41,3.52,29.38,29.38,0,0,1,5.08,6.68,29.06,29.06,0,0,1,3.32,9.72l-.52,0v-.22a32.44,32.44,0,0,1,5.2-17.87,29.34,29.34,0,0,1,3.52-4.48c.45-.5.86-.84,1.11-1.08A2.4,2.4,0,0,1,192.73,77.87Z" style="fill:#263238"></path></g><g id="freepik--Moon--inject-630"><circle cx="99.01" cy="89.87" r="25.68" style="fill:#0674ED"></circle><circle cx="84.74" cy="93.24" r="7.09" style="opacity:0.2"></circle><path d="M93.7,105.38a2.79,2.79,0,1,1-2.78-2.78A2.79,2.79,0,0,1,93.7,105.38Z" style="opacity:0.2"></path></g></svg>
