<svg xmlns="http://www.w3.org/2000/svg" viewBox="0 0 500 500"><g id="freepik--background-complete--inject-48"><rect y="382.4" width="500" height="0.25" style="fill:#ebebeb"></rect><rect x="416.78" y="398.49" width="33.12" height="0.25" style="fill:#ebebeb"></rect><rect x="316.95" y="395.11" width="57.98" height="0.25" style="fill:#ebebeb"></rect><rect x="361.67" y="389.21" width="54.11" height="0.25" style="fill:#ebebeb"></rect><rect x="52.46" y="390.89" width="14.91" height="0.25" style="fill:#ebebeb"></rect><rect x="76.27" y="390.89" width="64.4" height="0.25" style="fill:#ebebeb"></rect><rect x="182" y="395.11" width="43.15" height="0.25" style="fill:#ebebeb"></rect><path d="M237,337.8H43.91a5.71,5.71,0,0,1-5.7-5.71V60.66A5.71,5.71,0,0,1,43.91,55H237a5.71,5.71,0,0,1,5.71,5.71V332.09A5.71,5.71,0,0,1,237,337.8ZM43.91,55.2a5.46,5.46,0,0,0-5.45,5.46V332.09a5.46,5.46,0,0,0,5.45,5.46H237a5.47,5.47,0,0,0,5.46-5.46V60.66A5.47,5.47,0,0,0,237,55.2Z" style="fill:#ebebeb"></path><path d="M453.31,337.8H260.21a5.72,5.72,0,0,1-5.71-5.71V60.66A5.72,5.72,0,0,1,260.21,55h193.1A5.71,5.71,0,0,1,459,60.66V332.09A5.71,5.71,0,0,1,453.31,337.8ZM260.21,55.2a5.47,5.47,0,0,0-5.46,5.46V332.09a5.47,5.47,0,0,0,5.46,5.46h193.1a5.47,5.47,0,0,0,5.46-5.46V60.66a5.47,5.47,0,0,0-5.46-5.46Z" style="fill:#ebebeb"></path><circle cx="364.91" cy="204.35" r="32.52" style="fill:#fafafa"></circle><path d="M406.1,351.14c-21.93-17-66.41-42.71-152.84-15.53S146.84,264,87,288.83c-41,17-72,93.57-72,93.57H438.11S428,368.15,406.1,351.14Z" style="fill:#f0f0f0"></path><path d="M427.64,342.1C378,331.39,361.36,374,289.6,362.25s-108.69-.64-126.91,6.68-26.58,13.47-26.58,13.47H487.44S461.7,349.44,427.64,342.1Z" style="fill:#e6e6e6"></path><path d="M379.79,134.67c2.51.34,5.18,2.58,7.35,5.85-1.48-12.53,2.8-21.34,10.45-20.32s15.76,11.1,19.87,23.58c.71-6,3.7-9.71,8.17-9.11,6.26.83,13.22,9.87,16.08,20.59l-67.42-9.32C373.32,139,375.62,134.11,379.79,134.67Z" style="fill:#f0f0f0"></path><path d="M285,187.05a9.08,9.08,0,0,1,4.26,2c.57-10.38,5.26-17,12.55-16,6.69.9,13.9,8,19.08,17.74,1.66-3.59,4.46-5.54,8.09-5.05,4.51.61,9.34,4.83,13.15,10.91a4.76,4.76,0,0,1,3.86-1.11c3.76.5,7.81,4.64,10.58,10.26l-78.22-10.81C278.85,189.78,281.31,186.56,285,187.05Z" style="fill:#f5f5f5"></path><path d="M56,183.22c2.63.35,5.43,2.7,7.71,6.13-1.56-13.14,2.93-22.37,11-21.31,7.86,1.06,16.51,11.64,20.82,24.73.75-6.3,3.88-10.18,8.57-9.56,6.56.88,13.86,10.35,16.86,21.59L50.23,195C49.22,187.77,51.63,182.63,56,183.22Z" style="fill:#f0f0f0"></path><path d="M85,98.43a8.59,8.59,0,0,1,4,1.87c.54-9.83,5-16.1,11.88-15.18,6.34.85,13.16,7.54,18.07,16.8,1.57-3.4,4.22-5.24,7.66-4.78,4.26.58,8.83,4.57,12.45,10.32a4.52,4.52,0,0,1,3.65-1c3.55.48,7.39,4.39,10,9.72L78.72,105.89C79.16,101,81.49,98,85,98.43Z" style="fill:#f5f5f5"></path></g><g id="freepik--Shadow--inject-48"><ellipse id="freepik--path--inject-48" cx="250" cy="416.24" rx="193.89" ry="11.32" style="fill:#f5f5f5"></ellipse></g><g id="freepik--Sign--inject-48"><path d="M296.05,411.33h3.56V100.51a1.78,1.78,0,0,0-1.78-1.78h0a1.78,1.78,0,0,0-1.78,1.78Z" style="fill:#0674ED"></path><path d="M296.05,411.33h3.56V100.51a1.78,1.78,0,0,0-1.78-1.78h0a1.78,1.78,0,0,0-1.78,1.78Z" style="fill:#fff;opacity:0.7000000000000001"></path><rect x="296.05" y="114.26" width="3.56" height="4.52" transform="translate(595.66 233.04) rotate(180)" style="fill:#0674ED;opacity:0.4"></rect><path d="M362.34,95.53,378.5,109l-16.16,13.47v-7.22H278.68a3.24,3.24,0,0,1-3.24-3.24v-6a3.24,3.24,0,0,1,3.24-3.24h83.66Z" style="fill:#0674ED"></path><path d="M345.16,132h0l6.36-3.41-4.22,20.6-19.52-7.85,6.36-3.42h0c-6.21-11.55-20.86-22.62-34-22.62V102.75C320.18,102.75,335.68,114.33,345.16,132Z" style="fill:#0674ED"></path><path d="M307.16,99.21a41.88,41.88,0,0,0,15.44-8.85l-.66-.76a40.91,40.91,0,0,1-15.06,8.65Z" style="fill:#0674ED"></path><path d="M326.55,86.46a41.16,41.16,0,0,0,3.82-4.9l-.83-.55a41,41,0,0,1-3.73,4.78Z" style="fill:#0674ED"></path><path d="M345.16,86.05h0l6.36,3.42L347.3,68.86l-19.52,7.85,6.36,3.42h0c-6.21,11.56-20.86,22.62-34,22.62v12.51C320.18,115.26,335.68,103.69,345.16,86.05Z" style="fill:#0674ED"></path></g><g id="freepik--Character--inject-48"><path d="M244.21,194l8.89,3.66-3.75,6.74s-7-.75-7.8-6.58Z" style="fill:#ffb473"></path><polygon points="255.41 200.96 253.39 205.32 249.35 204.35 253.1 197.61 255.41 200.96" style="fill:#ffb473"></polygon><path d="M159.43,144.28c-.76,3.65-1.4,7.28-2,10.94s-1.09,7.34-1.52,11.06c-.23,1.85-.41,3.72-.57,5.63l-.11,1.45a16.93,16.93,0,0,0,0,2,12.17,12.17,0,0,0,.41,2.47,8.41,8.41,0,0,0,1.71,3.25,6.8,6.8,0,0,0,1.83,1.48,6.67,6.67,0,0,0,2.06.74,7.82,7.82,0,0,0,3.16-.1,11.83,11.83,0,0,0,3.7-1.67,21.28,21.28,0,0,0,4.71-4.39l-3.7-4.59a39.37,39.37,0,0,1-4.58,1.51,3,3,0,0,1-1.52.09c-.08,0,0-.16.42-.13a2.63,2.63,0,0,1,1.58.8,9.17,9.17,0,0,1,.58.76c.06,0,.09-.08.14-.27l.17-.74.22-1.3,1-5.29c1.36-7.12,2.81-14.32,4-21.52Z" style="fill:#ffb473"></path><path d="M167,174.56l4.51-5.44,5.72,7.39s-3.11,3-6.88,2.24Z" style="fill:#ffb473"></path><polygon points="175.72 165.54 180.76 170.77 177.27 176.51 171.55 169.13 175.72 165.54" style="fill:#ffb473"></polygon><path d="M198,110.54c-.05.63.25,1.18.66,1.24s.79-.41.83-1-.25-1.19-.66-1.24S198,109.91,198,110.54Z" style="fill:#263238"></path><path d="M198.15,111.72a24.08,24.08,0,0,0,2.61,5.78c-1.19.89-3,.16-3,.16Z" style="fill:#ec883e"></path><path d="M195.91,106.74a.39.39,0,0,1-.22-.18.36.36,0,0,1,.12-.5,3.64,3.64,0,0,1,3.38-.13.38.38,0,0,1,.18.5.36.36,0,0,1-.5.15h0a3,3,0,0,0-2.67.13A.33.33,0,0,1,195.91,106.74Z" style="fill:#263238"></path><path d="M178,114.75c1.33,5.78,2.82,16.36-1.05,20.11,0,0,1.77,5.87,12.43,6.12,11.73.26,5.4-5.72,5.4-5.72-6.45-1.67-6.46-6.43-5.5-10.88Z" style="fill:#ffb473"></path><path d="M173.62,137.75c-1.08-.73.27-7.12,1.3-7.73,2.75-1.64,16.43-.18,21.74,3.23,1.69,1.95-.21,5.34-.21,5.34Z" style="fill:#263238"></path><path d="M172.18,408.94c.8,0,1.58-.08,1.87-.46a.75.75,0,0,0,0-.89.93.93,0,0,0-.59-.45c-1.16-.3-3.29,1.12-3.38,1.18a.16.16,0,0,0-.07.18.19.19,0,0,0,.14.15A10.51,10.51,0,0,0,172.18,408.94Zm.94-1.47a.85.85,0,0,1,.23,0,.53.53,0,0,1,.35.26c.18.31.08.44.05.48-.32.43-1.93.39-3.11.16A5.81,5.81,0,0,1,173.12,407.47Z" style="fill:#0674ED"></path><path d="M170.16,408.66l.09,0c.8-.42,2.33-2.09,2.14-3a.64.64,0,0,0-.61-.5.93.93,0,0,0-.78.21c-.9.72-1,3-1,3.07a.19.19,0,0,0,.09.17A.14.14,0,0,0,170.16,408.66Zm1.5-3.14h.09c.24,0,.27.15.28.2.11.52-.86,1.79-1.65,2.38a4.25,4.25,0,0,1,.86-2.44A.68.68,0,0,1,171.66,405.52Z" style="fill:#0674ED"></path><path d="M233.9,402.52c1-.22,1.87-.57,2-1.09a.72.72,0,0,0-.24-.79,1,1,0,0,0-.68-.29c-1.36-.06-3.56,2.08-3.65,2.17a.17.17,0,0,0,0,.2.18.18,0,0,0,.18.12A12.87,12.87,0,0,0,233.9,402.52Zm.78-1.76a1.08,1.08,0,0,1,.35,0,.62.62,0,0,1,.43.17c.19.2.17.32.14.4-.21.57-2.11,1-3.57,1.15A7.73,7.73,0,0,1,234.68,400.76Z" style="fill:#0674ED"></path><path d="M231.57,402.84l.06,0c.8-.62,2.13-2.7,1.74-3.54-.09-.19-.3-.41-.81-.35a1.3,1.3,0,0,0-.9.54c-.73,1-.35,3.14-.33,3.23a.22.22,0,0,0,.12.15Zm1-3.54.11,0c.33,0,.39.08.41.12.23.51-.63,2.09-1.39,2.88a4.25,4.25,0,0,1,.32-2.6A.91.91,0,0,1,232.52,399.3Z" style="fill:#0674ED"></path><polygon points="223.21 405.85 230.45 404.38 227.42 385.27 220.18 386.74 223.21 405.85" style="fill:#ffb473"></polygon><polygon points="161.15 408.33 169.11 409.14 170.84 391.39 162.88 390.57 161.15 408.33" style="fill:#ffb473"></polygon><path d="M169.55,407.54l-8.84-.27a.64.64,0,0,0-.65.52l-1.36,6.93a1.23,1.23,0,0,0,1.19,1.43c3.08,0,4.57-.09,8.46,0,2.39.07,9.93.66,13.21.43s3.29-3.5,1.91-3.71c-6.18-.9-10.65-3-12.63-4.83A2,2,0,0,0,169.55,407.54Z" style="fill:#263238"></path><path d="M230.46,402l-8.23,1.9a.64.64,0,0,0-.5.67l.45,7.17a1.23,1.23,0,0,0,1.47,1.12c3-.74,7.2-1.91,10.93-2.77,4.37-1,6.28-1.19,11.4-2.37,3.09-.72,3.05-4.1,1.67-4.09-6.27.05-9.2.57-15.2-1.45A3.69,3.69,0,0,0,230.46,402Z" style="fill:#263238"></path><path d="M162.93,136.32c-7.08,2.2-8.25,23-8.25,23L168.32,168a30.35,30.35,0,0,0,5.92-15.07C175.49,142.88,170.17,134.07,162.93,136.32Z" style="fill:#0674ED"></path><path d="M162.93,136.32c-7.08,2.2-8.25,23-8.25,23L168.32,168a30.35,30.35,0,0,0,5.92-15.07C175.49,142.88,170.17,134.07,162.93,136.32Z" style="opacity:0.4"></path><path d="M167.94,156.66a22.11,22.11,0,0,0-3.13,9.08l3.51,2.23a29.49,29.49,0,0,0,5.56-12.83Z" style="opacity:0.2"></path><path d="M206.88,137.72s8.68,9.65,2.88,68l-41.95-.95c-.52-6.46,2.41-37.89-4.88-68.48a107.63,107.63,0,0,1,14-1.46,155.09,155.09,0,0,1,17.83.4A81.08,81.08,0,0,1,206.88,137.72Z" style="fill:#0674ED"></path><path d="M206.88,137.72s8.68,9.65,2.88,68l-41.95-.95c-.52-6.46,2.41-37.89-4.88-68.48a107.63,107.63,0,0,1,14-1.46,155.09,155.09,0,0,1,17.83.4A81.08,81.08,0,0,1,206.88,137.72Z" style="opacity:0.4"></path><path d="M211.18,155.7l-.16-.14-9.46,2.08c-.31,6.45,6.59,14.34,10.13,18A183.51,183.51,0,0,0,211.18,155.7Z" style="opacity:0.2"></path><polygon points="227.41 385.28 228.98 395.13 221.74 396.6 220.17 386.75 227.41 385.28" style="opacity:0.2"></polygon><polygon points="162.87 390.57 170.84 391.39 169.94 400.54 161.98 399.73 162.87 390.57" style="opacity:0.2"></polygon><path d="M177,106.41c-.1,7.79-.55,12.32,3.07,16.81a10.12,10.12,0,0,0,17.7-3c2.18-6.72,2-18.33-5.38-22.42S177.11,98.62,177,106.41Z" style="fill:#ffb473"></path><path d="M193.16,110.81c2.08-2.25,3.15-5,1.23-7.34s6.25,1.11,8.45-4a4.81,4.81,0,0,0-6.28-6.6c-3.2,1.76-3.52-2.59-6.33-3.54s-4.4,2.53-7.29,2.73c-6,.42-10.35-.46-8.43,5-3.91-.5-6.64,4-2.3,9.26,3.86,4.72,3.59,15.15,8,16.44S192.59,121.3,193.16,110.81Z" style="fill:#263238"></path><path d="M189,109.85a9.17,9.17,0,0,0,1.42,5.56c1.43,2.2,3.36,1.41,4-.79.57-2,.52-5.49-1.4-6.94S189.22,107.54,189,109.85Z" style="fill:#ffb473"></path><path d="M194.88,205.42s-1.39,60.07-2.87,83c-1.62,25.06-18.3,109.55-18.3,109.55l-14.4-1.15s10.44-69.25,9.75-104c-.52-26.71-1.25-88-1.25-88Z" style="fill:#263238"></path><path d="M176.13,392.84c.06,0-1.61,5.38-1.61,5.38l-16.21-1.3.41-4.89Z" style="fill:#0674ED"></path><path d="M189.32,231.26c1.89-4.07,3.76-4.93,5-4.95-.46,16.48-1.16,39.16-1.92,54.36C188.7,262,185.43,239.63,189.32,231.26Z" style="opacity:0.30000000000000004"></path><path d="M209.76,205.75s10.29,56,13,79.94c2.83,24.95,8.21,106,8.21,106l-12.77,3s-14.62-80.51-18.85-104.88c-4.61-26.56-19.77-84.71-19.77-84.71Z" style="fill:#263238"></path><path d="M232,386c.06,0,.81,5.57.81,5.57l-15.54,3.59-1.78-4.73Z" style="fill:#0674ED"></path><path d="M200.57,150.36c2.22,5.08,4.57,10,7,15s5.06,9.8,7.83,14.64l1.05,1.8.58,1A14.87,14.87,0,0,0,218,184a23.51,23.51,0,0,0,3.56,3.66,60,60,0,0,0,7.14,5.17,109,109,0,0,0,15,7.79l2.95-5.11c-4.21-3.31-8.5-6.68-12.48-10.08a73.62,73.62,0,0,1-5.54-5.18,16.7,16.7,0,0,1-1.91-2.42,2.9,2.9,0,0,1-.22-.41l-.41-.83-.87-1.8c-2.32-4.83-4.6-9.73-6.86-14.65l-6.86-14.71Z" style="fill:#ffb473"></path><path d="M195.72,145.33c-5.74,8.84,9,25.57,9,25.57l15.46-10.71a102.51,102.51,0,0,0-6.61-16.34C208,132.88,200.08,138.59,195.72,145.33Z" style="fill:#0674ED"></path><path d="M195.72,145.33c-5.74,8.84,9,25.57,9,25.57l15.46-10.71a102.51,102.51,0,0,0-6.61-16.34C208,132.88,200.08,138.59,195.72,145.33Z" style="opacity:0.4"></path><path d="M196.6,144.43c.37-3.29,3.71-6.07,6.12-7.36a.53.53,0,0,0-.1-1,21.61,21.61,0,0,0-4.76-.87,2.68,2.68,0,0,0-1.66.51c-3.8,2.76-6,5.84-6,7C192.8,143.49,196.6,144.43,196.6,144.43Z" style="fill:#0674ED"></path><path d="M172.66,143.48a8.14,8.14,0,0,1-.44-8.11c.17-.32-.31-.84-.75-.81a16.66,16.66,0,0,0-4.19.62,1.34,1.34,0,0,0-.91.92c-1,3.48-.51,6.77.32,7.8C169.14,143.77,172.66,143.48,172.66,143.48Z" style="fill:#0674ED"></path><path d="M198.11,144.88c3.7,6.82,6.09,36.17,4.56,46.34s-38.83,4.59-40.3,1.11c-3.42-8.09,1-41.41,2-46.13C166.33,136.77,193.32,136.05,198.11,144.88Z" style="fill:#0674ED"></path><path d="M174.16,166.18a1.42,1.42,0,0,0,1.41-1.36l.06-1.44a1.38,1.38,0,0,0-.37-1,1.44,1.44,0,0,0-1-.46,1.38,1.38,0,0,0-1,.38,1.4,1.4,0,0,0-.46,1l-.06,1.44a1.43,1.43,0,0,0,.38,1,1.4,1.4,0,0,0,1,.46h.06Zm.06-3.28h0a.39.39,0,0,1,.29.14.38.38,0,0,1,.11.3l-.06,1.44a.41.41,0,0,1-.13.29.52.52,0,0,1-.3.11h0a.42.42,0,0,1-.29-.14.46.46,0,0,1-.11-.3l.06-1.44a.42.42,0,0,1,.14-.29A.39.39,0,0,1,174.22,162.9Z" style="opacity:0.30000000000000004"></path><path d="M180.54,169c6,0,11.71-.66,13.71-2.27,2.71-2.19,2.27-7.82,1.89-12.78-.23-3-.46-5.89.16-7a.51.51,0,0,0-.21-.68.5.5,0,0,0-.68.21c-.75,1.4-.52,4.26-.27,7.57.35,4.49.78,10.07-1.52,11.93-4.1,3.32-25.71,2.19-29.27-.06a.5.5,0,1,0-.53.84C165.94,168,173.43,169,180.54,169Z" style="opacity:0.30000000000000004"></path><path d="M211.81,189.44a13.09,13.09,0,0,1-.28,3,.72.72,0,0,1-.84.58c-1.78-.35-6.5-1.46-8.5-3.65l.37-9a21,21,0,0,0,8.85,8.5A.7.7,0,0,1,211.81,189.44Z" style="fill:#0674ED"></path></g></svg>
