<?xml version="1.0" encoding="UTF-8" standalone="no"?>
<svg width="103px" height="33px" viewBox="0 0 103 33" version="1.1" xmlns="http://www.w3.org/2000/svg" xmlns:xlink="http://www.w3.org/1999/xlink">
    <!-- Generator: Sketch 3.8.3 (29802) - http://www.bohemiancoding.com/sketch -->
    <title>Paytm Mall Copy</title>
    <desc>Created with Sketch.</desc>
    <defs></defs>
    <g id="Page-1" stroke="none" stroke-width="1" fill="none" fill-rule="evenodd">
        <g id="Paytm-Mall-Copy">
            <g id="Page-1">
                <g id="Group-Copy">
                    <path d="M102.216804,9.66496194 C101.284915,6.94999693 98.7496232,5.00307957 95.7683424,5.00307957 L95.7058345,5.00307957 C93.769329,5.00307957 92.0225798,5.82517877 90.7796146,7.14418304 C89.5364016,5.82517877 87.7896522,5.00307957 85.853891,5.00307957 L85.791631,5.00307957 C84.0890343,5.00307957 82.5330335,5.63898157 81.3369492,6.68904275 L81.3369492,6.15729996 C81.2965175,5.62482401 80.8664035,5.20378828 80.3350862,5.20378828 L75.763822,5.20378828 C75.2062116,5.20378828 74.7535252,5.66547642 74.7535252,6.23569745 L74.7535252,31.5377354 C74.7535252,32.1080828 75.2062116,32.5697204 75.763822,32.5697204 L80.3350862,32.5697204 C80.8453195,32.5697204 81.2637752,32.1813987 81.3314922,31.6782997 L81.3314922,16.8414546 L81.3282676,13.5170824 C81.3282676,13.4553959 81.3314922,13.3944173 81.3369492,13.3337926 C81.4116116,12.5236515 81.9927863,11.8569062 82.9132899,11.7745143 L83.7564029,11.7745143 C84.1416203,11.808998 84.4663143,11.9469079 84.7203148,12.1541644 C85.1184307,12.4782967 85.3411772,12.9733815 85.339937,13.5170824 L85.3379526,16.8414546 L85.339937,16.8414546 L85.339937,30.9284547 L85.3575483,31.5900678 C85.3575483,32.1599095 85.8112269,32.6220528 86.3683411,32.6220528 L90.9393572,32.6220528 C91.4798523,32.6220528 91.918648,32.1859493 91.944693,31.6401249 L91.944693,16.817867 L91.9414684,13.4938488 C91.939484,12.895338 92.2098555,12.3556063 92.6863544,12.0380219 C92.919519,11.8830219 93.2010527,11.7799498 93.5259946,11.7509015 L94.3693556,11.7509015 C95.3568319,11.8394874 95.9551221,12.602049 95.9531377,13.4938488 L95.9506573,16.817867 L95.9531377,16.817867 L95.9531377,17.7579543 L95.970501,17.7579543 L95.970501,31.5425388 C95.970501,32.1123806 96.4239315,32.5740182 96.9815418,32.5740182 L101.552062,32.5740182 C102.109672,32.5740182 102.562607,32.1123806 102.562607,31.5425388 L102.562607,12.1294898 C102.562607,10.807199 102.415515,10.2427927 102.216804,9.66496194" id="Fill-1" fill="#00BAF2"></path>
                    <path d="M71.271685,5.27093556 L68.6580103,5.27093556 L68.6580103,0.954219567 L68.6567701,0.954219567 C68.6567701,0.949871173 68.6580103,0.945876719 68.6580103,0.941528326 C68.6580103,0.421389672 68.2445155,0 67.7347783,0 C67.6745027,0 67.6167078,0.00834284805 67.5611451,0.0195930522 C64.6612239,0.829734162 65.243143,4.92250789 59.9520454,5.27093556 L59.4370993,5.27093556 C59.3611968,5.27093556 59.2875267,5.28109867 59.2163371,5.29743041 L59.2121203,5.29743041 L59.2150969,5.29780964 C58.7638989,5.40088174 58.4260584,5.80993411 58.4260584,6.30067055 L58.4260584,10.9585585 C58.4260584,11.5291334 58.8787448,11.9908216 59.4370993,11.9908216 L62.1951374,11.9908216 L62.1951374,25.4729905 C62.1951374,25.4828502 62.1924089,25.4922042 62.1924089,25.5020639 L62.1924089,31.7450425 C62.1924089,32.3083111 62.6401344,32.7646396 63.1912955,32.7646396 L67.7107176,32.7646396 C68.2621269,32.7646396 68.7096042,32.3083111 68.7096042,31.7450425 L68.7096042,27.3602438 L68.7110925,27.3602438 L68.7110925,11.9908216 L71.271685,11.9908216 C71.8290474,11.9908216 72.2819818,11.5291334 72.2819818,10.9585585 L72.2819818,6.30067055 C72.2819818,5.73262372 71.8290474,5.27093556 71.271685,5.27093556" id="Fill-3" fill="#00BAF2"></path>
                    <path d="M54.8254034,5.27093556 L50.2551315,5.27093556 C49.6977692,5.27093556 49.2453309,5.73262372 49.2453309,6.30067055 L49.2453309,8.80185638 L49.225487,8.80185638 L49.225487,11.8514454 C49.2393778,11.9218793 49.2468192,11.994816 49.2468192,12.0695983 L49.2468192,15.2132087 C49.2468192,15.2190234 49.2453309,15.2244589 49.2453309,15.2302736 L49.2453309,15.9355224 C49.2361532,16.5300388 48.7618866,17.0098789 48.1759989,17.0098789 L46.2603295,17.0098789 C45.6692327,17.0098789 45.1895091,16.5209628 45.1895091,15.9180782 L45.1895091,8.80185638 L45.1704095,8.80185638 L45.1704095,6.30067055 C45.1704095,5.73262372 44.7174751,5.27093556 44.1601128,5.27093556 L39.5898409,5.27093556 C39.0312382,5.27093556 38.5788,5.73262372 38.5788,6.30067055 L38.5788,16.8585195 C38.5788,20.8703422 41.3844632,23.728324 45.3217184,23.728324 L48.2087412,23.728324 C48.2087412,23.728324 48.2757139,23.729057 48.3672434,23.7460968 C48.900049,23.8081624 49.3155283,24.2644152 49.3155283,24.8244731 C49.3155283,25.3794494 48.9074904,25.8319858 48.381382,25.9010038 C48.3560812,25.9058072 48.3322687,25.9108635 48.3049834,25.9149085 L47.007448,25.9394314 L41.619116,25.9394314 C41.0615055,25.9394314 40.6085712,26.4010691 40.6085712,26.9704053 L40.6085712,31.6284954 C40.6085712,32.1965676 41.0615055,32.6574467 41.619116,32.6574467 L49.093774,32.6574467 C53.0310291,32.6574467 55.8369405,29.799642 55.8369405,25.788249 L55.8369405,6.30067055 C55.8369405,5.73262372 55.3837579,5.27093556 54.8254034,5.27093556" id="Fill-4" fill="#20336B"></path>
                    <path d="M10.581029,13.808172 L10.581029,16.6824854 C10.581029,17.28537 10.1013303,17.7742861 9.51018393,17.7742861 L9.08106207,17.7742861 C9.07215717,17.7749939 9.06431887,17.7775474 9.05541396,17.7782805 L6.60959296,17.7782805 L6.60959296,12.0151422 L9.51018393,12.0151422 C10.1013303,12.0151422 10.581029,12.5040584 10.581029,13.106589 L10.581029,13.808172 L10.581029,13.808172 L10.581029,13.808172 Z M10.9823696,5.27058162 L5.55797154,5.27058162 C5.53624258,5.27058162 5.51595231,5.27310975 5.49422337,5.27310975 C5.48566575,5.27310975 5.47748019,5.27058162 5.46929461,5.27058162 L0.991073074,5.27058162 C0.443359783,5.27058162 0,5.72319377 0,6.28034433 L0,10.8445901 C0,10.8536661 0.00213320697,10.861655 0.00248047321,10.870731 C0.00213320697,10.8932314 0,10.9139116 0,10.9364373 L0,31.5948712 C0,32.1571287 0.412378672,32.6137099 0.924125103,32.6278675 L5.58111436,32.6278675 C6.13951848,32.6278675 6.5925025,32.1672411 6.5925025,31.5968938 L6.60959296,24.5152315 L10.9823696,24.5152315 C14.6429279,24.5152315 17.1934746,21.9298334 17.1934746,18.1833385 L17.1934746,11.6115254 C17.1934746,7.86685065 14.6429279,5.27058162 10.9823696,5.27058162 L10.9823696,5.27058162 L10.9823696,5.27058162 Z" id="Fill-5" fill="#20336B"></path>
                    <path d="M29.5469009,24.7445839 L29.5469009,25.4727376 C29.5469009,25.5313904 29.5387153,25.5885263 29.5287934,25.6443981 C29.5181274,25.6959721 29.5042368,25.7460292 29.4866253,25.7953277 L29.4866253,25.7960861 C29.3435021,26.2023575 28.9446419,26.497391 28.4696313,26.497391 L26.5676045,26.497391 C25.972539,26.497391 25.4903349,26.0382816 25.4903349,25.4727376 L25.4903349,24.5932244 C25.4903349,24.5819743 25.4878545,24.5718112 25.4878545,24.5612941 L25.4898389,22.222718 C25.4898389,22.2212517 25.4898389,22.2198106 25.4903349,22.2183695 L25.4903349,21.4895332 C25.4903349,21.4895332 25.4905831,21.486272 25.4905831,21.4844517 C25.4935595,20.9211326 25.9742753,20.4648798 26.5676045,20.4648798 L28.4696313,20.4648798 C29.0642008,20.4648798 29.5469009,20.9240399 29.5469009,21.4895332 L29.5469009,24.7445839 L29.5469009,24.7445839 L29.5469009,24.7445839 Z M28.8193782,5.29740514 L22.4771801,5.29740514 C21.9166428,5.29740514 21.4611783,5.73113212 21.4611783,6.26396201 L21.4611783,8.07478982 C21.4611783,8.08750634 21.4647254,8.09911049 21.4654447,8.11182702 C21.4647254,8.12416431 21.4611783,8.1361224 21.4611783,8.14883892 L21.4611783,10.6318727 C21.4611783,11.1977201 21.9433575,11.656147 22.5384231,11.656147 L24.7894524,11.656147 C24.7969435,11.656147 24.8040624,11.6572341 24.8114295,11.6572341 L28.57778,11.6572341 C29.0535348,11.7323703 29.431807,12.0858795 29.4866253,12.641589 L29.4866253,13.2426533 C29.431807,13.7700477 29.0589918,14.1551333 28.6023366,14.1997802 L25.6131184,14.1997802 C21.6349602,14.1997802 18.7998786,16.893332 18.7998786,20.6739567 L18.7998786,26.0941535 C18.7998786,29.8539969 21.2361002,32.5287646 25.1862289,32.5287646 L30.8114462,32.5287646 C30.8484052,32.5287646 30.8858604,32.526742 30.9228194,32.5264893 C30.9379503,32.526742 30.9520889,32.5287646 30.9669718,32.5287646 L33.4759705,32.5287646 C34.9630142,32.5287646 36.1692683,31.3820022 36.1692683,29.9675102 L36.1692683,12.2906079 C36.1692683,8.00329415 34.0005905,5.29740514 28.8193782,5.29740514 L28.8193782,5.29740514 L28.8193782,5.29740514 Z" id="Fill-6" fill="#20336B"></path>
                </g>
            </g>
        </g>
    </g>
</svg>