<?xml version="1.0" encoding="utf-8"?>
<!-- Generator: Adobe Illustrator 24.1.0, SVG Export Plug-In . SVG Version: 6.00 Build 0)  -->
<svg version="1.1" id="Layer_2" xmlns="http://www.w3.org/2000/svg" xmlns:xlink="http://www.w3.org/1999/xlink" x="0px" y="0px"
	 viewBox="0 0 132 48" style="enable-background:new 0 0 132 48;" xml:space="preserve">
<style type="text/css">
	.st0{fill:#5F259F;}
	.st1{fill:#FFFFFF;}
</style>
<g>
	<ellipse transform="matrix(0.2298 -0.9732 0.9732 0.2298 -9.5957 35.8754)" class="st0" cx="17.9" cy="24" rx="17.9" ry="17.9"/>
	<path class="st0" d="M90.5,34.2v-6.5c0-1.6-0.6-2.4-2.1-2.4c-0.6,0-1.3,0.1-1.7,0.2v9.5c0,0.3-0.3,0.6-0.6,0.6h-2.3
		c-0.3,0-0.6-0.3-0.6-0.6l0-11.1c0-0.4,0.3-0.7,0.6-0.8c1.5-0.5,3-0.8,4.6-0.8c3.6,0,5.6,1.9,5.6,5.4v7.4c0,0.3-0.3,0.6-0.6,0.6H92
		C91.1,35.7,90.5,35,90.5,34.2z M99.5,30.3L99.5,30.3L99.5,30.3l-0.1,0.9c0,1.2,0.8,1.9,2.1,1.9c1,0,1.9-0.3,2.9-0.8
		c0.1,0,0.2-0.1,0.3-0.1c0.2,0,0.3,0.1,0.4,0.2c0.1,0.1,0.3,0.4,0.3,0.4c0.2,0.3,0.4,0.7,0.4,1c0,0.5-0.3,1-0.7,1.2
		c-1.1,0.6-2.4,0.9-3.8,0.9c-1.6,0-2.9-0.4-3.9-1.2c-1-0.9-1.6-2.1-1.6-3.6v-3.9c0-3.1,2-5,5.4-5c3.3,0,5.2,1.8,5.2,5l0,2.4
		c0,0.3-0.3,0.6-0.6,0.6H99.5z M99.4,28.1L99.4,28.1h3.7h0.1l0-0.1l0-0.9c0-1.2-0.7-2-1.9-2c-1.2,0-1.9,0.7-1.9,2L99.4,28.1
		L99.4,28.1z M124.9,30.3L124.9,30.3L124.9,30.3l-0.1,0.9c0,1.2,0.8,1.9,2.1,1.9c1,0,1.9-0.3,2.9-0.8c0.1,0,0.2-0.1,0.3-0.1
		c0.2,0,0.3,0.1,0.4,0.2c0.1,0.1,0.3,0.4,0.3,0.4c0.2,0.3,0.4,0.7,0.4,1c0,0.5-0.3,1-0.7,1.2c-1.1,0.6-2.4,0.9-3.8,0.9
		c-1.6,0-2.9-0.4-3.9-1.2c-1-0.9-1.6-2.1-1.6-3.6v-3.9c0-3.1,2-5,5.4-5c3.3,0,5.2,1.8,5.2,5l0,2.4c0,0.3-0.3,0.6-0.6,0.6H124.9z
		 M124.8,28.1L124.8,28.1h3.7h0.1l0-0.1l0-0.9c0-1.2-0.7-2-1.9-2c-1.2,0-1.9,0.7-1.9,2L124.8,28.1L124.8,28.1z M66,35.7h1.4
		c0.3,0,0.6-0.3,0.6-0.6v-7.4c0-3.4-1.8-5.4-4.8-5.4c-0.9,0-1.9,0.2-2.5,0.4V19c0-0.8-0.7-1.5-1.5-1.5h-1.4c-0.3,0-0.6,0.3-0.6,0.6
		v17c0,0.3,0.3,0.6,0.6,0.6h2.3c0.3,0,0.6-0.3,0.6-0.6v-9.4c0.5-0.2,1.2-0.3,1.7-0.3c1.5,0,2.1,0.7,2.1,2.4v6.5
		C64.6,35,65.2,35.7,66,35.7z M81.1,27.3V31c0,3.1-2.1,5-5.6,5c-3.4,0-5.6-1.9-5.6-5v-3.7c0-3.1,2.1-5,5.6-5
		C79,22.3,81.1,24.2,81.1,27.3z M77.6,27.3c0-1.2-0.7-2-2-2c-1.3,0-2,0.7-2,2V31c0,1.2,0.7,1.9,2,1.9c1.3,0,2-0.7,2-1.9V27.3z
		 M55.3,25.6c0,3.2-2.4,5.4-5.6,5.4c-0.8,0-1.5-0.1-2.2-0.4v4.5c0,0.3-0.3,0.6-0.6,0.6h-2.3c-0.3,0-0.6-0.3-0.6-0.6l0-15.9
		c0-0.4,0.3-0.7,0.6-0.8c1.5-0.5,3-0.8,4.6-0.8c3.6,0,6.1,2.2,6.1,5.6V25.6z M51.7,23c0-1.6-1.1-2.4-2.6-2.4c-0.9,0-1.5,0.3-1.5,0.3
		v6.6c0.6,0.3,0.9,0.4,1.6,0.4c1.5,0,2.6-0.9,2.6-2.4V23z M119.9,25.6c0,3.2-2.4,5.4-5.6,5.4c-0.8,0-1.5-0.1-2.2-0.4v4.5
		c0,0.3-0.3,0.6-0.6,0.6h-2.3c-0.3,0-0.6-0.3-0.6-0.6l0-15.9c0-0.4,0.3-0.7,0.6-0.8c1.5-0.5,3-0.8,4.6-0.8c3.6,0,6.1,2.2,6.1,5.6
		V25.6z M116.3,23c0-1.6-1.1-2.4-2.6-2.4c-0.9,0-1.5,0.3-1.5,0.3v6.6c0.6,0.3,0.9,0.4,1.6,0.4c1.5,0,2.6-0.9,2.6-2.4V23z"/>
</g>
<path class="st1" d="M26,19.3c0-0.7-0.6-1.3-1.3-1.3h-2.4l-5.5-6.3c-0.5-0.6-1.3-0.8-2.1-0.6l-1.9,0.6c-0.3,0.1-0.4,0.5-0.2,0.7
	l6,5.7H9.5c-0.3,0-0.5,0.2-0.5,0.5v1c0,0.7,0.6,1.3,1.3,1.3h1.4v4.8c0,3.6,1.9,5.7,5.1,5.7c1,0,1.8-0.1,2.8-0.5v3.2
	c0,0.9,0.7,1.6,1.6,1.6h1.4c0.3,0,0.6-0.3,0.6-0.6V20.8h2.3c0.3,0,0.5-0.2,0.5-0.5V19.3z M19.6,27.9c-0.6,0.3-1.4,0.4-2,0.4
	c-1.6,0-2.4-0.8-2.4-2.6v-4.8h4.4V27.9z"/>
</svg>
