<svg xmlns="http://www.w3.org/2000/svg" viewBox="0 0 132.25 132.24"><path d="M32.24,32.24H0V0H32.24ZM4.93,27.31H27.31V4.93H4.93Z" style="fill:#3b3b3b"/><rect x="9.94" y="9.94" width="12.35" height="12.35" style="fill:#3b3b3b"/><path d="M100,0h32.24V32.24H100Zm27.31,4.93H104.94V27.31h22.38Z" style="fill:#3b3b3b"/><rect x="109.95" y="9.94" width="12.35" height="12.35" style="fill:#3b3b3b"/><path d="M32.26,132.24H0V100H32.26ZM5,127.31H27.33V104.93H5Z" style="fill:#3b3b3b"/><rect x="9.96" y="109.94" width="12.35" height="12.35" style="fill:#3b3b3b"/><rect x="47.6" width="5.29" height="5.29" style="fill:#3b3b3b"/><rect x="58.18" width="5.29" height="5.29" style="fill:#3b3b3b"/><rect x="63.47" width="5.29" height="5.29" style="fill:#3b3b3b"/><rect x="74.04" width="5.29" height="5.29" style="fill:#3b3b3b"/><rect x="79.33" width="5.29" height="5.29" style="fill:#3b3b3b"/><rect x="37.02" y="5.29" width="5.29" height="5.29" style="fill:#3b3b3b"/><rect x="52.89" y="5.29" width="5.29" height="5.29" style="fill:#3b3b3b"/><rect x="58.18" y="5.29" width="5.29" height="5.29" style="fill:#3b3b3b"/><rect x="74.04" y="5.29" width="5.29" height="5.29" style="fill:#3b3b3b"/><rect x="79.33" y="5.29" width="5.29" height="5.29" style="fill:#3b3b3b"/><rect x="89.91" y="5.29" width="5.29" height="5.29" style="fill:#3b3b3b"/><rect x="42.31" y="10.58" width="5.29" height="5.29" style="fill:#3b3b3b"/><rect x="47.6" y="10.58" width="5.29" height="5.29" style="fill:#3b3b3b"/><rect x="52.89" y="10.58" width="5.29" height="5.29" style="fill:#3b3b3b"/><rect x="58.18" y="10.58" width="5.29" height="5.29" style="fill:#3b3b3b"/><rect x="68.75" y="10.58" width="5.29" height="5.29" style="fill:#3b3b3b"/><rect x="74.04" y="10.58" width="5.29" height="5.29" style="fill:#3b3b3b"/><rect x="79.33" y="10.58" width="5.29" height="5.29" style="fill:#3b3b3b"/><rect x="84.62" y="10.58" width="5.29" height="5.29" style="fill:#3b3b3b"/><rect x="42.31" y="15.87" width="5.29" height="5.29" style="fill:#3b3b3b"/><rect x="47.6" y="15.87" width="5.29" height="5.29" style="fill:#3b3b3b"/><rect x="52.89" y="15.87" width="5.29" height="5.29" style="fill:#3b3b3b"/><rect x="63.47" y="15.87" width="5.29" height="5.29" style="fill:#3b3b3b"/><rect x="68.75" y="15.87" width="5.29" height="5.29" style="fill:#3b3b3b"/><rect x="84.62" y="15.87" width="5.29" height="5.29" style="fill:#3b3b3b"/><rect x="47.6" y="21.16" width="5.29" height="5.29" style="fill:#3b3b3b"/><rect x="52.89" y="21.16" width="5.29" height="5.29" style="fill:#3b3b3b"/><rect x="58.18" y="21.16" width="5.29" height="5.29" style="fill:#3b3b3b"/><rect x="63.47" y="26.44" width="5.29" height="5.29" style="fill:#3b3b3b"/><rect x="68.75" y="21.16" width="5.29" height="5.29" style="fill:#3b3b3b"/><rect x="79.33" y="21.16" width="5.29" height="5.29" style="fill:#3b3b3b"/><rect x="84.62" y="21.16" width="5.29" height="5.29" style="fill:#3b3b3b"/><rect x="42.31" y="26.44" width="5.29" height="5.29" style="fill:#3b3b3b"/><rect x="47.6" y="26.44" width="5.29" height="5.29" style="fill:#3b3b3b"/><rect x="79.33" y="26.44" width="5.29" height="5.29" style="fill:#3b3b3b"/><rect x="84.62" y="26.44" width="5.29" height="5.29" style="fill:#3b3b3b"/><rect x="42.31" y="31.73" width="5.29" height="5.29" style="fill:#3b3b3b"/><rect x="37.02" width="5.29" height="5.29" style="fill:#3b3b3b"/><rect x="37.02" y="10.58" width="5.29" height="5.29" style="fill:#3b3b3b"/><rect x="37.02" y="21.15" width="5.29" height="5.29" style="fill:#3b3b3b"/><rect x="37.02" y="31.73" width="5.29" height="5.29" style="fill:#3b3b3b"/><rect x="47.6" y="31.73" width="5.29" height="5.29" style="fill:#3b3b3b"/><rect x="58.18" y="31.73" width="5.29" height="5.29" style="fill:#3b3b3b"/><rect x="63.47" y="31.73" width="5.29" height="5.29" style="fill:#3b3b3b"/><rect x="68.75" y="31.73" width="5.29" height="5.29" style="fill:#3b3b3b"/><rect x="74.04" y="31.73" width="5.29" height="5.29" style="fill:#3b3b3b"/><rect x="79.33" y="31.73" width="5.29" height="5.29" style="fill:#3b3b3b"/><rect x="84.62" y="31.73" width="5.29" height="5.29" style="fill:#3b3b3b"/><rect x="42.31" y="37.02" width="5.29" height="5.29" style="fill:#3b3b3b"/><rect x="47.6" y="37.02" width="5.29" height="5.29" style="fill:#3b3b3b"/><rect x="52.89" y="37.02" width="5.29" height="5.29" style="fill:#3b3b3b"/><rect x="68.75" y="37.02" width="5.29" height="5.29" style="fill:#3b3b3b"/><rect x="79.33" y="37.02" width="5.29" height="5.29" style="fill:#3b3b3b"/><rect x="84.62" y="37.02" width="5.29" height="5.29" style="fill:#3b3b3b"/><rect x="89.91" width="5.29" height="5.29" style="fill:#3b3b3b"/><rect x="89.91" y="10.58" width="5.29" height="5.29" style="fill:#3b3b3b"/><rect x="89.91" y="21.16" width="5.29" height="5.29" style="fill:#3b3b3b"/><rect x="89.91" y="37.02" width="5.29" height="5.29" style="fill:#3b3b3b"/><rect x="42.31" y="42.32" width="5.29" height="5.29" style="fill:#3b3b3b"/><rect x="68.75" y="42.32" width="5.29" height="5.29" style="fill:#3b3b3b"/><rect x="42.31" y="47.61" width="5.29" height="5.29" style="fill:#3b3b3b"/><rect x="58.18" y="47.61" width="5.29" height="5.29" style="fill:#3b3b3b"/><rect x="63.47" y="37.02" width="5.29" height="5.29" style="fill:#3b3b3b"/><rect x="68.75" y="47.61" width="5.29" height="5.29" style="fill:#3b3b3b"/><rect x="74.04" y="47.61" width="5.29" height="5.29" style="fill:#3b3b3b"/><rect x="79.33" y="47.61" width="5.29" height="5.29" style="fill:#3b3b3b"/><rect x="42.31" y="52.9" width="5.29" height="5.29" style="fill:#3b3b3b"/><rect x="58.18" y="52.9" width="5.29" height="5.29" style="fill:#3b3b3b"/><rect x="68.75" y="52.9" width="5.29" height="5.29" style="fill:#3b3b3b"/><rect x="74.04" y="52.9" width="5.29" height="5.29" style="fill:#3b3b3b"/><rect x="79.33" y="52.9" width="5.29" height="5.29" style="fill:#3b3b3b"/><rect x="63.47" y="58.18" width="5.29" height="5.29" style="fill:#3b3b3b"/><rect x="68.75" y="58.18" width="5.29" height="5.29" style="fill:#3b3b3b"/><rect x="74.04" y="58.18" width="5.29" height="5.29" style="fill:#3b3b3b"/><rect x="79.33" y="58.18" width="5.29" height="5.29" style="fill:#3b3b3b"/><rect x="42.31" y="63.47" width="5.29" height="5.29" style="fill:#3b3b3b"/><rect x="47.6" y="63.47" width="5.29" height="5.29" style="fill:#3b3b3b"/><rect x="52.89" y="63.47" width="5.29" height="5.29" style="fill:#3b3b3b"/><rect x="58.18" y="63.47" width="5.29" height="5.29" style="fill:#3b3b3b"/><rect x="63.47" y="63.47" width="5.29" height="5.29" style="fill:#3b3b3b"/><rect x="68.75" y="63.47" width="5.29" height="5.29" style="fill:#3b3b3b"/><rect x="74.04" y="63.47" width="5.29" height="5.29" style="fill:#3b3b3b"/><rect x="84.62" y="63.47" width="5.29" height="5.29" style="fill:#3b3b3b"/><rect x="42.31" y="68.76" width="5.29" height="5.29" style="fill:#3b3b3b"/><rect x="52.89" y="68.76" width="5.29" height="5.29" style="fill:#3b3b3b"/><rect x="74.04" y="68.76" width="5.29" height="5.29" style="fill:#3b3b3b"/><rect x="79.33" y="68.76" width="5.29" height="5.29" style="fill:#3b3b3b"/><rect x="84.62" y="68.76" width="5.29" height="5.29" style="fill:#3b3b3b"/><rect x="47.6" y="74.05" width="5.29" height="5.29" style="fill:#3b3b3b"/><rect x="58.18" y="74.05" width="5.29" height="5.29" style="fill:#3b3b3b"/><rect x="74.04" y="74.05" width="5.29" height="5.29" style="fill:#3b3b3b"/><rect x="79.33" y="74.05" width="5.29" height="5.29" style="fill:#3b3b3b"/><rect x="84.62" y="74.05" width="5.29" height="5.29" style="fill:#3b3b3b"/><rect x="42.31" y="79.34" width="5.29" height="5.29" style="fill:#3b3b3b"/><rect x="52.89" y="79.34" width="5.29" height="5.29" style="fill:#3b3b3b"/><rect x="79.33" y="79.34" width="5.29" height="5.29" style="fill:#3b3b3b"/><rect x="42.31" y="84.63" width="5.29" height="5.29" style="fill:#3b3b3b"/><rect x="47.6" y="84.63" width="5.29" height="5.29" style="fill:#3b3b3b"/><rect x="52.89" y="84.63" width="5.29" height="5.29" style="fill:#3b3b3b"/><rect x="63.47" y="84.63" width="5.29" height="5.29" style="fill:#3b3b3b"/><rect x="68.75" y="84.63" width="5.29" height="5.29" style="fill:#3b3b3b"/><rect x="10.58" y="42.32" width="5.29" height="5.29" style="fill:#3b3b3b"/><rect x="15.87" y="42.32" width="5.29" height="5.29" style="fill:#3b3b3b"/><rect x="21.16" y="42.32" width="5.29" height="5.29" style="fill:#3b3b3b"/><rect x="26.44" y="42.32" width="5.29" height="5.29" style="fill:#3b3b3b"/><rect x="31.73" y="42.32" width="5.29" height="5.29" style="fill:#3b3b3b"/><rect x="37.02" y="42.32" width="5.29" height="5.29" style="fill:#3b3b3b"/><rect x="15.87" y="47.61" width="5.29" height="5.29" style="fill:#3b3b3b"/><rect x="21.16" y="47.61" width="5.29" height="5.29" style="fill:#3b3b3b"/><rect x="26.44" y="47.61" width="5.29" height="5.29" style="fill:#3b3b3b"/><rect x="31.73" y="47.61" width="5.29" height="5.29" style="fill:#3b3b3b"/><rect x="37.02" y="47.61" width="5.29" height="5.29" style="fill:#3b3b3b"/><rect x="10.58" y="52.9" width="5.29" height="5.29" style="fill:#3b3b3b"/><rect x="26.44" y="52.9" width="5.29" height="5.29" style="fill:#3b3b3b"/><rect x="31.73" y="52.9" width="5.29" height="5.29" style="fill:#3b3b3b"/><rect x="37.02" y="52.9" width="5.29" height="5.29" style="fill:#3b3b3b"/><rect x="10.58" y="58.18" width="5.29" height="5.29" style="fill:#3b3b3b"/><rect x="15.87" y="58.18" width="5.29" height="5.29" style="fill:#3b3b3b"/><rect x="21.16" y="58.18" width="5.29" height="5.29" style="fill:#3b3b3b"/><rect x="15.87" y="63.47" width="5.29" height="5.29" style="fill:#3b3b3b"/><rect x="21.16" y="63.47" width="5.29" height="5.29" style="fill:#3b3b3b"/><rect x="26.44" y="63.47" width="5.29" height="5.29" style="fill:#3b3b3b"/><rect x="31.73" y="63.47" width="5.29" height="5.29" style="fill:#3b3b3b"/><rect x="37.02" y="63.47" width="5.29" height="5.29" style="fill:#3b3b3b"/><rect x="10.58" y="68.76" width="5.29" height="5.29" style="fill:#3b3b3b"/><rect x="21.16" y="68.76" width="5.29" height="5.29" style="fill:#3b3b3b"/><rect x="26.44" y="68.76" width="5.29" height="5.29" style="fill:#3b3b3b"/><rect x="10.58" y="74.05" width="5.29" height="5.29" style="fill:#3b3b3b"/><rect x="21.16" y="74.05" width="5.29" height="5.29" style="fill:#3b3b3b"/><rect x="31.73" y="74.05" width="5.29" height="5.29" style="fill:#3b3b3b"/><rect x="37.02" y="74.05" width="5.29" height="5.29" style="fill:#3b3b3b"/><rect x="10.58" y="79.34" width="5.29" height="5.29" style="fill:#3b3b3b"/><rect x="15.87" y="79.34" width="5.29" height="5.29" style="fill:#3b3b3b"/><rect x="26.44" y="79.34" width="5.29" height="5.29" style="fill:#3b3b3b"/><rect x="31.73" y="79.34" width="5.29" height="5.29" style="fill:#3b3b3b"/><rect x="10.58" y="84.63" width="5.29" height="5.29" style="fill:#3b3b3b"/><rect x="15.87" y="84.63" width="5.29" height="5.29" style="fill:#3b3b3b"/><rect y="42.32" width="5.29" height="5.29" style="fill:#3b3b3b"/><rect x="5.29" y="42.32" width="5.29" height="5.29" style="fill:#3b3b3b"/><rect x="10.58" y="37.02" width="5.29" height="5.29" style="fill:#3b3b3b"/><rect x="21.16" y="37.02" width="5.29" height="5.29" style="fill:#3b3b3b"/><rect x="37.02" y="37.02" width="5.29" height="5.29" style="fill:#3b3b3b"/><rect y="37.02" width="5.29" height="5.29" style="fill:#3b3b3b"/><rect y="47.61" width="5.29" height="5.29" style="fill:#3b3b3b"/><rect x="5.29" y="52.9" width="5.29" height="5.29" style="fill:#3b3b3b"/><rect y="58.18" width="5.29" height="5.29" style="fill:#3b3b3b"/><rect x="5.29" y="58.18" width="5.29" height="5.29" style="fill:#3b3b3b"/><rect y="63.47" width="5.29" height="5.29" style="fill:#3b3b3b"/><rect y="79.34" width="5.29" height="5.29" style="fill:#3b3b3b"/><rect x="5.29" y="79.34" width="5.29" height="5.29" style="fill:#3b3b3b"/><rect y="84.63" width="5.29" height="5.29" style="fill:#3b3b3b"/><rect x="5.29" y="84.63" width="5.29" height="5.29" style="fill:#3b3b3b"/><rect x="21.16" y="84.63" width="5.29" height="5.29" style="fill:#3b3b3b"/><rect x="26.44" y="84.63" width="5.29" height="5.29" style="fill:#3b3b3b"/><rect x="31.73" y="84.63" width="5.29" height="5.29" style="fill:#3b3b3b"/><rect x="37.02" y="84.63" width="5.29" height="5.29" style="fill:#3b3b3b"/><rect x="15.87" y="89.92" width="5.29" height="5.29" style="fill:#3b3b3b"/><rect y="89.92" width="5.29" height="5.29" style="fill:#3b3b3b"/><rect x="21.16" y="89.92" width="5.29" height="5.29" style="fill:#3b3b3b"/><rect x="37.02" y="89.92" width="5.29" height="5.29" style="fill:#3b3b3b"/><rect x="79.33" y="84.63" width="5.29" height="5.29" style="fill:#3b3b3b"/><rect x="89.91" y="42.32" width="5.29" height="5.29" style="fill:#3b3b3b"/><rect x="95.2" y="42.32" width="5.29" height="5.29" style="fill:#3b3b3b"/><rect x="100.49" y="42.32" width="5.29" height="5.29" style="fill:#3b3b3b"/><rect x="105.78" y="42.32" width="5.29" height="5.29" style="fill:#3b3b3b"/><rect x="111.06" y="42.32" width="5.29" height="5.29" style="fill:#3b3b3b"/><rect x="116.35" y="42.32" width="5.29" height="5.29" style="fill:#3b3b3b"/><rect x="89.91" y="47.61" width="5.29" height="5.29" style="fill:#3b3b3b"/><rect x="95.2" y="47.61" width="5.29" height="5.29" style="fill:#3b3b3b"/><rect x="100.49" y="47.61" width="5.29" height="5.29" style="fill:#3b3b3b"/><rect x="89.91" y="52.9" width="5.29" height="5.29" style="fill:#3b3b3b"/><rect x="100.49" y="52.9" width="5.29" height="5.29" style="fill:#3b3b3b"/><rect x="95.2" y="58.18" width="5.29" height="5.29" style="fill:#3b3b3b"/><rect x="100.49" y="58.18" width="5.29" height="5.29" style="fill:#3b3b3b"/><rect x="111.06" y="58.18" width="5.29" height="5.29" style="fill:#3b3b3b"/><rect x="116.35" y="58.18" width="5.29" height="5.29" style="fill:#3b3b3b"/><rect x="95.2" y="63.47" width="5.29" height="5.29" style="fill:#3b3b3b"/><rect x="100.49" y="63.47" width="5.29" height="5.29" style="fill:#3b3b3b"/><rect x="116.35" y="63.47" width="5.29" height="5.29" style="fill:#3b3b3b"/><rect x="95.2" y="68.76" width="5.29" height="5.29" style="fill:#3b3b3b"/><rect x="116.35" y="68.76" width="5.29" height="5.29" style="fill:#3b3b3b"/><rect x="95.2" y="74.05" width="5.29" height="5.29" style="fill:#3b3b3b"/><rect x="100.49" y="74.05" width="5.29" height="5.29" style="fill:#3b3b3b"/><rect x="105.78" y="74.05" width="5.29" height="5.29" style="fill:#3b3b3b"/><rect x="111.06" y="74.05" width="5.29" height="5.29" style="fill:#3b3b3b"/><rect x="116.35" y="74.05" width="5.29" height="5.29" style="fill:#3b3b3b"/><rect x="105.78" y="79.34" width="5.29" height="5.29" style="fill:#3b3b3b"/><rect x="111.06" y="79.34" width="5.29" height="5.29" style="fill:#3b3b3b"/><rect x="89.91" y="84.63" width="5.29" height="5.29" style="fill:#3b3b3b"/><rect x="95.2" y="84.63" width="5.29" height="5.29" style="fill:#3b3b3b"/><rect x="121.64" y="42.32" width="5.29" height="5.29" style="fill:#3b3b3b"/><rect x="126.93" y="42.32" width="5.29" height="5.29" style="fill:#3b3b3b"/><rect x="100.49" y="37.02" width="5.29" height="5.29" style="fill:#3b3b3b"/><rect x="116.35" y="37.02" width="5.29" height="5.29" style="fill:#3b3b3b"/><rect x="126.93" y="37.02" width="5.29" height="5.29" style="fill:#3b3b3b"/><rect x="121.64" y="58.18" width="5.29" height="5.29" style="fill:#3b3b3b"/><rect x="126.93" y="58.18" width="5.29" height="5.29" style="fill:#3b3b3b"/><rect x="126.93" y="68.76" width="5.29" height="5.29" style="fill:#3b3b3b"/><rect x="126.93" y="74.05" width="5.29" height="5.29" style="fill:#3b3b3b"/><rect x="126.93" y="79.34" width="5.29" height="5.29" style="fill:#3b3b3b"/><rect x="121.64" y="84.63" width="5.29" height="5.29" style="fill:#3b3b3b"/><rect x="126.93" y="84.63" width="5.29" height="5.29" style="fill:#3b3b3b"/><rect x="58.18" y="89.92" width="5.29" height="5.29" style="fill:#3b3b3b"/><rect x="63.47" y="89.92" width="5.29" height="5.29" style="fill:#3b3b3b"/><rect x="68.75" y="89.92" width="5.29" height="5.29" style="fill:#3b3b3b"/><rect x="74.04" y="89.92" width="5.29" height="5.29" style="fill:#3b3b3b"/><rect x="79.33" y="89.92" width="5.29" height="5.29" style="fill:#3b3b3b"/><rect x="42.31" y="95.21" width="5.29" height="5.29" style="fill:#3b3b3b"/><rect x="47.6" y="95.21" width="5.29" height="5.29" style="fill:#3b3b3b"/><rect x="74.04" y="95.21" width="5.29" height="5.29" style="fill:#3b3b3b"/><rect x="79.33" y="95.21" width="5.29" height="5.29" style="fill:#3b3b3b"/><rect x="42.31" y="100.5" width="5.29" height="5.29" style="fill:#3b3b3b"/><rect x="47.6" y="100.5" width="5.29" height="5.29" style="fill:#3b3b3b"/><rect x="63.47" y="100.5" width="5.29" height="5.29" style="fill:#3b3b3b"/><rect x="68.75" y="100.5" width="5.29" height="5.29" style="fill:#3b3b3b"/><rect x="79.33" y="100.5" width="5.29" height="5.29" style="fill:#3b3b3b"/><rect x="42.31" y="105.78" width="5.29" height="5.29" style="fill:#3b3b3b"/><rect x="47.6" y="105.78" width="5.29" height="5.29" style="fill:#3b3b3b"/><rect x="58.18" y="105.78" width="5.29" height="5.29" style="fill:#3b3b3b"/><rect x="63.47" y="105.78" width="5.29" height="5.29" style="fill:#3b3b3b"/><rect x="68.75" y="105.78" width="5.29" height="5.29" style="fill:#3b3b3b"/><rect x="74.04" y="105.78" width="5.29" height="5.29" style="fill:#3b3b3b"/><rect x="42.31" y="111.07" width="5.29" height="5.29" style="fill:#3b3b3b"/><rect x="47.6" y="111.07" width="5.29" height="5.29" style="fill:#3b3b3b"/><rect x="58.18" y="111.07" width="5.29" height="5.29" style="fill:#3b3b3b"/><rect x="63.47" y="111.07" width="5.29" height="5.29" style="fill:#3b3b3b"/><rect x="74.04" y="111.07" width="5.29" height="5.29" style="fill:#3b3b3b"/><rect x="84.62" y="105.78" width="5.29" height="5.29" style="fill:#3b3b3b"/><rect x="42.31" y="116.36" width="5.29" height="5.29" style="fill:#3b3b3b"/><rect x="47.6" y="116.36" width="5.29" height="5.29" style="fill:#3b3b3b"/><rect x="63.47" y="116.36" width="5.29" height="5.29" style="fill:#3b3b3b"/><rect x="74.04" y="116.36" width="5.29" height="5.29" style="fill:#3b3b3b"/><rect x="84.62" y="116.36" width="5.29" height="5.29" style="fill:#3b3b3b"/><rect x="37.02" y="121.65" width="5.29" height="5.29" style="fill:#3b3b3b"/><rect x="47.6" y="121.65" width="5.29" height="5.29" style="fill:#3b3b3b"/><rect x="52.89" y="121.65" width="5.29" height="5.29" style="fill:#3b3b3b"/><rect x="63.47" y="121.65" width="5.29" height="5.29" style="fill:#3b3b3b"/><rect x="79.33" y="121.65" width="5.29" height="5.29" style="fill:#3b3b3b"/><rect x="84.62" y="121.65" width="5.29" height="5.29" style="fill:#3b3b3b"/><rect x="105.78" y="84.63" width="5.29" height="5.29" style="fill:#3b3b3b"/><rect x="111.06" y="89.92" width="5.29" height="5.29" style="fill:#3b3b3b"/><rect x="116.35" y="89.92" width="5.29" height="5.29" style="fill:#3b3b3b"/><rect x="89.91" y="95.21" width="5.29" height="5.29" style="fill:#3b3b3b"/><rect x="95.2" y="95.21" width="5.29" height="5.29" style="fill:#3b3b3b"/><rect x="100.49" y="95.21" width="5.29" height="5.29" style="fill:#3b3b3b"/><rect x="105.78" y="100.5" width="5.29" height="5.29" style="fill:#3b3b3b"/><rect x="116.35" y="95.21" width="5.29" height="5.29" style="fill:#3b3b3b"/><rect x="89.91" y="100.5" width="5.29" height="5.29" style="fill:#3b3b3b"/><rect x="100.49" y="100.5" width="5.29" height="5.29" style="fill:#3b3b3b"/><rect x="89.91" y="105.78" width="5.29" height="5.29" style="fill:#3b3b3b"/><rect x="95.2" y="105.78" width="5.29" height="5.29" style="fill:#3b3b3b"/><rect x="100.49" y="105.78" width="5.29" height="5.29" style="fill:#3b3b3b"/><rect x="105.78" y="105.78" width="5.29" height="5.29" style="fill:#3b3b3b"/><rect x="116.35" y="105.78" width="5.29" height="5.29" style="fill:#3b3b3b"/><rect x="95.2" y="111.07" width="5.29" height="5.29" style="fill:#3b3b3b"/><rect x="105.78" y="111.07" width="5.29" height="5.29" style="fill:#3b3b3b"/><rect x="111.06" y="111.07" width="5.29" height="5.29" style="fill:#3b3b3b"/><rect x="95.2" y="116.36" width="5.29" height="5.29" style="fill:#3b3b3b"/><rect x="116.35" y="116.36" width="5.29" height="5.29" style="fill:#3b3b3b"/><rect x="89.91" y="121.65" width="5.29" height="5.29" style="fill:#3b3b3b"/><rect x="95.2" y="121.65" width="5.29" height="5.29" style="fill:#3b3b3b"/><rect x="116.35" y="121.65" width="5.29" height="5.29" style="fill:#3b3b3b"/><rect x="121.64" y="89.92" width="5.29" height="5.29" style="fill:#3b3b3b"/><rect x="121.64" y="95.21" width="5.29" height="5.29" style="fill:#3b3b3b"/><rect x="121.64" y="100.5" width="5.29" height="5.29" style="fill:#3b3b3b"/><rect x="121.64" y="105.78" width="5.29" height="5.29" style="fill:#3b3b3b"/><rect x="121.64" y="111.07" width="5.29" height="5.29" style="fill:#3b3b3b"/><rect x="121.64" y="116.36" width="5.29" height="5.29" style="fill:#3b3b3b"/><rect x="121.64" y="121.65" width="5.29" height="5.29" style="fill:#3b3b3b"/><rect x="37.02" y="100.5" width="5.29" height="5.29" style="fill:#3b3b3b"/><rect x="37.02" y="111.07" width="5.29" height="5.29" style="fill:#3b3b3b"/><rect x="37.02" y="116.36" width="5.29" height="5.29" style="fill:#3b3b3b"/><rect x="37.02" y="126.94" width="5.29" height="5.29" style="fill:#3b3b3b"/><rect x="52.89" y="126.94" width="5.29" height="5.29" style="fill:#3b3b3b"/><rect x="63.47" y="126.94" width="5.29" height="5.29" style="fill:#3b3b3b"/><rect x="74.04" y="126.94" width="5.29" height="5.29" style="fill:#3b3b3b"/><rect x="84.62" y="126.94" width="5.29" height="5.29" style="fill:#3b3b3b"/><rect x="121.64" y="126.94" width="5.29" height="5.29" style="fill:#3b3b3b"/><rect x="126.93" y="126.94" width="5.29" height="5.29" style="fill:#3b3b3b"/></svg>