<svg width="312" height="174" viewBox="0 0 312 174" fill="none" xmlns="http://www.w3.org/2000/svg">
<rect width="312" height="174" fill="#EEEEEE"/>
<path d="M113.511 127.434V135.044C113.509 135.93 113.683 136.808 114.022 137.628C114.361 138.447 114.858 139.191 115.485 139.818C116.111 140.445 116.856 140.942 117.675 141.28C118.494 141.619 119.372 141.793 120.259 141.792H182.606C183.492 141.793 184.37 141.619 185.189 141.28C186.008 140.942 186.753 140.445 187.38 139.818C188.006 139.191 188.503 138.447 188.842 137.628C189.181 136.808 189.355 135.93 189.354 135.044V127.434H113.511Z" fill="black"/>
<path d="M189.354 33.3573V25.748C189.355 24.8616 189.181 23.9836 188.842 23.1644C188.503 22.3452 188.006 21.6009 187.38 20.9741C186.753 20.3473 186.008 19.8503 185.189 19.5115C184.37 19.1728 183.492 18.999 182.606 19H120.259C119.372 18.999 118.494 19.1728 117.675 19.5115C116.856 19.8503 116.111 20.3473 115.485 20.9741C114.858 21.6009 114.361 22.3452 114.022 23.1644C113.683 23.9836 113.509 24.8616 113.511 25.748V33.3573H189.354Z" fill="black"/>
<path d="M113.51 33.3573H189.354V127.47H113.51V33.3573Z" fill="white"/>
<path d="M151.45 131.49C152.378 131.472 153.279 131.801 153.978 132.413C154.677 133.024 155.122 133.874 155.227 134.797C155.332 135.719 155.089 136.647 154.546 137.4C154.003 138.153 153.199 138.676 152.29 138.868C151.382 139.059 150.435 138.904 149.634 138.434C148.833 137.964 148.237 137.212 147.961 136.326C147.686 135.439 147.751 134.482 148.144 133.641C148.536 132.799 149.229 132.135 150.086 131.777C150.517 131.593 150.981 131.496 151.45 131.49Z" fill="white"/>
<path d="M195.562 65.373C194.408 66.5267 192.938 67.3123 191.338 67.6306C189.738 67.9489 188.08 67.7856 186.572 67.1613C185.065 66.5369 183.777 65.4797 182.87 64.1232C181.964 62.7667 181.48 61.1718 181.48 59.5404C181.48 57.9089 181.964 56.3141 182.87 54.9576C183.777 53.6011 185.065 52.5438 186.572 51.9195C188.08 51.2952 189.738 51.1319 191.338 51.4502C192.938 51.7685 194.408 52.5541 195.562 53.7077C196.33 54.4726 196.939 55.3816 197.355 56.3825C197.77 57.3834 197.984 58.4566 197.984 59.5404C197.984 60.6242 197.77 61.6974 197.355 62.6983C196.939 63.6992 196.33 64.6082 195.562 65.373Z" fill="#99644C"/>
<path d="M195.562 80.9149C194.408 82.0686 192.938 82.8542 191.338 83.1725C189.738 83.4908 188.08 83.3275 186.572 82.7032C185.065 82.0789 183.777 81.0216 182.87 79.6651C181.964 78.3086 181.48 76.7138 181.48 75.0823C181.48 73.4508 181.964 71.856 182.87 70.4995C183.777 69.143 185.065 68.0857 186.572 67.4614C188.08 66.8371 189.738 66.6738 191.338 66.9921C192.938 67.3104 194.408 68.096 195.562 69.2497C196.33 70.0145 196.939 70.9235 197.355 71.9244C197.77 72.9253 197.984 73.9985 197.984 75.0823C197.984 76.1661 197.77 77.2393 197.355 78.2402C196.939 79.2411 196.33 80.1501 195.562 80.9149Z" fill="#99644C"/>
<path d="M195.562 96.5289C194.408 97.6825 192.938 98.4682 191.338 98.7865C189.738 99.1048 188.08 98.9414 186.572 98.3171C185.065 97.6928 183.777 96.6355 182.87 95.279C181.964 93.9225 181.48 92.3277 181.48 90.6962C181.48 89.0648 181.964 87.47 182.87 86.1134C183.777 84.7569 185.065 83.6997 186.572 83.0754C188.08 82.451 189.738 82.2877 191.338 82.606C192.938 82.9243 194.408 83.71 195.562 84.8636C196.33 85.6285 196.939 86.5374 197.355 87.5383C197.77 88.5393 197.984 89.6124 197.984 90.6962C197.984 91.7801 197.77 92.8532 197.355 93.8541C196.939 94.855 196.33 95.764 195.562 96.5289Z" fill="#99644C"/>
<path d="M195.562 112.07C194.408 113.224 192.938 114.01 191.338 114.328C189.738 114.646 188.08 114.483 186.572 113.859C185.065 113.234 183.777 112.177 182.87 110.821C181.964 109.464 181.48 107.869 181.48 106.238C181.48 104.606 181.964 103.012 182.87 101.655C183.777 100.299 185.065 99.2413 186.572 98.6169C188.08 97.9926 189.738 97.8293 191.338 98.1476C192.938 98.4659 194.408 99.2515 195.562 100.405C196.33 101.17 196.939 102.079 197.355 103.08C197.77 104.081 197.984 105.154 197.984 106.238C197.984 107.322 197.77 108.395 197.355 109.396C196.939 110.397 196.33 111.306 195.562 112.07Z" fill="#99644C"/>
<path d="M128.693 119.861V148.396L90 141.828V90.0692C90.002 84.0846 91.8994 78.2543 95.42 73.4147L112.577 49.9755C113.097 49.2863 113.868 48.8312 114.723 48.71C115.577 48.5889 116.445 48.8116 117.136 49.3293C119.691 51.3412 121.453 54.1921 122.11 57.3778C122.767 60.5635 122.276 63.8789 120.725 66.7377L115.448 76.4295V98.6474L116.023 98.9345C119.86 100.913 123.075 103.915 125.311 107.609C127.548 111.302 128.718 115.543 128.692 119.86" fill="#99644C"/>
<path d="M170.258 141.756L166.417 146.924C164.549 149.436 162.118 151.475 159.319 152.878C156.52 154.28 153.432 155.007 150.301 155H90V141.756H170.258Z" fill="#99644C"/>
<path d="M128.676 66.6787H174.118V80.4258H128.676V66.6787Z" fill="#276EF1"/>
<path d="M128.677 84.0164H174.118V97.7635H128.677V84.0164Z" fill="#EEEEEE"/>
<path d="M136.346 71.6799H166.02V75.3475H136.346V71.6799Z" fill="#F6F6F6"/>
</svg>
