<svg xmlns="http://www.w3.org/2000/svg" xmlns:xlink="http://www.w3.org/1999/xlink" viewBox="0 0 906.27 262.97"><defs><radialGradient id="radial-gradient" cx="175.13" cy="180.26" r="64.92" gradientTransform="matrix(1, 0, 0, -1, 0, 243.94)" gradientUnits="userSpaceOnUse"><stop offset="0" stop-color="#ffc93e"/><stop offset="0.11" stop-color="#fec13d"/><stop offset="0.28" stop-color="#faac3a"/><stop offset="0.49" stop-color="#f58a35"/><stop offset="0.73" stop-color="#ed5a2e"/><stop offset="0.98" stop-color="#e31f26"/></radialGradient></defs><title>SVL Global</title><g id="Layer_2" data-name="Layer 2"><g id="Layer_1-2" data-name="Layer 1"><path d="M359.53,79.06V70.38h37.23a7.5,7.5,0,0,0,5.37-1.78A6.17,6.17,0,0,0,404,63.89a6,6,0,0,0-1.87-4.81,8,8,0,0,0-5.37-1.61H374a17.87,17.87,0,0,1-6.32-1.06,13.49,13.49,0,0,1-4.78-2.94,12.92,12.92,0,0,1-3-4.47,14.79,14.79,0,0,1-1.06-5.67,15.35,15.35,0,0,1,1-5.57,11.92,11.92,0,0,1,2.94-4.4,13.93,13.93,0,0,1,4.82-2.91,19,19,0,0,1,6.55-1.06h35.66v8.68H374.08a6.35,6.35,0,0,0-4.64,1.61,6,6,0,0,0-1.64,4.47,5.82,5.82,0,0,0,1.67,4.44A6.37,6.37,0,0,0,374,50.16h22.74q7.59,0,11.51,3.55t3.93,10.8a17,17,0,0,1-1,5.8,12.5,12.5,0,0,1-2.86,4.62,13.18,13.18,0,0,1-4.82,3,19.24,19.24,0,0,1-6.8,1.1Z" style="fill:#f7941d"/><path d="M416.3,29.39h10.59l22.54,38.26,22.48-38.26h10L453.26,76.94a6.8,6.8,0,0,1-1.78,2,3.93,3.93,0,0,1-2.39.75,4,4,0,0,1-2.46-.75,6.64,6.64,0,0,1-1.77-2Z" style="fill:#f7941d"/><path d="M487.21,79.06V29.39h8.67v41h33.41v8.68Z" style="fill:#f7941d"/><rect x="308.88" y="29.45" width="4.9" height="206.02" style="fill:#bcbcbc"/><path d="M167.4,5,74.9,43,17.1,66.68a132.22,132.22,0,0,0-6.2,12.37A125.29,125.29,0,0,0,5.54,93.76L65.83,69A137.22,137.22,0,0,1,70,54.81L180.49,9.47A124.56,124.56,0,0,0,167.4,5Z" style="fill:#0674ed"/><path d="M131.49,0a132.38,132.38,0,0,0-27.28,2.84c-2.65.56-5.27,1.23-7.86,2A129.72,129.72,0,0,0,67.49,16.62,132.76,132.76,0,0,0,38.8,38.23,131.23,131.23,0,0,0,21.82,59L78.61,35.66a133.15,133.15,0,0,1,12.76-19L131.94,0Z" style="fill:#0674ed"/><path d="M262.91,134.36,107.5,198.13,40,225.85c2.43,2.35,4.91,4.62,7.49,6.76a132,132,0,0,0,10.77,8.08l69-28.31a133.48,133.48,0,0,1-11.65-7.72l146.76-60.23C262.65,141.11,262.84,137.74,262.91,134.36Z" style="fill:#0674ed"/><path d="M258.9,164.1,133.22,215.69,63.78,244.18c3.33,2,6.78,3.9,10.29,5.61A127,127,0,0,0,89.33,256l72.06-29.57a130,130,0,0,1-16.9-5.54l111-45.55C256.76,171.66,257.92,167.93,258.9,164.1Z" style="fill:#0674ed"/><path d="M245,197.92l-74.31,30.51L97.41,258.49A134.9,134.9,0,0,0,131.49,263a131,131,0,0,0,89.62-35.32,131.62,131.62,0,0,1-27.28,2.84c-1.35,0-2.7-.05-4.07-.09l46-18.88A131,131,0,0,0,245,197.92Z" style="fill:#0674ed"/><path d="M180.49,34.51a54.28,54.28,0,0,1,6.39.43l22.63-9.29q-4.41-3.24-9.06-6.13L64.52,75.29,3.77,100.24c-.85,3.54-1.6,7.1-2.17,10.73C1,115.26.48,119.6.23,124L62.37,98.52c0-4.3.24-8.56.63-12.75l77.23-31.68A51.12,51.12,0,0,1,180.49,34.51Z" style="fill:#0674ed"/><path d="M130.11,76.49,62.5,104.25.05,129.87c0,.54,0,1.07,0,1.6,0,2.75.12,5.45.28,8.14.25,4,.65,8,1.27,12L65,125.53c-.8-3.85-1.38-7.78-1.83-11.75l66.06-27.12c0-.3,0-.58,0-.89A50.69,50.69,0,0,1,130.11,76.49Z" style="fill:#0674ed"/><path d="M217.55,50.43l13-5.34q-3.19-3.66-6.65-7.12l-14.1,5.81A51.58,51.58,0,0,1,217.55,50.43Z" style="fill:#0674ed"/><path d="M66.25,130.79,2.49,157c.61,3,1.31,6,2.11,9,1,3.76,2.17,7.45,3.51,11.07L72.8,150.43c-1.51-3.54-2.85-7.16-4-10.84l67.66-27.76a49,49,0,0,1-3.94-8.23Z" style="fill:#0674ed"/><path d="M246,66.86c-1.51-2.68-3.1-5.31-4.8-7.87l-14,5.75a51.44,51.44,0,0,1,3,8.61Z" style="fill:#0674ed"/><path d="M256.48,90.65c-1-2.9-2-5.76-3.14-8.56l-21.88,9a50,50,0,0,1-2.35,10.79Z" style="fill:#0674ed"/><path d="M75,155.29,10.05,181.94c1.18,2.82,2.45,5.56,3.83,8.28,1.72,3.48,3.6,6.88,5.64,10.17l65.89-27c-2.23-3.21-4.28-6.54-6.2-9.95l78-32a52.86,52.86,0,0,1-9.25-6Z" style="fill:#0674ed"/><path d="M262.09,116.43c-.35-3.13-.81-6.21-1.38-9.26l-51.88,21.29a50.91,50.91,0,0,1-18.52,7.61L88.58,177.81,22.44,205c1.76,2.59,3.63,5.11,5.56,7.54,2.5,3.21,5.15,6.28,7.94,9.25l67.21-27.59a123.17,123.17,0,0,1-8.58-9Z" style="fill:#0674ed"/><path d="M217,106.86l12.14-5a50.57,50.57,0,0,0,2.36-10.79l-10.94,4.49A41.43,41.43,0,0,1,217,106.86Z" style="fill:#fff"/><path d="M180.49,44.13a41.63,41.63,0,0,0-40,30.23l61.39-24.28A41.33,41.33,0,0,0,180.49,44.13ZM207.7,54.32,139.06,81.48a40.54,40.54,0,0,0-.21,4.29,41.19,41.19,0,0,0,2.74,14.74L219,69.88A41.57,41.57,0,0,0,207.7,54.32ZM220.83,75.7l-76.7,30.35a41.8,41.8,0,0,0,15.52,15.74l60.7-24a41,41,0,0,0,.48-22.06Zm-40.34,51.69a41.65,41.65,0,0,0,36.61-21.78l-49.71,19.66A41.91,41.91,0,0,0,180.49,127.39Z" style="fill:url(#radial-gradient)"/><path d="M397.29,135.36c-28.57,28.18-9.33,78.71,35,78.71,17.5,0,30.71-7.38,35.57-23.12h-36c-13.6,0-20.6-12.25-19.63-24.1H496.6c4.28,47-32.65,72.49-67.63,72.1-23.91-.39-48.2-12-61.42-35.37-15.35-27-11.66-58.5,5.64-80.27,12.44-15.74,32.26-26.43,57.33-26.43,37.12,0,71.91,22.93,48.4,51.31C471.34,124.09,422.75,110.29,397.29,135.36Z" style="fill:#0674ed"/><path d="M530.22,235.65H505.73V119.42c0-12.43,9.52-20,24.49-19.82Z" style="fill:#0674ed"/><path d="M660.43,235.65v-116c0-10.5,9.33-19.63,24.49-20v78.32c0,17.69,5.83,37.71,26,37.71,35.76,0,35-57.92-.19-57.92-7,0-16.13,1.75-20.41,8-4.47-8.16-1.94-29.74,23.71-30.71,24.88-.77,48,21,48,51.5,0,47.43-48.4,66.86-77.16,38.49v10.68H660.43Z" style="fill:#0674ed"/><path d="M845.84,224.57c-29.35,29.15-78.91,9.33-78.91-39.45,0-31.3,23.71-53.65,49.17-52.67,24.88,1,29,23.12,24.29,31.48-4.27-6.41-13.6-8.16-21-8.16-35.95,0-36.73,59.27,0,59.27,20.61,0,26.44-20.6,26.44-38.67V135H871.1V235.65H845.84V224.57Z" style="fill:#0674ed"/><path d="M906.27,235.65H881.79V119.42c0-12.43,9.52-20,24.48-19.82Z" style="fill:#0674ed"/><path d="M595.65,124.1c17.31,0,32.54,7.72,43.6,21.07-12.1-7.3-29.42-4.8-37.55,5-19.41-4-35.89,9-35.89,30.46,0,41.72,58.83,42.14,59,.41-.21-16.27-17.1-21.69-25.66-15.64,2.51-23.58,43-25.46,50.49-1a57.13,57.13,0,0,1-14.4,56.54c-26.49,26.5-71.14,20-89.29-11.89C524.08,170.83,551.83,124.1,595.65,124.1Z" style="fill:#f7941d"/></g></g></svg>