<svg xmlns="http://www.w3.org/2000/svg" viewBox="0 0 922.79 239.64"><title>Asset 1</title><g id="Layer_2" data-name="Layer 2"><g id="Layer_1-2" data-name="Layer 1"><path d="M290.75,94.56v-7.8h33.47a6.71,6.71,0,0,0,4.82-1.6,5.54,5.54,0,0,0,1.69-4.24A5.39,5.39,0,0,0,329,76.59a7.21,7.21,0,0,0-4.82-1.44H303.71a16.23,16.23,0,0,1-5.68-1,12.48,12.48,0,0,1-4.3-2.64,11.53,11.53,0,0,1-2.7-4,13.22,13.22,0,0,1-1-5.09,13.89,13.89,0,0,1,.89-5,10.83,10.83,0,0,1,2.65-4,12.59,12.59,0,0,1,4.33-2.61,17,17,0,0,1,5.89-1h32.06v7.8H303.83a5.71,5.71,0,0,0-4.17,1.44,5.34,5.34,0,0,0-1.48,4,5.22,5.22,0,0,0,1.51,4,5.72,5.72,0,0,0,4.08,1.41h20.45q6.82,0,10.35,3.19t3.53,9.71a15.21,15.21,0,0,1-.86,5.22,11.24,11.24,0,0,1-2.58,4.14,11.62,11.62,0,0,1-4.33,2.73,17.17,17.17,0,0,1-6.11,1Z" style="fill:#f7941d"/><path d="M341.79,49.91h9.51L371.57,84.3l20.21-34.39h9L375,92.65a5.84,5.84,0,0,1-1.6,1.85,3.52,3.52,0,0,1-2.14.67,3.67,3.67,0,0,1-2.22-.67,6,6,0,0,1-1.59-1.85Z" style="fill:#f7941d"/><path d="M405.53,94.56V49.91h7.8V86.76h30v7.8Z" style="fill:#f7941d"/><path d="M387.92,106.84,370.69,129.2H317v12h41.78q15.67,0,23.9,5.85t8.23,17.67q0,13.24-8.61,20.7t-28.15,7.45h-68l17.09-22.1h53c3.09,0,5.38-.5,6.88-1.48a5.34,5.34,0,0,0,2.25-4.82q0-3.35-2.25-4.76t-6.88-1.41H290.61V106.84Z" style="fill:#0674ed"/><path d="M451,139.1h55v53.73h-59a62,62,0,0,1-20.7-3.34A51.18,51.18,0,0,1,410,180.3a42.76,42.76,0,0,1-10.8-13.88A39.24,39.24,0,0,1,395.24,149a37.59,37.59,0,0,1,3.92-17.16A40.78,40.78,0,0,1,410,118.47a49.2,49.2,0,0,1,16.39-8.61,68.17,68.17,0,0,1,20.7-3h61.57L491.39,129.2H447.05a31.43,31.43,0,0,0-10,1.55,24.35,24.35,0,0,0-8,4.37,20.65,20.65,0,0,0-5.33,6.62,18.34,18.34,0,0,0-1.93,8.42,18.52,18.52,0,0,0,7.13,14.91,25.14,25.14,0,0,0,8,4.18,33.39,33.39,0,0,0,10.16,1.47h32.52V158.26H435.09Z" style="fill:#0674ed"/><polygon points="540.67 141.03 540.07 141.03 530.1 141.03 517.12 157.61 540.07 157.61 540.67 157.61 552.51 157.61 565.49 141.03 540.67 141.03" style="fill:#e89400"/><path d="M585.61,192.83l16.07-22.1h29.63c2.78,0,5.21.08,7.26.25-1.19-1.54-2.59-3.49-4.18-5.85s-3.1-4.56-4.56-6.62l-15.42-22.75-40.36,57.07h-31.5l55.15-77.77a29.84,29.84,0,0,1,6.81-6.68,19.77,19.77,0,0,1,20.5-.19,26.29,26.29,0,0,1,6.88,6.87l53.73,77.77Z" style="fill:#0674ed"/><path d="M802.21,139.1a29.67,29.67,0,0,1-2.83,13.05,27.18,27.18,0,0,1-8.28,10,41.34,41.34,0,0,1-13.31,6.43,63.28,63.28,0,0,1-17.87,2.31h-45v22H688.45v-44h74q6.18,0,9.58-2.7a8.71,8.71,0,0,0,3.4-7.2,8.54,8.54,0,0,0-3.4-7.13q-3.41-2.64-9.58-2.64h-74l17.61-22.36h54a61.42,61.42,0,0,1,17.87,2.38,39.91,39.91,0,0,1,13.24,6.62A28.23,28.23,0,0,1,799.38,126,30.09,30.09,0,0,1,802.21,139.1Z" style="fill:#0674ed"/><path d="M922.79,139.1A29.67,29.67,0,0,1,920,152.15a27.21,27.21,0,0,1-8.29,10,41.24,41.24,0,0,1-13.31,6.43,63.28,63.28,0,0,1-17.87,2.31h-45v22H809v-44h74.05q6.16,0,9.57-2.7a8.69,8.69,0,0,0,3.41-7.2,8.54,8.54,0,0,0-3.41-7.13q-3.4-2.64-9.57-2.64H809l17.61-22.36h54a61.47,61.47,0,0,1,17.87,2.38,39.66,39.66,0,0,1,13.23,6.62A28.16,28.16,0,0,1,920,126,30,30,0,0,1,922.79,139.1Z" style="fill:#0674ed"/><path d="M304.92,212.7,300.11,230H294l-6.48-23.26h5l4.82,17.44h.17l4.75-17.44h5.61l4.75,17.44h.17l4.81-17.44h5L316.05,230H309.9l-4.81-17.28Z" style="fill:#6b6b6b"/><path d="M327.48,206.72h18.6v3.82h-14v6h9.64v3.82h-9.64v5.82h14.29V230H327.48Z" style="fill:#6b6b6b"/><path d="M385.64,230h-5l-1.82-4.65H367.37L365.54,230h-5l9.63-23.26H376ZM369,221.34h8.14l-4-9.63H373Z" style="fill:#6b6b6b"/><path d="M400.92,206.72c6.31,0,9.63,3.33,9.63,7.64a7.19,7.19,0,0,1-4.32,6.65v.16l6.15,8.81H406.9l-5.48-8h-6.48v8h-4.65V206.73h10.63Zm0,3.82h-6v7.65h6c3.15,0,4.81-2,4.81-3.82C405.73,212.21,404.07,210.54,400.92,210.54Z" style="fill:#6b6b6b"/><path d="M417.19,206.72h18.6v3.82h-14v6h9.64v3.82h-9.64v5.82h14.29V230H417.19Z" style="fill:#6b6b6b"/><path d="M463.8,206.06c7.3,0,12.45,5.15,12.45,12.29s-5.15,12.29-12.45,12.29-12.46-5.15-12.46-12.29S456.49,206.06,463.8,206.06Zm0,4c-4.32,0-7.65,3.32-7.65,8.3s3.33,8.31,7.65,8.31,7.64-3.33,7.64-8.31S468.12,210.05,463.8,210.05Z" style="fill:#6b6b6b"/><path d="M498.57,222.67V206.72h4.65V230h-5L486.78,214h-.16V230H482V206.72h5l11.46,15.95Z" style="fill:#6b6b6b"/><path d="M510.26,206.72h18.61v3.82h-14v6h9.63v3.82h-9.63v5.82H529.2V230H510.26Z" style="fill:#6b6b6b"/><path d="M564.24,206.72v3.82h-8V230h-4.65V210.54h-8v-3.82Z" style="fill:#6b6b6b"/><path d="M580.32,206.06c7.31,0,12.45,5.15,12.45,12.29s-5.14,12.29-12.45,12.29-12.46-5.15-12.46-12.29S573,206.06,580.32,206.06Zm0,4c-4.32,0-7.64,3.32-7.64,8.3s3.32,8.31,7.64,8.31,7.64-3.33,7.64-8.31S584.64,210.05,580.32,210.05Z" style="fill:#6b6b6b"/><path d="M598.35,220.68v-14H603v14a6,6,0,0,0,12,0v-14h4.65v14c0,5.81-4.15,10-10.63,10S598.35,226.49,598.35,220.68Z" style="fill:#6b6b6b"/><path d="M645.79,208.39l-2,3.15a11.46,11.46,0,0,0-5.48-1.49c-5,0-8.31,3.32-8.31,8.3s3.32,8.31,8.31,8.31a10.77,10.77,0,0,0,5.81-1.83l2,3.15a13.49,13.49,0,0,1-8.14,2.66c-7.64,0-12.79-5.15-12.79-12.29s5.15-12.29,12.79-12.29A13.54,13.54,0,0,1,645.79,208.39Z" style="fill:#6b6b6b"/><path d="M672.63,206.72V230H668v-9.64H656V230h-4.65V206.72H656v9.8h12v-9.8Z" style="fill:#6b6b6b"/><path d="M713.65,230h-5l-1.83-4.65H695.38L693.55,230h-5l9.63-23.26H704ZM697,221.34h8.14l-4-9.63H701Z" style="fill:#6b6b6b"/><path d="M733.64,212.7,728.83,230h-6.15l-6.48-23.26h5L726,224.16h.17l4.75-17.44h5.61l4.75,17.44h.17l4.82-17.44h5L744.77,230h-6.15l-4.81-17.28Z" style="fill:#6b6b6b"/><path d="M778.22,230h-5l-1.83-4.65H760L758.13,230h-5l9.64-23.26h5.81Zm-16.61-8.64h8.14l-4-9.63h-.17Z" style="fill:#6b6b6b"/><path d="M796.79,206.72h5l-9.46,15.95V230h-4.66v-7.31l-9.46-15.95h5l6.64,11.3h.34Z" style="fill:#6b6b6b"/><rect x="247.29" y="49.62" width="3.41" height="143" style="fill:#bcbcbc"/><path d="M182.13,206.48l-7-6.56a81.24,81.24,0,0,0,1.08-109.51L183.34,84a90.87,90.87,0,0,1-1.21,122.49Z" style="fill:#0676ee"/><path d="M34.12,180.65A96.37,96.37,0,0,1,187.29,66.44L176,77.44A80.59,80.59,0,0,0,47.9,173Z" style="fill:#0674ed"/><path d="M110.22,239.64a102.77,102.77,0,0,1-68.95-26.48l10.56-11.72a87.22,87.22,0,0,0,115.79.88L178,214.18A103,103,0,0,1,110.22,239.64Z" style="fill:#e89400"/><path d="M78.5,36.79l-6-14.6A117.61,117.61,0,0,0,47.36,36.28V48a6,6,0,0,1-6,6H28.12A116.07,116.07,0,0,0,0,130.05a117.32,117.32,0,0,0,2.17,22.48l15.48-3A100.73,100.73,0,0,1,78.5,36.79Z" style="fill:#e89400"/><path d="M43.4,48a2,2,0,0,1-2,2H28.15a2,2,0,0,1-2-2V35.69a2,2,0,0,1,2-2h13.2a2,2,0,0,1,2,2Z" style="fill:#0674ed"/><path d="M31.73,27.44a4.22,4.22,0,0,1-4.21-4.21v-19A4.22,4.22,0,0,1,31.73,0H52.14a4.22,4.22,0,0,1,4.21,4.21v19a4.22,4.22,0,0,1-4.21,4.21Z" style="fill:#0674ed"/><path d="M24.24,30.15a2.63,2.63,0,0,1-2.63,2.62H4.76a2.62,2.62,0,0,1-2.62-2.62V14.43a2.62,2.62,0,0,1,2.62-2.62H21.61a2.62,2.62,0,0,1,2.63,2.62Z" style="fill:#e89400"/><path d="M107.6,184.75c19.43.78,33.09-15.55,35.58-29.35.82-4.56.69-4.71-3.89-4.71-3.24,0-6.47,0-9.71,0-3.06,0-5.88.07-8.77,1.88-4.34,2.71-10.08,1-13.09-3.19a10.58,10.58,0,0,1,.85-13.41A10.34,10.34,0,0,1,122,134.42a7.21,7.21,0,0,0,4.46,1.34c9.86,0,19.72,0,29.57,0,1.6,0,2.24.36,2.49,2.11,3.17,22.58-13.58,44.76-36.15,47.43-4.12.49-8.35.08-12.52,0A10.45,10.45,0,0,1,107.6,184.75Z" style="fill:#0676ee;fill-rule:evenodd"/><path d="M74.81,134.41c.12,2.12.09,3.87.35,5.59a36.27,36.27,0,0,0,29.65,30.17,40.65,40.65,0,0,0,22.12-1.71A25.52,25.52,0,0,0,139.68,158c.37-.6.77-1.17,1.52-2.27a9.16,9.16,0,0,1-.2,1.71c-4.07,12.44-11.77,21.51-24.89,24.43-12.77,2.85-23.75-1.11-32.22-11.12-8.7-10.26-11.73-22.17-9.47-35.43A6.05,6.05,0,0,1,74.81,134.41Z" style="fill:#0676ee;fill-rule:evenodd"/><path d="M124.45,101.6a60.14,60.14,0,0,0-7.61.93c-15.38,3.85-24,14.2-27.72,29.17a35.72,35.72,0,0,0,.19,17.7A29.64,29.64,0,0,0,103.07,168a5.49,5.49,0,0,1-1.28-.1A33.83,33.83,0,0,1,76.8,138a30.38,30.38,0,0,1,8.43-23.87c10.5-11,23.48-15.17,38.51-12.87a3.73,3.73,0,0,1,.63.18S124.43,101.56,124.45,101.6Z" style="fill:#0676ee;fill-rule:evenodd"/><path d="M155,126.15c-5.53,0-10.82,0-16.11-.05a2.58,2.58,0,0,1-1.59-.94A27.76,27.76,0,0,0,92,129.77a4.9,4.9,0,0,1-.6.75c.79-12.2,15.11-25.72,29-26.84C135.14,102.5,149.37,111.35,155,126.15Z" style="fill:#0676ee;fill-rule:evenodd"/><path d="M114.91,82.7a60.68,60.68,0,0,0-13.75,1.6V74.9a70.77,70.77,0,0,1,63.65,19.29l5.45-5.47a78.34,78.34,0,0,0-69.1-21.66,73.84,73.84,0,0,0-7.73,1.77V94.94l0,.07a51.65,51.65,0,0,1,7.7-2.76,52.45,52.45,0,1,1,13.76,103.06h0a51.86,51.86,0,0,1-21.7-4.7h0a52.57,52.57,0,0,1-30.74-47.74H54.75A60.37,60.37,0,0,0,90,197.65l1.6-3.52L90,197.65A59.79,59.79,0,0,0,114.91,203h0a60.17,60.17,0,1,0,0-120.33Z" style="fill:#e89400"/></g></g></svg>