<svg xmlns="http://www.w3.org/2000/svg" viewBox="0 0 906.4 263.1"><title>Asset 1</title><g id="Layer_2" data-name="Layer 2"><g id="Layer_1-2" data-name="Layer 1"><path d="M359.6,79.1V70.4h37.2a7.66,7.66,0,0,0,5.4-1.8,6.11,6.11,0,0,0,1.9-4.7,5.91,5.91,0,0,0-1.9-4.8,7.92,7.92,0,0,0-5.4-1.6H374a18.1,18.1,0,0,1-6.3-1.1,14.32,14.32,0,0,1-4.8-2.9,12.7,12.7,0,0,1-3-4.5,14.85,14.85,0,0,1-1.1-5.7,14.67,14.67,0,0,1,1-5.6,12.07,12.07,0,0,1,2.9-4.4,14.32,14.32,0,0,1,4.8-2.9,19,19,0,0,1,6.6-1.1h35.7V38H374.1a5.58,5.58,0,0,0-6.2,6.1,5.72,5.72,0,0,0,1.7,4.4,6.48,6.48,0,0,0,4.5,1.6h22.7c5.1,0,8.9,1.2,11.5,3.6s3.9,6,3.9,10.8a15.72,15.72,0,0,1-1,5.8,11.64,11.64,0,0,1-2.9,4.6,13.06,13.06,0,0,1-4.8,3,19.78,19.78,0,0,1-6.8,1.1l-37.1.1Z" style="fill:#fff"/><path d="M416.4,29.4H427l22.5,38.3L472,29.4h10L453.3,77a5.86,5.86,0,0,1-1.8,2,4.07,4.07,0,0,1-2.4.8,4.15,4.15,0,0,1-2.5-.8,7,7,0,0,1-1.8-2Z" style="fill:#fff"/><path d="M487.3,79.1V29.4H496v41h33.4v8.7Z" style="fill:#fff"/><rect x="309" y="29.5" width="4.9" height="206" style="fill:#fff"/><path d="M167.5,5,75,43,17.2,66.7A132.34,132.34,0,0,0,5.6,93.8L65.9,69.1a115.76,115.76,0,0,1,4.2-14.2L180.6,9.6A127.36,127.36,0,0,0,167.5,5Z" style="fill:#fff"/><path d="M131.6,0a135.9,135.9,0,0,0-27.3,2.8c-2.7.6-5.3,1.2-7.9,1.9A132.9,132.9,0,0,0,67.5,16.5,135,135,0,0,0,38.8,38.1a136.54,136.54,0,0,0-17,20.8L78.6,35.6a129,129,0,0,1,12.8-19L132,0Z" style="fill:#fff"/><path d="M263,134.4,107.6,198.2,40.1,225.9c2.4,2.3,4.9,4.6,7.5,6.8a108.59,108.59,0,0,0,10.8,8.1l69-28.3a129.54,129.54,0,0,1-11.6-7.7l146.8-60.2C262.7,141.1,262.9,137.8,263,134.4Z" style="fill:#fff"/><path d="M259,164.1,133.3,215.7,63.9,244.2c3.3,2,6.8,3.9,10.3,5.6A113.85,113.85,0,0,0,89.5,256l72.1-29.6a139,139,0,0,1-16.9-5.5l111-45.5C256.9,171.7,258,168,259,164.1Z" style="fill:#fff"/><path d="M245,198l-74.3,30.5L97.5,258.6a120.68,120.68,0,0,0,16.1,3.2,133.79,133.79,0,0,0,18,1.3,131,131,0,0,0,89.6-35.3,129,129,0,0,1-27.3,2.8c-1.4,0-2.7-.1-4.1-.1l46-18.9A120.3,120.3,0,0,0,245,198Z" style="fill:#fff"/><path d="M180.6,34.5c2.2,0,4.3.2,6.4.4l22.6-9.3c-2.9-2.2-6-4.2-9.1-6.1L64.6,75.3l-60.8,25c-.8,3.5-1.6,7.1-2.2,10.7C.9,115.3.5,119.6.2,124.1L62.3,98.6c0-4.3.2-8.6.6-12.8l77.2-31.7A51.9,51.9,0,0,1,180.6,34.5Z" style="fill:#fff"/><path d="M130.2,76.5,62.6,104.3.1,129.9c0,.5-.1,1.1-.1,1.6q0,4,.3,8.1c.3,4,.7,8,1.3,12l63.5-26a113.85,113.85,0,0,1-1.8-11.7l66.1-27.1v-.9A41.16,41.16,0,0,1,130.2,76.5Z" style="fill:#fff"/><path d="M217.6,50.5l13-5.3c-2.1-2.4-4.3-4.8-6.7-7.1l-14.1,5.8A41.31,41.31,0,0,1,217.6,50.5Z" style="fill:#fff"/><path d="M66.3,130.8,2.6,157q.9,4.5,2.1,9c1,3.8,2.2,7.5,3.5,11.1l64.7-26.6c-1.5-3.5-2.8-7.2-4-10.8l67.7-27.8a41.1,41.1,0,0,1-3.9-8.2Z" style="fill:#fff"/><path d="M246.1,66.9c-1.5-2.7-3.1-5.3-4.8-7.9l-14,5.8a58.12,58.12,0,0,1,3,8.6Z" style="fill:#fff"/><path d="M256.6,90.7c-.9-2.9-2-5.8-3.1-8.6l-21.9,9a49.65,49.65,0,0,1-2.4,10.8Z" style="fill:#fff"/><path d="M75.1,155.3,10.1,182c1.2,2.8,2.5,5.6,3.8,8.3,1.7,3.5,3.6,6.9,5.6,10.2l65.9-27a111.79,111.79,0,0,1-6.2-10l78-32a56.76,56.76,0,0,1-9.3-6Z" style="fill:#fff"/><path d="M262.2,116.5c-.3-3.1-.8-6.2-1.4-9.3l-51.9,21.3a50.33,50.33,0,0,1-18.5,7.6L88.7,177.8,22.5,205c1.8,2.6,3.6,5.1,5.6,7.5,2.5,3.2,5.2,6.3,7.9,9.2l67.2-27.6a104.81,104.81,0,0,1-8.6-9Z" style="fill:#fff"/><path d="M217.1,106.9l12.1-5a54.65,54.65,0,0,0,2.4-10.8l-10.9,4.5A42.65,42.65,0,0,1,217.1,106.9Z" style="fill:#fff"/><path d="M180.6,44.2a41.6,41.6,0,0,0-40,30.2L202,50.1A41.19,41.19,0,0,0,180.6,44.2Zm27.2,10.2L139.2,81.6a30.24,30.24,0,0,0-.2,4.3,41.72,41.72,0,0,0,2.7,14.7L219.1,70A42.1,42.1,0,0,0,207.8,54.4Zm13.1,21.3L144.2,106a41.72,41.72,0,0,0,15.5,15.7l60.7-24a43,43,0,0,0,1.8-12A42.2,42.2,0,0,0,220.9,75.7Zm-40.3,51.7a41.65,41.65,0,0,0,36.6-21.8l-49.7,19.7A40.41,40.41,0,0,0,180.6,127.4Z" style="fill:#fff"/><path d="M397.4,135.4c-28.6,28.2-9.3,78.7,35,78.7,17.5,0,30.7-7.4,35.6-23.1H432c-13.6,0-20.6-12.2-19.6-24.1h84.3c4.3,47-32.7,72.5-67.6,72.1-23.9-.4-48.2-12-61.4-35.4a71.63,71.63,0,0,1,5.6-80.3c12.4-15.7,32.3-26.4,57.3-26.4,37.1,0,71.9,22.9,48.4,51.3C471.4,124.1,422.8,110.3,397.4,135.4Z" style="fill:#fff"/><path d="M530.3,235.7H505.8V119.5c0-12.4,9.5-20,24.5-19.8Z" style="fill:#fff"/><path d="M660.5,235.7v-116c0-10.5,9.3-19.6,24.5-20V178c0,17.7,5.8,37.7,26,37.7,35.8,0,35-57.9-.2-57.9-7,0-16.1,1.7-20.4,8-4.5-8.2-1.9-29.7,23.7-30.7,24.9-.8,48,21,48,51.5,0,47.4-48.4,66.9-77.2,38.5v10.7l-24.4-.1Z" style="fill:#fff"/><path d="M845.9,224.6c-29.3,29.2-78.9,9.3-78.9-39.5,0-31.3,23.7-53.6,49.2-52.7,24.9,1,29,23.1,24.3,31.5-4.3-6.4-13.6-8.2-21-8.2-36,0-36.7,59.3,0,59.3,20.6,0,26.4-20.6,26.4-38.7V135h25.3V235.7H845.9V224.6Z" style="fill:#fff"/><path d="M906.4,235.7H881.9V119.5c0-12.4,9.5-20,24.5-19.8Z" style="fill:#fff"/><path d="M595.7,124.1c17.3,0,32.5,7.7,43.6,21.1-12.1-7.3-29.4-4.8-37.6,5-19.4-4-35.9,9-35.9,30.5,0,41.7,58.8,42.1,59,.4-.2-16.3-17.1-21.7-25.7-15.6,2.5-23.6,43-25.5,50.5-1A57.21,57.21,0,0,1,635.2,221c-26.5,26.5-71.1,20-89.3-11.9C524.2,170.9,551.9,124.1,595.7,124.1Z" style="fill:#fff"/></g></g></svg>