<?xml version="1.0" encoding="utf-8"?>
<!-- Generator: Adobe Illustrator 24.0.3, SVG Export Plug-In . SVG Version: 6.00 Build 0)  -->
<svg version="1.1" id="Layer_1" xmlns="http://www.w3.org/2000/svg" xmlns:xlink="http://www.w3.org/1999/xlink" x="0px" y="0px"
	 viewBox="0 0 1024 435" style="enable-background:new 0 0 1024 435;" xml:space="preserve">
<style type="text/css">
	.st0{fill:#BCBCBC;}
	.st1{fill:none;}
	.st2{fill:#F7941D;}
	.st3{fill:#0674ED;}
	.st4{fill:#6B6B6B;}
	.st5{fill-rule:evenodd;clip-rule:evenodd;fill:#FFFFFF;}
	.st6{fill:#FFFFFF;}
</style>
<rect x="332.9" y="111.7" class="st0" width="4.7" height="198.8"/>
<path class="st1" d="M201.5,205C201.5,205,201.5,205,201.5,205C201.5,205,201.5,205,201.5,205L201.5,205z"/>
<path class="st1" d="M204.7,205.9c0,0,1.5,2.2,2.1,2.2c0,0,3.4-0.9,3.5-2.1C210.2,206,207.2,207,204.7,205.9z"/>
<g>
	<path class="st2" d="M378.3,169.9V160h42.5c2.6,0,4.7-0.7,6.1-2c1.4-1.4,2.1-3.1,2.1-5.4c0-2.4-0.7-4.3-2.1-5.5
		c-1.4-1.2-3.5-1.8-6.1-1.8h-26c-2.6,0-5.1-0.4-7.2-1.2c-2.2-0.8-4-1.9-5.5-3.4c-1.5-1.4-2.6-3.1-3.4-5.1c-0.8-2-1.2-4.1-1.2-6.5
		c0-2.3,0.4-4.4,1.1-6.4c0.8-1.9,1.9-3.6,3.4-5c1.5-1.4,3.3-2.5,5.5-3.3c2.2-0.8,4.7-1.2,7.5-1.2h40.7v9.9h-40.7
		c-2.3,0-4.1,0.6-5.3,1.8c-1.2,1.2-1.9,2.9-1.9,5.1s0.6,3.9,1.9,5.1c1.3,1.2,3,1.8,5.2,1.8h26c5.8,0,10.1,1.4,13.1,4.1
		c3,2.7,4.5,6.8,4.5,12.3c0,2.4-0.4,4.6-1.1,6.6c-0.7,2-1.8,3.8-3.3,5.3c-1.5,1.5-3.3,2.6-5.5,3.5c-2.2,0.8-4.8,1.2-7.8,1.2H378.3z"
		/>
	<path class="st2" d="M443,113.3h12.1l25.7,43.6l25.6-43.6h11.4l-32.7,54.2c-0.6,1-1.2,1.8-2,2.3c-0.8,0.6-1.7,0.9-2.7,0.9
		c-1.1,0-2-0.3-2.8-0.9c-0.8-0.6-1.5-1.4-2-2.3L443,113.3z"/>
	<path class="st2" d="M523.9,169.9v-56.7h9.9V160h38.1v9.9H523.9z"/>
</g>
<g>
	<g>
		<path class="st3" d="M488.2,263.1c-1.2,14-6.4,25-15.8,32.9c-9.6,7.7-22.2,11.6-37.8,11.6c-18.2,0-32.1-5.5-41.7-16.5
			c-9.6-10.5-14.4-26-14.4-46.6c0-21,4.9-36.8,14.7-47.3c10-11,24.5-16.5,43.4-16.5c15.4,0,27.7,3.9,36.8,11.6
			c8.6,7.5,13.5,18,14.7,31.5h-15.1c-5.6,0-9.6-2.5-11.9-7.4c-1.6-3-3.6-5.7-6-8.1c-4.7-3.5-10.9-5.3-18.6-5.3
			c-10.7,0-19,3.5-24.9,10.5c-5.6,7-8.4,17.3-8.4,30.8c0,13.1,2.8,23.1,8.4,30.1c5.4,7.2,13.4,10.9,24.2,10.9
			c7.5,0,13.7-1.9,18.6-5.6c4.4-3.5,7.6-9.1,9.5-16.8H488.2z"/>
		<path class="st3" d="M555.7,300.9c-4.9,2.6-10.1,4.1-15.6,4.7c-5.5,0.6-10.3,0.9-14.5,0.9c-8.4,0-15.8-2.3-22.1-6.8
			c-6.3-4.6-9.5-12.1-9.5-22.6c0-9.8,2.9-16.8,8.6-21c5.7-4.2,13-7,21.9-8.4c1.2,0,2.6-0.2,4.2-0.5c1.6-0.3,3.5-0.6,5.6-0.9
			c10.3-1.4,15.4-4.4,15.4-9.1c0-3.5-1.8-5.8-5.4-6.8c-3.6-1-6.9-1.6-10-1.6c-3.3,0-6.2,0.5-8.8,1.4c-2.6,0.9-4.4,2.7-5.6,5.3h-23.5
			c0.9-7.2,4.2-13.2,9.8-17.9c6.3-5.4,15.3-8.1,27-8.1c13.1,0,22.9,2.2,29.4,6.7c6.8,4.7,10.2,11.2,10.2,19.6v31.9
			c0,9.3-1.7,16.6-5.1,21.9C564.4,294.8,560.4,298.6,555.7,300.9z M550.1,257.9c-3.3,1.6-7.8,3.2-13.7,4.6l-8.1,1.8
			c-4.2,1.2-7.2,2.7-9.1,4.6c-1.6,2.6-2.5,5.1-2.5,7.7c0,3.5,1,6.3,3.2,8.4c2.1,1.9,5.1,2.8,9.1,2.8c6.5,0,11.7-1.9,15.4-5.6
			c3.7-3.7,5.6-8.9,5.6-15.4V257.9z"/>
		<path class="st3" d="M579,304.8v-45.2c0-9.1,1.3-16.7,4-22.9c2.7-6.2,6.4-11.1,11-14.9c4.4-3.5,9.6-6.1,15.6-7.7
			c6-1.6,12.1-2.5,18.4-2.5c0.5,0,1.1,0,1.8,0s1.3,0,1.8,0v24.9h-8.1c-6.8,0-11.8,1.6-15.1,4.9c-3.3,3.3-4.9,8.4-4.9,15.4v48H579z"
			/>
		<path class="st2" d="M744.2,263.1c-1.2,14-6.4,25-15.8,32.9c-9.6,7.7-22.2,11.6-37.8,11.6c-18.2,0-32.1-5.5-41.7-16.5
			c-9.6-10.5-14.4-26-14.4-46.6c0-21,4.9-36.8,14.7-47.3c10-11,24.5-16.5,43.4-16.5c15.4,0,27.7,3.9,36.8,11.6
			c8.6,7.5,13.5,18,14.7,31.5h-15.1c-5.6,0-9.6-2.5-11.9-7.4c-1.6-3-3.6-5.7-6-8.1c-4.7-3.5-10.9-5.3-18.6-5.3
			c-10.7,0-19,3.5-24.9,10.5c-5.6,7-8.4,17.3-8.4,30.8c0,13.1,2.8,23.1,8.4,30.1c5.4,7.2,13.4,10.9,24.2,10.9
			c7.5,0,13.7-1.9,18.6-5.6c4.4-3.5,7.6-9.1,9.5-16.8H744.2z"/>
		<path class="st2" d="M811.6,300.9c-4.9,2.6-10.1,4.1-15.6,4.7c-5.5,0.6-10.3,0.9-14.5,0.9c-8.4,0-15.8-2.3-22.1-6.8
			c-6.3-4.6-9.5-12.1-9.5-22.6c0-9.8,2.9-16.8,8.6-21c5.7-4.2,13-7,21.9-8.4c1.2,0,2.6-0.2,4.2-0.5c1.6-0.3,3.5-0.6,5.6-0.9
			c10.3-1.4,15.4-4.4,15.4-9.1c0-3.5-1.8-5.8-5.4-6.8c-3.6-1-6.9-1.6-10-1.6c-3.3,0-6.2,0.5-8.8,1.4c-2.6,0.9-4.4,2.7-5.6,5.3h-23.5
			c0.9-7.2,4.2-13.2,9.8-17.9c6.3-5.4,15.3-8.1,27-8.1c13.1,0,22.9,2.2,29.4,6.7c6.8,4.7,10.2,11.2,10.2,19.6v31.9
			c0,9.3-1.7,16.6-5.1,21.9C820.3,294.8,816.3,298.6,811.6,300.9z M806,257.9c-3.3,1.6-7.8,3.2-13.7,4.6l-8.1,1.8
			c-4.2,1.2-7.2,2.7-9.1,4.6c-1.6,2.6-2.5,5.1-2.5,7.7c0,3.5,1,6.3,3.2,8.4c2.1,1.9,5.1,2.8,9.1,2.8c6.5,0,11.7-1.9,15.4-5.6
			c3.7-3.7,5.6-8.9,5.6-15.4V257.9z"/>
		<path class="st2" d="M835,304.8v-45.2c0-9.1,1.3-16.7,4-22.9c2.7-6.2,6.4-11.1,11-14.9c4.4-3.5,9.6-6.1,15.6-7.7
			c6-1.6,12.1-2.5,18.4-2.5c0.5,0,1.1,0,1.8,0s1.3,0,1.8,0v24.9h-8.1c-6.8,0-11.8,1.6-15.1,4.9c-3.3,3.3-4.9,8.4-4.9,15.4v48H835z"
			/>
		<path class="st2" d="M957.4,276.1h17.5c-2.6,9.8-7.5,17.3-14.7,22.4c-7.2,5.4-16.3,8.1-27.3,8.1c-13.3,0-23.7-4.3-31.2-13
			c-7.5-8.4-11.2-20.4-11.2-36.1c0-14.9,3.6-26.6,10.9-35c7.5-8.6,17.9-13,31.2-13c14,0,24.9,4.2,32.6,12.6
			c7.5,8.6,11.2,20.7,11.2,36.1c0,0.9,0,1.8,0,2.5s0,1.2,0,1.4c0,1.2-0.1,2-0.3,2.5h-60.6c0.2,7.2,2,12.6,5.3,16.1
			c3,3.7,7.6,5.6,13.7,5.6c4,0,7.4-0.8,10.2-2.5c0.7-0.2,1.3-0.6,1.9-1.2c0.6-0.6,1.2-1.2,1.9-1.9c0.2-0.7,1.1-1.6,2.6-2.8
			C952.4,276.7,954.6,276.1,957.4,276.1z M915.4,248.8h35.7c-0.5-6.3-2.1-11-4.9-14c-3-3.3-7.4-4.9-13-4.9c-5.1,0-9.3,1.6-12.6,4.9
			C917.4,238,915.6,242.7,915.4,248.8z"/>
	</g>
</g>
<g>
	<g>
		<path class="st4" d="M615.8,334.3l-10.2,23.3H602l4-9l-3.5-14.2h3.3l2.3,9.9h0.1l4.1-9.9H615.8z"/>
		<path class="st4" d="M629.9,340.9c0,1.7-0.3,3.3-0.9,4.7c-0.6,1.4-1.5,2.5-2.6,3.3c-1.1,0.8-2.4,1.2-3.7,1.2
			c-1.2,0-2.3-0.3-3.2-0.9c-0.9-0.6-1.7-1.4-2.2-2.5s-0.8-2.3-0.8-3.7c0-1.7,0.3-3.2,1-4.6c0.7-1.4,1.6-2.5,2.7-3.3s2.4-1.2,3.7-1.2
			c1.2,0,2.2,0.3,3.1,0.9c0.9,0.6,1.6,1.4,2.1,2.5C629.7,338.3,629.9,339.5,629.9,340.9z M626.4,340.7c0-1.1-0.2-2.1-0.7-2.8
			c-0.5-0.7-1.1-1.1-1.9-1.1c-0.7,0-1.4,0.3-2,0.9c-0.6,0.6-1,1.4-1.4,2.4c-0.3,1-0.5,2.1-0.5,3.1c0,0.7,0.1,1.4,0.4,2
			c0.2,0.6,0.6,1,1,1.4c0.4,0.3,0.8,0.5,1.3,0.5c0.7,0,1.4-0.3,2-0.8s1.1-1.3,1.4-2.3C626.3,342.9,626.4,341.8,626.4,340.7z"/>
		<path class="st4" d="M634.4,334.3h3.3l-1.1,8.6c-0.1,0.8-0.2,1.3-0.2,1.5c0,0.2,0,0.5,0,0.8c0,0.6,0.1,1,0.4,1.4
			c0.3,0.4,0.6,0.5,1.1,0.5c0.4,0,1-0.2,1.7-0.7c0.7-0.5,1.4-1.2,2.3-2.2l1.3-9.9h3.3l-2,15.4h-3.4l0.3-2.5c-0.8,0.9-1.6,1.6-2.4,2
			c-0.8,0.5-1.6,0.7-2.4,0.7c-0.8,0-1.4-0.2-1.9-0.6c-0.5-0.4-1-0.9-1.3-1.5c-0.3-0.7-0.4-1.4-0.4-2.3c0-0.8,0.1-1.7,0.2-2.8
			L634.4,334.3z"/>
		<path class="st4" d="M658.4,338.4c-0.2-0.3-0.4-0.5-0.7-0.6c-0.2-0.1-0.5-0.2-0.8-0.2c-1,0-2,1.1-3,3.2l-1.2,8.9h-3.3l2-15.4h3.4
			l-0.4,2.8c0.7-1.1,1.4-1.8,1.9-2.3s1.2-0.7,1.8-0.7c0.3,0,0.7,0.1,1,0.2c0.3,0.2,0.6,0.4,0.9,0.7L658.4,338.4z"/>
		<path class="st4" d="M682.5,337.5c-0.4-0.2-0.8-0.3-1.3-0.3c-0.4-0.1-0.9-0.1-1.5-0.1c-1,0-1.9,0.3-2.8,0.8
			c-0.8,0.5-1.5,1.2-2,2.1c-0.5,0.9-0.8,1.8-0.8,2.9c0,1.3,0.3,2.3,1,3c0.7,0.7,1.6,1.1,2.8,1.1c0.7,0,1.3-0.1,1.9-0.3
			s1.2-0.5,2-0.9l-0.4,3.4c-1.3,0.6-2.7,0.9-4.1,0.9c-1.3,0-2.5-0.3-3.5-0.9s-1.8-1.5-2.4-2.6s-0.8-2.4-0.8-3.8
			c0-1.6,0.4-3.1,1.2-4.5c0.8-1.4,1.9-2.5,3.3-3.2c1.4-0.8,2.9-1.2,4.6-1.2c0.5,0,1,0,1.6,0.1s1.1,0.2,1.5,0.3L682.5,337.5z"/>
		<path class="st4" d="M696.9,349.7h-3.4l0.2-1.6l0,0l0,0c-1.3,1.3-2.6,1.9-3.9,1.9c-0.9,0-1.7-0.3-2.4-0.8
			c-0.7-0.6-1.3-1.3-1.7-2.3c-0.4-1-0.6-2-0.6-3.2c0-2,0.4-3.7,1.2-5.2c0.8-1.5,2-2.7,3.5-3.4s3.2-1.2,5.2-1.2c1.3,0,2.7,0.2,4,0.5
			L696.9,349.7z M695.2,337c-0.3,0-0.6,0-0.9,0c-0.8,0-1.6,0.1-2.3,0.4c-0.7,0.3-1.3,0.7-1.8,1.3c-0.5,0.6-0.9,1.3-1.2,2.2
			c-0.3,0.9-0.5,1.8-0.5,2.7c0,1.1,0.2,2,0.7,2.6c0.4,0.7,1,1,1.8,1c0.5,0,1-0.2,1.6-0.5c0.6-0.3,1.1-0.8,1.6-1.4L695.2,337z"/>
		<path class="st4" d="M710.9,338.4c-0.2-0.3-0.4-0.5-0.7-0.6c-0.2-0.1-0.5-0.2-0.8-0.2c-1,0-2,1.1-3,3.2l-1.2,8.9h-3.3l2-15.4h3.4
			l-0.4,2.8c0.7-1.1,1.4-1.8,1.9-2.3s1.2-0.7,1.8-0.7c0.3,0,0.7,0.1,1,0.2c0.3,0.2,0.6,0.4,0.9,0.7L710.9,338.4z"/>
		<path class="st4" d="M736.7,340.9c0,1.7-0.3,3.3-0.9,4.7c-0.6,1.4-1.5,2.5-2.6,3.3c-1.1,0.8-2.4,1.2-3.7,1.2
			c-1.2,0-2.3-0.3-3.2-0.9c-0.9-0.6-1.7-1.4-2.2-2.5s-0.8-2.3-0.8-3.7c0-1.7,0.3-3.2,1-4.6c0.7-1.4,1.6-2.5,2.7-3.3s2.4-1.2,3.7-1.2
			c1.2,0,2.2,0.3,3.1,0.9c0.9,0.6,1.6,1.4,2.1,2.5C736.4,338.3,736.7,339.5,736.7,340.9z M733.2,340.7c0-1.1-0.2-2.1-0.7-2.8
			c-0.5-0.7-1.1-1.1-1.9-1.1c-0.7,0-1.4,0.3-2,0.9c-0.6,0.6-1,1.4-1.4,2.4c-0.3,1-0.5,2.1-0.5,3.1c0,0.7,0.1,1.4,0.4,2
			c0.2,0.6,0.6,1,1,1.4c0.4,0.3,0.8,0.5,1.3,0.5c0.7,0,1.4-0.3,2-0.8s1.1-1.3,1.4-2.3C733.1,342.9,733.2,341.8,733.2,340.7z"/>
		<path class="st4" d="M741.2,334.3h3.3l-1.1,8.6c-0.1,0.8-0.2,1.3-0.2,1.5c0,0.2,0,0.5,0,0.8c0,0.6,0.1,1,0.4,1.4
			c0.3,0.4,0.6,0.5,1.1,0.5c0.4,0,1-0.2,1.7-0.7c0.7-0.5,1.4-1.2,2.3-2.2l1.3-9.9h3.3l-2,15.4H748l0.3-2.5c-0.8,0.9-1.6,1.6-2.4,2
			c-0.8,0.5-1.6,0.7-2.4,0.7c-0.8,0-1.4-0.2-1.9-0.6c-0.5-0.4-1-0.9-1.3-1.5c-0.3-0.7-0.4-1.4-0.4-2.3c0-0.8,0.1-1.7,0.2-2.8
			L741.2,334.3z"/>
		<path class="st4" d="M765.2,338.4c-0.2-0.3-0.4-0.5-0.7-0.6c-0.2-0.1-0.5-0.2-0.8-0.2c-1,0-2,1.1-3,3.2l-1.2,8.9h-3.3l2-15.4h3.4
			l-0.4,2.8c0.7-1.1,1.4-1.8,1.9-2.3s1.2-0.7,1.8-0.7c0.3,0,0.7,0.1,1,0.2c0.3,0.2,0.6,0.4,0.9,0.7L765.2,338.4z"/>
		<path class="st4" d="M789.3,337.5c-0.4-0.2-0.8-0.3-1.3-0.3c-0.4-0.1-0.9-0.1-1.5-0.1c-1,0-1.9,0.3-2.8,0.8
			c-0.8,0.5-1.5,1.2-2,2.1c-0.5,0.9-0.8,1.8-0.8,2.9c0,1.3,0.3,2.3,1,3c0.7,0.7,1.6,1.1,2.8,1.1c0.7,0,1.3-0.1,1.9-0.3
			s1.2-0.5,2-0.9l-0.4,3.4c-1.3,0.6-2.7,0.9-4.1,0.9c-1.3,0-2.5-0.3-3.5-0.9s-1.8-1.5-2.4-2.6s-0.8-2.4-0.8-3.8
			c0-1.6,0.4-3.1,1.2-4.5c0.8-1.4,1.9-2.5,3.3-3.2c1.4-0.8,2.9-1.2,4.6-1.2c0.5,0,1,0,1.6,0.1s1.1,0.2,1.5,0.3L789.3,337.5z"/>
		<path class="st4" d="M803.7,349.7h-3.4l0.2-1.6l0,0l0,0c-1.3,1.3-2.6,1.9-3.9,1.9c-0.9,0-1.7-0.3-2.4-0.8
			c-0.7-0.6-1.3-1.3-1.7-2.3c-0.4-1-0.6-2-0.6-3.2c0-2,0.4-3.7,1.2-5.2c0.8-1.5,2-2.7,3.5-3.4s3.2-1.2,5.2-1.2c1.3,0,2.7,0.2,4,0.5
			L803.7,349.7z M802,337c-0.3,0-0.6,0-0.9,0c-0.8,0-1.6,0.1-2.3,0.4c-0.7,0.3-1.3,0.7-1.8,1.3c-0.5,0.6-0.9,1.3-1.2,2.2
			c-0.3,0.9-0.5,1.8-0.5,2.7c0,1.1,0.2,2,0.7,2.6c0.4,0.7,1,1,1.8,1c0.5,0,1-0.2,1.6-0.5c0.6-0.3,1.1-0.8,1.6-1.4L802,337z"/>
		<path class="st4" d="M817.7,338.4c-0.2-0.3-0.4-0.5-0.7-0.6c-0.2-0.1-0.5-0.2-0.8-0.2c-1,0-2,1.1-3,3.2l-1.2,8.9h-3.3l2-15.4h3.4
			l-0.4,2.8c0.7-1.1,1.4-1.8,1.9-2.3s1.2-0.7,1.8-0.7c0.3,0,0.7,0.1,1,0.2c0.3,0.2,0.6,0.4,0.9,0.7L817.7,338.4z"/>
		<path class="st4" d="M827.1,333.9c1.1,0,2,0.3,2.8,0.8c0.8,0.5,1.5,1.3,1.9,2.3c0.5,1,0.7,2.1,0.7,3.4c0,0.6-0.1,1.1-0.2,1.8h-9
			c-0.1,0.4-0.1,0.7-0.1,1.1c0,0.8,0.2,1.5,0.5,2.2c0.3,0.6,0.7,1.1,1.3,1.4c0.5,0.3,1.1,0.5,1.8,0.5c0.7,0,1.4-0.2,2.2-0.5
			s1.7-0.8,2.7-1.4l-0.6,3.3c-1.6,1-3.2,1.5-4.8,1.5c-1.3,0-2.4-0.3-3.4-0.9c-1-0.6-1.7-1.5-2.2-2.6c-0.5-1.1-0.8-2.5-0.8-3.9
			c0-1.6,0.3-3.1,0.9-4.4c0.6-1.4,1.5-2.4,2.6-3.2S825.8,333.9,827.1,333.9z M829.3,339.8v-0.3c0-0.9-0.2-1.6-0.6-2.1
			c-0.4-0.5-1-0.8-1.7-0.8c-1.5,0-2.5,1.1-3.2,3.2H829.3z"/>
	</g>
</g>
<g>
	<g>
		<g>
			<path class="st3" d="M161.6,337.3c-70,0-127-57-127-127c0-70,57-127,127-127c70,0,127,57,127,127
				C288.6,280.4,231.6,337.3,161.6,337.3z M161.6,92.6c-64.9,0-117.7,52.8-117.7,117.7c0,64.9,52.8,117.7,117.7,117.7
				s117.7-52.8,117.7-117.7C279.3,145.4,226.5,92.6,161.6,92.6z"/>
		</g>
	</g>
	<path class="st1" d="M175.2,193.5c-9-5.4-18.7-8.2-29.3-7.8c-1.9,0.1-2.7,0.7-2.7,2.6c0,1.5,0.1,3,0,4.5c-0.1,2.6,1.2,3.6,3.7,3.6
		c6.1,0,12.1,1,18.2,0.8c3,0,5.9,0,8.9,0c1.2,0,2.7,0.7,3.3-0.7C177.9,194.9,176.3,194.2,175.2,193.5z"/>
	<path class="st1" d="M213.4,193.8C213.4,193.8,213.4,193.8,213.4,193.8C213.4,193.8,213.4,193.8,213.4,193.8L213.4,193.8z"/>
	<path class="st1" d="M216.7,194.8c0,0,1.6,2.3,2.2,2.3c0,0,3.5-0.9,3.6-2.2C222.6,194.8,219.4,195.9,216.7,194.8z"/>
	<path class="st3" d="M261.2,232.7c-2.8-0.3-6.2,1.2-8.2-0.9c-2-2.1,0.1-5.4-0.3-8.3c-1-6.9-0.9-13.7,0.8-20.6
		c0.8-3.1,1.7-6.7-0.6-9.4c-4.8-5.5-9.8-10.9-17.6-12.3c-2.6-0.5-5.3-1.1-7.1-3.5c-1.8-2.3-4.3-3-6.9-1.5c-2.9,1.6-2.8,4.8-3.3,7.5
		c-0.2,0.7,0.8,1,2.1-1c0.6,1.2,4.6,3.9,7.9,2.5c-1,3.5-1,5.5-4.3,6.1c-1,0.3-7.7,3.1-9.2-1.3c-0.3-0.8-1.3-2-2.1-1.5
		c0.2,0.1,0.4,0.2,0.6,0.5c0.3,0.5,0.3,1.1-0.1,1.4c-0.4,0.3-1,0.1-1.4-0.4c-0.1-0.1-0.1-0.3-0.2-0.4c-1.2,0.6,0.1,2.1,0.9,2.6
		c0.2,0.1,0.5,0.2,0.8,0.5c0.1,0.1,0.2,0.2,0.4,0.4l-0.5,0.4c0,0-0.1,0.4,0.5,0.2c0,0,0,0,0.1,0l0,0c0,0,0,0-0.1,0c0,0,0,0,0,0
		c0,0.1-0.3,0.3-0.2,0.3c0,0,0,0,0.1,0l0,0c0,0.1,0.2,0.1,0.3,0.1c0,0-0.1,0.1-0.1,0.1c-0.2,0.2,0,0.3,0,0.3l0.1,0
		c-0.2,0.2,0,0.3,0,0.3l1-0.2c0,0,0,0,0,0c1.2,1.8,2.1,4,1.8,4.7c-0.5,1-1.7,0.9-2.6,0.8c-4.7-0.6-9.4-1-14-2
		c-2.6-0.5-2.8-2.1-0.7-4c4.8-4.4,9.4-8.9,14.2-13.4c3.5-3.4,7.4-6.3,10.3-10.4c0.9-1.2,2.3-2.9,1.1-4.3c-1.1-1.2-2.8,0-4.1,0.5
		c-3.6,1.6-6.9,3.8-9.8,6.4c-6.4,5.7-12.8,11.3-18.9,17.2c-2.9,2.8-5.2,3.3-8.8,0.9c-6.5-4.2-13.2-8.4-20.9-9.7
		c-20-3.5-39.8-3.8-58.9,4.7c-9.2,4.1-18.3,8.3-28.8,6.7c-1.5-0.2-2.7,0.4-2.7,2.2c0,4.4-1.4,8.5-2,12.8c-0.8,6.5,2.6,13.4,7.8,15.7
		c3.1,1.4,6.3,2.4,9.5,3.5c2.7,1,3.7,0.2,3.4-2.8c-0.4-3.7,0-7.3,2.5-10.4c3.7-4.8,10.3-6.6,16.1-4.4c3.6,1.4,6.2,4.1,7.5,7.6h77.4
		c1.1-2.7,3.2-5.1,5.9-6.7c4.9-2.9,11.3-2.3,15.9,1.6c4.2,3.6,5.2,8.4,4.3,13.6c-0.3,1.6-0.4,2.6,1.8,2.5
		c7.1-0.5,12.5-5.1,13.9-11.9c1.3-6.3-1.7-11.3-7.9-13.4c-1.9-0.6-3.8-1.1-6.2-1.9c3.5-5.7,6.6-4.8,10.4-7.6
		c0.2-0.3,1.8-0.3,2.2-0.3c3.4-0.3,8.5,4.6,8.6,8.2c0.2,6.4,0.3,12.7,0.6,19.1c0.2,6.3-2.1,11.4-6.9,11.8
		c-7.1,0.7-14.3,0.2-21.8,0.2c-2.2,1.7-4.9,2.8-7.9,2.8c-3,0-5.8-1.1-8-2.9h-87.1c-2.2,1.9-5.1,3-8.2,3c-2.9,0-5.7-1-7.8-2.8
		c-11.2,0-21.9,0-32.6,0c-2.2,0-3.7,0.5-3.7,3.1c0,2.4,0.5,4.4,3.3,4.7c1.2,0.1,2.4,0.1,3.7,0.1c4.4,0,8.8,0,13.2,0
		c0.7-0.1,1.3-0.2,2-0.2h106.5c0.7,0,1.4,0.1,2,0.2c22,0,44,0,66,0c1.5,0,3,0.1,4.5-0.2c2.7-0.4,2.8-2.5,2.8-4.6
		C263.6,234,263.1,232.9,261.2,232.7z M132.4,196.2c-2,0-4.1,0-6.1,0c-6.4,0.3-12.7-0.8-19-0.9c-1.1,0-2.4,0.1-2.7-1.2
		c-0.4-1.5,0.8-2.1,1.9-2.7c9.6-4.4,19.8-6.3,30.3-6.3c1.8,0,2.8,0.7,2.8,2.6c0,0.3,0,0.5,0,0.8C140.1,196.3,140,196.4,132.4,196.2z
		 M177.3,196.5c-0.5,1.4-2.1,0.7-3.3,0.7c-3,0-5.9,0-8.9,0c-6.1,0.2-12.1-0.9-18.2-0.8c-2.5,0-3.8-1-3.7-3.6c0.1-1.5,0-3,0-4.5
		c0-1.9,0.7-2.5,2.7-2.6c10.6-0.4,20.3,2.4,29.3,7.8C176.3,194.2,177.9,194.9,177.3,196.5z M218.9,197c-0.6,0-2.2-2.3-2.2-2.3
		c2.7,1.2,5.9,0,5.9,0C222.4,196.1,218.9,197,218.9,197z"/>
	<polygon class="st5" points="95.6,227.6 92.5,222.3 95.6,217.1 101.6,217.1 104.7,222.3 101.6,227.6 	"/>
	<polygon class="st6" points="208.6,218 206.1,222.3 208.6,226.6 213.5,226.6 216,222.3 213.5,218 	"/>
	<path class="st2" d="M202.2,222.2l4.6-7.4h9.2c-2.1-2.7-5.4-4.5-9.1-4.5c-5.7,0-10.5,4.2-11.4,9.6h-10.7h-3.5h-66.4
		c-0.9-5.5-5.7-9.6-11.4-9.6c-3.7,0-7,1.8-9.1,4.5h9.2l4.6,7.4l-4.6,7.4h-8.7c2.1,2.4,5.2,3.9,8.7,3.9c4.9,0,9-3,10.7-7.2h67.1h3.4
		h11.5c1.7,4.3,5.9,7.2,10.7,7.2c3.5,0,6.6-1.5,8.7-3.9h-8.7L202.2,222.2z"/>
	<polygon class="st3" points="208.6,218 206.1,222.3 208.6,226.6 213.5,226.6 216,222.3 213.5,218 	"/>
	<polygon class="st3" points="96.5,218 94,222.3 96.5,226.6 101.5,226.6 103.9,222.3 101.5,218 	"/>
</g>
<g>
	<path class="st4" d="M573,320.8h-0.3h-5.1H383.8h-5.1h-0.3h-5.1v4.2h5.1h0.3h5.1h182.3h5.1h0.3h5.1c0.3-1.4,1.2-2.8,1.6-4.2H573z"
		/>
	<rect x="373.4" y="333.5" class="st4" width="10.2" height="4.2"/>
	<rect x="392.8" y="333.5" class="st4" width="10.2" height="4.2"/>
	<rect x="412.3" y="333.5" class="st4" width="10.2" height="4.2"/>
	<rect x="431.8" y="333.5" class="st4" width="10.2" height="4.2"/>
	<rect x="451.3" y="333.5" class="st4" width="10.2" height="4.2"/>
	<rect x="470.8" y="333.5" class="st4" width="10.2" height="4.2"/>
	<rect x="490.2" y="333.5" class="st4" width="10.2" height="4.2"/>
	<rect x="509.7" y="333.5" class="st4" width="10.2" height="4.2"/>
	<rect x="529.2" y="333.5" class="st4" width="10.2" height="4.2"/>
	<rect x="548.7" y="333.5" class="st4" width="10.2" height="4.2"/>
	<polygon class="st4" points="567.4,346.3 566.8,346.3 562.3,346.3 382.8,346.3 378.4,346.3 377.8,346.3 373.4,346.3 373.4,350.5 
		377.8,350.5 378.4,350.5 382.8,350.5 560.2,350.5 564.6,350.5 565.2,350.5 569.7,350.5 571.8,346.3 	"/>
</g>
<g>
</g>
<g>
</g>
<g>
</g>
<g>
</g>
<g>
</g>
<g>
</g>
</svg>
