<?xml version="1.0" encoding="utf-8"?>
<!-- Generator: Adobe Illustrator 16.0.0, SVG Export Plug-In . SVG Version: 6.00 Build 0)  -->
<!DOCTYPE svg PUBLIC "-//W3C//DTD SVG 1.1//EN" "http://www.w3.org/Graphics/SVG/1.1/DTD/svg11.dtd">
<svg version="1.1" id="Layer_1" xmlns="http://www.w3.org/2000/svg" xmlns:xlink="http://www.w3.org/1999/xlink" x="0px" y="0px"
	 width="1024px" height="435px" viewBox="0 0 1024 435" enable-background="new 0 0 1024 435" xml:space="preserve">
<g>
	<path fill="#F7941D" d="M419.527,175.088v-8.675h37.229c2.323,0,4.109-0.591,5.363-1.776c1.252-1.184,1.878-2.755,1.878-4.713
		c0-2.14-0.626-3.745-1.878-4.816c-1.253-1.069-3.04-1.605-5.363-1.605h-22.815c-2.323,0-4.43-0.352-6.319-1.059
		c-1.89-0.706-3.484-1.684-4.782-2.938c-1.298-1.252-2.3-2.743-3.006-4.474c-0.707-1.73-1.059-3.621-1.059-5.67
		c0-2.003,0.33-3.859,0.99-5.567c0.66-1.708,1.64-3.176,2.938-4.406c1.298-1.23,2.903-2.197,4.816-2.903
		c1.913-0.706,4.099-1.059,6.558-1.059h35.658v8.676h-35.658c-2.005,0-3.552,0.536-4.646,1.605
		c-1.093,1.071-1.639,2.562-1.639,4.475s0.557,3.393,1.673,4.44c1.116,1.048,2.63,1.571,4.543,1.571h22.747
		c5.055,0,8.891,1.185,11.511,3.552c2.618,2.369,3.928,5.966,3.928,10.793c0,2.095-0.319,4.03-0.957,5.807
		c-0.638,1.776-1.594,3.313-2.869,4.611c-1.276,1.298-2.881,2.312-4.816,3.04c-1.937,0.729-4.201,1.093-6.797,1.093H419.527z"/>
	<path fill="#F7941D" d="M476.293,125.426h10.588l22.542,38.254l22.475-38.254h9.973l-28.622,47.544
		c-0.502,0.866-1.093,1.549-1.776,2.049s-1.48,0.751-2.391,0.751c-0.957,0-1.776-0.251-2.459-0.751s-1.275-1.184-1.776-2.049
		L476.293,125.426z"/>
	<path fill="#F7941D" d="M547.199,175.088v-49.662h8.676v40.987h33.403v8.675H547.199z"/>
</g>
<rect x="368.874" y="125.48" fill="#BCBCBC" width="4.905" height="206.018"/>
<g>
	<path fill="#0674ED" d="M227.393,101.029l-92.497,37.966L77.091,162.71c-2.273,4.002-4.348,8.132-6.199,12.376
		c-2.085,4.772-3.871,9.669-5.363,14.701l60.292-24.745c1.142-4.84,2.518-9.585,4.154-14.196L240.481,105.5
		C236.208,103.77,231.844,102.285,227.393,101.029z"/>
	<path fill="#0674ED" d="M191.486,96.032c-9.366,0-18.492,0.986-27.286,2.84c-2.651,0.563-5.272,1.228-7.861,1.947
		c-10.177,2.804-19.828,6.792-28.852,11.83c-10.528,5.897-20.183,13.16-28.698,21.615c-6.342,6.312-12.027,13.257-16.978,20.75
		l56.795-23.319c3.691-6.712,7.983-13.057,12.761-19.009l40.566-16.644C191.787,96.042,191.619,96.032,191.486,96.032z"/>
	<path fill="#0674ED" d="M322.905,230.394l-155.411,63.771l-67.522,27.714c2.428,2.349,4.915,4.623,7.495,6.764
		c3.446,2.876,7.046,5.568,10.768,8.081l68.989-28.312c-4.023-2.385-7.913-4.934-11.648-7.718l146.752-60.229
		C322.644,237.14,322.837,233.772,322.905,230.394z"/>
	<path fill="#0674ED" d="M318.892,260.127l-125.684,51.59l-69.438,28.499c3.33,2.014,6.786,3.896,10.289,5.609
		c4.93,2.396,10.012,4.455,15.264,6.219l72.059-29.569c-5.822-1.47-11.431-3.335-16.896-5.546l110.958-45.545
		C316.75,267.696,317.914,263.958,318.892,260.127z"/>
	<path fill="#0674ED" d="M304.942,293.955l-74.312,30.507l-73.231,30.056c5.241,1.391,10.594,2.477,16.085,3.222
		c5.898,0.799,11.884,1.259,18.002,1.259c34.642,0,66.133-13.42,89.617-35.312c-8.79,1.856-17.915,2.836-27.276,2.836
		c-1.356,0-2.702-0.051-4.077-0.092l46.025-18.879C299.11,303.213,302.169,298.676,304.942,293.955z"/>
	<g>
		<path fill="#0674ED" d="M240.481,130.537c2.16,0,4.272,0.187,6.392,0.437l22.626-9.29c-2.937-2.167-5.956-4.206-9.055-6.136
			l-135.929,55.775l-60.752,24.953c-0.846,3.536-1.6,7.092-2.172,10.725c-0.652,4.287-1.115,8.63-1.366,13.057l62.138-25.507
			c0.011-4.298,0.235-8.558,0.633-12.751l77.229-31.678C209.605,138.21,224.13,130.537,240.481,130.537z"/>
		<path fill="#0674ED" d="M190.1,172.526l-67.603,27.753l-62.454,25.619c-0.011,0.547-0.051,1.075-0.051,1.603
			c0,2.746,0.122,5.447,0.275,8.143c0.255,4.041,0.658,8.024,1.275,11.963l63.478-26.049c-0.8-3.847-1.38-7.773-1.831-11.745
			l66.059-27.125c0-0.301-0.032-0.579-0.032-0.885C189.216,178.621,189.538,175.538,190.1,172.526z"/>
		<path fill="#0674ED" d="M277.54,146.467l13.026-5.348c-2.136-2.432-4.343-4.821-6.653-7.112l-14.106,5.802
			C272.61,141.751,275.184,144.007,277.54,146.467z"/>
		<path fill="#0674ED" d="M126.244,226.822L62.479,252.98c0.611,3.035,1.315,6.035,2.11,8.973c1.015,3.757,2.172,7.453,3.509,11.068
			l64.691-26.558c-1.504-3.541-2.845-7.16-4.043-10.839l67.654-27.759c-1.559-2.601-2.866-5.346-3.936-8.234L126.244,226.822z"/>
		<path fill="#0674ED" d="M305.982,162.891c-1.514-2.682-3.099-5.313-4.802-7.869l-13.989,5.753
			c1.232,2.746,2.222,5.631,2.962,8.611L305.982,162.891z"/>
		<path fill="#0674ED" d="M316.475,186.677c-0.948-2.896-1.978-5.759-3.141-8.56l-21.877,8.999
			c-0.387,3.731-1.208,7.343-2.355,10.79L316.475,186.677z"/>
		<path fill="#0674ED" d="M134.987,251.32l-64.941,26.652c1.177,2.816,2.451,5.563,3.828,8.277
			c1.718,3.482,3.594,6.882,5.634,10.177l65.89-27.041c-2.224-3.216-4.278-6.545-6.2-9.957l77.978-32.006
			c-3.293-1.688-6.398-3.699-9.253-6.032L134.987,251.32z"/>
		<path fill="#0674ED" d="M322.078,212.462c-0.341-3.128-0.805-6.209-1.376-9.257l-51.875,21.288
			c-5.516,3.669-11.787,6.304-18.522,7.606l-101.73,41.742l-66.145,27.147c1.759,2.591,3.635,5.109,5.561,7.547
			c2.498,3.206,5.15,6.28,7.939,9.242l67.21-27.581c-2.998-2.849-5.873-5.847-8.575-8.974L322.078,212.462z"/>
		<path fill="#FFFFFF" d="M276.958,202.89l12.145-4.984c1.147-3.447,1.968-7.059,2.355-10.79l-10.936,4.484
			C279.864,195.579,278.661,199.382,276.958,202.89z"/>
	</g>
	<radialGradient id="SVGID_1_" cx="235.1216" cy="159.7095" r="64.9209" gradientUnits="userSpaceOnUse">
		<stop  offset="0" style="stop-color:#FFC93E"/>
		<stop  offset="0.1127" style="stop-color:#FEC13D"/>
		<stop  offset="0.2838" style="stop-color:#FAAC3A"/>
		<stop  offset="0.492" style="stop-color:#F58A35"/>
		<stop  offset="0.7294" style="stop-color:#ED5A2E"/>
		<stop  offset="0.9842" style="stop-color:#E31F26"/>
	</radialGradient>
	<path fill="url(#SVGID_1_)" d="M240.481,140.161c-19.037,0-35.066,12.783-40.027,30.23l61.388-24.275
		C255.582,142.348,248.291,140.161,240.481,140.161z M267.694,150.35l-68.638,27.161c-0.153,1.415-0.213,2.839-0.213,4.292
		c0,5.197,0.988,10.156,2.743,14.739l77.366-30.634C276.449,159.87,272.559,154.555,267.694,150.35z M280.818,171.733
		l-76.698,30.345c3.655,6.534,9.034,11.981,15.518,15.739l60.701-24.023c1.142-3.804,1.764-7.826,1.764-11.992
		C282.103,178.324,281.624,174.961,280.818,171.733z M240.481,223.423c15.793,0,29.549-8.797,36.615-21.785l-49.719,19.664
		C231.493,222.655,235.893,223.423,240.481,223.423z"/>
</g>
<g>
	<g>
		<path fill="#0674ED" d="M457.282,231.393c-28.57,28.181-9.329,78.712,34.983,78.712c17.492,0,30.708-7.385,35.566-23.128h-35.955
			c-13.604,0-20.601-12.244-19.629-24.1h84.349c4.275,47.033-32.651,72.493-67.634,72.104c-23.905-0.389-48.199-12.05-61.415-35.372
			c-15.354-27.015-11.661-58.499,5.636-80.267c12.438-15.743,32.262-26.432,57.333-26.432c37.121,0,71.91,22.933,48.393,51.309
			C531.33,220.12,482.742,206.321,457.282,231.393z"/>
		<path fill="#0674ED" d="M590.212,331.678h-24.488c0-38.676,0-77.352,0-116.222c0-12.438,9.523-20.018,24.488-19.824
			C590.212,240.916,590.212,286.394,590.212,331.678z"/>
		<path fill="#0674ED" d="M720.421,331.678V215.65c0-10.495,9.329-19.629,24.488-20.018v78.323c0,17.687,5.83,37.704,26.043,37.704
			c35.761,0,34.983-57.916-0.194-57.916c-6.997,0-16.131,1.749-20.407,7.968c-4.47-8.162-1.943-29.735,23.711-30.707
			c24.877-0.777,48.005,20.99,48.005,51.503c0,47.422-48.394,66.856-77.157,38.481v10.689H720.421z"/>
		<path fill="#0674ED" d="M905.827,320.6c-29.348,29.152-78.907,9.329-78.907-39.453c0-31.291,23.711-53.641,49.171-52.669
			c24.877,0.972,28.959,23.128,24.294,31.484c-4.275-6.413-13.604-8.162-20.989-8.162c-35.955,0-36.732,59.276,0,59.276
			c20.601,0,26.432-20.601,26.432-38.676v-30.707v-10.689h25.266v100.674h-25.266V320.6z"/>
		<path fill="#0674ED" d="M966.266,331.678h-24.488c0-38.676,0-77.352,0-116.222c0-12.438,9.523-20.018,24.488-19.824
			C966.266,240.916,966.266,286.394,966.266,331.678z"/>
	</g>
</g>
<g>
	<path fill="#F7941D" d="M655.638,220.128c17.316,0,32.547,7.72,43.604,21.072c-12.101-7.302-29.417-4.799-37.554,5.008
		c-19.403-3.965-35.885,8.971-35.885,30.46c0,41.727,58.834,42.144,59.043,0.417c-0.209-16.273-17.108-21.697-25.662-15.647
		c2.504-23.575,42.979-25.453,50.489-1.043c5.842,19.82,0.626,41.31-14.396,56.54c-26.496,26.496-71.145,20.028-89.295-11.893
		C584.076,266.862,611.825,220.128,655.638,220.128z"/>
</g>
</svg>
