<?xml version="1.0" encoding="utf-8"?>
<!-- Generator: Adobe Illustrator 24.0.3, SVG Export Plug-In . SVG Version: 6.00 Build 0)  -->
<svg version="1.1" id="Layer_1" xmlns="http://www.w3.org/2000/svg" xmlns:xlink="http://www.w3.org/1999/xlink" x="0px" y="0px"
	 viewBox="0 0 1024 435" enable-background="new 0 0 1024 435" xml:space="preserve">
<rect x="269.322" y="143.315" fill="#BCBCBC" width="3.801" height="159.649"/>
<g>
	<g>
		<path fill="#6B6B6B" d="M525.97,335.841h-3.745l-1.372-3.64h-8.613l-1.373,3.64h-3.745l7.239-18.2h4.369L525.97,335.841z
			 M513.488,329.08h6.116l-2.996-7.54h-0.125L513.488,329.08z"/>
		<path fill="#6B6B6B" d="M536.204,317.641c5.617,0,9.361,3.899,9.361,9.1c0,5.33-3.744,9.101-9.361,9.101h-6.739v-18.2H536.204z
			 M532.959,320.63v12.221h3.245c3.37,0,5.742-2.47,5.742-6.11c0-3.64-2.372-6.11-5.742-6.11H532.959z"/>
		<path fill="#6B6B6B" d="M556.6,317.641c5.617,0,9.361,3.899,9.361,9.1c0,5.33-3.744,9.101-9.361,9.101h-6.739v-18.2H556.6z
			 M553.354,320.63v12.221h3.245c3.37,0,5.742-2.47,5.742-6.11c0-3.64-2.372-6.11-5.742-6.11H553.354z"/>
		<path fill="#6B6B6B" d="M590.276,322.32l-3.619,13.521h-4.618l-4.868-18.2h3.745l3.619,13.65h0.125l3.569-13.65h4.219l3.57,13.65
			h0.125l3.619-13.65h3.745l-4.868,18.2h-4.618l-3.62-13.521H590.276z"/>
		<path fill="#6B6B6B" d="M615.59,317.12c5.492,0,9.361,4.03,9.361,9.62c0,5.591-3.869,9.621-9.361,9.621s-9.361-4.03-9.361-9.621
			C606.229,321.15,610.098,317.12,615.59,317.12z M615.59,320.24c-3.245,0-5.741,2.6-5.741,6.5s2.496,6.5,5.741,6.5
			s5.741-2.6,5.741-6.5S618.835,320.24,615.59,320.24z"/>
		<path fill="#6B6B6B" d="M637.233,317.641c4.742,0,7.239,2.6,7.239,5.979c0,3.9-3.245,5.2-3.245,5.2v0.13l4.618,6.891h-4.119
			l-4.119-6.24h-4.868v6.24h-3.494v-18.2H637.233z M637.233,320.63h-4.494v5.98h4.494c2.371,0,3.619-1.56,3.619-2.99
			C640.853,321.931,639.604,320.63,637.233,320.63z"/>
		<path fill="#6B6B6B" d="M663.37,317.641v2.989h-5.991v15.211h-3.495V320.63h-5.991v-2.989H663.37z"/>
		<path fill="#6B6B6B" d="M683.066,317.641v18.2h-3.495v-7.54h-8.987v7.54h-3.494v-18.2h3.494v7.67h8.987v-7.67H683.066z"/>
		<path fill="#6B6B6B" d="M710.752,317.641v2.989h-5.991v15.211h-3.495V320.63h-5.991v-2.989H710.752z"/>
		<path fill="#6B6B6B" d="M722.335,317.12c5.492,0,9.361,4.03,9.361,9.62c0,5.591-3.869,9.621-9.361,9.621s-9.361-4.03-9.361-9.621
			C712.974,321.15,716.843,317.12,722.335,317.12z M722.335,320.24c-3.245,0-5.741,2.6-5.741,6.5s2.496,6.5,5.741,6.5
			s5.741-2.6,5.741-6.5S725.58,320.24,722.335,320.24z"/>
		<path fill="#6B6B6B" d="M756.435,317.641h3.744l-7.114,12.48v5.72h-3.495v-5.72l-7.114-12.48h3.744l4.993,8.84h0.249
			L756.435,317.641z"/>
		<path fill="#6B6B6B" d="M771.812,317.12c5.492,0,9.361,4.03,9.361,9.62c0,5.591-3.869,9.621-9.361,9.621s-9.361-4.03-9.361-9.621
			C762.451,321.15,766.32,317.12,771.812,317.12z M771.812,320.24c-3.245,0-5.741,2.6-5.741,6.5s2.496,6.5,5.741,6.5
			s5.741-2.6,5.741-6.5S775.058,320.24,771.812,320.24z"/>
		<path fill="#6B6B6B" d="M785.368,328.561v-10.92h3.495v10.92c0,2.86,1.747,4.68,4.493,4.68s4.494-1.819,4.494-4.68v-10.92h3.494
			v10.92c0,4.55-3.12,7.801-7.988,7.801C788.489,336.361,785.368,333.11,785.368,328.561z"/>
		<path fill="#6B6B6B" d="M814.526,317.641c4.742,0,7.239,2.6,7.239,5.979c0,3.9-3.245,5.2-3.245,5.2v0.13l4.618,6.891h-4.119
			l-4.119-6.24h-4.868v6.24h-3.494v-18.2H814.526z M814.526,320.63h-4.494v5.98h4.494c2.371,0,3.619-1.56,3.619-2.99
			C818.146,321.931,816.897,320.63,814.526,320.63z"/>
		<path fill="#6B6B6B" d="M835.246,317.641h7.738c4.618,0,6.615,2.08,6.615,4.939c0,2.86-2.871,3.562-2.871,3.562v0.13
			c0,0,4.119,0.728,4.119,4.368c0,2.73-2.371,5.2-6.89,5.2h-8.712V317.641z M845.979,322.84c0-1.17-0.998-2.21-2.995-2.21h-4.244
			v4.421h4.244C844.981,325.051,845.979,324.011,845.979,322.84z M838.74,328.041v4.81h5.242c2.247,0,3.246-1.04,3.246-2.34
			c0-1.431-0.999-2.47-3.246-2.47H838.74z"/>
		<path fill="#6B6B6B" d="M854.817,328.561v-10.92h3.495v10.92c0,2.86,1.747,4.68,4.493,4.68s4.494-1.819,4.494-4.68v-10.92h3.494
			v10.92c0,4.55-3.12,7.801-7.988,7.801C857.938,336.361,854.817,333.11,854.817,328.561z"/>
		<path fill="#6B6B6B" d="M888.618,319.33l-1.373,2.471c0,0-1.997-1.561-4.618-1.561c-2.371,0-3.495,1.17-3.495,2.08
			c0,3.641,9.861,1.82,9.861,8.19c0,3.12-2.621,5.851-7.614,5.851c-4.044,0-6.615-2.471-6.615-2.471l1.498-2.47
			c0,0,2.021,1.95,4.867,1.95c2.871,0,4.244-1.431,4.244-2.86c0-3.25-9.86-1.561-9.86-8.19c0-2.6,2.496-5.2,6.865-5.2
			C886.122,317.12,888.618,319.33,888.618,319.33z"/>
		<path fill="#6B6B6B" d="M896.558,335.841h-3.494v-18.2h3.494V335.841z"/>
		<path fill="#6B6B6B" d="M914.332,330.121v-12.48h3.495v18.2h-3.745l-8.612-12.48h-0.125v12.48h-3.494v-18.2h3.744l8.612,12.48
			H914.332z"/>
		<path fill="#6B6B6B" d="M923.119,317.641h13.979v2.989h-10.485v4.681h7.239v2.99h-7.239v4.55h10.734v2.99h-14.229V317.641z"/>
		<path fill="#6B6B6B" d="M953.924,319.33l-1.373,2.471c0,0-1.997-1.561-4.618-1.561c-2.371,0-3.495,1.17-3.495,2.08
			c0,3.641,9.861,1.82,9.861,8.19c0,3.12-2.621,5.851-7.614,5.851c-4.044,0-6.615-2.471-6.615-2.471l1.498-2.47
			c0,0,2.021,1.95,4.867,1.95c2.871,0,4.244-1.431,4.244-2.86c0-3.25-9.86-1.561-9.86-8.19c0-2.6,2.496-5.2,6.865-5.2
			C951.428,317.12,953.924,319.33,953.924,319.33z"/>
		<path fill="#6B6B6B" d="M970.999,319.33l-1.373,2.471c0,0-1.997-1.561-4.618-1.561c-2.371,0-3.495,1.17-3.495,2.08
			c0,3.641,9.861,1.82,9.861,8.19c0,3.12-2.621,5.851-7.614,5.851c-4.044,0-6.615-2.471-6.615-2.471l1.498-2.47
			c0,0,2.021,1.95,4.867,1.95c2.871,0,4.244-1.431,4.244-2.86c0-3.25-9.86-1.561-9.86-8.19c0-2.6,2.496-5.2,6.865-5.2
			C968.503,317.12,970.999,319.33,970.999,319.33z"/>
	</g>
</g>
<radialGradient id="SVGID_1_" cx="999.2388" cy="-581.9555" r="183.9648" gradientTransform="matrix(0.5828 -0.8126 -0.8126 -0.5828 -907.4528 542.0122)" gradientUnits="userSpaceOnUse">
	<stop  offset="0.0168" style="stop-color:#94FFF1"/>
	<stop  offset="0.1664" style="stop-color:#00AAFF"/>
	<stop  offset="0.1707" style="stop-color:#00A8FE"/>
	<stop  offset="0.2838" style="stop-color:#0084DD"/>
	<stop  offset="0.4017" style="stop-color:#0067C3"/>
	<stop  offset="0.5267" style="stop-color:#004FAE"/>
	<stop  offset="0.6603" style="stop-color:#003F9F"/>
	<stop  offset="0.8084" style="stop-color:#003597"/>
	<stop  offset="1" style="stop-color:#003294"/>
</radialGradient>
<path fill="url(#SVGID_1_)" d="M211.644,156.191c-11.355-6.76-61.412-23.946-93.074,11.378c0,0-45.023,53.648,1.545,77.216
	c-3.682-0.881-7.396-1.988-11.137-3.355c0,0-36.735-13.267-45.182-43.459l36.822-51.337c2.296-2.812,0.478-13.306-9.45-9.81
	c0,0-10.572,4.523-18.72,14.725c3.378-5.792,7.677-11.9,13.054-18.324c33.263-18.182,75.402-16.98,108.277,6.59
	C200.515,144.647,206.468,150.178,211.644,156.191z"/>
<radialGradient id="SVGID_2_" cx="778.6075" cy="-711.751" r="158.0256" gradientTransform="matrix(0.5828 -0.8126 -0.8126 -0.5828 -907.4528 542.0122)" gradientUnits="userSpaceOnUse">
	<stop  offset="0.0168" style="stop-color:#94FFF1"/>
	<stop  offset="0.3521" style="stop-color:#00AAFF"/>
	<stop  offset="0.4984" style="stop-color:#008CE0"/>
	<stop  offset="0.72" style="stop-color:#0065B7"/>
	<stop  offset="0.8948" style="stop-color:#004C9D"/>
	<stop  offset="1" style="stop-color:#004394"/>
</radialGradient>
<path fill="url(#SVGID_2_)" d="M72.447,151.549c-6.001,8.83-8.114,16.341-9.11,22.354c-10.367,47.316,45.641,67.528,45.641,67.528
	c3.74,1.366,7.455,2.474,11.137,3.355l0,0c0,0,45.853,19.181,101.122-23.504c5.53-4.109,8.368-1.826,10.632,2.979
	c4.314,10.576,0.102,29.023-3.513,37.652c-0.095-0.028-0.138-0.056-0.138-0.056c-5.39,10.185-11.359,17.407-17.491,22.473
	c3.142-3.579,4.093-4.568,5.48-7.819c1.588-4.539,1.007-9.21-18.905-3.56c-11.109,3.667-31.804,12.145-41.941,14.989
	c-48.92,18.672-82.973,8.076-99.182-0.123c-29.047-34.794-32.168-86.061-4.524-124.597c9.202-12.832,20.856-22.899,33.847-29.995
	C80.124,139.649,75.825,145.757,72.447,151.549z"/>
<radialGradient id="SVGID_3_" cx="827.2658" cy="-698.6202" r="63.0128" gradientTransform="matrix(0.5828 -0.8126 -0.8126 -0.5828 -907.4528 542.0122)" gradientUnits="userSpaceOnUse">
	<stop  offset="0.0168" style="stop-color:#94FFF1"/>
	<stop  offset="0.3521" style="stop-color:#00AAFF"/>
	<stop  offset="0.4984" style="stop-color:#008CE0"/>
	<stop  offset="0.72" style="stop-color:#0065B7"/>
	<stop  offset="0.8948" style="stop-color:#004C9D"/>
	<stop  offset="1" style="stop-color:#004394"/>
</radialGradient>
<path fill="url(#SVGID_3_)" d="M75.063,305.339c-7.183-5.151-13.48-11.054-18.885-17.522c16.21,8.199,50.262,18.795,99.182,0.123
	c0,0,10.809,6.599,25.135,6.962c27.846-0.648,42.333-22.86,47.723-33.045c0,0,0.043,0.027,0.138,0.056
	c-2.915,6.93-6.618,13.661-11.181,20.03C184.403,327.647,120.771,338.123,75.063,305.339z"/>
<radialGradient id="SVGID_4_" cx="-815.3936" cy="181.9167" r="85.3147" gradientTransform="matrix(-1 0 0 1 -637.0625 0)" gradientUnits="userSpaceOnUse">
	<stop  offset="0.0606" style="stop-color:#FFC93E"/>
	<stop  offset="0.1664" style="stop-color:#FFC63E"/>
	<stop  offset="0.2479" style="stop-color:#FDBC3E"/>
	<stop  offset="0.3212" style="stop-color:#FBAC3E"/>
	<stop  offset="0.3898" style="stop-color:#F7953F"/>
	<stop  offset="0.4544" style="stop-color:#F3773F"/>
	<stop  offset="0.4783" style="stop-color:#F16A3F"/>
</radialGradient>
<path fill="url(#SVGID_4_)" d="M179.436,180.224c-11.766-8.439-28.162-5.745-36.617,6.04c-8.438,11.778-5.736,28.158,6.037,36.612
	c11.773,8.443,28.166,5.748,36.617-6.028C193.924,205.067,191.21,188.679,179.436,180.224z"/>
<g>
	<path fill="#0674ED" d="M329.591,268.376v34.573h-19.957v-86.574c0-2.811,0.984-5.2,2.951-7.167
		c1.968-1.968,4.357-2.951,7.168-2.951h32.887c10.304,0,17.989,2.626,23.049,7.87c5.244,5.249,7.871,13.027,7.871,23.331
		c0,9.745-2.53,17.427-7.589,23.049c-5.06,5.248-12.368,7.87-21.925,7.87H329.591z M329.591,250.948h19.395
		c5.244,0,8.995-1.124,11.243-3.373c2.433-2.06,3.654-5.621,3.654-10.681c0-4.309-1.125-7.773-3.373-10.4
		c-2.626-2.248-6.092-3.373-10.4-3.373h-20.519V250.948z"/>
	<path fill="#0674ED" d="M389.372,302.949v-36.26c0-7.309,1.076-13.444,3.232-18.411c2.152-4.963,5.104-8.946,8.854-11.946
		c3.558-2.811,7.73-4.87,12.508-6.184c4.779-1.309,9.698-1.968,14.757-1.968c0.373,0,0.843,0,1.405,0s1.028,0,1.405,0v19.957h-6.465
		c-5.438,0-9.465,1.313-12.086,3.936c-2.626,2.626-3.936,6.746-3.936,12.367v38.509H389.372z"/>
	<path fill="#0674ED" d="M444.937,296.203c-3.935-3.373-6.746-7.914-8.433-13.633c-1.687-5.714-2.53-11.665-2.53-17.849
		c0-5.06,0.703-10.119,2.108-15.179c1.406-5.059,3.606-9.275,6.606-12.648c4.871-5.622,11.146-8.946,18.833-9.979
		c7.682-1.027,14.616-0.422,20.8,1.827c7.119,2.811,12.368,7.686,15.741,14.616c3.184,6.184,4.778,13.399,4.778,21.644
		c0,5.999-0.659,11.151-1.968,15.46c-1.313,4.312-3,7.967-5.06,10.962c-4.497,6.184-10.215,10.026-17.146,11.524
		c-6.184,1.687-12.416,1.827-18.692,0.422C453.694,301.966,448.683,299.576,444.937,296.203z M458.429,246.732
		c-3.936,4.312-5.719,10.729-5.341,19.254c0.374,8.529,1.968,14.477,4.778,17.85c1.125,1.502,3.092,2.767,5.903,3.794
		c2.811,1.032,5.666,1.125,8.573,0.281c2.903-0.843,5.481-2.951,7.729-6.324c2.249-3.373,3.465-8.806,3.654-16.303
		c0-6.746-1.081-11.806-3.232-15.179c-2.156-3.373-4.638-5.525-7.449-6.465c-2.811-0.936-5.622-0.983-8.433-0.141
		C461.801,244.344,459.737,245.424,458.429,246.732z"/>
	<path fill="#0674ED" d="M573.303,302.949h-19.396V259.1v-3.935c0-4.497-1.361-7.773-4.074-9.838
		c-2.719-2.06-5.764-3.092-9.137-3.092s-6.371,1.032-8.994,3.092c-2.627,2.064-3.936,5.341-3.936,9.838v47.784H508.09V259.1
		c0-12.74,3.325-21.265,9.979-25.578c6.649-4.309,14.005-6.649,22.065-7.027c4.309,0,8.523,0.471,12.648,1.406
		c4.119,0.939,7.869,2.811,11.242,5.621c2.812-2.433,6.137-4.168,9.979-5.2c3.84-1.027,7.822-1.638,11.947-1.827
		c8.244,0,15.832,2.157,22.768,6.465c6.93,4.313,10.4,13.027,10.4,26.141v43.85h-9.838c-2.811,0-5.107-0.887-6.887-2.67
		c-1.783-1.779-2.67-4.076-2.67-6.887v-38.228c0-4.497-1.361-7.773-4.076-9.838c-2.719-2.06-5.762-3.092-9.135-3.092
		s-6.422,1.032-9.137,3.092c-2.719,2.064-4.074,5.341-4.074,9.838v3.935V302.949z"/>
	<path fill="#0674ED" d="M635.894,296.203c-3.935-3.373-6.746-7.914-8.433-13.633c-1.686-5.714-2.529-11.665-2.529-17.849
		c0-5.06,0.703-10.119,2.108-15.179c1.405-5.059,3.605-9.275,6.605-12.648c4.87-5.622,11.146-8.946,18.832-9.979
		c7.682-1.027,14.617-0.422,20.801,1.827c7.119,2.811,12.367,7.686,15.74,14.616c3.185,6.184,4.778,13.399,4.778,21.644
		c0,5.999-0.658,11.151-1.967,15.46c-1.313,4.312-3,7.967-5.06,10.962c-4.498,6.184-10.216,10.026-17.146,11.524
		c-6.184,1.687-12.416,1.827-18.692,0.422C644.651,301.966,639.641,299.576,635.894,296.203z M649.386,246.732
		c-3.935,4.312-5.718,10.729-5.341,19.254c0.374,8.529,1.968,14.477,4.779,17.85c1.124,1.502,3.092,2.767,5.902,3.794
		c2.811,1.032,5.666,1.125,8.573,0.281c2.903-0.843,5.481-2.951,7.729-6.324c2.249-3.373,3.466-8.806,3.654-16.303
		c0-6.746-1.08-11.806-3.232-15.179c-2.156-3.373-4.638-5.525-7.449-6.465c-2.811-0.936-5.621-0.983-8.432-0.141
		C652.759,244.344,650.694,245.424,649.386,246.732z"/>
	<path fill="#F7941D" d="M785.342,269.5c-0.939,11.243-5.156,20.054-12.648,26.422c-7.687,6.185-17.806,9.276-30.357,9.276
		c-14.616,0-25.768-4.401-33.449-13.211c-7.686-8.433-11.524-20.893-11.524-37.385c0-16.864,3.936-29.514,11.806-37.946
		c8.055-8.806,19.676-13.211,34.854-13.211c12.367,0,22.205,3.092,29.514,9.276c6.931,6,10.866,14.432,11.806,25.297h-12.087
		c-4.497,0-7.686-1.967-9.557-5.902c-1.313-2.434-2.907-4.59-4.778-6.465c-3.751-2.811-8.714-4.217-14.897-4.217
		c-8.621,0-15.275,2.812-19.957,8.433c-4.497,5.622-6.746,13.87-6.746,24.735c0,10.497,2.249,18.552,6.746,24.174
		c4.309,5.811,10.773,8.713,19.395,8.713c5.995,0,10.963-1.497,14.897-4.497c3.558-2.811,6.088-7.309,7.59-13.492H785.342z"/>
	<path fill="#F7941D" d="M839.5,299.857c-3.935,2.064-8.107,3.324-12.508,3.795c-4.405,0.465-8.292,0.702-11.665,0.702
		c-6.746,0-12.649-1.827-17.709-5.481c-5.06-3.653-7.589-9.697-7.589-18.13c0-7.87,2.293-13.491,6.887-16.864
		c4.59-3.373,10.444-5.622,17.567-6.746c0.936,0,2.061-0.141,3.373-0.422c1.309-0.281,2.812-0.514,4.498-0.703
		c8.243-1.124,12.367-3.558,12.367-7.308c0-2.811-1.454-4.638-4.356-5.481c-2.908-0.843-5.578-1.265-8.011-1.265
		c-2.627,0-4.968,0.378-7.027,1.124c-2.064,0.751-3.562,2.157-4.498,4.217h-18.832c0.746-5.807,3.373-10.585,7.87-14.336
		c5.06-4.308,12.271-6.465,21.644-6.465c10.492,0,18.362,1.783,23.611,5.341c5.433,3.751,8.151,8.995,8.151,15.74v25.579
		c0,7.497-1.361,13.352-4.076,17.567C846.479,294.938,843.246,297.986,839.5,299.857z M835.003,265.284
		c-2.627,1.312-6.28,2.529-10.963,3.654l-6.465,1.405c-3.373,0.939-5.811,2.156-7.308,3.653c-1.313,2.064-1.968,4.124-1.968,6.185
		c0,2.811,0.843,5.06,2.529,6.746c1.687,1.502,4.12,2.248,7.309,2.248c5.244,0,9.368-1.497,12.368-4.497
		c2.995-2.995,4.497-7.119,4.497-12.368V265.284z"/>
	<path fill="#F7941D" d="M858.243,302.949v-36.26c0-7.309,1.076-13.444,3.232-18.411c2.152-4.963,5.104-8.946,8.854-11.946
		c3.558-2.811,7.729-4.87,12.508-6.184c4.778-1.309,9.697-1.968,14.757-1.968c0.374,0,0.844,0,1.405,0c0.562,0,1.028,0,1.406,0
		v19.957h-6.466c-5.437,0-9.464,1.313-12.086,3.936c-2.627,2.626-3.936,6.746-3.936,12.367v38.509H858.243z"/>
	<path fill="#F7941D" d="M956.532,279.9h14.054c-2.064,7.87-5.999,13.87-11.806,17.989c-5.811,4.312-13.118,6.465-21.925,6.465
		c-10.681,0-19.021-3.465-25.016-10.4c-6-6.746-8.995-16.395-8.995-28.951c0-11.99,2.903-21.362,8.714-28.108
		c5.995-6.931,14.335-10.4,25.017-10.4c11.243,0,19.957,3.373,26.141,10.119c5.995,6.936,8.994,16.584,8.994,28.952
		c0,0.751,0,1.405,0,1.967c0,0.562,0,0.94,0,1.125c0,0.939-0.096,1.594-0.28,1.968h-48.628c0.185,5.81,1.59,10.118,4.216,12.93
		c2.434,2.999,6.088,4.497,10.963,4.497c3.184,0,5.902-0.654,8.151-1.968c0.562-0.185,1.076-0.514,1.546-0.983
		c0.466-0.466,0.983-0.984,1.546-1.546c0.185-0.562,0.888-1.31,2.108-2.249C952.549,280.37,954.283,279.9,956.532,279.9z
		 M922.802,257.976h28.671c-0.378-5.06-1.687-8.806-3.936-11.243c-2.438-2.622-5.902-3.935-10.4-3.935
		c-4.124,0-7.497,1.312-10.119,3.935C924.392,249.358,922.986,253.105,922.802,257.976z"/>
</g>
<g>
	<path fill="#F7941D" d="M311.236,199.381v-9.793h42.025c2.622,0,4.639-0.667,6.053-2.005c1.413-1.336,2.121-3.11,2.121-5.32
		c0-2.416-0.708-4.228-2.121-5.437c-1.415-1.207-3.432-1.812-6.053-1.812h-25.755c-2.622,0-5-0.397-7.132-1.195
		c-2.134-0.796-3.933-1.901-5.398-3.315c-1.465-1.414-2.596-3.097-3.393-5.051c-0.798-1.953-1.195-4.087-1.195-6.4
		c0-2.261,0.372-4.356,1.118-6.284c0.745-1.928,1.851-3.585,3.315-4.974c1.465-1.388,3.277-2.479,5.437-3.277
		c2.159-0.796,4.626-1.195,7.402-1.195h40.251v9.792H327.66c-2.263,0-4.01,0.605-5.243,1.812c-1.234,1.208-1.851,2.892-1.851,5.05
		c0,2.159,0.629,3.831,1.889,5.012c1.259,1.183,2.969,1.773,5.128,1.773h25.678c5.706,0,10.036,1.337,12.993,4.01
		c2.955,2.674,4.434,6.735,4.434,12.184c0,2.365-0.36,4.549-1.08,6.554c-0.72,2.005-1.8,3.74-3.239,5.205
		c-1.439,1.465-3.251,2.609-5.436,3.431c-2.186,0.823-4.742,1.234-7.672,1.234H311.236z"/>
	<path fill="#F7941D" d="M375.313,143.322h11.952l25.446,43.181l25.369-43.181h11.258L417.03,196.99
		c-0.566,0.978-1.234,1.749-2.005,2.313s-1.671,0.848-2.699,0.848c-1.08,0-2.005-0.283-2.776-0.848s-1.44-1.336-2.005-2.313
		L375.313,143.322z"/>
	<path fill="#F7941D" d="M455.353,199.381v-56.059h9.793v46.266h37.707v9.793H455.353z"/>
</g>
<g>
	<path fill="#6B6B6B" d="M432.053,314.122H310.237v3.346h120.939C431.326,316.354,431.82,315.24,432.053,314.122z"/>
	<path fill="#6B6B6B" d="M494.618,314.122H372.803v3.346h120.938C493.892,316.354,494.386,315.24,494.618,314.122z"/>
	<rect x="310.237" y="323.371" fill="#6B6B6B" width="8.197" height="3.346"/>
	<rect x="325.878" y="323.371" fill="#6B6B6B" width="8.198" height="3.346"/>
	<rect x="341.52" y="323.371" fill="#6B6B6B" width="8.198" height="3.346"/>
	<rect x="357.161" y="323.371" fill="#6B6B6B" width="8.197" height="3.346"/>
	<rect x="372.803" y="323.371" fill="#6B6B6B" width="8.198" height="3.346"/>
	<rect x="388.444" y="323.371" fill="#6B6B6B" width="8.197" height="3.346"/>
	<rect x="404.085" y="323.371" fill="#6B6B6B" width="8.198" height="3.346"/>
	<rect x="419.726" y="323.371" fill="#6B6B6B" width="8.199" height="3.346"/>
	<rect x="436.983" y="323.371" fill="#6B6B6B" width="8.198" height="3.346"/>
	<rect x="452.626" y="323.371" fill="#6B6B6B" width="8.197" height="3.346"/>
	<rect x="468.267" y="323.371" fill="#6B6B6B" width="8.198" height="3.346"/>
	<rect x="483.907" y="323.371" fill="#6B6B6B" width="8.199" height="3.346"/>
	<path fill="#6B6B6B" d="M425.791,336.058c0.34-0.934,0.739-1.842,1.114-2.758c0.039-0.107,0.079-0.21,0.123-0.316H310.237v3.35
		h115.518C425.768,336.242,425.779,336.148,425.791,336.058z"/>
	<path fill="#6B6B6B" d="M490.869,336.058c0.34-0.934,0.739-1.842,1.114-2.758c0.039-0.107,0.079-0.21,0.123-0.316H375.315v3.35
		h115.518C490.846,336.242,490.857,336.148,490.869,336.058z"/>
</g>
<g>
</g>
<g>
</g>
<g>
</g>
<g>
</g>
<g>
</g>
<g>
</g>
</svg>
