<?xml version="1.0" encoding="utf-8"?>
<!-- Generator: Adobe Illustrator 24.0.3, SVG Export Plug-In . SVG Version: 6.00 Build 0)  -->
<svg version="1.1" id="Layer_1" xmlns="http://www.w3.org/2000/svg" xmlns:xlink="http://www.w3.org/1999/xlink" x="0px" y="0px"
	 viewBox="0 0 1024 435" enable-background="new 0 0 1024 435" xml:space="preserve">
<g>
	<g>
		<path fill="#0674ED" d="M380.18,269.111v38.649h-22.31v-96.78c0-3.142,1.1-5.813,3.299-8.013c2.2-2.199,4.871-3.299,8.013-3.299
			h36.764c11.518,0,20.11,2.936,25.766,8.798c5.862,5.867,8.798,14.562,8.798,26.081c0,10.895-2.828,19.481-8.484,25.766
			c-5.656,5.867-13.826,8.798-24.509,8.798H380.18z M380.18,249.63h21.681c5.862,0,10.055-1.257,12.569-3.771
			c2.72-2.303,4.085-6.284,4.085-11.94c0-4.816-1.257-8.69-3.771-11.626c-2.936-2.514-6.81-3.771-11.626-3.771H380.18V249.63z"/>
		<path fill="#0674ED" d="M447.008,307.761v-40.534c0-8.17,1.203-15.028,3.614-20.581c2.405-5.549,5.705-10.002,9.897-13.354
			c3.977-3.143,8.641-5.445,13.983-6.913c5.342-1.463,10.841-2.199,16.497-2.199c0.417,0,0.943,0,1.571,0s1.149,0,1.571,0v22.31
			h-7.227c-6.078,0-10.58,1.468-13.511,4.398c-2.936,2.937-4.399,7.542-4.399,13.826v43.048H447.008z"/>
		<path fill="#0674ED" d="M509.123,300.22c-4.399-3.771-7.541-8.848-9.426-15.24c-1.886-6.387-2.828-13.04-2.828-19.952
			c0-5.656,0.786-11.312,2.356-16.969c1.571-5.655,4.031-10.369,7.384-14.14c5.445-6.284,12.461-10.001,21.053-11.154
			c8.587-1.149,16.34-0.472,23.252,2.042c7.959,3.143,13.826,8.592,17.597,16.34c3.56,6.912,5.342,14.979,5.342,24.194
			c0,6.707-0.736,12.466-2.199,17.282c-1.469,4.821-3.354,8.906-5.656,12.255c-5.027,6.913-11.42,11.209-19.168,12.883
			c-6.912,1.886-13.879,2.042-20.896,0.472C518.913,306.661,513.311,303.99,509.123,300.22z M524.206,244.917
			c-4.399,4.821-6.393,11.994-5.971,21.523c0.418,9.535,2.2,16.183,5.342,19.953c1.257,1.68,3.456,3.094,6.599,4.242
			c3.143,1.153,6.334,1.257,9.584,0.314c3.245-0.942,6.127-3.3,8.641-7.07s3.874-9.844,4.085-18.225
			c0-7.541-1.208-13.197-3.613-16.968c-2.411-3.771-5.185-6.177-8.327-7.228c-3.142-1.045-6.284-1.1-9.427-0.156
			C527.977,242.246,525.669,243.454,524.206,244.917z"/>
		<path fill="#F7941D" d="M579.722,307.761v-96.78c0-3.142,1.1-5.813,3.299-8.013c2.2-2.199,4.871-3.299,8.013-3.299h10.998v108.092
			H579.722z"/>
		<path fill="#F7941D" d="M681.504,307.761h-10.998c-3.143,0-5.71-0.992-7.698-2.985c-1.993-1.988-2.985-4.556-2.985-7.698v-42.733
			c0-5.028-1.522-8.69-4.557-10.998c-3.039-2.303-6.441-3.456-10.212-3.456s-7.124,1.153-10.055,3.456
			c-2.937,2.308-4.399,5.97-4.399,10.998v53.417h-21.995v-49.019c0-14.243,3.717-23.772,11.155-28.594
			c7.433-4.816,15.656-7.434,24.666-7.855c9.215,0,17.699,2.411,25.451,7.228c7.748,4.821,11.627,14.562,11.627,29.222V307.761z"/>
		<path fill="#F7941D" d="M687.097,280.109h21.367c0.206,4.193,1.777,7.335,4.714,9.427c3.142,2.097,7.33,3.142,12.568,3.142
			c3.771,0,7.016-0.731,9.741-2.199c2.514-1.463,3.771-3.456,3.771-5.97c0-3.771-4.399-6.599-13.197-8.484
			c-3.771-0.628-6.599-1.257-8.484-1.885c-11.105-2.721-18.539-5.971-22.31-9.741c-4.192-3.771-6.284-8.798-6.284-15.083
			c0-7.958,3.034-14.557,9.112-19.795c6.284-4.816,14.454-7.228,24.509-7.228c10.89,0,19.585,2.411,26.081,7.228
			c6.073,5.238,9.318,12.048,9.74,20.424h-13.512c-3.981,0-7.021-1.777-9.112-5.342c-0.839-0.835-1.679-1.674-2.514-2.514
			c-2.514-1.886-5.97-2.828-10.369-2.828c-4.192,0-7.335,0.629-9.427,1.886c-1.885,1.257-2.827,3.142-2.827,5.655
			c0,3.354,5.444,6.182,16.339,8.484c1.257,0.422,2.356,0.736,3.3,0.942c0.942,0.211,1.831,0.314,2.671,0.314
			c10.683,2.725,18.116,5.867,22.31,9.427c3.977,3.771,5.97,8.798,5.97,15.082c0,9.221-3.354,16.34-10.055,21.367
			c-6.285,4.61-15.711,6.913-28.28,6.913c-11.94,0-20.847-2.406-26.708-7.228c-6.079-4.816-9.113-11.832-9.113-21.053V280.109z"/>
		<path fill="#F7941D" d="M841.63,224.179v49.018c0,14.877-3.879,24.617-11.627,29.223c-7.752,4.61-16.236,6.913-25.451,6.913
			c-9.01-0.423-17.233-2.932-24.666-7.541c-7.438-4.605-11.155-14.141-11.155-28.595v-49.018h21.995v53.417
			c0,5.027,1.463,8.695,4.399,10.998c2.931,2.308,6.284,3.456,10.055,3.456s7.173-1.148,10.212-3.456
			c3.034-2.303,4.557-5.971,4.557-10.998v-42.734c0-2.931,0.992-5.444,2.985-7.541c1.988-2.092,4.556-3.142,7.698-3.142H841.63z"/>
		<path fill="#F7941D" d="M847.5,307.761v-40.534c0-8.17,1.203-15.028,3.613-20.581c2.406-5.549,5.705-10.002,9.898-13.354
			c3.977-3.143,8.641-5.445,13.982-6.913c5.342-1.463,10.841-2.199,16.497-2.199c0.417,0,0.942,0,1.57,0c0.629,0,1.149,0,1.571,0
			v22.31h-7.227c-6.078,0-10.581,1.468-13.512,4.398c-2.937,2.937-4.399,7.542-4.399,13.826v43.048H847.5z"/>
		<path fill="#F7941D" d="M957.376,281.995h15.711c-2.308,8.798-6.707,15.504-13.197,20.109c-6.496,4.821-14.665,7.228-24.509,7.228
			c-11.94,0-21.265-3.874-27.966-11.626c-6.707-7.542-10.056-18.328-10.056-32.365c0-13.403,3.246-23.881,9.741-31.422
			c6.702-7.747,16.025-11.626,27.966-11.626c12.568,0,22.31,3.771,29.223,11.312c6.701,7.753,10.055,18.539,10.055,32.365
			c0,0.84,0,1.571,0,2.199c0,0.629,0,1.051,0,1.257c0,1.051-0.108,1.782-0.314,2.199h-54.36c0.207,6.496,1.777,11.312,4.714,14.454
			c2.72,3.354,6.805,5.028,12.255,5.028c3.559,0,6.599-0.731,9.112-2.2c0.628-0.206,1.202-0.574,1.728-1.1
			c0.521-0.521,1.1-1.1,1.729-1.729c0.206-0.628,0.992-1.463,2.356-2.514C952.923,282.521,954.862,281.995,957.376,281.995z
			 M919.669,257.485h32.051c-0.422-5.655-1.885-9.844-4.399-12.568c-2.725-2.932-6.599-4.399-11.626-4.399
			c-4.61,0-8.381,1.468-11.312,4.399C921.446,247.853,919.876,252.041,919.669,257.485z"/>
	</g>
</g>
<rect x="314.172" y="129.98" fill="#BCBCBC" width="4.248" height="178.469"/>
<g>
	<g>
		<path fill="#6B6B6B" d="M593.948,330.788l-1.492,2.762c0,0-2.171-1.744-5.02-1.744c-2.577,0-3.798,1.308-3.798,2.325
			c0,4.069,10.716,2.034,10.716,9.156c0,3.488-2.849,6.54-8.274,6.54c-4.396,0-7.189-2.761-7.189-2.761l1.628-2.762
			c0,0,2.197,2.18,5.29,2.18c3.12,0,4.612-1.599,4.612-3.197c0-3.634-10.717-1.744-10.717-9.156c0-2.907,2.714-5.813,7.461-5.813
			C591.234,328.317,593.948,330.788,593.948,330.788z"/>
		<path fill="#6B6B6B" d="M598.779,328.898h15.193v3.343h-11.395v5.232h7.867v3.343h-7.867v5.087h11.666v3.343h-15.465V328.898z"/>
		<path fill="#6B6B6B" d="M634.27,330.352l-1.627,2.762c0,0-1.954-1.308-4.477-1.308c-4.07,0-6.783,2.906-6.783,7.267
			s2.713,7.267,6.783,7.267c2.713,0,4.747-1.599,4.747-1.599l1.628,2.762c0,0-2.577,2.325-6.646,2.325
			c-6.24,0-10.445-4.505-10.445-10.755s4.205-10.755,10.445-10.755C631.828,328.317,634.27,330.352,634.27,330.352z"/>
		<path fill="#6B6B6B" d="M638.722,341.107v-12.209h3.799v12.209c0,3.197,1.898,5.231,4.883,5.231s4.884-2.034,4.884-5.231v-12.209
			h3.798v12.209c0,5.087-3.392,8.72-8.682,8.72S638.722,346.194,638.722,341.107z"/>
		<path fill="#6B6B6B" d="M670.413,328.898c5.155,0,7.868,2.907,7.868,6.686c0,4.36-3.527,5.813-3.527,5.813v0.146l5.02,7.703
			h-4.477l-4.477-6.977h-5.29v6.977h-3.799v-20.348H670.413z M670.413,332.241h-4.883v6.686h4.883c2.577,0,3.935-1.744,3.935-3.343
			C674.348,333.694,672.99,332.241,670.413,332.241z"/>
		<path fill="#6B6B6B" d="M683.71,328.898h15.193v3.343h-11.395v5.232h7.867v3.343h-7.867v5.087h11.666v3.343H683.71V328.898z"/>
		<path fill="#6B6B6B" d="M725.225,334.131l-3.934,15.115h-5.02l-5.29-20.348h4.069l3.935,15.261h0.135l3.88-15.261h4.585
			l3.88,15.261h0.136l3.934-15.261h4.069l-5.29,20.348h-5.02l-3.934-15.115H725.225z"/>
		<path fill="#6B6B6B" d="M747.449,349.246h-3.799v-20.348h3.799V349.246z"/>
		<path fill="#6B6B6B" d="M768.313,328.898v3.343h-6.511v17.005h-3.798v-17.005h-6.512v-3.343H768.313z"/>
		<path fill="#6B6B6B" d="M789.722,328.898v20.348h-3.798v-8.43h-9.767v8.43h-3.799v-20.348h3.799v8.575h9.767v-8.575H789.722z"/>
		<path fill="#6B6B6B" d="M803.645,328.898h15.871v3.343l-11.123,13.517v0.146h11.259v3.343h-16.278v-3.343l11.123-13.517v-0.146
			h-10.852V328.898z"/>
		<path fill="#6B6B6B" d="M824.076,328.898h15.193v3.343h-11.395v5.232h7.867v3.343h-7.867v5.087h11.666v3.343h-15.465V328.898z"/>
		<path fill="#6B6B6B" d="M852.512,328.898c5.155,0,7.868,2.907,7.868,6.686c0,4.36-3.527,5.813-3.527,5.813v0.146l5.02,7.703
			h-4.477l-4.477-6.977h-5.29v6.977h-3.799v-20.348H852.512z M852.512,332.241h-4.883v6.686h4.883c2.578,0,3.935-1.744,3.935-3.343
			C856.446,333.694,855.09,332.241,852.512,332.241z"/>
		<path fill="#6B6B6B" d="M874.897,328.317c5.969,0,10.174,4.505,10.174,10.755s-4.205,10.755-10.174,10.755
			s-10.174-4.505-10.174-10.755S868.929,328.317,874.897,328.317z M874.897,331.806c-3.527,0-6.24,2.906-6.24,7.267
			s2.713,7.267,6.24,7.267s6.24-2.906,6.24-7.267S878.425,331.806,874.897,331.806z"/>
		<path fill="#6B6B6B" d="M914.702,330.352l-1.627,2.762c0,0-1.954-1.308-4.477-1.308c-4.07,0-6.783,2.906-6.783,7.267
			s2.713,7.267,6.783,7.267c2.713,0,4.747-1.599,4.747-1.599l1.628,2.762c0,0-2.577,2.325-6.646,2.325
			c-6.24,0-10.445-4.505-10.445-10.755s4.205-10.755,10.445-10.755C912.261,328.317,914.702,330.352,914.702,330.352z"/>
		<path fill="#6B6B6B" d="M937.793,349.246h-4.069l-1.492-4.069h-9.36l-1.492,4.069h-4.069l7.868-20.348h4.747L937.793,349.246z
			 M924.228,341.688h6.647l-3.256-8.43h-0.136L924.228,341.688z"/>
		<path fill="#6B6B6B" d="M955.323,330.788l-1.492,2.762c0,0-2.171-1.744-5.02-1.744c-2.577,0-3.798,1.308-3.798,2.325
			c0,4.069,10.716,2.034,10.716,9.156c0,3.488-2.849,6.54-8.274,6.54c-4.396,0-7.189-2.761-7.189-2.761l1.628-2.762
			c0,0,2.197,2.18,5.29,2.18c3.12,0,4.612-1.599,4.612-3.197c0-3.634-10.717-1.744-10.717-9.156c0-2.907,2.714-5.813,7.461-5.813
			C952.609,328.317,955.323,330.788,955.323,330.788z"/>
		<path fill="#6B6B6B" d="M977.518,328.898v20.348h-3.798v-8.43h-9.767v8.43h-3.799v-20.348h3.799v8.575h9.767v-8.575H977.518z"/>
	</g>
</g>
<g>
	<path fill="#F7941D" d="M359.809,191.539v-10.745h46.111c2.877,0,5.09-0.732,6.642-2.2c1.551-1.466,2.327-3.412,2.327-5.838
		c0-2.65-0.776-4.639-2.327-5.965c-1.552-1.325-3.765-1.988-6.642-1.988h-28.259c-2.876,0-5.486-0.436-7.826-1.312
		c-2.341-0.874-4.315-2.086-5.922-3.638c-1.608-1.551-2.849-3.397-3.723-5.542c-0.875-2.143-1.312-4.484-1.312-7.022
		c0-2.481,0.409-4.78,1.227-6.896c0.817-2.115,2.031-3.934,3.638-5.457s3.596-2.721,5.965-3.596
		c2.369-0.874,5.077-1.311,8.123-1.311h44.166v10.745h-44.166c-2.483,0-4.4,0.664-5.753,1.988c-1.354,1.326-2.031,3.173-2.031,5.542
		s0.69,4.203,2.073,5.5c1.381,1.298,3.257,1.946,5.626,1.946h28.174c6.261,0,11.013,1.468,14.257,4.4
		c3.243,2.934,4.865,7.39,4.865,13.368c0,2.595-0.395,4.992-1.185,7.191c-0.791,2.2-1.975,4.104-3.553,5.711
		c-1.58,1.607-3.568,2.863-5.965,3.765c-2.398,0.903-5.204,1.354-8.419,1.354H359.809z"/>
	<path fill="#F7941D" d="M430.118,130.029h13.114l27.921,47.38l27.836-47.38h12.353l-35.451,58.887
		c-0.622,1.072-1.354,1.918-2.2,2.539c-0.846,0.62-1.833,0.931-2.961,0.931c-1.185,0-2.2-0.311-3.046-0.931
		c-0.846-0.62-1.58-1.466-2.2-2.539L430.118,130.029z"/>
	<path fill="#F7941D" d="M517.941,191.539v-61.51h10.744v50.765h41.375v10.745H517.941z"/>
</g>
<g>
	<g>
		<g>
			<path fill="#E89400" d="M210.811,220.105c-8.162,0-14.773,6.624-14.773,14.773c0,8.171,6.612,14.777,14.773,14.777
				c8.166,0,14.769-6.606,14.769-14.777C225.579,226.73,218.977,220.105,210.811,220.105z M210.811,243.574
				c-4.805,0-8.692-3.895-8.692-8.695c0-4.801,3.887-8.701,8.692-8.701c4.801,0,8.691,3.9,8.691,8.701
				C219.502,239.68,215.611,243.574,210.811,243.574z"/>
			<path fill="#E89400" d="M210.811,229.544c-2.95,0-5.335,2.384-5.335,5.335c0,2.95,2.385,5.33,5.335,5.33
				c2.95,0,5.335-2.38,5.335-5.33C216.145,231.928,213.761,229.544,210.811,229.544z"/>
			<path fill="#E89400" d="M118.795,229.544c-2.95,0-5.326,2.384-5.326,5.335c0,2.95,2.376,5.33,5.326,5.33
				c2.951,0,5.336-2.38,5.336-5.33C124.131,231.928,121.746,229.544,118.795,229.544z"/>
			<path fill="#E89400" d="M118.747,220.105c-8.157,0-14.773,6.624-14.773,14.773c0,8.171,6.616,14.777,14.773,14.777
				c8.158,0,14.774-6.606,14.774-14.777C133.52,226.73,126.905,220.105,118.747,220.105z M118.747,243.574
				c-4.8,0-8.687-3.895-8.687-8.695c0-4.801,3.887-8.701,8.687-8.701c4.81,0,8.697,3.9,8.697,8.701
				C127.443,239.68,123.557,243.574,118.747,243.574z"/>
			<path fill="#E89400" d="M228.645,217.777c0,0-27.829-6.117-31.217-7.927c-3.392-1.789-20.74-13.86-32.594-14.92h-29.097
				c0,0-8.153,1.272-13.859,4.227c-5.715,2.968-14.602,7.416-18.735,7.628c-4.121,0.216-11.32,1.797-13.439,3.922v8.352l-2.102,1.17
				c-1.515,0.849-2.452,2.442-2.452,4.188v6.179c0,0,1.17,3.6,2.756,3.908c0,0,4.707,1.396,10.069,2.124h3.816
				c-0.066-0.568-0.093-1.165-0.093-1.748c0-9.403,7.646-17.04,17.044-17.04c9.412,0,17.057,7.636,17.057,17.04
				c0,0.583-0.027,1.18-0.088,1.748h58.131c-0.053-0.568-0.08-1.165-0.08-1.748c0-9.403,7.65-17.04,17.048-17.04
				c9.398,0,17.048,7.636,17.048,17.04c0,0.583-0.022,1.18-0.088,1.748h7.137c0.309,0,0.596-0.097,0.831-0.273
				c0.239-0.154,0.415-0.393,0.526-0.685v-9.416C236.264,226.253,233.927,220.012,228.645,217.777z M121.507,213.171
				c-4.072,0-7.385-3.295-7.385-7.371c2.544-1.153,5.481-2.588,8.917-4.386c4.823-2.487,11.699-3.741,12.896-3.944h11.399
				l3.286,15.701H121.507z M156.358,213.171l-3.29-15.701h11.646c9.147,0.883,22.114,8.873,28.359,12.732
				c1.439,0.897,2.482,1.541,3.162,1.895c0.534,0.292,1.555,0.658,2.915,1.073H156.358z"/>
		</g>
	</g>
	<radialGradient id="SVGID_1_" cx="159.6621" cy="219.27" r="114.491" gradientUnits="userSpaceOnUse">
		<stop  offset="0.0168" style="stop-color:#94FFF1"/>
		<stop  offset="0.4196" style="stop-color:#00AAFF"/>
		<stop  offset="0.5508" style="stop-color:#008CE0"/>
		<stop  offset="0.7492" style="stop-color:#0065B7"/>
		<stop  offset="0.9058" style="stop-color:#004C9D"/>
		<stop  offset="1" style="stop-color:#004394"/>
	</radialGradient>
	<path fill="url(#SVGID_1_)" d="M240.145,137.961c-3.26-3.229-6.757-6.183-10.379-9.01c-19.398-15.087-43.689-24.172-70.1-24.172
		c-63.139,0-114.496,51.369-114.496,114.5c0,34.33,15.264,65.097,39.277,86.102c2.698,2.354,5.494,4.584,8.4,6.673
		c18.828,13.603,41.865,21.707,66.818,21.707c63.13,0,114.487-51.351,114.487-114.481
		C274.153,187.498,261.124,158.727,240.145,137.961z M221.79,143.194c0.066-0.022,0.124-0.048,0.177-0.062
		c-0.053,0.035-0.11,0.075-0.177,0.11C221.79,143.226,221.79,143.208,221.79,143.194z M100.842,298.522
		c-0.057,0.03-0.106,0.049-0.167,0.066c0.061-0.031,0.115-0.066,0.172-0.106C100.847,298.494,100.842,298.508,100.842,298.522z
		 M159.666,323.842c-21.16,0-40.831-6.364-57.31-17.198c0.194-0.098,0.38-0.212,0.574-0.305c3.061-1.426,6.289-2.526,9.531-3.485
		c3.851-1.143,7.777-2.331,11.876-1.28c3.088,0.786,6.197,1.59,9.236,2.593c4.098,1.378,8.108,3.029,12.198,4.425
		c3.109,1.065,6.271,1.926,9.39,2.92c4.195,1.307,8.538,1.819,12.87,2.318c4.134,0.468,8.047-0.706,11.819-2.159
		c4.584-1.771,9.133-3.705,13.55-5.875c5.485-2.689,10.9-5.524,16.161-8.603c6.196-3.63,11.708-8.236,16.884-13.191
		c2.968-2.845,5.839-5.812,7.46-9.69c0.888-2.115,0.663-5.309-2.689-5.711c-1.175-0.154-2.553-0.035-3.604,0.446
		c-2.076,0.968-3.993,2.262-5.962,3.437c-0.539,0.313-1.042,0.706-1.564,1.073c-0.079-0.089-0.142-0.177-0.221-0.261
		c0.176-0.27,0.406-0.499,0.543-0.772c0.495-0.968,1.162-1.908,1.365-2.934c0.574-2.772-2.424-4.694-5.211-3.971
		c-3.498,0.92-6.669,2.549-9.708,4.466c-0.87,0.539-1.758,1.082-2.924,1.789c0.018-0.07,0.027-0.137,0.044-0.208
		c0.972-1.528,3.6-6.404-3.379-4.959c-0.349,0.044-0.71,0.145-1.09,0.291c-2.854,1.06-5.738,2.062-8.551,3.237
		c-0.561,0.225-1.113,0.473-1.678,0.715c0-0.008,0-0.008-0.004-0.008c0,0,7.919-5.716-0.693-3.632c0,0-9.787,3.295-12.296,5.884
		c-2.306,1.833,2.716,2.248,2.676,2.266c2.487,0.614,4.841,1.148,7.172,1.758c3.454,0.914,6.519,2.5,8.798,5.34
		c1.131,1.427,1.944,2.884,1.202,4.872c-1.184,3.17-3.613,5.069-6.351,6.646c-4.099,2.367-8.719,2.87-13.276,3.197
		c-2.553,0.19-5.132-0.163-7.693-0.331c-5.485-0.389-10.86-1.303-15.935-3.551c-4.063-1.793-7.623-4.279-10.388-7.801
		c-0.273-0.353-0.344-0.869-0.512-1.298c0.512-0.031,1.078-0.252,1.506-0.088c3.582,1.303,7.221,2.474,10.64,4.094
		c5.15,2.451,10.622,3.321,16.209,3.661c1.93,0.124,3.904-0.146,5.857-0.34c2.102-0.185,4.213-0.322,6.285-0.742
		c2.602-0.516,5.04-1.589,7.066-3.357c1.506-1.303,1.533-2.733-0.194-3.67c-1.682-0.9-3.626-1.4-5.494-1.907
		c-2.84-0.77-5.702-1.41-8.56-2.05c-6.161-1.396-11.408-4.66-16.602-8.039c-5.587-3.639-11.099-7.397-16.739-10.952
		c-3.233-2.041-6.802-3.507-10.556-4.17c-3.772-0.658-7.579-0.512-11.391,0.262c-5.397,1.081-10.163,3.431-14.278,6.951
		c-3.127,2.681-5.883,5.794-8.825,8.695c-1.696,1.688-3.268,3.609-5.242,4.93c-3.145,2.129-6.541,3.855-9.876,5.689
		c-0.605,0.331-1.002,0.648-1.122,1.153l-0.958,1.09l0.327,1.374c-15.52-18.231-24.937-41.834-24.937-67.596
		c0-57.672,46.909-104.576,104.576-104.576c22.63,0,43.539,7.313,60.662,19.561c-0.274,0.146-0.534,0.296-0.799,0.433
		c-3.339,1.542-6.854,2.756-10.374,3.794c-4.191,1.241-8.449,2.53-12.91,1.396c-3.357-0.857-6.739-1.731-10.026-2.835
		c-4.46-1.488-8.833-3.273-13.289-4.801c-3.361-1.162-6.806-2.089-10.198-3.153c-4.567-1.436-9.284-1.992-14.001-2.536
		c-4.47-0.516-8.754,0.747-12.835,2.332c-4.995,1.93-9.941,4.032-14.747,6.386c-5.954,2.933-11.845,6.02-17.565,9.372
		c-6.748,3.939-12.732,8.952-18.369,14.34c-3.224,3.083-6.333,6.315-8.095,10.542c-0.963,2.296-0.729,5.768,2.915,6.214
		c1.285,0.146,2.773,0.026,3.922-0.508c2.253-1.038,4.341-2.456,6.475-3.715c0.596-0.353,1.139-0.786,1.705-1.171
		c0.079,0.093,0.159,0.186,0.243,0.279c-0.199,0.282-0.446,0.538-0.601,0.843c-0.526,1.056-1.25,2.071-1.484,3.189
		c-0.614,3.007,2.641,5.101,5.675,4.31c3.807-0.998,7.252-2.765,10.556-4.854c0.945-0.596,1.908-1.179,3.184-1.956
		c-0.022,0.093-0.039,0.155-0.057,0.226c-1.051,1.665-3.904,6.969,3.684,5.401c0.371-0.061,0.759-0.159,1.179-0.313
		c3.114-1.153,6.232-2.244,9.293-3.521c0.993-0.411,1.974-0.852,2.955-1.267c-2.385,1.563-6.934,4.981-0.098,4.284
		c0,0,11.651-3.29,14.491-5.517c2.937-1.736,0.587-1.484-4.333-3.163c0.009-0.008-0.176-0.066-0.283-0.097
		c-0.008,0-0.03-0.004-0.03-0.004c-2.575-0.636-5.031-1.201-7.451-1.837c-3.763-0.985-7.084-2.703-9.557-5.799
		c-1.237-1.542-2.124-3.136-1.316-5.304c1.281-3.445,3.931-5.512,6.908-7.226c4.456-2.557,9.469-3.113,14.447-3.481
		c2.76-0.189,5.569,0.186,8.36,0.376c5.958,0.411,11.801,1.414,17.322,3.852c4.416,1.943,8.289,4.655,11.293,8.48
		c0.295,0.385,0.366,0.932,0.552,1.414c-0.548,0.053-1.175,0.287-1.643,0.106c-3.869-1.427-7.831-2.685-11.554-4.465
		c-5.609-2.659-11.545-3.617-17.622-3.979c-2.107-0.124-4.267,0.177-6.373,0.362c-2.283,0.208-4.597,0.357-6.823,0.808
		c-2.844,0.574-5.485,1.732-7.694,3.652c-1.643,1.431-1.669,2.985,0.204,4.001c1.837,0.976,3.944,1.515,5.98,2.067
		c3.083,0.838,6.192,1.532,9.306,2.239c6.7,1.515,12.406,5.061,18.05,8.723c6.077,3.962,12.066,8.051,18.196,11.912
		c3.516,2.217,7.394,3.834,11.483,4.54c4.107,0.72,8.241,0.57,12.388-0.269c5.865-1.184,11.055-3.754,15.524-7.575
		c3.401-2.906,6.387-6.302,9.584-9.452c1.859-1.832,3.568-3.926,5.706-5.357c3.428-2.31,7.128-4.205,10.741-6.188
		c0.654-0.371,1.087-0.707,1.21-1.259l0.486-0.539c12.525,17.242,20.016,38.376,20.016,61.28
		C264.233,276.941,217.321,323.842,159.666,323.842z M165.527,296.839c0.022,0,0.031-0.018,0.058-0.018
		c0.017,0.018,0.039,0.04,0.07,0.066C165.611,296.874,165.558,296.853,165.527,296.839z M151.46,145.036c-0.022,0-0.044,0-0.062,0
		c-0.022-0.013-0.053-0.035-0.075-0.057C151.376,145.001,151.416,145.023,151.46,145.036z"/>
</g>
<g>
	<path fill="#6B6B6B" d="M493.476,325.109H357.299v3.74h135.196C492.663,327.604,493.215,326.359,493.476,325.109z"/>
	<path fill="#6B6B6B" d="M563.417,325.109H427.241v3.74h135.196C562.604,327.604,563.156,326.359,563.417,325.109z"/>
	<rect x="357.299" y="335.449" fill="#6B6B6B" width="9.165" height="3.74"/>
	<rect x="374.785" y="335.449" fill="#6B6B6B" width="9.164" height="3.74"/>
	<rect x="392.27" y="335.449" fill="#6B6B6B" width="9.164" height="3.74"/>
	<rect x="409.755" y="335.449" fill="#6B6B6B" width="9.165" height="3.74"/>
	<rect x="427.241" y="335.449" fill="#6B6B6B" width="9.164" height="3.74"/>
	<rect x="444.726" y="335.449" fill="#6B6B6B" width="9.164" height="3.74"/>
	<rect x="462.211" y="335.449" fill="#6B6B6B" width="9.165" height="3.74"/>
	<rect x="479.696" y="335.449" fill="#6B6B6B" width="9.165" height="3.74"/>
	<rect x="498.988" y="335.449" fill="#6B6B6B" width="9.165" height="3.74"/>
	<rect x="516.474" y="335.449" fill="#6B6B6B" width="9.164" height="3.74"/>
	<rect x="533.959" y="335.449" fill="#6B6B6B" width="9.163" height="3.74"/>
	<rect x="551.444" y="335.449" fill="#6B6B6B" width="9.163" height="3.74"/>
	<path fill="#6B6B6B" d="M486.476,349.63c0.38-1.042,0.826-2.058,1.246-3.083c0.044-0.118,0.088-0.233,0.136-0.354H357.299v3.746
		h129.137C486.45,349.838,486.462,349.731,486.476,349.63z"/>
	<path fill="#6B6B6B" d="M559.226,349.63c0.38-1.042,0.826-2.058,1.245-3.083c0.045-0.118,0.089-0.233,0.137-0.354H430.05v3.746
		h129.137C559.199,349.838,559.212,349.731,559.226,349.63z"/>
</g>
<g>
</g>
<g>
</g>
<g>
</g>
<g>
</g>
<g>
</g>
<g>
</g>
</svg>
