<?xml version="1.0" encoding="utf-8"?>
<!-- Generator: Adobe Illustrator 24.0.3, SVG Export Plug-In . SVG Version: 6.00 Build 0)  -->
<svg version="1.1" id="Layer_1" xmlns="http://www.w3.org/2000/svg" xmlns:xlink="http://www.w3.org/1999/xlink" x="0px" y="0px"
	 viewBox="0 0 1024 435" enable-background="new 0 0 1024 435" xml:space="preserve">
<g>
	<g>
		<path fill="#6B6B6B" d="M468.241,364.242l-3.872,3.807c0,0-2.051-1.803-5.647-1.803c-5.803,0-11.303,4.007-13.752,10.019
			c-2.449,6.011-0.214,10.019,5.589,10.019c3.868,0,7.667-2.203,7.667-2.203l0.771,3.807c0,0-4.981,3.206-10.783,3.206
			c-8.897,0-12.362-6.212-8.852-14.828c3.51-8.617,12.036-14.828,20.934-14.828C465.903,361.437,468.241,364.242,468.241,364.242z"
			/>
		<path fill="#6B6B6B" d="M489.581,390.291h-5.803l0.159-5.611h-13.346l-4.413,5.611h-5.803l22.646-28.054h6.77L489.581,390.291z
			 M474.484,379.871h9.477l0.094-11.622h-0.193L474.484,379.871z"/>
		<path fill="#6B6B6B" d="M517.836,362.237c7.35,0,9.585,4.009,7.463,9.218c-2.449,6.012-8.294,8.016-8.294,8.016l-0.081,0.2
			l2.83,10.62h-6.383l-2.464-9.618h-7.543l-3.919,9.618h-5.416l11.429-28.054H517.836z M515.959,366.847h-6.962l-3.755,9.218h6.961
			c3.676,0,6.59-2.405,7.487-4.609C520.752,368.851,519.634,366.847,515.959,366.847z"/>
		<path fill="#6B6B6B" d="M535.824,362.237h21.662l-1.878,4.609h-16.246l-2.938,7.213h11.217l-1.878,4.609h-11.217l-2.857,7.014
			h16.633l-1.878,4.608h-22.049L535.824,362.237z"/>
		<path fill="#6B6B6B" d="M588.486,361.437c8.511,0,11.975,6.211,8.465,14.828c-3.51,8.616-12.036,14.828-20.547,14.828
			c-8.51,0-11.975-6.212-8.464-14.828C571.451,367.647,579.977,361.437,588.486,361.437z M586.526,366.246
			c-5.028,0-10.528,4.007-12.978,10.019c-2.449,6.011-0.214,10.019,4.814,10.019c5.029,0,10.531-4.008,12.979-10.019
			C593.791,370.253,591.556,366.246,586.526,366.246z"/>
		<path fill="#6B6B6B" d="M619.856,381.474l7.837-19.236h5.414l-11.428,28.054h-5.803l-5.508-19.236h-0.193l-7.836,19.236h-5.416
			l11.428-28.054h5.803l5.509,19.236H619.856z"/>
		<path fill="#6B6B6B" d="M667.458,369.451l-14.099,20.84h-7.156l3.887-28.054h5.801l-2.961,21.04h0.193l14.102-21.04h6.537
			l-3.039,21.04h0.193l14.18-21.04h5.803l-18.973,28.054h-7.156l2.882-20.84H667.458z"/>
		<path fill="#6B6B6B" d="M720.451,362.237l-11.43,28.054h-5.414l4.734-11.622h-13.925l-4.735,11.622h-5.416l11.43-28.054h5.416
			l-4.816,11.822h13.924l4.816-11.822H720.451z"/>
		<path fill="#6B6B6B" d="M727.686,362.237h21.662l-1.878,4.609h-16.246l-2.938,7.213h11.217l-1.878,4.609h-11.217l-2.857,7.014
			h16.633l-1.878,4.608h-22.049L727.686,362.237z"/>
		<path fill="#6B6B6B" d="M754.879,362.237h21.662l-1.878,4.609h-16.246l-2.938,7.213h11.217l-1.878,4.609h-11.217l-2.857,7.014
			h16.633l-1.878,4.608h-22.049L754.879,362.237z"/>
		<path fill="#6B6B6B" d="M782.072,362.237h5.416l-9.552,23.445h15.278l-1.877,4.608h-20.695L782.072,362.237z"/>
		<path fill="#6B6B6B" d="M826.076,364.843l-3.68,3.807c0,0-2.115-2.403-6.177-2.403c-3.674,0-6.149,1.803-6.721,3.205
			c-2.286,5.61,14.137,2.806,10.137,12.624c-1.959,4.809-7.735,9.018-15.472,9.018c-6.267,0-8.699-3.807-8.699-3.807l3.872-3.808
			c0,0,1.908,3.005,6.318,3.005c4.448,0,7.473-2.204,8.371-4.408c2.04-5.009-14.299-2.404-10.136-12.624
			c1.633-4.008,7.134-8.015,13.902-8.015C823.596,361.437,826.076,364.843,826.076,364.843z"/>
	</g>
</g>
<g>
	<path fill="#0674ED" d="M214.424,344.942h-20.029l-11.547-20.438h-11.036l-8.277,20.438h-17.781l23.912-59.27h47.109
		c8.038,0,12.909,1.466,14.613,4.395c1.771,2.998,1.533,7.222-0.715,12.671l-1.942,4.701c-2.181,5.518-5.313,9.743-9.401,12.671
		c-4.088,2.931-8.686,4.395-13.795,4.395h-2.657L214.424,344.942z M198.279,311.016c4.768,0,8.106-0.749,10.014-2.248
		c1.975-1.566,3.168-2.792,3.577-3.679c0.271-0.885,0.067-2.11-0.613-3.679c-0.682-1.498-3.407-2.248-8.175-2.248h-21.051
		l-4.803,11.854H198.279z"/>
	<path fill="#0674ED" d="M296.276,327.877c-2.113,5.451-5.28,9.675-9.503,12.671c-4.021,2.931-10.05,4.395-18.087,4.395h-26.16
		c-6.949,0-11.649-1.311-14.102-3.935c-2.453-2.621-2.488-7-0.102-13.131l10.219-25.139c2.315-5.722,5.688-9.963,10.117-12.722
		c4.427-2.76,10.354-4.206,17.781-4.344h26.16c8.038,0,12.909,1.466,14.613,4.395c1.771,2.998,1.533,7.222-0.715,12.671
		L296.276,327.877z M280.744,322.154l5.518-13.591c1.226-3.271,1.498-5.654,0.817-7.153c-0.682-1.498-3.407-2.248-8.175-2.248
		H268.89c-4.292,0-7.511,0.802-9.657,2.401c-2.146,1.602-3.832,3.935-5.058,7l-5.416,13.488c-1.295,3.066-1.517,5.4-0.664,7
		c0.851,1.602,3.423,2.401,7.715,2.401h10.015c4.701,0,8.004-0.748,9.912-2.248C277.78,327.57,279.449,325.22,280.744,322.154z"/>
	<path fill="#0674ED" d="M328.056,325.526l-12.773,19.416h-17.985c9.06-13.625,15.941-23.945,20.642-30.963
		c4.701-7.016,7.289-10.797,7.766-11.343c1.362-1.702,2.979-3.475,4.854-5.314c1.873-1.839,4.104-3.745,6.693-5.722
		c5.041-3.95,9.333-5.928,12.875-5.928h10.117c3.95,0,6.745,1.978,8.379,5.928c1.771,4.021,2.453,7.699,2.044,11.036
		c0.067,0.954-1.737,15.057-5.416,42.306h-17.985l2.759-19.416H328.056z M352.581,312.038l0.307-3.475
		c0.271-3.133,0.033-5.381-0.715-6.744c-0.75-1.362-1.602-2.044-2.555-2.044c-0.955,0-2.401,0.682-4.343,2.044
		c-1.941,1.363-4.003,3.611-6.182,6.744l-2.453,3.475h8.788H352.581z"/>
	<path fill="#0674ED" d="M373.222,344.942l23.912-59.27h46.802c3.95,0,7.135,0.358,9.555,1.073c2.417,0.716,4.154,1.772,5.211,3.168
		c1.055,1.397,1.515,3.168,1.379,5.313c-0.137,2.146-0.784,4.649-1.941,7.511l-10.219,25.139c-1.159,2.861-2.521,5.365-4.088,7.511
		c-1.568,2.146-3.458,3.918-5.671,5.313c-2.214,1.397-4.803,2.453-7.766,3.168c-2.963,0.716-6.422,1.073-10.372,1.073H373.222z
		 M409.499,299.162l-13.08,32.291h21.153c4.292,0,7.527-0.8,9.708-2.401c2.179-1.6,3.883-3.934,5.109-7l5.416-13.488
		c1.226-3.065,1.413-5.398,0.562-7c-0.853-1.6-3.423-2.401-7.715-2.401H409.499z"/>
	<path fill="#E89400" d="M503.205,321.848h-27.08l-9.299,23.095h-17.883l17.065-42.204c1.157-2.861,2.52-5.364,4.087-7.511
		c1.566-2.146,3.457-3.916,5.671-5.313c2.213-1.396,4.803-2.452,7.766-3.168c2.964-0.715,6.42-1.073,10.373-1.073h25.853
		c3.95,0,7.118,0.342,9.504,1.022c2.384,0.682,4.121,1.721,5.212,3.116c1.089,1.397,1.566,3.152,1.431,5.263
		c-0.138,2.112-0.784,4.565-1.942,7.357l-17.167,42.511h-17.78l9.299-23.095H503.205z M504.737,308.359h9.095
		c0.545-1.431,0.869-2.708,0.971-3.832c0.103-1.124-0.102-2.096-0.613-2.913c-0.511-0.817-1.396-1.431-2.656-1.839
		c-1.262-0.409-2.947-0.613-5.059-0.613h-10.117c-4.292,0-7.528,0.817-9.708,2.452c-2.181,1.636-3.85,3.884-5.007,6.745H504.737z"/>
	<path fill="#E89400" d="M600.384,334.008c-1.635,2.59-4.122,5.076-7.459,7.46c-3.339,2.317-7.153,3.475-11.445,3.475h-56.612
		l5.416-13.489h46.904c1.431,0,2.213-0.476,2.351-1.431c0.136-1.021,0-1.6-0.409-1.736l-34.131-14.817
		c-4.292-1.702-5.349-5.177-3.168-10.424c0.477-1.226,0.902-2.248,1.277-3.065c0.374-0.817,0.731-1.464,1.073-1.941
		c0.545-0.545,1.106-1.191,1.687-1.941c0.578-0.749,1.14-1.566,1.686-2.453c1.227-1.906,3.985-3.712,8.277-5.416
		c4.224-1.702,8.891-2.555,14-2.555h50.072l-5.62,13.898H564.21c-1.091,0-1.942,0.612-2.555,1.839c-0.205,0.817-0.205,1.227,0,1.227
		l37.707,16.759c2.452,1.091,3.542,3.203,3.271,6.336C602.428,328.865,601.678,331.624,600.384,334.008z"/>
	<path fill="#E89400" d="M679.477,334.008c-1.635,2.59-4.122,5.076-7.459,7.46c-3.339,2.317-7.153,3.475-11.445,3.475H603.96
		l5.416-13.489h46.904c1.431,0,2.213-0.476,2.351-1.431c0.136-1.021,0-1.6-0.409-1.736l-34.131-14.817
		c-4.292-1.702-5.349-5.177-3.168-10.424c0.477-1.226,0.902-2.248,1.277-3.065c0.374-0.817,0.731-1.464,1.073-1.941
		c0.545-0.545,1.106-1.191,1.687-1.941c0.578-0.749,1.14-1.566,1.686-2.453c1.227-1.906,3.985-3.712,8.277-5.416
		c4.224-1.702,8.891-2.555,14-2.555h50.072l-5.62,13.898h-50.072c-1.091,0-1.942,0.612-2.555,1.839
		c-0.205,0.817-0.205,1.227,0,1.227l37.707,16.759c2.452,1.091,3.542,3.203,3.271,6.336
		C681.521,328.865,680.771,331.624,679.477,334.008z"/>
	<path fill="#E89400" d="M700.833,344.942h-17.78l23.912-59.27h17.78L700.833,344.942z"/>
	<path fill="#E89400" d="M784.32,334.008c-1.635,2.59-4.122,5.076-7.459,7.46c-3.339,2.317-7.153,3.475-11.445,3.475h-56.612
		l5.416-13.489h46.904c1.431,0,2.213-0.476,2.351-1.431c0.136-1.021,0-1.6-0.409-1.736l-34.131-14.817
		c-4.292-1.702-5.349-5.177-3.168-10.424c0.477-1.226,0.902-2.248,1.277-3.065c0.374-0.817,0.731-1.464,1.073-1.941
		c0.545-0.545,1.106-1.191,1.687-1.941c0.578-0.749,1.14-1.566,1.686-2.453c1.227-1.906,3.985-3.712,8.277-5.416
		c4.224-1.702,8.891-2.555,14-2.555h50.072l-5.62,13.898h-50.072c-1.091,0-1.942,0.612-2.555,1.839
		c-0.205,0.817-0.205,1.227,0,1.227l37.707,16.759c2.452,1.091,3.542,3.203,3.271,6.336
		C786.364,328.865,785.614,331.624,784.32,334.008z"/>
	<path fill="#E89400" d="M806.393,299.162l5.416-13.489h67.853l-5.416,13.489h-25.547l-18.496,45.78h-17.78l18.496-45.78H806.393z"
		/>
</g>
<path fill="#0674ED" d="M837.985,193.488c-3.959-32.08-31.283-56.922-64.424-56.922l0,0c-17.687,0-34.61-7.195-46.862-19.967
	l-39.792-41.474c-12.239-12.763-29.169-19.967-46.861-19.967h-51.169H313.598c-15.538,0-28.975,10.838-32.253,26.024
	l-24.246,112.306h-2.036c-5.466,0-9.896,4.431-9.896,9.886v23.627c0,7.761,6.296,14.052,14.062,14.052h42.367
	c-0.654-3.766-1.026-7.658-1.026-11.624c0-37.24,30.195-67.42,67.43-67.42c22.991,0,43.295,11.517,55.457,29.101h165.42h12.514
	h79.812c12.156-17.584,32.452-29.101,55.451-29.101c37.22,0,67.419,30.181,67.419,67.42c0,3.966-0.371,7.858-1.016,11.624h30.763
	c7.751,0,14.037-6.291,14.037-14.052v-23.627C847.857,197.919,843.448,193.488,837.985,193.488z"/>
<path fill="#F7941D" d="M736.654,176.129c-19.704,0-36.896,10.697-46.138,26.591h-74.755h-26.885H414.128
	c-9.221-15.894-26.42-26.591-46.128-26.591c-20.91,0-39.007,12.045-47.75,29.585h61.451l13.701,23.714l-13.701,23.728H320.25
	c8.743,17.535,26.84,29.59,47.75,29.59c19.708,0,36.907-10.696,46.128-26.596h174.749h60.776h40.863
	c9.241,15.899,26.434,26.596,46.138,26.596c29.44,0,53.309-23.876,53.309-53.317C789.963,199.989,766.094,176.129,736.654,176.129z
	 M750.351,253.156h-27.396l-13.702-23.728l13.702-23.714h27.396l13.706,23.714L750.351,253.156z"/>
<g>
	<path fill="#E89400" d="M183.223,77.729c7.4,16.572,22.053,28.783,39.677,33.087l41.214,9.979l4.478-20.774
		C222.733,88.073,183.223,77.729,183.223,77.729z"/>
	<path fill="#E89400" d="M275.577,70.705c-55.648-14.35-107.164-27.607-107.164-27.607l0.025,0.02
		c7.395,16.553,22.029,28.754,39.627,33.072l62.384,15.25l2.936-13.549C273.912,75.408,274.649,73.01,275.577,70.705z"/>
	<path fill="#E89400" d="M198.042,112.383c7.385,16.548,22.034,28.774,39.662,33.073l11.482,2.647
		c4.773-0.547,7.537-0.85,7.537-0.85s0.562-0.395,1.924-1.163l3.639-16.812C217.614,117.678,198.042,112.383,198.042,112.383z"/>
</g>
<g>
	<path fill="#FFFFFF" d="M455.408,150.711v-8.767h37.62c2.347,0,4.153-0.597,5.419-1.794c1.265-1.196,1.898-2.784,1.898-4.763
		c0-2.162-0.633-3.785-1.898-4.866c-1.266-1.081-3.072-1.622-5.419-1.622h-23.055c-2.347,0-4.476-0.356-6.385-1.07
		c-1.91-0.713-3.521-1.702-4.832-2.968c-1.312-1.265-2.324-2.772-3.037-4.521c-0.714-1.748-1.07-3.658-1.07-5.729
		c0-2.024,0.333-3.9,1.001-5.626c0.667-1.726,1.657-3.209,2.968-4.452s2.934-2.22,4.866-2.934c1.933-0.713,4.142-1.07,6.626-1.07
		h36.033v8.766h-36.033c-2.025,0-3.589,0.542-4.694,1.623c-1.104,1.082-1.656,2.588-1.656,4.521s0.563,3.429,1.691,4.487
		c1.127,1.059,2.658,1.588,4.59,1.588h22.986c5.108,0,8.985,1.197,11.631,3.589c2.646,2.393,3.969,6.029,3.969,10.906
		c0,2.117-0.322,4.072-0.966,5.867c-0.646,1.795-1.611,3.348-2.899,4.659c-1.289,1.312-2.911,2.336-4.866,3.072
		c-1.957,0.737-4.246,1.104-6.869,1.104H455.408z"/>
	<path fill="#FFFFFF" d="M512.77,100.529h10.699l22.778,38.655l22.71-38.655h10.078l-28.923,48.043
		c-0.507,0.875-1.104,1.565-1.794,2.071s-1.496,0.759-2.416,0.759c-0.967,0-1.795-0.253-2.485-0.759s-1.289-1.196-1.795-2.071
		L512.77,100.529z"/>
	<path fill="#FFFFFF" d="M584.419,150.711v-50.183h8.767v41.416h33.754v8.767H584.419z"/>
</g>
<g>
	<polygon fill="#6B6B6B" points="366.251,361.81 202.78,361.81 144.768,361.81 144.768,365.947 202.78,365.947 363.252,365.947 
		421.264,365.947 424.263,361.81 	"/>
	<rect x="144.768" y="374.455" fill="#6B6B6B" width="10.135" height="4.138"/>
	<rect x="164.105" y="374.455" fill="#6B6B6B" width="10.135" height="4.138"/>
	<rect x="183.443" y="374.455" fill="#6B6B6B" width="10.135" height="4.138"/>
	<rect x="202.78" y="374.455" fill="#6B6B6B" width="10.135" height="4.138"/>
	<rect x="222.118" y="374.455" fill="#6B6B6B" width="10.135" height="4.138"/>
	<rect x="241.455" y="374.455" fill="#6B6B6B" width="10.135" height="4.138"/>
	<rect x="260.792" y="374.455" fill="#6B6B6B" width="10.135" height="4.138"/>
	<rect x="280.129" y="374.455" fill="#6B6B6B" width="10.135" height="4.138"/>
	<rect x="299.467" y="374.455" fill="#6B6B6B" width="10.135" height="4.138"/>
	<rect x="318.805" y="374.455" fill="#6B6B6B" width="10.134" height="4.138"/>
	<rect x="338.142" y="374.455" fill="#6B6B6B" width="10.135" height="4.138"/>
	<rect x="357.356" y="374.455" fill="#6B6B6B" width="10.135" height="4.138"/>
	<rect x="376.694" y="374.455" fill="#6B6B6B" width="10.135" height="4.138"/>
	<rect x="396.032" y="374.455" fill="#6B6B6B" width="10.135" height="4.138"/>
	<polygon fill="#6B6B6B" points="208.036,387.199 144.768,387.199 144.768,391.341 208.036,391.341 344.901,391.341 
		408.169,391.341 411.168,387.199 347.9,387.199 	"/>
</g>
<g>
</g>
<g>
</g>
<g>
</g>
<g>
</g>
<g>
</g>
<g>
</g>
</svg>
