<?xml version="1.0" encoding="utf-8"?>
<!-- Generator: Adobe Illustrator 16.0.0, SVG Export Plug-In . SVG Version: 6.00 Build 0)  -->
<!DOCTYPE svg PUBLIC "-//W3C//DTD SVG 1.1//EN" "http://www.w3.org/Graphics/SVG/1.1/DTD/svg11.dtd">
<svg version="1.1" id="Layer_1" xmlns="http://www.w3.org/2000/svg" xmlns:xlink="http://www.w3.org/1999/xlink" x="0px" y="0px"
	 width="1024px" height="435px" viewBox="0 0 1024 435" enable-background="new 0 0 1024 435" xml:space="preserve">
<g>
	<g>
		<path fill="#F7941D" d="M263.568,192.62v-6.351h27.252c1.7,0,3.008-0.433,3.925-1.3c0.917-0.866,1.375-2.017,1.375-3.45
			c0-1.566-0.458-2.742-1.375-3.525c-0.917-0.783-2.225-1.175-3.925-1.175h-16.702c-1.7,0-3.242-0.258-4.625-0.775
			c-1.384-0.516-2.55-1.233-3.5-2.15c-0.95-0.917-1.684-2.008-2.2-3.275c-0.518-1.267-0.775-2.65-0.775-4.15
			c0-1.467,0.242-2.825,0.725-4.076c0.483-1.25,1.2-2.325,2.15-3.225s2.125-1.608,3.525-2.125c1.4-0.517,3-0.775,4.8-0.775h26.103
			v6.351h-26.103c-1.467,0-2.6,0.393-3.4,1.175c-0.8,0.784-1.2,1.875-1.2,3.275c0,1.4,0.408,2.484,1.225,3.25
			c0.817,0.768,1.925,1.15,3.326,1.15h16.651c3.7,0,6.508,0.867,8.426,2.6c1.917,1.734,2.875,4.368,2.875,7.901
			c0,1.534-0.234,2.95-0.7,4.25c-0.467,1.3-1.167,2.425-2.1,3.375c-0.934,0.95-2.109,1.692-3.525,2.225
			c-1.417,0.534-3.075,0.8-4.976,0.8H263.568z"/>
		<path fill="#F7941D" d="M305.122,156.267h7.75l16.501,28.003l16.452-28.003h7.301l-20.952,34.803c-0.367,0.634-0.8,1.134-1.3,1.5
			c-0.5,0.366-1.084,0.55-1.75,0.55c-0.7,0-1.3-0.184-1.8-0.55c-0.5-0.367-0.934-0.867-1.3-1.5L305.122,156.267z"/>
		<path fill="#F7941D" d="M357.026,192.62v-36.354h6.351v30.003h24.452v6.351H357.026z"/>
	</g>
</g>
<path fill="#F7941D" d="M113.154,138.27c-38.173,0-70.494,24.999-81.524,59.515h19.25h9.39h25.603v68.979h17.683v-68.979v-12.089
	v-5.585H61.771c12.376-14.532,30.801-23.75,51.383-23.75c37.271,0,67.5,30.211,67.5,67.495c0,3.289-0.243,6.522-0.703,9.689h18.225
	c0.356-3.181,0.564-6.414,0.564-9.689C198.741,176.586,160.415,138.27,113.154,138.27z"/>
<path fill="#0674ED" d="M175.759,249.085h-36.36V180.11h-17.674v68.975v12.099v5.579h43.533
	c-12.385,15.02-31.126,24.58-52.104,24.58c-37.28,0-67.491-30.212-67.491-67.487c0-3.584,0.278-7.09,0.816-10.528H28.237
	c-0.425,3.446-0.664,6.964-0.664,10.528c0,47.265,38.313,85.572,85.582,85.572c38.482,0,71.023-25.394,81.793-60.343H175.759
	L175.759,249.085z"/>
<path fill="#0674ED" d="M323.846,224.438h-23.581v66.722h-13.808v-66.722h-23.689v-13.8h23.689h13.808h23.581V224.438z"/>
<path fill="#0674ED" d="M465.206,280.347c-3.836,3.835-8.289,6.847-13.344,9.021c-5.06,2.187-10.506,3.28-16.329,3.28
	c-5.754,0-11.178-1.094-16.282-3.28c-5.103-2.175-9.546-5.178-13.339-8.966c-3.792-3.793-6.791-8.245-8.974-13.344
	c-2.187-5.107-3.272-10.527-3.272-16.272c0-5.763,1.085-11.179,3.272-16.281c2.183-5.1,5.182-9.547,8.974-13.331
	c3.793-3.81,8.236-6.795,13.339-8.979c5.104-2.191,10.528-3.276,16.282-3.276c5.823,0,11.27,1.084,16.329,3.276
	c5.055,2.183,9.508,5.19,13.344,9.021l-9.781,9.781c-2.686-2.682-5.715-4.734-9.086-6.153c-3.376-1.414-6.978-2.126-10.805-2.126
	c-3.762,0-7.325,0.712-10.705,2.126c-3.372,1.419-6.401,3.472-9.083,6.153c-2.69,2.682-4.734,5.711-6.153,9.092
	c-1.423,3.371-2.126,6.938-2.126,10.696c0,3.753,0.703,7.342,2.126,10.753c1.418,3.41,3.463,6.457,6.153,9.144
	c2.682,2.689,5.711,4.712,9.083,6.088c3.38,1.38,6.943,2.082,10.705,2.082c3.828,0,7.429-0.702,10.805-2.082
	c3.372-1.376,6.4-3.398,9.086-6.088L465.206,280.347z"/>
<path fill="#0674ED" d="M535.244,210.638v80.521h-13.795v-33.36h-33.47v33.36h-13.804v-80.521h13.804v33.357h33.47v-33.357H535.244z
	"/>
<path fill="#0674ED" d="M608.745,210.525v80.518h-14.954l-32.319-55.099v55.099h-13.791v-80.518h14.941l32.315,55.097v-55.097
	H608.745z"/>
<path fill="#0674ED" d="M659.581,208.919c5.759,0,11.174,1.084,16.272,3.276c5.099,2.183,9.547,5.168,13.348,8.979
	c3.793,3.784,6.778,8.231,8.97,13.331c2.188,5.103,3.28,10.519,3.28,16.281c0,5.745-1.093,11.165-3.28,16.272
	c-2.191,5.099-5.177,9.551-8.97,13.344c-3.801,3.788-8.249,6.791-13.348,8.966c-5.099,2.187-10.514,3.28-16.272,3.28
	c-5.75,0-11.174-1.094-16.273-3.28c-5.098-2.175-9.551-5.178-13.339-8.966c-3.797-3.793-6.791-8.245-8.974-13.344
	c-2.183-5.107-3.276-10.527-3.276-16.272c0-5.763,1.094-11.179,3.276-16.281c2.183-5.1,5.177-9.547,8.974-13.331
	c3.788-3.81,8.241-6.795,13.339-8.979C648.407,210.004,653.831,208.919,659.581,208.919z M659.581,222.719
	c-3.754,0-7.324,0.712-10.696,2.126c-3.373,1.419-6.405,3.472-9.092,6.153c-2.686,2.682-4.726,5.711-6.148,9.092
	c-1.419,3.371-2.126,6.938-2.126,10.696c0,3.753,0.707,7.342,2.126,10.753c1.423,3.41,3.463,6.457,6.148,9.144
	c2.687,2.689,5.719,4.712,9.092,6.088c3.372,1.38,6.942,2.082,10.696,2.082c3.758,0,7.347-0.702,10.757-2.082
	c3.402-1.376,6.457-3.398,9.148-6.088c2.682-2.687,4.712-5.733,6.083-9.144c1.389-3.411,2.083-7,2.083-10.753
	c0-3.758-0.694-7.325-2.083-10.696c-1.371-3.381-3.401-6.41-6.083-9.092c-2.691-2.682-5.746-4.734-9.148-6.153
	C666.928,223.431,663.339,222.719,659.581,222.719z"/>
<path fill="#F7941D" d="M755.851,277.352v13.808h-31.626h-13.804v-13.808V210.75h13.804v66.601H755.851z"/>
<path fill="#F7941D" d="M848.098,291.159h-15.171l-6.214-13.808l-6.219-13.808l-16.333-36.113l-28.758,63.729h-15.179l36.347-80.521
	h15.18L848.098,291.159z"/>
<path fill="#F7941D" d="M911.245,248.135c3.071,2.148,5.523,4.912,7.368,8.283c1.831,3.381,2.756,7.056,2.756,11.04v0.229
	c0,3.221-0.621,6.271-1.845,9.144c-1.225,2.881-2.907,5.368-5.064,7.477c-2.144,2.113-4.63,3.784-7.46,5.003
	c-2.851,1.233-5.884,1.849-9.099,1.849h-22.891l5.528-13.808h17.362c2.686,0,4.968-0.946,6.851-2.815
	c1.867-1.88,2.821-4.157,2.821-6.849v-0.229c0-2.682-0.954-4.965-2.821-6.848c-1.883-1.875-4.165-2.812-6.851-2.812h-5.638h-22.539
	v19.553v13.808h-13.804v-33.36v-13.804v-33.357h36.343c3.221,0,6.274,0.616,9.156,1.849c2.855,1.223,5.364,2.907,7.464,5.046
	c2.109,2.152,3.779,4.648,5.004,7.481c1.228,2.843,1.844,5.871,1.844,9.092v0.226c0,2.612-0.398,5.081-1.211,7.42
	C913.718,244.086,912.625,246.221,911.245,248.135z M901.924,234.105c0-2.682-0.934-4.964-2.821-6.849
	c-1.874-1.873-4.156-2.819-6.839-2.819h-22.539v19.558h22.539c2.683,0,4.965-0.938,6.839-2.816c1.888-1.884,2.821-4.166,2.821-6.848
	V234.105z"/>
<path fill="#F7941D" d="M987.045,268.152c0,3.758-0.615,7.15-1.844,10.18c-1.228,3.024-2.981,5.594-5.229,7.707
	c-2.273,2.113-5.012,3.736-8.219,4.878c-3.22,1.149-6.83,1.731-10.822,1.731c-6.37,0-12.038-1.012-17.019-3.047
	c-4.991-2.026-9.087-4.353-12.308-6.961l9.543-9.546c2.539,2.3,5.363,4.065,8.51,5.289c1.917,0.769,3.719,1.268,5.411,1.506
	c1.688,0.218,3.06,0.339,4.136,0.339c2,0,3.827-0.247,5.472-0.746s3.072-1.172,4.309-2.014c2.604-1.918,3.911-4.448,3.911-7.599
	c0-1.909-0.695-3.641-2.079-5.172c-1.076-1.225-2.447-2.223-4.131-2.985c-1.38-0.769-2.843-1.385-4.366-1.854
	c-1.545-0.447-2.916-0.872-4.148-1.254c-0.377-0.161-0.725-0.252-1.032-0.295c-0.305-0.034-0.569-0.122-0.813-0.278
	c-0.147,0-0.369-0.077-0.681-0.233c-1.614-0.469-3.936-1.268-6.961-2.418c-3.033-1.146-6.04-2.716-9.034-4.712
	c-6.974-4.679-10.458-10.428-10.458-17.254c0-4.525,0.781-8.335,2.353-11.452c1.57-3.099,3.628-5.631,6.157-7.584
	c2.53-1.958,5.346-3.359,8.444-4.201c3.111-0.841,6.152-1.258,9.144-1.258c5.528,0,10.163,0.646,13.925,1.953
	c3.763,1.302,6.739,2.604,8.97,3.906c1.145,0.703,2.127,1.362,2.934,2.017c0.807,0.647,1.51,1.246,2.122,1.784l-9.768,9.894
	c-2.066-2.066-4.184-3.646-6.328-4.722c-3.219-1.526-6.596-2.299-10.123-2.299c-1.527,0-3.063,0.189-4.596,0.576
	c-1.536,0.382-2.873,0.881-4.031,1.497c-3.38,2.07-5.06,4.791-5.06,8.158c0,2.074,0.689,3.836,2.069,5.303
	c0.994,1.146,2.374,2.179,4.148,3.104c1.445,0.763,2.985,1.375,4.6,1.835c1.61,0.46,3.099,0.877,4.488,1.271l1.37,0.334
	c0.391,0.156,1.12,0.391,2.196,0.694c1.059,0.308,2.334,0.772,3.788,1.38c1.453,0.616,3.042,1.345,4.769,2.188
	c1.732,0.85,3.428,1.84,5.121,2.994C983.322,255.689,987.045,261.487,987.045,268.152z"/>
<rect x="330.563" y="212.156" fill="#F7941D" width="55.965" height="13.921"/>
<rect x="330.563" y="243.656" fill="#F7941D" width="55.965" height="13.917"/>
<rect x="330.563" y="274.258" fill="#F7941D" width="55.965" height="13.912"/>
<polygon fill="#F7941D" points="789.19,260.584 818.65,260.584 783.076,274.145 "/>
<rect x="229.412" y="156.057" fill="#BCBCBC" width="3.215" height="135.059"/>
<g>
	<g>
		<path fill="#6B6B6B" d="M413.204,306.389l-1.899,3.013c0,0-2.278-1.427-5.222-1.427c-4.747,0-7.912,3.171-7.912,7.927
			s3.165,7.927,7.912,7.927c2.215,0,3.798-0.793,3.798-0.793v-5.231h-4.589v-3.646h9.019v10.718c0,0-3.481,2.758-8.544,2.758
			c-7.121,0-12.026-4.914-12.026-11.731s4.905-11.731,12.026-11.731C410.355,304.17,413.204,306.389,413.204,306.389z"/>
		<path fill="#6B6B6B" d="M441.941,326.999h-4.747l-1.741-4.439h-10.918l-1.741,4.439h-4.747l9.178-22.195h5.538L441.941,326.999z
			 M426.118,318.755h7.753l-3.798-9.195h-0.158L426.118,318.755z"/>
		<path fill="#6B6B6B" d="M462.103,304.804v3.646h-7.595v18.549h-4.43V308.45h-7.595v-3.646H462.103z"/>
		<path fill="#6B6B6B" d="M466.82,304.804h17.722v3.646h-13.292v5.707h9.177v3.646h-9.177v5.549h13.608v3.646H466.82V304.804z"/>
		<path fill="#6B6B6B" d="M504.482,310.511l-4.589,16.488h-5.854l-6.171-22.195h4.747l4.589,16.646h0.158l4.526-16.646h5.348
			l4.525,16.646h0.158l4.589-16.646h4.747l-6.171,22.195h-5.855l-4.589-16.488H504.482z"/>
		<path fill="#6B6B6B" d="M546.955,326.999h-4.747l-1.74-4.439H529.55l-1.74,4.439h-4.747l9.177-22.195h5.539L546.955,326.999z
			 M531.132,318.755h7.754l-3.798-9.195h-0.158L531.132,318.755z"/>
		<path fill="#6B6B6B" d="M564.648,304.804h4.747l-9.019,15.22v6.976h-4.431v-6.976l-9.02-15.22h4.747l6.329,10.78h0.316
			L564.648,304.804z"/>
		<path fill="#6B6B6B" d="M601.932,304.804v3.646h-7.595v18.549h-4.431V308.45h-7.596v-3.646H601.932z"/>
		<path fill="#6B6B6B" d="M616.618,304.17c6.962,0,11.867,4.914,11.867,11.731s-4.905,11.731-11.867,11.731
			s-11.867-4.914-11.867-11.731S609.656,304.17,616.618,304.17z M616.618,307.975c-4.114,0-7.278,3.171-7.278,7.927
			s3.164,7.927,7.278,7.927s7.278-3.171,7.278-7.927S620.732,307.975,616.618,307.975z"/>
		<path fill="#6B6B6B" d="M660.705,306.864l-1.74,3.013c0,0-2.531-1.902-5.854-1.902c-3.007,0-4.431,1.427-4.431,2.536
			c0,4.439,12.501,2.22,12.501,9.988c0,3.805-3.323,7.134-9.652,7.134c-5.127,0-8.387-3.012-8.387-3.012l1.898-3.013
			c0,0,2.563,2.378,6.172,2.378c3.639,0,5.38-1.743,5.38-3.487c0-3.964-12.501-1.902-12.501-9.988c0-3.171,3.165-6.341,8.703-6.341
			C657.541,304.17,660.705,306.864,660.705,306.864z"/>
		<path fill="#6B6B6B" d="M677.512,323.828l-5.538-11.891h-0.158l-1.74,15.062h-4.589l2.689-22.195h4.905l6.33,13.793h0.158
			l6.329-13.793h4.905l2.689,22.195h-4.588l-1.741-15.062h-0.158l-5.538,11.891H677.512z"/>
		<path fill="#6B6B6B" d="M720.966,326.999h-4.747l-1.74-4.439h-10.918l-1.74,4.439h-4.747l9.177-22.195h5.539L720.966,326.999z
			 M705.143,318.755h7.754l-3.798-9.195h-0.158L705.143,318.755z"/>
		<path fill="#6B6B6B" d="M735.526,304.804c6.013,0,9.178,3.171,9.178,7.293c0,4.756-4.114,6.341-4.114,6.341v0.159l5.854,8.402
			h-5.222l-5.222-7.61h-6.171v7.61h-4.431v-22.195H735.526z M735.526,308.45h-5.696v7.293h5.696c3.007,0,4.589-1.903,4.589-3.646
			C740.115,310.035,738.533,308.45,735.526,308.45z"/>
		<path fill="#6B6B6B" d="M768.662,304.804v3.646h-7.595v18.549h-4.431V308.45h-7.596v-3.646H768.662z"/>
		<path fill="#6B6B6B" d="M800.153,306.864l-1.74,3.013c0,0-2.531-1.902-5.854-1.902c-3.007,0-4.431,1.427-4.431,2.536
			c0,4.439,12.501,2.22,12.501,9.988c0,3.805-3.323,7.134-9.652,7.134c-5.127,0-8.387-3.012-8.387-3.012l1.898-3.013
			c0,0,2.563,2.378,6.172,2.378c3.639,0,5.38-1.743,5.38-3.487c0-3.964-12.501-1.902-12.501-9.988c0-3.171,3.165-6.341,8.703-6.341
			C796.989,304.17,800.153,306.864,800.153,306.864z"/>
		<path fill="#6B6B6B" d="M816.391,304.17c6.962,0,11.867,4.914,11.867,11.731s-4.905,11.731-11.867,11.731
			s-11.867-4.914-11.867-11.731S809.429,304.17,816.391,304.17z M816.391,307.975c-4.114,0-7.278,3.171-7.278,7.927
			s3.164,7.927,7.278,7.927s7.278-3.171,7.278-7.927S820.505,307.975,816.391,307.975z"/>
		<path fill="#6B6B6B" d="M833.704,304.804h4.431v18.549h12.5v3.646h-16.931V304.804z"/>
		<path fill="#6B6B6B" d="M855.226,318.121v-13.317h4.431v13.317c0,3.487,2.216,5.707,5.696,5.707c3.481,0,5.696-2.22,5.696-5.707
			v-13.317h4.431v13.317c0,5.549-3.956,9.512-10.127,9.512S855.226,323.67,855.226,318.121z"/>
		<path fill="#6B6B6B" d="M899.691,304.804v3.646h-7.595v18.549h-4.431V308.45h-7.596v-3.646H899.691z"/>
		<path fill="#6B6B6B" d="M908.84,326.999h-4.431v-22.195h4.431V326.999z"/>
		<path fill="#6B6B6B" d="M926.151,304.17c6.962,0,11.867,4.914,11.867,11.731s-4.905,11.731-11.867,11.731
			s-11.867-4.914-11.867-11.731S919.189,304.17,926.151,304.17z M926.151,307.975c-4.114,0-7.278,3.171-7.278,7.927
			s3.164,7.927,7.278,7.927s7.278-3.171,7.278-7.927S930.266,307.975,926.151,307.975z"/>
		<path fill="#6B6B6B" d="M959.288,320.023v-15.22h4.431v22.195h-4.747l-10.918-15.22h-0.158v15.22h-4.431v-22.195h4.747
			l10.918,15.22H959.288z"/>
		<path fill="#6B6B6B" d="M986.442,306.864l-1.74,3.013c0,0-2.531-1.902-5.854-1.902c-3.007,0-4.431,1.427-4.431,2.536
			c0,4.439,12.501,2.22,12.501,9.988c0,3.805-3.323,7.134-9.652,7.134c-5.127,0-8.387-3.012-8.387-3.012l1.898-3.013
			c0,0,2.563,2.378,6.172,2.378c3.639,0,5.38-1.743,5.38-3.487c0-3.964-12.501-1.902-12.501-9.988c0-3.171,3.165-6.341,8.703-6.341
			C983.278,304.17,986.442,306.864,986.442,306.864z"/>
	</g>
</g>
</svg>
