<svg xmlns="http://www.w3.org/2000/svg" viewBox="0 0 894 398.5"><g id="Layer_2" data-name="Layer 2"><g id="Layer_1-2" data-name="Layer 1"><path d="M261.3,369.3,259,374h-9.8l-11.9,23.7h-5.7L243.5,374h-9.8l2.3-4.7Z" style="fill:#6b6b6b"/><path d="M292.5,369.3l-14.2,28.4h-5.7l5.9-11.7H263.8l-5.9,11.7h-5.7l14.2-28.4h5.7l-6,12h14.7l6-12Z" style="fill:#6b6b6b"/><path d="M300.1,369.3h22.8l-2.3,4.7H303.5l-3.7,7.3h11.8l-2.3,4.7H297.5l-3.6,7.1h17.5l-2.3,4.7H285.9Z" style="fill:#6b6b6b"/><path d="M360.9,371.9l-4.2,3.8a8.34,8.34,0,0,0-6.3-2.4c-3.9,0-6.6,1.8-7.3,3.2-2.8,5.7,14.7,2.8,9.7,12.8-2.4,4.9-8.9,9.1-17,9.1-6.6,0-8.9-3.8-8.9-3.8l4.4-3.8s1.8,3,6.4,3,8.1-2.2,9.2-4.5c2.5-5.1-14.9-2.4-9.7-12.8,2-4.1,8.1-8.1,15.3-8.1C358.6,368.5,360.9,371.9,360.9,371.9Z" style="fill:#6b6b6b"/><path d="M370.7,393.6l.5-15.2H371l-11.9,19.2h-5.9l17.7-28.4h6.3l-.7,17.6h.2l17-17.6H400l-10.8,28.4h-5.9l7.4-19.2h-.2l-14.8,15.2Z" style="fill:#6b6b6b"/><path d="M423.6,397.7h-6.1l.6-5.7H404l-5.1,5.7h-6.1l26.1-28.4H426Zm-15.1-10.6h10l1-11.7h-.2Z" style="fill:#6b6b6b"/><path d="M455.6,369.3c7.7,0,9.8,4.1,7.1,9.3a17.52,17.52,0,0,1-9.4,8.1l-.1.2,2.2,10.7h-6.7l-1.8-9.7h-8l-4.9,9.7h-5.7l14.2-28.4h13.1Zm-2.4,4.7h-7.3l-4.7,9.3h7.3a9.35,9.35,0,0,0,8.2-4.7C458.1,376,457.1,374,453.2,374Z" style="fill:#6b6b6b"/><path d="M497.2,369.3l-2.3,4.7h-9.8l-11.9,23.7h-5.7L479.4,374h-9.8l2.3-4.7Z" style="fill:#6b6b6b"/><path d="M530.3,376.6l-16.5,21.1h-7.5l6.3-28.4h6.1l-4.8,21.3h.2l16.5-21.3h6.9l-4.8,21.3h.2l16.6-21.3h6.1l-22.2,28.4h-7.5l4.7-21.1Z" style="fill:#6b6b6b"/><path d="M573.4,397.7h-6.1l.6-5.7H553.8l-5.1,5.7h-6.1l26.1-28.4h7.1Zm-15.1-10.6h10l1-11.7h-.2Z" style="fill:#6b6b6b"/><path d="M609.4,369.3h6.1l-21.4,19.4-4.5,8.9h-5.7l4.5-8.9-1.9-19.4h6.1l1.2,13.8h.4Z" style="fill:#6b6b6b"/><path d="M655.4,369.3l-2.3,4.7h-9.8l-11.9,23.7h-5.7L637.6,374h-9.8l2.3-4.7Z" style="fill:#6b6b6b"/><path d="M673.7,368.5c9,0,12.1,6.3,7.8,15s-13.8,15-22.8,15-12.1-6.3-7.8-15S664.8,368.5,673.7,368.5Zm-2.4,4.9c-5.3,0-11.4,4.1-14.5,10.1s-1,10.1,4.3,10.1,11.4-4.1,14.5-10.1S676.6,373.4,671.3,373.4Z" style="fill:#6b6b6b"/><path d="M720.5,369.3c7.7,0,9.8,4.1,7.1,9.3a17.52,17.52,0,0,1-9.4,8.1l-.1.2,2.2,10.7h-6.7l-1.8-9.7h-7.9l-4.9,9.7h-5.7l14.2-28.4h13Zm-2.3,4.7h-7.3l-4.7,9.3h7.3a9.65,9.65,0,0,0,8.3-4.7C723.1,376,722,374,718.2,374Z" style="fill:#6b6b6b"/><path d="M739.5,369.3h22.8L760,374H742.9l-3.7,7.3H751l-2.3,4.7H736.9l-3.6,7.1h17.5l-2.3,4.7H725.3Z" style="fill:#6b6b6b"/><path d="M781.7,397.7h-6.1l.6-5.7H762.1l-5.1,5.7h-6.1L777,369.3h7.1Zm-15.1-10.6h10l1-11.7h-.2Z" style="fill:#6b6b6b"/><path d="M822.5,371.3l-4.4,3.8a9,9,0,0,0-5.8-1.8c-6.1,0-12.2,4.1-15.3,10.1s-1,10.1,5.1,10.1a20.84,20.84,0,0,0,8.3-2.2l.5,3.8a26.15,26.15,0,0,1-11.6,3.2c-9.4,0-12.5-6.3-8.2-15s13.8-15,23.2-15C820.2,368.5,822.5,371.3,822.5,371.3Z" style="fill:#6b6b6b"/><path d="M855.4,369.3l-14.2,28.4h-5.7l5.9-11.7H826.7l-5.9,11.7h-5.7l14.2-28.4H835l-6,12h14.7l6-12Z" style="fill:#6b6b6b"/><path d="M853.3,392c1.8,0,2.6,1.4,1.7,3a6,6,0,0,1-4.8,3c-1.8,0-2.5-1.4-1.7-3A5.87,5.87,0,0,1,853.3,392Z" style="fill:#6b6b6b"/><path d="M864.2,392c1.8,0,2.5,1.4,1.7,3a6,6,0,0,1-4.8,3c-1.8,0-2.6-1.4-1.7-3A5.87,5.87,0,0,1,864.2,392Z" style="fill:#6b6b6b"/><path d="M867.1,253.7c3,3.6-16.3-76.5-172.6-99.2C556.7,140.4,423.8,51,307.1,76.3s-138.5,41.4-138.5,41.4S13.2,134.6,1.2,145.8,71.5,272.4,71.5,272.4s-30.2-73.7-26.7-98S146.1,148,201.6,159.9,385.1,205.6,447,203.5s101.2-24.6,101.2-24.6-85.8,16.2-161.7,2.1-159.6-47.8-149.8-58.4,94.2-30.2,142-25.3,214.5,63.3,291.8,70.3C756.4,174.8,819.7,197.4,867.1,253.7Z" style="fill:#0674ed"/><path d="M82.7,36s95.5,25,164.4,42.8c-16.6,4.2-30.3,8-41.4,11.4L124,70.4A61.1,61.1,0,0,1,82.7,36Z" style="fill:#e89400"/><path d="M297.7,66.9c-10.4,2.3-20.1,4.4-29,6.5l-160.2-39A61.15,61.15,0,0,1,67.3,0h0S278.7,54.4,315.6,64C309.5,64.7,303.6,65.7,297.7,66.9Z" style="fill:#e89400"/><path d="M98.1,72s27.2,7.4,90.5,23.7c-23.3,8-29.4,12.6-29.4,12.6s-2.9.3-7.9.9l-11.9-2.8A60.6,60.6,0,0,1,98.1,72Z" style="fill:#e89400"/><path d="M64.2,276.6l9-22.3H185.4l-9,22.3H134.2l-30.6,75.7H74.2l30.6-75.7Z" style="fill:#0674ed"/><polygon points="172.29 299.2 171 299.2 145.19 299.2 136 321.5 171 321.5 172.29 321.5 198.19 321.5 207.4 299.2 172.29 299.2" style="fill:#0674ed"/><path d="M235.8,352.3H206.4l39.5-98h77.9c13.3,0,21.3,2.4,24.2,7.3s2.5,11.9-1.2,20.9l-3.2,7.8c-3.7,9.2-9,16.2-15.7,20.9-6.9,4.8-16.8,7.3-29.9,7.3H249.5Zm57.4-56.1c7.9,0,13.4-1.2,16.5-3.7,3.3-2.6,5.2-4.6,5.9-6.1.4-1.5.1-3.5-1-6.1s-5.6-3.7-13.5-3.7H266.4l-8,19.6Z" style="fill:#e89400"/><path d="M361.1,352.3H331.7l39.5-98h29.4Z" style="fill:#e89400"/><path d="M483.1,352.3H405.6a56.72,56.72,0,0,1-15.8-1.8c-4-1.2-6.9-2.9-8.6-5.2a13.08,13.08,0,0,1-2.3-8.8,40.51,40.51,0,0,1,3.2-12.4l28.2-69.8H440l-24.2,60.1c-2.1,5.1-2.5,8.9-1.1,11.6s5.7,4,12.8,4H492l-3,7.8Z" style="fill:#e89400"/><path d="M616.3,324.1c-3.5,9-8.7,16-15.7,20.9-6.6,4.8-16.6,7.3-29.9,7.3H527.5c-11.5,0-19.3-2.2-23.3-6.5s-4.1-11.6-.2-21.7l16.9-41.5c3.8-9.5,9.4-16.5,16.7-21s17.1-7,29.4-7.2h43.2c13.3,0,21.3,2.4,24.2,7.3s2.5,11.9-1.2,20.9Zm-25.6-9.5,9.1-22.5c2-5.4,2.5-9.3,1.4-11.8s-5.6-3.7-13.5-3.7H571.2c-7.1,0-12.4,1.3-16,4s-6.3,6.5-8.4,11.6l-9,22.3c-2.1,5.1-2.5,8.9-1.1,11.6s5.7,4,12.8,4h16.6c7.8,0,13.2-1.2,16.4-3.7A31.35,31.35,0,0,0,590.7,314.6Z" style="fill:#e89400"/><path d="M645.4,276.6l9-22.3H766.6l-9,22.3H715.4l-30.6,75.7H655.4L686,276.6Z" style="fill:#e89400"/><path d="M861.6,334.2q-4.05,6.45-12.3,12.3a32.44,32.44,0,0,1-18.9,5.7H736.8l9-22.3h77.5c2.1,0,3.4-.5,3.7-1.5.2-.4.3-.7.2-.8.2-1.7,0-2.6-.7-2.9l-56.4-24.5c-7.1-2.8-8.8-8.6-5.2-17.2q1.2-3,2.1-5.1a15.16,15.16,0,0,1,1.8-3.2c.9-.9,1.8-2,2.8-3.2a32.66,32.66,0,0,0,2.8-4.1c2-3.1,6.6-6.1,13.7-9a61.66,61.66,0,0,1,23.1-4.2H894l-9.3,23H801.9q-2.7,0-4.2,3c-.3,1.4-.3,2,0,2L860,309.9q6.15,2.7,5.4,10.5a28.34,28.34,0,0,1-2.4,10.8l-.7,1.5A5.23,5.23,0,0,1,861.6,334.2Z" style="fill:#e89400"/><path d="M75.3,244.8v-5.6H99.2a5,5,0,0,0,3.4-1.1,4.07,4.07,0,0,0,1.2-3,3.85,3.85,0,0,0-1.2-3.1,4.94,4.94,0,0,0-3.4-1H84.6a11,11,0,0,1-4.1-.7,10.75,10.75,0,0,1-3.1-1.9,8.12,8.12,0,0,1-1.9-2.9,8.57,8.57,0,0,1-.7-3.6,10.46,10.46,0,0,1,.6-3.6,7.74,7.74,0,0,1,1.9-2.8,9.55,9.55,0,0,1,3.1-1.9,10.88,10.88,0,0,1,4.2-.7h22.9v5.6H84.6a4,4,0,0,0-3,1,3.84,3.84,0,0,0-1.1,2.9,3.47,3.47,0,0,0,1.1,2.8,4,4,0,0,0,2.9,1H99.1c3.2,0,5.7.8,7.4,2.3s2.5,3.8,2.5,6.9a11,11,0,0,1-.6,3.7,9.23,9.23,0,0,1-1.8,3,7.41,7.41,0,0,1-3.1,1.9,11.61,11.61,0,0,1-4.4.7H75.3Z" style="fill:#f7941d"/><path d="M111.7,213h6.8L133,237.5,147.4,213h6.4l-18.4,30.5a3.61,3.61,0,0,1-1.1,1.3,2.46,2.46,0,0,1-1.5.5,3,3,0,0,1-1.6-.5,3.48,3.48,0,0,1-1.1-1.3Z" style="fill:#f7941d"/><path d="M157.1,244.8V213h5.6v26.3h21.4v5.6h-27Z" style="fill:#f7941d"/><polygon points="184 370 73.09 370 73.09 373.8 182 373.8 184 370" style="fill:#6b6b6b"/><polygon points="204.09 370 93.19 370 93.19 373.8 202.09 373.8 204.09 370" style="fill:#6b6b6b"/><rect x="73.1" y="381.7" width="9.4" height="3.8" style="fill:#6b6b6b"/><rect x="91" y="381.7" width="9.4" height="3.8" style="fill:#6b6b6b"/><rect x="108.8" y="381.7" width="9.4" height="3.8" style="fill:#6b6b6b"/><rect x="126.7" y="381.7" width="9.4" height="3.8" style="fill:#6b6b6b"/><rect x="144.5" y="381.7" width="9.4" height="3.8" style="fill:#6b6b6b"/><rect x="162.4" y="381.7" width="9.4" height="3.8" style="fill:#6b6b6b"/><rect x="180.6" y="381.7" width="9.4" height="3.8" style="fill:#6b6b6b"/><path d="M177.8,393.4H73.1v3.8H175.8Z" style="fill:#6b6b6b"/><path d="M196.9,393.4H92.2v3.8H194.9C194.9,397,196.9,393.4,196.9,393.4Z" style="fill:#6b6b6b"/></g></g></svg>