<?xml version="1.0" encoding="utf-8"?>
<!-- Generator: Adobe Illustrator 16.0.0, SVG Export Plug-In . SVG Version: 6.00 Build 0)  -->
<!DOCTYPE svg PUBLIC "-//W3C//DTD SVG 1.1//EN" "http://www.w3.org/Graphics/SVG/1.1/DTD/svg11.dtd">
<svg version="1.1" id="Layer_1" xmlns="http://www.w3.org/2000/svg" xmlns:xlink="http://www.w3.org/1999/xlink" x="0px" y="0px"
	 width="1024px" height="435px" viewBox="0 0 1024 435" enable-background="new 0 0 1024 435" xml:space="preserve">
<g>
	<path fill-rule="evenodd" clip-rule="evenodd" fill="#0674ED" d="M258.167,204.52c0.503,3.923,0.745,7.925,0.745,11.97
		c0,53.359-43.251,96.601-96.589,96.601c-53.353,0-96.603-43.241-96.603-96.601c0-53.329,43.25-96.594,96.603-96.594
		c32.669,0,61.541,16.235,79.024,41.058l22.169-7.031c-20.968-33.863-58.446-56.409-101.193-56.409
		c-65.724,0-119,53.276-119,118.976c0,65.726,53.276,118.997,119,118.997c65.699,0,118.971-53.271,118.971-118.997
		c0-5.749-0.408-11.405-1.196-16.95L258.167,204.52L258.167,204.52z"/>
	<path fill-rule="evenodd" clip-rule="evenodd" fill="#0674ED" d="M163.928,254.088c31.748-34.819,75.44-58.569,124.582-64.795
		l9.731,16.98c-55.004,4.716-103.149,33.422-133.924,75.628L62.34,165.833l13.558-12.212L163.928,254.088L163.928,254.088z"/>
	<path fill-rule="evenodd" clip-rule="evenodd" fill="#E89400" d="M152.473,231.777c32.674-33.189,75.47-56.365,123.372-64.537
		l9.29,16.053c-47.162,6.551-89.307,28.793-121.003,61.268L152.473,231.777L152.473,231.777z"/>
	<path fill-rule="evenodd" clip-rule="evenodd" fill="#0674ED" d="M136.594,213.387c34.113-34.11,77.976-58.446,127.056-68.491
		l9.029,17.061c-48.055,8.673-90.987,32.085-123.928,65.396L136.594,213.387L136.594,213.387z"/>
	<g>
		<path fill="#0674ED" d="M442.287,312.32h-30.946l-40.535-115.944h32.261l23.095,81.51l20.488-71.055
			c2.326-6.969,6.979-10.455,13.952-10.455h22.663L442.287,312.32z"/>
		<path fill="#0674ED" d="M574.717,276.585h21.793c-3.199,12.2-9.304,21.504-18.314,27.889c-9,6.688-20.336,10.03-33.988,10.03
			c-16.559,0-29.504-5.378-38.803-16.13c-9.295-10.463-13.942-25.426-13.942-44.898c0-18.594,4.505-33.13,13.51-43.587
			c9.294-10.745,22.231-16.128,38.797-16.128c17.432,0,30.947,5.234,40.541,15.692c9.295,10.751,13.946,25.714,13.946,44.893
			c0,1.168,0,2.184,0,3.053c0,0.878,0,1.457,0,1.746c0,1.458-0.151,2.474-0.441,3.053h-75.402c0.28,9.015,2.464,15.689,6.527,20.047
			c3.778,4.652,9.446,6.979,17.009,6.979c4.937,0,9.156-1.017,12.637-3.048c0.868-0.294,1.676-0.798,2.396-1.533
			c0.723-0.717,1.529-1.523,2.402-2.397c0.29-0.873,1.372-2.022,3.266-3.484C568.535,277.297,571.227,276.585,574.717,276.585z
			 M522.413,242.581h44.456c-0.584-7.852-2.61-13.662-6.104-17.44c-3.774-4.062-9.152-6.103-16.121-6.103
			c-6.399,0-11.63,2.041-15.703,6.103C524.877,229.214,522.693,235.024,522.413,242.581z"/>
		<path fill="#0674ED" d="M608.634,312.32v-56.229c0-11.336,1.667-20.85,5.013-28.549c3.333-7.693,7.909-13.876,13.729-18.53
			c5.511-4.351,11.981-7.548,19.392-9.584c7.415-2.037,15.043-3.052,22.886-3.052c0.584,0,1.31,0,2.184,0c0.868,0,1.595,0,2.174,0
			v30.948h-10.025c-8.431,0-14.669,2.041-18.732,6.104c-4.082,4.073-6.114,10.458-6.114,19.179v59.713H608.634z"/>
		<path fill="#0674ED" d="M734.08,312.32c-9.589,0.58-19.984,0.438-31.169-0.437c-11.185-0.868-16.776-7.984-16.776-21.353V162.373
			h15.685c3.778,0,7.12,1.459,10.035,4.365c2.905,2.9,4.354,6.396,4.354,10.46v19.613h17.872v6.105c0,4.36-1.462,7.918-4.357,10.681
			c-2.915,2.758-6.39,4.142-10.463,4.142h-3.052v64.506c0,4.946,2.905,7.415,8.72,7.415h9.152V312.32z"/>
		<path fill="#0674ED" d="M822.918,276.585h21.798c-3.209,12.2-9.309,21.504-18.305,27.889c-9.02,6.688-20.355,10.03-34.008,10.03
			c-16.563,0-29.494-5.378-38.793-16.13c-9.305-10.463-13.957-25.426-13.957-44.898c0-18.594,4.51-33.13,13.521-43.587
			c9.294-10.745,22.234-16.128,38.802-16.128c17.432,0,30.942,5.234,40.526,15.692c9.299,10.751,13.951,25.714,13.951,44.893
			c0,1.168,0,2.184,0,3.053c0,0.878,0,1.457,0,1.746c0,1.458-0.143,2.474-0.437,3.053h-75.402
			c0.275,9.015,2.459,15.689,6.532,20.047c3.773,4.652,9.441,6.979,17.004,6.979c4.937,0,9.152-1.017,12.637-3.048
			c0.873-0.294,1.671-0.798,2.396-1.533c0.717-0.717,1.524-1.523,2.397-2.397c0.285-0.873,1.377-2.022,3.276-3.484
			C816.746,277.297,819.434,276.585,822.918,276.585z M770.614,242.581h44.456c-0.584-7.852-2.615-13.662-6.1-17.44
			c-3.788-4.062-9.152-6.103-16.131-6.103c-6.395,0-11.621,2.041-15.693,6.103C773.073,229.214,770.89,235.024,770.614,242.581z"/>
		<path fill="#0674ED" d="M963.953,312.32h-34.867l-20.493-36.618L887.24,312.32h-35.313l37.934-59.713l-44.195-88.381
			l62.059,67.019l72.246-79.554l-54.363,101.353L963.953,312.32z"/>
	</g>
	<text transform="matrix(1 0 0 1 366.4336 168)" fill="#F7941D" font-family="'GoodTimesRg-Regular'" font-size="65.1507">SVSK</text>
	<path fill="#E89400" d="M922.098,193.763c0,8.051-6.527,14.571-14.573,14.571c-8.051,0-14.578-6.52-14.578-14.571
		c0-8.056,6.527-14.576,14.578-14.576C915.57,179.187,922.098,185.707,922.098,193.763z"/>
	<rect x="324.099" y="120.588" fill="#BCBCBC" width="4.572" height="191.828"/>
</g>
</svg>
