<?xml version="1.0" encoding="utf-8"?>
<!-- Generator: Adobe Illustrator 24.1.0, SVG Export Plug-In . SVG Version: 6.00 Build 0)  -->
<svg version="1.1" id="Layer_1" xmlns="http://www.w3.org/2000/svg" xmlns:xlink="http://www.w3.org/1999/xlink" x="0px" y="0px"
	 viewBox="0 0 2517.4 3933.2" style="enable-background:new 0 0 2517.4 3933.2;" xml:space="preserve">
<style type="text/css">
	.st0{fill:#FFFFFF;}
	.st1{fill:#CECECE;}
	.st2{fill:#E0E0E0;}
	.st3{fill:#282828;}
	.st4{fill:#F4F4F4;}
	.st5{fill:#595A4C;}
	.st6{fill:#0674ED;}
	.st7{fill:#006FD3;}
	.st8{fill:#202328;}
	.st9{fill:#E2E2E2;}
	.st10{fill:#0E0F11;}
	.st11{fill:#31373A;}
	.st12{fill:#0D47A1;}
	.st13{fill:#1565C0;}
	.st14{fill:#EDD0A8;}
	.st15{fill:#8B8C7E;}
	.st16{fill:#2D2C27;}
	.st17{fill:#CBC19D;}
	.st18{fill:#FCFCFC;}
	.st19{fill:#F9F9F9;}
	.st20{fill:#CF9E76;}
	.st21{fill:#F7941D;}
	.st22{opacity:0.26;fill:#020202;enable-background:new    ;}
	.st23{fill:#FFF2E6;}
	.st24{fill:none;}
	.st25{opacity:0.23;fill:#020202;enable-background:new    ;}
	.st26{opacity:7.000000e-02;fill:#020202;enable-background:new    ;}
</style>
<g id="Layer_2_1_">
	<g id="Layer_3">
		<path class="st0" d="M2516.5,2642.2c-0.2-0.8-0.4-1.6-0.6-2.4l-0.1-0.4c-1.8-4.9-4.1-9.6-6.8-14c-0.4-0.7-0.9-1.4-1.4-2.1
			c-20.9-31.4-56.3-45.5-84.9-54.4l-2.3-0.7c-14.9-4.3-30.1-7.2-45.5-8.7c-1.2-2.7-2.5-5.3-4.1-7.9c-0.3-0.5-0.6-1-0.9-1.5
			c-4-6.1-8.7-11.6-14-16.5c-0.6-0.5-1.2-1.1-1.8-1.6c-1.8-1.6-3.6-3.1-5.5-4.5c-0.6-0.5-1.2-1-1.9-1.4c-3.8-2.8-7.7-5.5-11.8-7.9
			l-2-1.2c-9.6-5.9-19.8-10.9-30.3-15l-1.9-0.8c-4-1.6-7.9-3.1-11.9-4.5l-2-0.7c-30.7-10.7-62.7-19.7-95.4-22
			c-0.8-0.1-1.6-0.1-2.4-0.2c-3.9-0.3-7.8-0.6-11.7-0.7l-2.4-0.1c-3.9-0.2-7.9-0.2-11.8-0.2c-0.8,0-1.6,0-2.4,0
			c-4.8-0.1-9.5,0-14.4,0.3h-2.3c-4.6,0-9.2,0.2-13.7,0.4h-0.1c-2.1,0.1-4.2,0.2-6.3,0.4h-0.1l-2.3,0.2l0.8,10.1
			c0.2,0,0.4,0.1,0.6,0.1h0.1c2.3,0,4.7-0.5,7-0.6c0.1,0,0.1-0.1,0.2-0.1c4.8-0.3,9.6-0.4,14.4-0.5c0.8,0,1.5-0.2,2.3-0.2
			c4-0.2,8-0.6,12-0.6h2.4c3.9,0,7.8,0.4,11.7,0.6c0.8,0,1.6,0.2,2.3,0.2c3.9,0.1,7.8,0.4,11.6,0.6l2.3,0.2
			c31.7,1.3,61.7,11.3,91.8,21.8l2,0.7c4.7,1.6,9.3,3.2,13.9,4.9l1.9,0.7c9.9,3.8,19.4,8.4,28.4,13.8c0.7,0.4,1.4,0.8,2.1,1.2
			c4.2,2.4,8.3,4.9,12.4,7.7c0.6,0.5,1.2,1,1.9,1.5c1.9,1.5,3.6,3.1,5.4,4.8c0.6,0.5,1.1,1,1.7,1.6c4.5,4.3,8.4,9.3,11.6,14.6
			c0.3,0.5,0.6,0.9,0.8,1.4l-2.1-0.1c-20.1-0.2-39.1-0.2-58.6,0.9l-1.4,0.1c-41.4,3.1-76.6,10.4-107.3,22.3
			c-20.6,8-45.8,22.8-48.9,48.2c-1.8,14.9,5,31.2,18.8,44.7c17.6,17.3,42.1,27.8,69.2,29.6c13,0.8,26-0.3,38.6-3.1
			c0.8-0.2,1.6-0.3,2.3-0.5c4.2-1.4,8.2-1.4,11.6-3.2l2.3-0.8c6.3-2.1,12.5-4.5,18.6-7.3c20.9-9.5,49-27.1,64.5-56.9
			c10.4-19.8,12.8-42.7,7.4-62.6c13.2,1.5,26.2,4.1,39,7.8l2.2,0.7c26.9,8.4,60.3,21.7,79.5,50.4c0.4,0.6,0.8,1.2,1.2,1.9
			c2.4,3.8,4.3,7.8,5.9,12c0.1,0.6,0.3,1.1,0.4,1.7c2.1,9.6-0.5,18.3-7.9,26.6l-0.1,0.1c-0.4,0.5-0.9,1.1-1.4,1.6
			c-11.5,12.3-30.8,18.7-47.8,24.3l-4,1.4l-2.2,0.7c-6.2,1.9-12.9,4-20.5,6.2l-2.3,0.7l-0.3,0.1c-10.8,4-22,7.3-33.1,10.4l-2.2,0.6
			c-31.8,9.3-64.8,16.3-94.4,31.8c-0.7,0.4-1.3,0.8-2,1.2c-13.3,8.1-24.8,18.7-32.5,33.2c-0.4,0.7-0.8,1.4-1.1,2.1
			c-2.4,4.8-4.3,9.8-5.6,14.9c-0.3,1.1-0.6,2.2-0.8,3.4c-3,13.4-2.1,27.4,2.6,40.4l-0.3,1.2c-1.3,6.1-2.6,12.2-4,18.3l9.8,2.1
			c1.4-6.2,2.7-12.6,4.1-18.9c0.1-0.4,0.2-0.8,0.3-1.3c-3.5-13.6-3.5-28,0.2-41.6c0.3-1.2,0.7-2.4,1.1-3.7s0.8-2.5,1.3-3.7
			c0.3-0.7,0.6-1.4,0.9-2.1s0.7-1.5,1.1-2.2c6.2-11.8,14.9-22.1,25.6-30.2c0.6-0.5,1.2-0.9,1.8-1.4c28.2-19.4,63.2-24.4,94.8-34.1
			l2.2-0.6c11.2-3.1,22.5-6.5,33.6-10.6l2.1-0.6c7.6-2.3,14.4-4.3,20.6-6.2l2.4-0.8l4.1-1.4c18.1-6,38.7-12.9,51.9-27
			c0.6-0.6,1.1-1.2,1.7-1.9C2515.8,2666.9,2519.3,2655,2516.5,2642.2z M2362.3,2627.9c-14.2,27.3-40.4,43.6-59.8,52.4
			c-23.2,10.6-46.9,15.4-68.8,13.9c-24.3-1.6-47.2-11.3-62.8-26.8c-11.5-11.4-17.3-24.6-15.9-36.4c2.5-20.4,24.5-33,42.6-40
			c32.8-12.7,71-20,116.7-22.4c9-0.5,17.6-0.7,25.8-0.7c9.7,0,19,0.3,27.7,1C2373.9,2587.1,2372.1,2609,2362.3,2627.9z"/>
		<path class="st1" d="M2262.3,2800.2c-0.4,1.2-0.8,2.4-1.1,3.7l-12.7-0.3c0.2-1.1,0.5-2.2,0.8-3.4L2262.3,2800.2z"/>
		<path class="st0" d="M2246.9,2802.7l15.9,0c0.4,0,0.8,0.3,0.8,0.8l0,18.9c0,0.4-0.3,0.8-0.8,0.8l-15.9,0c-0.4,0-0.8-0.3-0.8-0.8
			l0-18.9C2246.2,2803.1,2246.5,2802.7,2246.9,2802.7z"/>
		<path class="st0" d="M2244.1,2821.1l21.8,0c2.3,0,4.2,1.9,4.2,4.2l-0.1,38.1c0,2.3-1.9,4.2-4.2,4.2l-21.8,0
			c-2.3,0-4.2-1.9-4.2-4.2l0.1-38.1C2239.9,2823,2241.8,2821.1,2244.1,2821.1z"/>
		<path class="st2" d="M2269.6,2822.2c0.8,0.9,1.2,2.1,1.2,3.2l-0.1,38.1c0,2.8-2.2,5-5,5H2244c-2.8,0-5-2.2-5-5l0.1-38.1
			c0-2.8,2.2-5,5-5h21.8C2267.2,2820.5,2268.6,2821.1,2269.6,2822.2z M2241.3,2865.7c0.1,0.1,0.1,0.1,0.2,0.2c0.6,0.6,1.5,1,2.4,1
			h21.8c1.9,0,3.4-1.5,3.4-3.4l0.1-38.1c0-1.9-1.5-3.4-3.4-3.4H2244c-1.9,0-3.4,1.5-3.4,3.4l-0.1,38.1
			C2240.5,2864.3,2240.8,2865.1,2241.3,2865.7z"/>
		
			<rect x="2244.2" y="2838.8" transform="matrix(1.570730e-03 -1 1 1.570730e-03 -590.648 5091.6909)" class="st2" width="20.6" height="5.7"/>
		<path class="st1" d="M2130.2,2473.5L2130.2,2473.5v10l0,0c-2.4,0.1-4.7,0.7-7,0.7h-0.1l1.1-10.3l0,0l3-0.2L2130.2,2473.5z"/>
		<path class="st0" d="M357.6,2456.3c5.2,15.9,18.1,29.4,34.5,36.1c16.1,6.6,33.9,6.5,49.6,6.4l24.5-0.2c8.3,22.6,17.7,45.3,33,64.5
			c28.2,35.6,70,51.4,100,58.5c37.9,8.9,77.1,9.2,115,9.4c9,0.1,18.4-0.5,27.6-1.1c14.4-0.9,29.3-1.8,42.8-0.3
			c24,2.8,44.2,12.2,56.8,26.8c13,14.9,18.5,34.9,23,54.1c5.2,21.9,9.9,45.5,9.3,69.6c-0.2,10.8-1.6,21.5-4.3,32
			c-2.1-2.5-4.3-5-6.5-7.4c-11.4-12-30.1-27.1-54.8-31.1c-22.9-3.8-46.5,4.1-60.1,20c-12.5,14.9-16.4,35.2-10.3,53.7
			c8.2,24.1,34,41.1,61.3,40.4c24.2-0.6,48.8-14.6,64.4-36.6c3.6-5.1,6.7-10.6,9.4-16.3c5.7,8.6,10.7,17.6,15.3,26.3
			c10.5,19.7,20.7,41.1,23.8,63.5c0.3,2,0.5,4.1,0.6,6.1l10.6-2.6c-0.2-1.6-0.3-3.3-0.6-5c-3.4-24.2-14-46.6-24.9-67.1
			c-6-11.5-12.6-22.7-20-33.4c4.4-13.7,6.8-28,7-42.4c0.6-25.4-4.6-50.8-9.6-72.3c-4.6-19.6-10.8-42-25.4-58.7
			c-14.4-16.5-37-27.3-63.7-30.4c-14.4-1.6-29.8-0.7-44.7,0.2c-9.4,0.6-18.2,1.1-26.8,1.1c-37.3-0.3-75.9-0.5-112.7-9.1
			c-28.4-6.7-67.8-21.6-94-54.7c-13.5-17.1-22.1-36.8-29.9-57.9l25.6-0.2l-0.1-10.8l-29.5,0.2c-0.5-1.3-1-2.6-1.4-3.9
			c-7.4-20.5-15-41.6-26.5-60.6c-5.8-9.7-15.3-23.2-30.3-28.9c-16.5-6.3-36.5-1.1-48.6,12.7C355.6,2419.9,352,2439.2,357.6,2456.3z
			 M865.5,2824.5c-2.8,7.2-6.4,14.1-10.9,20.5c-13.6,19.2-35,31.5-55.8,32.1c-22.4,0.6-44.2-13.6-50.8-33.1c-1.5-4.5-2.3-9.2-2.3-14
			c0-10.7,3.7-21.1,10.6-29.3c11.2-13.1,30.9-19.5,50.1-16.4c21.7,3.6,38.5,17.1,48.8,27.9C858.8,2816.2,862.3,2820.2,865.5,2824.5z
			 M365.8,2440c-0.1-9.5,3.2-18.6,9.3-25.9c9-10.3,24.5-14.4,36.6-9.7c9,3.4,16.9,11.2,24.9,24.4c10.9,18.1,18.4,38.8,25.6,58.7
			l0.1,0.3l-20.6,0.1c-14.7,0.1-31.4,0.2-45.5-5.6c-13.5-5.6-24.1-16.6-28.4-29.5C366.5,2448.8,365.8,2444.4,365.8,2440z"/>
		<path class="st0" d="M1214.5,3474.4c-12-11.6-29.8-17.5-47.4-15.8c-17.3,1.7-33,10.1-46.9,17.6l-21.6,11.6
			c-17.9-16.1-36.8-31.7-59.3-41.6c-41.6-18.2-85.9-12.7-115.8-4.9c-37.7,9.9-72.5,28-106.1,45.5c-7.9,4.1-16,9.1-23.8,13.9
			c-12.3,7.5-25.1,15.3-37.7,20.2c-22.5,8.8-44.8,9.8-62.7,2.9c-18.5-7.1-32.7-22.2-45.7-37c-14.8-16.9-30-35.6-40.8-57.1
			c-4.9-9.6-8.6-19.8-11.1-30.3c3,1.2,6.1,2.4,9.2,3.4c15.7,5.3,39.3,9.9,63,1.9c22-7.4,39.2-25.4,43.8-45.8c4.1-19-2-38.8-16-52.3
			c-18.5-17.5-49.3-20.4-73.1-7c-21.1,11.9-36.3,35.8-39.7,62.5c-0.8,6.2-1,12.5-0.7,18.8c-9-5-17.6-10.6-25.8-16.1
			c-18.3-12.4-37-26.3-50.2-44.4l-0.5-0.7c-1.2-1.6-2.3-3.3-3.4-5l0,0l-0.1,0.1l-8.1,7.1c0.9,1.4,1.8,2.8,2.8,4.1
			c0.2,0.2,0.3,0.4,0.5,0.7c14.2,19.5,33.9,34.1,53,47c10.7,7.4,21.8,14.1,33.3,20.1c2.5,14.2,7,27.9,13.5,40.7
			c11.4,22.7,27.8,42.8,42.3,59.4c13.3,15.2,29.2,32,49.9,40c20.5,7.9,45.5,6.8,70.5-2.9c13.5-5.3,26.6-13.3,39.4-21.1
			c8-4.9,15.6-9.5,23.2-13.5c33.1-17.2,67.3-35,103.8-44.6c28.2-7.4,70-12.6,108.7,4.4c20,8.8,36.7,22.2,53.5,37.1l-22.5,12.1
			l5.1,9.5l26-14c1,0.9,2.1,1.9,3.1,2.8c16.1,14.6,32.8,29.8,51.8,41.2c9.7,5.8,24.4,13.3,40.3,11.4c17.5-2.1,32.8-16.1,37-34
			C1233.2,3505.7,1227.4,3486.9,1214.5,3474.4z M593.4,3363.4c3-23.4,16.2-44.2,34.3-54.4c19.5-11,45.5-8.6,60.4,5.5
			c3.4,3.3,6.3,7.1,8.5,11.2c5,9.4,6.6,20.4,4.3,30.8c-3.7,16.8-18.1,31.7-36.7,37.9c-20.9,7-42.1,2.9-56.2-1.9
			c-5.1-1.7-10-3.7-14.9-6C592.4,3378.8,592.4,3371,593.4,3363.4L593.4,3363.4z M1218.7,3519.9c-3.2,13.3-14.9,24.2-27.8,25.7
			c-9.6,1.2-20.2-2-33.4-9.9c-18.1-10.9-34.4-25.6-50.1-39.9l-0.3-0.2l18.2-9.8c13-7,27.6-14.9,42.8-16.3
			c14.6-1.4,29.1,3.4,38.9,12.8c3.2,3.1,5.8,6.6,7.9,10.5C1219.4,3501,1220.8,3510.6,1218.7,3519.9L1218.7,3519.9z"/>
		
			<rect x="496.6" y="2487.4" transform="matrix(1 -1.570732e-03 1.570732e-03 1 -3.9147 0.9474)" class="st0" width="209.2" height="10.8"/>
		
			<rect x="699.3" y="2487.4" transform="matrix(1 -1.570732e-03 1.570732e-03 1 -3.9147 1.107)" class="st1" width="6.9" height="10.8"/>
		<path class="st0" d="M742.3,2477.3l0,30.6c0,0.8-0.7,1.5-1.5,1.5l-36.4,0.1c-0.8,0-1.5-0.7-1.5-1.5l0-30.6c0-0.8,0.7-1.5,1.5-1.5
			l36.4-0.1C741.7,2475.9,742.3,2476.5,742.3,2477.3z"/>
		<path class="st0" d="M827.8,2471.8l0.1,41.8c0,4.5-3.6,8.1-8.1,8.1l-73.2,0.1c-4.5,0-8.1-3.6-8.1-8.1l-0.1-41.8
			c0-4.5,3.6-8.1,8.1-8.1l73.2-0.1C824.1,2463.7,827.8,2467.3,827.8,2471.8z"/>
		<path class="st2" d="M736.8,2513.9l-0.1-41.8c0-5.3,4.3-9.7,9.7-9.7l73.2-0.1c5.3,0,9.7,4.3,9.7,9.6l0.1,41.8
			c0,5.3-4.3,9.7-9.6,9.7l-73.2,0.1C741.2,2523.5,736.9,2519.2,736.8,2513.9z M819.7,2465.4l-73.2,0.1c-3.6,0-6.6,3-6.6,6.6
			l0.1,41.8c0,3.6,3,6.6,6.6,6.6h0l73.2-0.1c3.6,0,6.6-3,6.6-6.6l-0.1-41.8c0-1.7-0.7-3.4-1.9-4.6l-0.4-0.4
			C822.7,2465.9,821.2,2465.3,819.7,2465.4z"/>
		
			<rect x="757.7" y="2487.2" transform="matrix(1 -1.570732e-03 1.570732e-03 1 -3.9142 1.2243)" class="st2" width="39.5" height="10.9"/>
		<path class="st1" d="M505.9,3320.3l-8.8,6.3c-0.2-0.2-0.3-0.4-0.5-0.7c-1-1.4-1.9-2.7-2.8-4.1l8.1-7.1l0.1-0.1
			c1.1,1.7,2.2,3.4,3.4,5L505.9,3320.3z"/>
		<path class="st0" d="M467.2,3299.6l21.6-15.5c0.6-0.4,1.4-0.3,1.8,0.3l18.4,25.7c0.4,0.6,0.3,1.4-0.3,1.8l-21.6,15.5
			c-0.6,0.4-1.4,0.3-1.8-0.3l-18.4-25.7C466.5,3300.8,466.6,3300,467.2,3299.6z"/>
		<path class="st0" d="M420.2,3242l29.5-21.1c3.2-2.3,7.6-1.5,9.8,1.6l37,51.7c2.3,3.2,1.5,7.6-1.6,9.8l-29.5,21.1
			c-3.2,2.3-7.6,1.5-9.8-1.6l-37-51.7C416.3,3248.7,417,3244.3,420.2,3242z"/>
		<path class="st2" d="M495.9,3285l-29.5,21.1c-3.8,2.7-9,1.8-11.7-1.9l-37-51.7c-2.7-3.8-1.8-9,1.9-11.7l29.5-21.1
			c3.8-2.7,9-1.8,11.7,1.9l37,51.7C500.5,3277.1,499.7,3282.3,495.9,3285L495.9,3285z M419.8,3250.9l37,51.7c1.8,2.6,5.4,3.2,8,1.3
			c0,0,0,0,0,0l29.5-21.1c2.6-1.8,3.2-5.4,1.3-7.9c0,0,0,0,0-0.1l-37-51.7c-1.8-2.6-5.4-3.2-8-1.3l-29.5,21.2
			c-1.2,0.9-2.1,2.2-2.3,3.7l-0.1,0.5C418.7,3248.5,419,3249.8,419.8,3250.9z"/>
		
			<rect x="455.7" y="3249.8" transform="matrix(0.813 -0.5823 0.5823 0.813 -1816.1422 879.0142)" class="st2" width="9.4" height="34.3"/>
		<path class="st0" d="M2125.9,2463.3l0,30.6c0,0.8-0.7,1.5-1.5,1.5l-36.4-0.1c-0.8,0-1.5-0.7-1.5-1.5l0-30.6c0-0.8,0.7-1.5,1.5-1.5
			l36.4,0.1C2125.3,2461.8,2125.9,2462.5,2125.9,2463.3z"/>
		<path class="st0" d="M2090.7,2457.9l-0.1,41.8c0,4.5-3.6,8.1-8.1,8.1l-73.2-0.1c-4.5,0-8.1-3.6-8.1-8.1l0.1-41.8
			c0-4.5,3.6-8.1,8.1-8.1l73.2,0.1C2087,2449.7,2090.7,2453.4,2090.7,2457.9z"/>
		<path class="st2" d="M2088.6,2506.9c-1.7,1.5-4,2.3-6.2,2.3l-73.2-0.1c-5.3,0-9.6-4.4-9.7-9.7l0.1-41.8c0-5.3,4.3-9.6,9.7-9.6
			l73.2,0.1c5.3,0,9.6,4.3,9.6,9.7l-0.1,41.8C2092,2502.4,2090.8,2505.1,2088.6,2506.9z M2005,2452.6c-0.1,0.1-0.3,0.2-0.4,0.4
			c-1.2,1.2-1.9,2.9-1.9,4.6l-0.1,41.8c0,3.6,2.9,6.6,6.6,6.6l73.2,0.1c3.6,0,6.6-2.9,6.6-6.6c0,0,0,0,0,0l0.1-41.8
			c0-3.6-2.9-6.6-6.6-6.6l-73.2-0.1C2007.7,2451,2006.2,2451.6,2005,2452.6z"/>
		
			<rect x="2045.9" y="2458.3" transform="matrix(1.570732e-03 -1 1 1.570732e-03 -429.9349 4525.5693)" class="st2" width="10.9" height="39.5"/>
		<path class="st3" d="M2255.5,3352.3l-32.5-1c-71.1-2.2-127.6-62.1-125.4-133.3l4.2-139.5l291.2,8.9l-4.2,139.5
			C2386.6,3298,2326.6,3354.4,2255.5,3352.3z"/>
		<path class="st4" d="M2234.9,2853.9c-69.4-2.1-128.1,52.6-130.2,122l-2.9,94.8l140.2,4.3l1.1-37.9c-15.3-2.6-25.8-15.5-25.3-30.6
			l2.6-85.5c0.5-15.1,11.7-27.2,27.1-29l1.1-37.6L2234.9,2853.9z"/>
		<path class="st4" d="M2273.8,2855.1l-14.3-0.4l-1.1,37.9c12.6,3.2,24,15.7,23.5,30.2l-2.6,85.5c-0.4,14.5-12.6,26.3-25.3,28.8
			l-1.2,38.2l140.2,4.3l2.9-94.8C2398,2915.4,2343.2,2857.2,2273.8,2855.1z"/>
		<path class="st5" d="M2273.7,2922.5l-2.6,85.5c-0.1,1.6-0.5,3.3-1,4.8c-0.1,0.3-0.3,0.7-0.4,1s-0.3,0.7-0.4,1
			c-0.1,0.2-0.2,0.3-0.2,0.5c-0.1,0.3-0.3,0.6-0.4,1s-0.1,0.3-0.2,0.5c-0.1,0.3-0.3,0.6-0.5,0.9c-0.4,0.8-0.9,1.5-1.4,2.2
			c-0.4,0.6-0.8,1.1-1.3,1.6c-0.2,0.3-0.5,0.5-0.7,0.8c-4.2,4.4-10,6.7-16.1,6.5c-1.5,0-3-0.3-4.5-0.6c-9.8-2.4-16.6-11.4-16.3-21.5
			l2.6-85.6c0.3-10.1,7.6-18.6,17.6-20.4c3.5-0.6,7.1-0.4,10.5,0.7c3.8,1.2,7.1,3.5,9.7,6.5c0.2,0.3,0.4,0.5,0.6,0.8
			c0.4,0.5,0.8,1.1,1.2,1.7c0.5,0.7,0.9,1.5,1.2,2.3c0.1,0.3,0.3,0.6,0.4,1c0.1,0.2,0.1,0.3,0.2,0.5c0.1,0.3,0.2,0.6,0.4,1
			c0.1,0.2,0.1,0.3,0.2,0.5c0.1,0.3,0.2,0.7,0.3,1s0.4,0.7,0.5,1C2273.4,2919.3,2273.7,2920.9,2273.7,2922.5z"/>
		<path class="st6" d="M868.4,948.2c17.8,5.6,216.2,214,385.6,412.6c175.5,205.8,456.2,723,456.2,723
			c142.8,357,219.1,937.9,219.1,937.9l47.7,376.5l-685.3-19.3l22.2-951.3c-100.8-154.9-205.5-555.7-248.3-664.8
			c-7-17.8-10.9-27.9-10.9-27.9c-46.2-54-49-123.3-70.1-161.3c-28.8-51.7-49.3-101.9-89.1-145.7c-37.9-41.6-59.1-104.9-87.2-150.1
			c-41.6-66.8-83.6-112.5-95.6-138.7c-4-8.7-6.1-13.6-6.1-13.6C711.6,940.6,868.4,948.2,868.4,948.2z"/>
		<path class="st7" d="M712.6,1139.1c505.1,324.7,727.3,1029.7,824.5,1547.8c30.1,160.3-94,197.4-126.7,307.7
			c-40,134.8-24.6,306.5-24.6,306.5l-75.5,0.6c-7-17.8-266.5-1580-266.5-1580c-36.7-69.8-94.3-174.6-116.7-213.3
			c-43.5-75-114-199.6-145.6-253L712.6,1139.1z"/>
		<path class="st6" d="M1620,685.4l-35.8,205.5c0,0-124.6,514.3-147.1,714.7c0,0-61,485.5-75.6,653.8c0,0-42.8,933.1-53,1069.1
			l-386.2,79.8l-170.9-421.7c0,0,59.4-345.6,139.4-759.9c63.6-329.3,133.8-664.9,180.8-808.4l124.5-374.7
			c13.4-40.4,77.7-215.5,105-260.6c17.6-29.1,14.5-64.1,69.2-101.6c0,0,42.1-74.2,120.3-121.8c0,0-10-40.1,17.2-41.8
			S1620,588.5,1620,685.4z"/>
		<path class="st8" d="M491.7,471c156.1,0,223.1,160.8,247.3,243.8c10.6,36.6,26.1,71.5,46.2,103.9l63.6,102.4
			c0,0-149.2,7.7-164.5,172.1L447.1,809.7l-52.2-62.4c-40-45.6-77.8-120.6-59-178.3c8.9-27.1,24.9-53.2,52.8-71.7l0,0
			C413,481.2,446.3,471,491.7,471z"/>
		<path class="st7" d="M1370.4,681.2c-236,443.9-554.4,2324-554.4,2324l-58.3-45.4c63.6-329.4,246.6-1400.8,314-1541.7l124.5-374.7
			c13.4-40.4,69.5-211.7,93.3-258.8C1310.8,742.5,1349.3,691.2,1370.4,681.2z"/>
		<path class="st9" d="M712.6,1139.1l-37.2-38.1c-14.9-15.3-18.5-38.3-8.9-57.3c20-39.8,61.2-105.5,127.5-138.8
			c23.5-11.8,52.2-4.3,66.9,17.5l25.3,37.4C886.1,959.7,778.8,987.4,712.6,1139.1z"/>
		<path class="st8" d="M1428.8,0.3c19.2,1.3,37,6.9,53,14.9l1.4,0.7c54.1,27.5,80.4,107.2,84.4,167.8l2.2,25.1l0.6,6.4l37.2,417.7
			c-127.1-105.5-238-5.4-238-5.4l-27.4-117.4c-8.7-37.1-22.4-72.8-40.8-106.2c-41.6-75.7-108-236.8,2.4-347.2
			c2.7-2.7,5.3-5.2,7.9-7.6c22.7-21.1,44.8-34.3,65.7-41.7C1393.9,1.6,1411.3-0.9,1428.8,0.3z"/>
		<path class="st9" d="M1620,685.4l-0.7-53.3c-0.3-21.3-14-40.1-34.2-46.9c-42.3-14-117.8-31.3-188.3-8c-25,8.3-40,33.9-35,59.7
			l7.2,45C1369.1,682,1464.2,627,1620,685.4z"/>
		<path class="st9" d="M642.3,668.8c0,0-33.8,24.4-65.8,53.5c-22.3,20.3-59.5,60.4-59.5,60.4c-4.2,3.8-9.8,4.5-12.4,1.6l-2.4-2.7
			c-2.6-2.9-0.8-7.9,2.8-12.2c0,0,22.4-26.5,59.6-60.3c39.8-36.2,65.7-53.5,65.7-53.5c5.8-3.8,9.8-4.5,12.4-1.6l2.4,2.7
			C647.7,659.5,646.4,665,642.3,668.8z"/>
		<path class="st9" d="M612.4,634.8c0,0-33.8,24.4-65.8,53.5c-22.3,20.3-59.5,60.4-59.5,60.4c-4.2,3.8-9.8,4.5-12.4,1.6l-2.4-2.7
			c-2.6-2.9-0.8-7.9,2.8-12.2c0,0,22.4-26.5,59.6-60.3c39.8-36.2,65.7-53.5,65.7-53.5c5.8-3.8,9.8-4.5,12.4-1.6l2.4,2.7
			C617.8,625.5,616.5,631,612.4,634.8z"/>
		<path class="st9" d="M583.9,599.5c0,0-33.8,24.4-65.8,53.5c-22.3,20.3-59.5,60.4-59.5,60.4c-4.2,3.8-9.8,4.5-12.4,1.6l-2.4-2.7
			c-2.6-2.9-0.8-7.9,2.8-12.2c0,0,22.4-26.5,59.6-60.3c39.8-36.2,65.7-53.5,65.7-53.5c5.8-3.8,9.8-4.5,12.4-1.6l2.4,2.7
			C589.3,590.2,588.1,595.7,583.9,599.5z"/>
		<path class="st9" d="M1514.2,268.7c0,0-41.7,0.2-84.6,5.3c-29.9,3.6-83.5,14.6-83.5,14.6c-5.6,0.7-10.6-2-11-5.9l-0.4-3.6
			c-0.5-3.9,3.9-6.9,9.3-8.3c0,0,33.6-8.6,83.5-14.5c53.4-6.4,84.6-5.4,84.6-5.4c7,0.3,10.6,2,11,5.9l0.4,3.6
			C1524,264.3,1519.8,268,1514.2,268.7z"/>
		<path class="st9" d="M1509.6,223.6c0,0-41.7,0.2-84.6,5.3c-29.9,3.6-83.5,14.6-83.5,14.6c-5.6,0.7-10.6-2-11-5.9l-0.4-3.6
			c-0.5-3.9,3.9-6.9,9.3-8.4c0,0,33.6-8.6,83.5-14.6c53.4-6.4,84.6-5.4,84.6-5.4c7,0.3,10.6,2,11,5.9l0.4,3.6
			C1519.4,219.2,1515.2,223,1509.6,223.6z"/>
		<path class="st9" d="M1506.9,178.4c0,0-41.7,0.2-84.6,5.3c-29.9,3.6-83.5,14.6-83.5,14.6c-5.6,0.7-10.6-2-11-5.9l-0.4-3.6
			c-0.5-3.9,3.9-6.9,9.3-8.3c0,0,33.6-8.6,83.5-14.6c53.4-6.4,84.6-5.4,84.6-5.4c7,0.3,10.6,2,11,5.9l0.4,3.6
			C1516.7,174,1512.5,177.8,1506.9,178.4z"/>
		<path class="st10" d="M388.8,497.2L388.8,497.2c-46.8,98.9,58.4,312.4,58.4,312.4l-52.2-62.4c-40-45.6-77.8-120.6-59-178.3
			C344.8,541.8,360.8,515.7,388.8,497.2z"/>
		<path class="st11" d="M1570.4,215.2l-0.6-6.4C1570,210.9,1570.2,213,1570.4,215.2z"/>
		<path class="st10" d="M1428.8,0.3c24.4,1.8,42.1,9.7,53,14.9l1.4,0.7c54.1,27.5,80.4,107.2,84.4,167.8l2.2,25.1
			c-15.7-136.9-253.1-157.5-258.1-159.6c22.7-21.1,44.8-34.3,65.7-41.7C1393.9,1.6,1411.3-0.9,1428.8,0.3z"/>
		<path class="st12" d="M2006.4,3529.2c0,0,4.2-174.8-39.8-183.2c-494.9-94.8-1214.4-10.2-1214.4-10.2l19,247.5L2006.4,3529.2z"/>
		<path class="st13" d="M2140,3932.9H539.8l25.5-171.5l89-223.4c2.6,0,74.7-44.6,207.6-83.9c121.3-35.9,293.3-67.6,509.2-57.1
			c0,0,224.6-14.6,634.3,113.5L2140,3932.9z"/>
		<path class="st14" d="M1096.5,2565.3c-4-8.6-13.9-11.1-19.8-11.6c-7.6-0.6-15,2.7-19.6,8.8l-120.4,155.3l-23,29.7l0,0l-8.7,11.2
			l-48.7,62.8l-14.9-0.2c-1,0.9-2.1,1.8-3.2,2.6l-98.1,165.6c3.9,11.3,10.2,33.1,13.3,43.3c1.1,3.8,1.6,7.7,1.4,11.6l-5.9,109.7
			l-6.3,126.9l173.1,25.4l32-126.1l16.3-39c9.1-6.8,16.3-15.8,20.9-26.2c2.6-5.7-9.9-15.2-7.2-20.2c5.5-9.9,11.6-19.4,18.2-28.6
			c37.5-21.9,48.1-42.9,48.1-42.9l54.2-79.9c0,0,13.4-22.1,17.4-24.6s30.8-28.4,30.8-28.4c8.5-5.5,12.7-23.7,12.7-23.7
			c1.7-3.1,2.8-6.4,3.3-9.9c2.4-17.1-11.2-30.9-11.2-30.9c-22-10.3-38.8,2.7-38.8,2.7c-15,2.6-132.5,121.8-133.4,122.7l2.6-5.9
			l74.3-77.6l30.8-33.7l-30.4-58.4l-124.4,131.8l119.4-141.2l-29.7-56.9L919.5,2831l148.7-200.9c14.3-21.3,26.1-33.8,29.1-41.7
			C1100.1,2580.9,1099.9,2572.6,1096.5,2565.3z"/>
		
			<rect x="814.5" y="3072.6" transform="matrix(0.2707 -0.9627 0.9627 0.2707 -2463.4475 3119.0415)" class="st0" width="24.8" height="225.8"/>
		<path class="st13" d="M944.1,3224.7l-12.9,50.8l-44,173.6h-0.4c-2,8.7-4,17.6-6,26.6c-34.8,155.7-73.5,348.6-78.2,457.1
			l-300.5,0.1c6.3-33.1,19.2-95.1,37.7-165.5c34.2-130.8,89.8-293,125-416.2l50-197.1L944.1,3224.7z"/>
		<path class="st0" d="M745.1,3233.5c-4.1-3.4-10.2-2.9-13.6,1.2s-2.9,10.2,1.2,13.6c4.1,3.4,10.2,2.9,13.6-1.2
			C749.7,3243,749.2,3236.9,745.1,3233.5C745.1,3233.5,745.1,3233.5,745.1,3233.5z"/>
		<path class="st0" d="M736.2,3263.6c-4.1-3.4-10.2-2.9-13.6,1.2s-2.9,10.2,1.2,13.6c4.1,3.4,10.2,2.9,13.6-1.2
			C740.9,3273.1,740.3,3267,736.2,3263.6z"/>
		<path class="st0" d="M728,3294.1c-4.1-3.4-10.2-2.9-13.6,1.2c-3.4,4.1-2.9,10.2,1.2,13.6c4.1,3.4,10.2,2.9,13.6-1.2c0,0,0,0,0,0
			C732.6,3303.7,732.1,3297.6,728,3294.1z"/>
		<path class="st12" d="M944.1,3224.7c-3.7,10.5-8,28-12.9,50.8l-44,173.6h-0.4c-2,8.7-4,17.6-6,26.6
			c-34.8,155.7-73.5,348.6-78.2,457.1H704l128.8-521.1c10.3-38.3,18.5-77.1,24.4-116.4c9.8-65-45.5-111.5-45.5-111.5L944.1,3224.7z"
			/>
		<path class="st15" d="M869.6,2340.4h1084c31.7,0,57.4,25.7,57.4,57.4v722.9c0,31.7-25.7,57.4-57.4,57.4h-1084
			c-31.7,0-57.4-25.7-57.4-57.4v-722.9C812.2,2366.1,837.9,2340.4,869.6,2340.4z"/>
		<path class="st16" d="M906,2392.4h1006.2c12,0,21.7,9.7,21.7,21.7v386.3c0,12-9.7,21.7-21.7,21.7H906c-12,0-21.7-9.7-21.7-21.7
			v-386.3C884.2,2402.2,894,2392.4,906,2392.4z"/>
		<path class="st17" d="M1247.3,2870.5h330.9c7.5,0,13.7,6.1,13.7,13.7V3117c0,7.5-6.1,13.7-13.7,13.7h-330.9
			c-7.5,0-13.7-6.1-13.7-13.7v-232.8C1233.7,2876.6,1239.8,2870.5,1247.3,2870.5z"/>
		<path class="st5" d="M915,2413.9h43.3c6,0,10.9,4.9,10.9,10.9v18c0,6-4.9,10.9-10.9,10.9H915c-6,0-10.9-4.9-10.9-10.9v-18
			C904.1,2418.7,909,2413.9,915,2413.9z"/>
		<path class="st5" d="M988,2413.9h43.3c6,0,10.9,4.9,10.9,10.9v18c0,6-4.9,10.9-10.9,10.9H988c-6,0-10.9-4.9-10.9-10.9v-18
			C977,2418.7,981.9,2413.9,988,2413.9z"/>
		<path class="st5" d="M1060.9,2413.9h43.3c6,0,10.9,4.9,10.9,10.9v18c0,6-4.9,10.9-10.9,10.9h-43.3c-6,0-10.9-4.9-10.9-10.9v-18
			C1050,2418.7,1054.9,2413.9,1060.9,2413.9z"/>
		<path class="st5" d="M1133.9,2413.9h43.3c6,0,10.9,4.9,10.9,10.9v18c0,6-4.9,10.9-10.9,10.9h-43.3c-6,0-10.9-4.9-10.9-10.9v-18
			C1122.9,2418.7,1127.8,2413.9,1133.9,2413.9z"/>
		<path class="st5" d="M1206.8,2413.9h43.3c6,0,10.9,4.9,10.9,10.9v18c0,6-4.9,10.9-10.9,10.9h-43.3c-6,0-10.9-4.9-10.9-10.9v-18
			C1195.9,2418.7,1200.8,2413.9,1206.8,2413.9z"/>
		<path class="st5" d="M1279.8,2413.9h43.3c6,0,10.9,4.9,10.9,10.9v18c0,6-4.9,10.9-10.9,10.9h-43.3c-6,0-10.9-4.9-10.9-10.9v-18
			C1268.9,2418.7,1273.8,2413.9,1279.8,2413.9z"/>
		<path class="st5" d="M1352.8,2413.9h43.3c6,0,10.9,4.9,10.9,10.9v18c0,6-4.9,10.9-10.9,10.9h-43.3c-6,0-10.9-4.9-10.9-10.9v-18
			C1341.8,2418.7,1346.7,2413.9,1352.8,2413.9z"/>
		<path class="st5" d="M1425.7,2413.9h43.3c6,0,10.9,4.9,10.9,10.9v18c0,6-4.9,10.9-10.9,10.9h-43.3c-6,0-10.9-4.9-10.9-10.9v-18
			C1414.8,2418.7,1419.7,2413.9,1425.7,2413.9z"/>
		<path class="st5" d="M1498.7,2413.9h43.3c6,0,10.9,4.9,10.9,10.9v18c0,6-4.9,10.9-10.9,10.9h-43.3c-6,0-10.9-4.9-10.9-10.9v-18
			C1487.8,2418.7,1492.6,2413.9,1498.7,2413.9z"/>
		<path class="st5" d="M1571.6,2413.9h43.3c6,0,10.9,4.9,10.9,10.9v18c0,6-4.9,10.9-10.9,10.9h-43.3c-6,0-10.9-4.9-10.9-10.9v-18
			C1560.7,2418.7,1565.6,2413.9,1571.6,2413.9z"/>
		<path class="st5" d="M1644.6,2413.9h43.3c6,0,10.9,4.9,10.9,10.9v18c0,6-4.9,10.9-10.9,10.9h-43.3c-6,0-10.9-4.9-10.9-10.9v-18
			C1633.7,2418.7,1638.5,2413.9,1644.6,2413.9z"/>
		<path class="st5" d="M1717.5,2413.9h43.3c6,0,10.9,4.9,10.9,10.9v18c0,6-4.9,10.9-10.9,10.9h-43.3c-6,0-10.9-4.9-10.9-10.9v-18
			C1706.6,2418.7,1711.5,2413.9,1717.5,2413.9z"/>
		<path class="st5" d="M1790.5,2413.9h43.3c6,0,10.9,4.9,10.9,10.9v18c0,6-4.9,10.9-10.9,10.9h-43.3c-6,0-10.9-4.9-10.9-10.9v-18
			C1779.6,2418.7,1784.5,2413.9,1790.5,2413.9z"/>
		<path class="st5" d="M1863.5,2413.9h43.3c6,0,10.9,4.9,10.9,10.9v18c0,6-4.9,10.9-10.9,10.9h-43.3c-6,0-10.9-4.9-10.9-10.9v-18
			C1852.5,2418.7,1857.4,2413.9,1863.5,2413.9z"/>
		<path class="st5" d="M908.8,2459.6H963c1.3,0,2.4,1.1,2.4,2.4v54.2c0,1.3-1.1,2.4-2.4,2.4h-54.2c-1.3,0-2.4-1.1-2.4-2.4v-54.2
			C906.4,2460.7,907.5,2459.6,908.8,2459.6z"/>
		<path class="st5" d="M1015.9,2528h54.2c1.3,0,2.4,1.1,2.4,2.4v54.2c0,1.3-1.1,2.4-2.4,2.4h-54.2c-1.3,0-2.4-1.1-2.4-2.4v-54.2
			C1013.5,2529.1,1014.6,2528,1015.9,2528z"/>
		<path class="st5" d="M1031.7,2596.3h54.2c1.3,0,2.4,1.1,2.4,2.4v54.2c0,1.3-1.1,2.4-2.4,2.4h-54.2c-1.3,0-2.4-1.1-2.4-2.4v-54.2
			C1029.2,2597.4,1030.3,2596.3,1031.7,2596.3z"/>
		<path class="st5" d="M1068.4,2664.7h54.2c1.3,0,2.4,1.1,2.4,2.4v54.2c0,1.3-1.1,2.4-2.4,2.4h-54.2c-1.3,0-2.4-1.1-2.4-2.4v-54.2
			C1066,2665.8,1067.1,2664.7,1068.4,2664.7z"/>
		<path class="st5" d="M909,2733h53.8c1.4,0,2.6,1.2,2.6,2.6v61.4c0,1.4-1.2,2.6-2.6,2.6H909c-1.4,0-2.6-1.2-2.6-2.6v-61.4
			C906.4,2734.2,907.5,2733,909,2733z"/>
		<path class="st5" d="M980.9,2733h53.8c1.4,0,2.6,1.2,2.6,2.6v61.4c0,1.4-1.2,2.6-2.6,2.6h-53.8c-1.4,0-2.6-1.2-2.6-2.6v-61.4
			C978.3,2734.2,979.5,2733,980.9,2733z"/>
		<path class="st5" d="M1050.6,2733h53.9c1.4,0,2.6,1.2,2.6,2.6v61.4c0,1.4-1.2,2.6-2.6,2.6h-53.9c-1.4,0-2.6-1.2-2.6-2.6v-61.4
			C1048,2734.2,1049.2,2733,1050.6,2733z"/>
		<path class="st5" d="M1121.3,2733h71.1c1.6,0,3,1.3,3,3v60.6c0,1.6-1.3,3-3,3h-71.1c-1.6,0-3-1.3-3-3V2736
			C1118.4,2734.4,1119.7,2733,1121.3,2733z"/>
		<path class="st5" d="M1558.4,2733h71.1c1.6,0,3,1.3,3,3v60.6c0,1.6-1.3,3-3,3h-71.1c-1.6,0-3-1.3-3-3V2736
			C1555.5,2734.4,1556.8,2733,1558.4,2733z"/>
		<path class="st5" d="M1648.3,2733h53.1c1.4,0,2.6,1.2,2.6,2.6l0,0v61.4c0,1.4-1.2,2.6-2.6,2.6l0,0h-53.1c-1.4,0-2.6-1.2-2.6-2.6
			l0,0v-61.4C1645.7,2734.2,1646.9,2733,1648.3,2733C1648.3,2733,1648.3,2733,1648.3,2733z"/>
		<path class="st5" d="M1212.8,2733h327.9c3.4,0,6.2,2.8,6.2,6.2v54.1c0,3.4-2.8,6.2-6.2,6.2h-327.9c-3.4,0-6.2-2.8-6.2-6.2v-54.1
			C1206.6,2735.8,1209.4,2733,1212.8,2733z"/>
		<path class="st5" d="M1138.7,2664.7h54.2c1.3,0,2.4,1.1,2.4,2.4v54.2c0,1.3-1.1,2.4-2.4,2.4h-54.2c-1.3,0-2.4-1.1-2.4-2.4v-54.2
			C1136.3,2665.8,1137.4,2664.7,1138.7,2664.7z"/>
		<path class="st5" d="M1209.1,2664.7h54.2c1.3,0,2.4,1.1,2.4,2.4v54.2c0,1.3-1.1,2.4-2.4,2.4h-54.2c-1.3,0-2.4-1.1-2.4-2.4v-54.2
			C1206.6,2665.8,1207.7,2664.7,1209.1,2664.7z"/>
		<path class="st5" d="M1279.4,2664.7h54.2c1.3,0,2.4,1.1,2.4,2.4v54.2c0,1.3-1.1,2.4-2.4,2.4h-54.2c-1.3,0-2.4-1.1-2.4-2.4v-54.2
			C1276.9,2665.8,1278,2664.7,1279.4,2664.7z"/>
		<path class="st5" d="M1349.7,2664.7h54.2c1.3,0,2.4,1.1,2.4,2.4v54.2c0,1.3-1.1,2.4-2.4,2.4h-54.2c-1.3,0-2.4-1.1-2.4-2.4v-54.2
			C1347.2,2665.8,1348.3,2664.7,1349.7,2664.7z"/>
		<path class="st5" d="M1420,2664.7h54.2c1.3,0,2.4,1.1,2.4,2.4v54.2c0,1.3-1.1,2.4-2.4,2.4H1420c-1.3,0-2.4-1.1-2.4-2.4v-54.2
			C1417.6,2665.8,1418.7,2664.7,1420,2664.7z"/>
		<path class="st5" d="M1490.3,2664.7h54.2c1.3,0,2.4,1.1,2.4,2.4v54.2c0,1.3-1.1,2.4-2.4,2.4h-54.2c-1.3,0-2.4-1.1-2.4-2.4v-54.2
			C1487.9,2665.8,1489,2664.7,1490.3,2664.7z"/>
		<path class="st5" d="M1560.6,2664.7h54.2c1.3,0,2.4,1.1,2.4,2.4v54.2c0,1.3-1.1,2.4-2.4,2.4h-54.2c-1.3,0-2.4-1.1-2.4-2.4v-54.2
			C1558.2,2665.8,1559.3,2664.7,1560.6,2664.7z"/>
		<path class="st5" d="M1631,2664.7h54.2c1.3,0,2.4,1.1,2.4,2.4v54.2c0,1.3-1.1,2.4-2.4,2.4H1631c-1.3,0-2.4-1.1-2.4-2.4v-54.2
			C1628.5,2665.8,1629.6,2664.7,1631,2664.7z"/>
		<path class="st5" d="M1723.7,2766.3h41.2c5.2,0,9.5,4.2,9.5,9.5v15.3c0,5.2-4.2,9.5-9.5,9.5h-41.2c-5.2,0-9.5-4.2-9.5-9.5v-15.3
			C1714.2,2770.6,1718.5,2766.3,1723.7,2766.3z"/>
		<path class="st5" d="M1794.3,2766.3h41.2c5.2,0,9.5,4.2,9.5,9.5v15.3c0,5.2-4.2,9.5-9.5,9.5h-41.2c-5.2,0-9.5-4.2-9.5-9.5v-15.3
			C1784.8,2770.6,1789,2766.3,1794.3,2766.3z"/>
		<path class="st5" d="M1794.3,2727.9h41.2c5.2,0,9.5,4.2,9.5,9.5v15.3c0,5.2-4.2,9.5-9.5,9.5h-41.2c-5.2,0-9.5-4.2-9.5-9.5v-15.3
			C1784.8,2732.1,1789,2727.9,1794.3,2727.9z"/>
		<path class="st5" d="M1864.8,2766.3h41.2c5.2,0,9.5,4.2,9.5,9.5v15.3c0,5.2-4.2,9.5-9.5,9.5h-41.2c-5.2,0-9.5-4.2-9.5-9.5v-15.3
			C1855.3,2770.6,1859.6,2766.3,1864.8,2766.3z"/>
		<path class="st5" d="M1102.6,2596.3h54.2c1.3,0,2.4,1.1,2.4,2.4v54.2c0,1.3-1.1,2.4-2.4,2.4h-54.2c-1.3,0-2.4-1.1-2.4-2.4v-54.2
			C1100.2,2597.4,1101.3,2596.3,1102.6,2596.3z"/>
		<path class="st5" d="M1173.6,2596.3h54.2c1.3,0,2.4,1.1,2.4,2.4v54.2c0,1.3-1.1,2.4-2.4,2.4h-54.2c-1.3,0-2.4-1.1-2.4-2.4v-54.2
			C1171.2,2597.4,1172.3,2596.3,1173.6,2596.3z"/>
		<path class="st5" d="M1244.6,2596.3h54.2c1.3,0,2.4,1.1,2.4,2.4v54.2c0,1.3-1.1,2.4-2.4,2.4h-54.2c-1.3,0-2.4-1.1-2.4-2.4v-54.2
			C1242.1,2597.4,1243.2,2596.3,1244.6,2596.3z"/>
		<path class="st5" d="M1315.1,2596.3h54.2c1.3,0,2.4,1.1,2.4,2.4v54.2c0,1.3-1.1,2.4-2.4,2.4h-54.2c-1.3,0-2.4-1.1-2.4-2.4v-54.2
			C1312.7,2597.4,1313.8,2596.3,1315.1,2596.3z"/>
		<path class="st5" d="M1386.1,2596.3h54.2c1.3,0,2.4,1.1,2.4,2.4v54.2c0,1.3-1.1,2.4-2.4,2.4h-54.2c-1.3,0-2.4-1.1-2.4-2.4v-54.2
			C1383.6,2597.4,1384.7,2596.3,1386.1,2596.3z"/>
		<path class="st5" d="M1454,2596.3h54.2c1.3,0,2.4,1.1,2.4,2.4v54.2c0,1.3-1.1,2.4-2.4,2.4H1454c-1.3,0-2.4-1.1-2.4-2.4v-54.2
			C1451.6,2597.4,1452.7,2596.3,1454,2596.3z"/>
		<path class="st5" d="M1524.3,2596.3h54.2c1.3,0,2.4,1.1,2.4,2.4v54.2c0,1.3-1.1,2.4-2.4,2.4h-54.2c-1.3,0-2.4-1.1-2.4-2.4v-54.2
			C1521.9,2597.4,1523,2596.3,1524.3,2596.3z"/>
		<path class="st5" d="M1594.6,2596.3h54.2c1.3,0,2.4,1.1,2.4,2.4v54.2c0,1.3-1.1,2.4-2.4,2.4h-54.2c-1.3,0-2.4-1.1-2.4-2.4v-54.2
			C1592.2,2597.4,1593.3,2596.3,1594.6,2596.3z"/>
		<path class="st5" d="M1664.5,2596.3h54.2c1.3,0,2.4,1.1,2.4,2.4v54.2c0,1.3-1.1,2.4-2.4,2.4h-54.2c-1.3,0-2.4-1.1-2.4-2.4v-54.2
			C1662.1,2597.4,1663.2,2596.3,1664.5,2596.3z"/>
		<path class="st5" d="M1734.4,2596.3h54.2c1.3,0,2.4,1.1,2.4,2.4v54.2c0,1.3-1.1,2.4-2.4,2.4h-54.2c-1.3,0-2.4-1.1-2.4-2.4v-54.2
			C1732,2597.4,1733.1,2596.3,1734.4,2596.3z"/>
		<path class="st5" d="M1700.6,2664.7h54.2c1.3,0,2.4,1.1,2.4,2.4v54.2c0,1.3-1.1,2.4-2.4,2.4h-54.2c-1.3,0-2.4-1.1-2.4-2.4v-54.2
			C1698.2,2665.8,1699.3,2664.7,1700.6,2664.7z"/>
		<path class="st5" d="M1807.8,2596.3h104.6c1.9,0,3.3,1.5,3.3,3.4v52.3c0,1.9-1.5,3.4-3.3,3.4h-104.6c-1.9,0-3.3-1.5-3.3-3.4v-52.3
			C1804.5,2597.8,1806,2596.3,1807.8,2596.3z"/>
		<path class="st5" d="M1771.7,2664.7h140.2c2.1,0,3.9,1.7,3.9,3.9v51.3c0,2.1-1.7,3.9-3.9,3.9h-140.2c-2.1,0-3.9-1.7-3.9-3.9v-51.3
			C1767.8,2666.4,1769.5,2664.7,1771.7,2664.7z"/>
		<path class="st5" d="M909.8,2596.3h105.7c1.9,0,3.4,1.5,3.4,3.4v52.3c0,1.9-1.5,3.4-3.4,3.4H909.8c-1.9,0-3.4-1.5-3.4-3.4v-52.3
			C906.4,2597.8,907.9,2596.3,909.8,2596.3z"/>
		<path class="st5" d="M909.1,2664.7h142.3c2.1,0,3.9,1.7,3.9,3.9v51.3c0,2.1-1.7,3.9-3.9,3.9H909.1c-2.1,0-3.9-1.7-3.9-3.9v-51.3
			C905.2,2666.5,907,2664.7,909.1,2664.7z"/>
		<path class="st5" d="M1086.5,2528h54.2c1.3,0,2.4,1.1,2.4,2.4v54.2c0,1.3-1.1,2.4-2.4,2.4h-54.2c-1.3,0-2.4-1.1-2.4-2.4v-54.2
			C1084.1,2529.1,1085.2,2528,1086.5,2528z"/>
		<path class="st5" d="M1156.7,2528h54.2c1.3,0,2.4,1.1,2.4,2.4v54.2c0,1.3-1.1,2.4-2.4,2.4h-54.2c-1.3,0-2.4-1.1-2.4-2.4v-54.2
			C1154.2,2529.1,1155.3,2528,1156.7,2528z"/>
		<path class="st5" d="M1227.3,2528h54.2c1.3,0,2.4,1.1,2.4,2.4v54.2c0,1.3-1.1,2.4-2.4,2.4h-54.2c-1.3,0-2.4-1.1-2.4-2.4v-54.2
			C1224.8,2529.1,1225.9,2528,1227.3,2528z"/>
		<path class="st5" d="M1297.9,2528h54.2c1.3,0,2.4,1.1,2.4,2.4v54.2c0,1.3-1.1,2.4-2.4,2.4h-54.2c-1.3,0-2.4-1.1-2.4-2.4v-54.2
			C1295.5,2529.1,1296.6,2528,1297.9,2528z"/>
		<path class="st5" d="M1368.1,2528h54.2c1.3,0,2.4,1.1,2.4,2.4v54.2c0,1.3-1.1,2.4-2.4,2.4h-54.2c-1.3,0-2.4-1.1-2.4-2.4v-54.2
			C1365.6,2529.1,1366.7,2528,1368.1,2528z"/>
		<path class="st5" d="M1436.6,2528h54.2c1.3,0,2.4,1.1,2.4,2.4v54.2c0,1.3-1.1,2.4-2.4,2.4h-54.2c-1.3,0-2.4-1.1-2.4-2.4v-54.2
			C1434.2,2529.1,1435.3,2528,1436.6,2528z"/>
		<path class="st5" d="M1507.8,2528h54.2c1.3,0,2.4,1.1,2.4,2.4v54.2c0,1.3-1.1,2.4-2.4,2.4h-54.2c-1.3,0-2.4-1.1-2.4-2.4v-54.2
			C1505.4,2529.1,1506.5,2528,1507.8,2528z"/>
		<path class="st5" d="M1578.2,2528h54.2c1.3,0,2.4,1.1,2.4,2.4v54.2c0,1.3-1.1,2.4-2.4,2.4h-54.2c-1.3,0-2.4-1.1-2.4-2.4v-54.2
			C1575.7,2529.1,1576.8,2528,1578.2,2528z"/>
		<path class="st5" d="M1647.3,2528h54.2c1.3,0,2.4,1.1,2.4,2.4v54.2c0,1.3-1.1,2.4-2.4,2.4h-54.2c-1.3,0-2.4-1.1-2.4-2.4v-54.2
			C1644.9,2529.1,1646,2528,1647.3,2528z"/>
		<path class="st5" d="M1719.4,2528h54.2c1.3,0,2.4,1.1,2.4,2.4v54.2c0,1.3-1.1,2.4-2.4,2.4h-54.2c-1.3,0-2.4-1.1-2.4-2.4v-54.2
			C1716.9,2529.1,1718,2528,1719.4,2528z"/>
		<path class="st5" d="M1788.2,2528h54.2c1.3,0,2.4,1.1,2.4,2.4v54.2c0,1.3-1.1,2.4-2.4,2.4h-54.2c-1.3,0-2.4-1.1-2.4-2.4v-54.2
			C1785.8,2529.1,1786.9,2528,1788.2,2528z"/>
		<path class="st5" d="M1859.1,2528h54.2c1.3,0,2.4,1.1,2.4,2.4v54.2c0,1.3-1.1,2.4-2.4,2.4h-54.2c-1.3,0-2.4-1.1-2.4-2.4v-54.2
			C1856.7,2529.1,1857.8,2528,1859.1,2528z"/>
		<path class="st5" d="M980.5,2459.6h54.2c1.3,0,2.4,1.1,2.4,2.4v54.2c0,1.3-1.1,2.4-2.4,2.4h-54.2c-1.3,0-2.4-1.1-2.4-2.4v-54.2
			C978,2460.7,979.1,2459.6,980.5,2459.6z"/>
		<path class="st5" d="M1049.9,2459.6h54.2c1.3,0,2.4,1.1,2.4,2.4v54.2c0,1.3-1.1,2.4-2.4,2.4h-54.2c-1.3,0-2.4-1.1-2.4-2.4v-54.2
			C1047.5,2460.7,1048.6,2459.6,1049.9,2459.6z"/>
		<path class="st5" d="M1121.1,2459.6h54.2c1.3,0,2.4,1.1,2.4,2.4v54.2c0,1.3-1.1,2.4-2.4,2.4h-54.2c-1.3,0-2.4-1.1-2.4-2.4v-54.2
			C1118.7,2460.7,1119.7,2459.6,1121.1,2459.6z"/>
		<path class="st5" d="M1190.5,2459.6h54.2c1.3,0,2.4,1.1,2.4,2.4v54.2c0,1.3-1.1,2.4-2.4,2.4h-54.2c-1.3,0-2.4-1.1-2.4-2.4v-54.2
			C1188.1,2460.7,1189.2,2459.6,1190.5,2459.6z"/>
		<path class="st5" d="M1262.1,2459.6h54.2c1.3,0,2.4,1.1,2.4,2.4v54.2c0,1.3-1.1,2.4-2.4,2.4h-54.2c-1.3,0-2.4-1.1-2.4-2.4v-54.2
			C1259.7,2460.7,1260.7,2459.6,1262.1,2459.6z"/>
		<path class="st5" d="M1330.9,2459.6h54.2c1.3,0,2.4,1.1,2.4,2.4v54.2c0,1.3-1.1,2.4-2.4,2.4h-54.2c-1.3,0-2.4-1.1-2.4-2.4v-54.2
			C1328.4,2460.7,1329.5,2459.6,1330.9,2459.6z"/>
		<path class="st5" d="M1402.4,2459.6h54.2c1.3,0,2.4,1.1,2.4,2.4v54.2c0,1.3-1.1,2.4-2.4,2.4h-54.2c-1.3,0-2.4-1.1-2.4-2.4v-54.2
			C1399.9,2460.7,1401,2459.6,1402.4,2459.6z"/>
		<path class="st5" d="M1471.8,2459.6h54.2c1.3,0,2.4,1.1,2.4,2.4v54.2c0,1.3-1.1,2.4-2.4,2.4h-54.2c-1.3,0-2.4-1.1-2.4-2.4v-54.2
			C1469.4,2460.7,1470.5,2459.6,1471.8,2459.6z"/>
		<path class="st5" d="M1543.1,2459.6h54.2c1.3,0,2.4,1.1,2.4,2.4v54.2c0,1.3-1.1,2.4-2.4,2.4h-54.2c-1.3,0-2.4-1.1-2.4-2.4v-54.2
			C1540.7,2460.7,1541.8,2459.6,1543.1,2459.6z"/>
		<path class="st5" d="M1614.3,2459.6h54.2c1.3,0,2.4,1.1,2.4,2.4v54.2c0,1.3-1.1,2.4-2.4,2.4h-54.2c-1.3,0-2.4-1.1-2.4-2.4v-54.2
			C1611.9,2460.7,1613,2459.6,1614.3,2459.6z"/>
		<path class="st5" d="M1684.8,2459.6h54.2c1.3,0,2.4,1.1,2.4,2.4v54.2c0,1.3-1.1,2.4-2.4,2.4h-54.2c-1.3,0-2.4-1.1-2.4-2.4v-54.2
			C1682.3,2460.7,1683.4,2459.6,1684.8,2459.6z"/>
		<path class="st5" d="M1752.5,2459.6h54.2c1.3,0,2.4,1.1,2.4,2.4v54.2c0,1.3-1.1,2.4-2.4,2.4h-54.2c-1.3,0-2.4-1.1-2.4-2.4v-54.2
			C1750.1,2460.7,1751.2,2459.6,1752.5,2459.6z"/>
		<path class="st5" d="M1827.2,2459.6h81c3.7,0,6.8,3,6.8,6.8v45.5c0,3.7-3,6.8-6.8,6.8h-81c-3.7,0-6.8-3-6.8-6.8v-45.5
			C1820.4,2462.7,1823.4,2459.6,1827.2,2459.6z"/>
		<path class="st5" d="M913.2,2528h81c3.7,0,6.8,3,6.8,6.8v45.5c0,3.7-3,6.8-6.8,6.8h-81c-3.7,0-6.8-3-6.8-6.8v-45.5
			C906.4,2531,909.4,2528,913.2,2528z"/>
		<path class="st16" d="M941.1,2332.6h937.6c3.2,0,5.8,2.6,5.8,5.8v13.6c0,3.2-2.6,5.8-5.8,5.8H941.1c-3.2,0-5.8-2.6-5.8-5.8v-13.6
			C935.3,2335.2,937.9,2332.6,941.1,2332.6z"/>
		<path class="st5" d="M1977.8,2332.6H841.9c-10.4,0-20.2-6.5-23.8-15.8l-178.5-462.6c-1.8-4.7,1.2-9.4,6.1-9.4h1525.7
			c5.7,0,9.2,5.3,7.1,10.8l-175.6,460.3C1999.2,2325.7,1988.8,2332.6,1977.8,2332.6z"/>
		<path class="st15" d="M2181.6,1844.2l-1543.4,0.6c0,0,8.2-10.5,13.5-15.4s18.6-12.3,18.6-12.3h1475.3c0,0,15,9.5,18.6,12.3
			S2181.6,1844.2,2181.6,1844.2z"/>
		<polygon class="st18" points="1975.7,2282.4 848.1,2282.4 700.6,1871.9 2122.4,1871.9 		"/>
		<path class="st19" d="M935.3,2348.5h949.2l0,0v3.5c0,3.2-2.6,5.8-5.8,5.8l0,0H941c-3.2,0-5.7-2.6-5.7-5.7L935.3,2348.5
			L935.3,2348.5z"/>
		<path class="st14" d="M813.6,2861.8c0.4-8.9,3.2-23.5,3.2-23.5s3.3-7.9,15-22.4c13.1-16.2,38.2-45.8,38.8-46.9l0,0
			c7.4-1.1,14.8-2.8,22-5l0.8-0.2l1-0.3c11-3.3,20.6-10.1,27.3-19.4l9.5-13.1l2.8-3.9c4.8-6.5,6.7-14.7,5.3-22.7
			c-1.1-5.9-3-11.7-5.6-17.1l-38.6,13c-10.2,5.7-40.8,7.9-40.8,7.9c-25.1,2.4-32,11.9-32,11.9l-48.8,49
			c-25.8,20-49.4,64.7-49.4,64.7c-14.1,27,0.9,54.4,0.9,54.4c1.8,4.7,7.7,38.7,7.7,38.7c-0.4,4.8,2,31.3,2.9,41
			c0.2,2.1,0.5,4.2,1,6.2c1.2,5.5,2.4,13.6,5.1,20.4l71.5-117.8C813.1,2877,813.6,2862.1,813.6,2861.8z"/>
		<path class="st4" d="M890,2702.5c0,0-5.5,1.9-0.6,5.9c0,0,8.3,8.8,26.3,0.5c0,0,16.9-5.5,18.8-16l0.7-6L890,2702.5z"/>
		<path class="st20" d="M931.4,2731.1l-9.5,13.1c-6.7,9.3-16.3,16.1-27.4,19.4l-1,0.3l-0.8,0.2c-7.2,2.2-14.6,3.9-22,5l0,0
			c-0.6,1.1-23.7,29.8-38.8,46.9c-12.3,13.8-17.2,35.6-17.2,35.6s-7.8,4.6-12.8-4.5s0.5-14.8,0.5-14.8s-23.3-13.2-24-21.1
			c0,0,1.7-4.4,18.5,7c0,0,5.6,4.3,11.7,4.8c0,0,3.3,0.8,7.7-3.2c1.9-1.7,4.1-3.2,6.5-4.3c1.9-0.9,3.8-1.7,5.8-2.2
			c0,0,2.1-1,17.5-19c0,0,13.2-16.5,15.4-24.9c0,0-28.9-14.2-25.7-19.1c0,0,41,8.4,67-3.1C902.8,2747.1,914.6,2741.4,931.4,2731.1z"
			/>
		<polygon class="st21" points="890.4,1929.5 946.8,2004.1 1034,2004.1 978.3,2045.7 1025.1,2107.5 945.8,2069.9 896.1,2107.4 
			894.2,2045.7 805.7,2004.1 892.9,2004.1 		"/>
		<polygon class="st21" points="1142.8,1929.5 1184.4,2004.1 1271.6,2004.1 1207.8,2045.7 1242.4,2107.5 1170.5,2069.9 
			1113.4,2107.4 1123.6,2045.7 1043.4,2004.1 1130.6,2004.1 		"/>
		<polygon class="st21" points="1395.1,1929.5 1422.1,2004.1 1509.3,2004.1 1437.2,2045.7 1459.6,2107.5 1395.1,2069.9 
			1330.7,2107.4 1353.1,2045.7 1281,2004.1 1368.2,2004.1 		"/>
		<polygon class="st21" points="1647.5,1929.5 1659.7,2004.1 1746.9,2004.1 1666.7,2045.7 1676.9,2107.5 1619.8,2069.9 
			1547.9,2107.4 1582.5,2045.7 1518.7,2004.1 1605.9,2004.1 		"/>
		<polygon class="st21" points="1899.9,1929.5 1897.4,2004.1 1984.6,2004.1 1896.1,2045.7 1894.1,2107.5 1844.5,2069.9 
			1765.2,2107.4 1812,2045.7 1756.3,2004.1 1843.5,2004.1 		"/>
		<path class="st22" d="M2104.9,3432.2l3.7-14c0,0-34.8-18.3-40.8-40.6c0,0-55-184.1-61.4-215.2c0,0,13.4-45,51.9-16
			c0,0,8.5,2.5,14.4,17.3l23.8,70.7l53.3-230.6c1.7-7.5,5.3-14.3,10.6-19.9c6.9-7.2,18-13.7,34.2-9.3c0,0,8.9,2.1,15.7,13
			c5.8,9.3,4.1,18.9,1.6,29.6l-34.7,184.3l50.9-203.9c2.7-11.4,9.3-31.5,19.8-36.8c9-4.5,23.3-4.4,34.7,2.1c0,0,18.9,12.7,14.8,41.6
			l-42.9,198.4l43.8-159.4c3.3-13,12.6-43.4,28.5-45.2c4.3-0.5,9.4,0.8,14.2,2.4c0,0,18.8,1.4,20.4,29.1c0.3,4.8-1.7,17.6-2.8,22.2
			l-36,179.7l31.9-119.2c3-12.6,10.3-25.6,23.1-27.4c4.5-0.7,9-0.2,13.2,1.4c0,0,25.8,7.3,18.9,40.5l-56.3,213l-15.3,47.4
			c-4,12.6-9.9,24.5-17.5,35.4c-5.6,8.2-12.4,15.4-20.1,21.5c0,0-15.6,12.8-20.8,11.8l-3.9,18.6L2104.9,3432.2z"/>
		<path class="st14" d="M2111.7,3434.8l3.7-14c0,0-34.8-18.3-40.8-40.6c0,0-55-184.1-61.4-215.2c0,0,13.4-45,51.9-16
			c0,0,8.5,2.5,14.4,17.3l23.8,70.7l53.3-230.6c1.7-7.5,5.3-14.3,10.6-19.9c6.9-7.2,18-13.7,34.2-9.3c0,0,8.9,2.1,15.7,13
			c5.8,9.3,4.1,18.9,1.6,29.6l-34.7,184.2l50.9-203.9c2.7-11.4,9.3-31.5,19.8-36.8c8.9-4.5,23.3-4.4,34.7,2.1
			c0,0,18.9,12.7,14.8,41.6l-42.9,198.4l43.8-159.3c3.3-13,12.6-43.4,28.5-45.2c4.3-0.5,9.4,0.8,14.2,2.4c0,0,18.8,1.4,20.4,29.1
			c0.3,4.8-1.7,17.6-2.8,22.2l-36,179.8l31.8-119.2c3-12.6,10.3-25.6,23.1-27.4c4.5-0.7,9-0.2,13.2,1.4c0,0,25.8,7.3,18.9,40.5
			l-56.3,213l-15.3,47.4c-4,12.6-9.9,24.5-17.5,35.4c-5.6,8.2-12.4,15.4-20.1,21.5c0,0-15.6,12.8-20.8,11.8l-3.9,18.6L2111.7,3434.8
			z"/>
		
			<rect x="2183.7" y="3342.5" transform="matrix(0.2168 -0.9762 0.9762 0.2168 -1653.6414 4850.645)" class="st0" width="24.9" height="226.7"/>
		<path class="st23" d="M2166.5,3028.4l36.9,8.6c3.1,0.7,6.2-1.2,7-4.3c0-0.1,0-0.1,0-0.2l4.3-20.3c0,0,2.4-16.3-17.2-23.5
			c0,0-16.7-5.4-27.8,7.7c0,0-4,5.6-6,18.6l-1.5,6.5C2161.4,3024.6,2163.3,3027.7,2166.5,3028.4
			C2166.4,3028.4,2166.4,3028.4,2166.5,3028.4z"/>
		<path class="st23" d="M2248.6,3013.4l35.4,8.2c3,0.7,5.9-1.2,6.6-4.1c0,0,0-0.1,0-0.1l4.1-19.4c0,0,2.3-15.6-16.5-22.5
			c0,0-16-5.2-26.6,7.4c0,0-3.9,5.4-5.7,17.8l-1.5,6.2C2243.8,3009.7,2245.7,3012.7,2248.6,3013.4
			C2248.6,3013.4,2248.6,3013.4,2248.6,3013.4z"/>
		<path class="st23" d="M2319.7,3046.2l30.1,8.4c2.5,0.7,5.2-0.8,5.9-3.3c0,0,0-0.1,0-0.1l4.3-16.6c0,0,2.6-13.3-13.3-20
			c0,0-13.5-5.1-23.1,5.3c0,0-3.5,4.4-5.6,15.1l-1.5,5.3C2315.7,3042.9,2317.1,3045.5,2319.7,3046.2
			C2319.7,3046.2,2319.7,3046.2,2319.7,3046.2z"/>
		<path class="st23" d="M2370.6,3131.6l29.4,8.2c2.5,0.7,5-0.7,5.7-3.2c0,0,0-0.1,0-0.1l4.2-16.2c0,0,2.5-13-13-19.6
			c0,0-13.2-5-22.6,5.2c0,0-3.5,4.4-5.5,14.7l-1.5,5.1C2366.7,3128.3,2368.1,3130.9,2370.6,3131.6
			C2370.6,3131.6,2370.6,3131.6,2370.6,3131.6z"/>
		<path class="st23" d="M2029.3,3189.9l21.9-7.3c1.9-0.6,2.6-3.1,1.7-5.4l-5.9-15c0,0-5.3-11.6-18-9.5c0,0-10.5,2.3-10.8,14.9
			c0,0,0.2,5.1,4.4,14.4l1.8,4.8C2025.2,3189.1,2027.4,3190.5,2029.3,3189.9z"/>
		<path class="st13" d="M2309.7,3488.6l-27,91.9c0,0-45.5,172.7-96.7,352.8h-276.3c50.8-131.8,106-295.7,106-295.7l58.4-200.5
			l57.1,13.7l49.4,10.5l0.4,0.1L2309.7,3488.6z"/>
		<path class="st12" d="M2181,3461.3c0,0-33.1,7.1-58.5,40.2S2064,3648,2064,3648l-89.3,285.3h-65c50.8-131.8,106-295.7,106-295.7
			l58.5-200.6l106.4,24.2L2181,3461.3z"/>
		<path class="st0" d="M2246,3551.7c4.8-0.8,9.3,2.5,10.1,7.3s-2.5,9.3-7.3,10.1c-4.8,0.8-9.3-2.5-10.1-7.3
			C2237.9,3557,2241.2,3552.5,2246,3551.7C2246,3551.7,2246,3551.7,2246,3551.7z"/>
		<path class="st0" d="M2238.8,3579.3c4.8-0.8,9.3,2.5,10.1,7.3c0.8,4.8-2.5,9.3-7.3,10.1c-4.8,0.8-9.3-2.5-10.1-7.3c0,0,0,0,0,0
			C2230.7,3584.6,2234,3580.1,2238.8,3579.3z"/>
		<path class="st0" d="M2230.9,3607.1c4.8-0.8,9.3,2.5,10.1,7.3s-2.5,9.3-7.3,10.1c-4.8,0.8-9.3-2.5-10.1-7.3
			C2222.9,3612.3,2226.1,3607.8,2230.9,3607.1z"/>
		<line class="st24" x1="1866.1" y1="2031.5" x2="1963.3" y2="2180.7"/>
		
			<rect x="1933.1" y="2097.1" transform="matrix(0.8379 -0.5458 0.5458 0.8379 -855.2366 1405.328)" class="st15" width="10.7" height="90.9"/>
		<path class="st15" d="M1924.1,2120.5l45.1-1.4v-1.6l-55.2-39l-47.9-47.1c7.9,20.9,15.8,41.9,23.7,62.9l13.4,66.2l1.3,0.8
			L1924.1,2120.5z"/>
		<path class="st5" d="M1866.6,2032l47.4,46.6l55.2,39v1.6l-38.8,1.2l37.4,57.4l-4.7,3l-39-60.2l-10.5-16.1l-5.6-8.6l-42-64.4
			L1866.6,2032z"/>
		<path class="st18" d="M534.5,3179.4l-201.8,142.7c-14.8,10.5-35.3,7-45.7-7.8L6,2917.2c-10.5-14.8-7-35.2,7.8-45.7c0,0,0,0,0,0
			l201.8-142.7c14.8-10.5,35.3-7,45.7,7.8l280.9,397.1C552.8,3148.5,549.3,3169,534.5,3179.4z"/>
		
			<rect x="126.1" y="2809.9" transform="matrix(0.8164 -0.5774 0.5774 0.8164 -1696.3595 713.2017)" class="st16" width="295" height="429.8"/>
		<path class="st3" d="M169.1,2805.3l-67.1,47.5c-2.1,1.5-5,1-6.5-1.1c0,0,0,0,0,0l0,0c-1.5-2.1-1-5,1.1-6.5c0,0,0,0,0,0l67.1-47.5
			c2.1-1.5,5-1,6.5,1.1c0,0,0,0,0,0l0,0C171.7,2800.9,171.2,2803.8,169.1,2805.3C169.2,2805.3,169.2,2805.3,169.1,2805.3z"/>
		<path class="st25" d="M261.4,2736.4l280.9,397.1c10.4,14.8,6.9,35.3-7.9,45.8l-27.5,19.4L96.7,2812.9l119-84.1
			C230.4,2718.2,250.9,2721.6,261.4,2736.4C261.4,2736.4,261.4,2736.4,261.4,2736.4z"/>
		<polygon class="st26" points="1662.1,1872.2 848.1,2282.7 700.6,1872.2 		"/>
	</g>
</g>
</svg>
