<svg xmlns="http://www.w3.org/2000/svg" xmlns:xlink="http://www.w3.org/1999/xlink" viewBox="0 0 196.46 232.5"><defs><clipPath id="clip-path"><path d="M44.57,94.26c-1.22.7-3.19,1.84-4.48,2.42-7.88,3.56-18.46,3.87-25.87.78a20.7,20.7,0,0,1-4.38-2.57c-5.2-4.26-4.62-10.26,1.36-14.72a47.84,47.84,0,0,1,4.34-2.68L144.54,3c1.08-.62,1.25-1.55.49-2.21a4.83,4.83,0,0,1,1.72,3.49L173.57,19.8Z" style="fill:none"/></clipPath></defs><g id="Layer_2" data-name="Layer 2"><g id="Layer_1-2" data-name="Layer 1"><g id="freepik--Wallet--inject-2"><polygon points="179.88 54.44 188.17 59.22 188.17 73.59 179.88 68.8 179.88 54.44" style="fill:#263238"/><path d="M173.52,19.8,146.7,35.28v-31a4.15,4.15,0,0,0-4-4.28,4.26,4.26,0,0,0-2.33.63L7.7,77.24C2.57,80.24,0,84.07,0,88V217.23C0,221.11,2.57,225,7.7,228l.18.11C18.14,234,34.76,234,45,228.06l132.62-76.58a4.91,4.91,0,0,0,2.21-3.83V20.92l-2.08-1.2A4.78,4.78,0,0,0,173.52,19.8Z" style="fill:#0674ed"/><path d="M7.7,98.63C-2.52,92.74-2.52,83.09,7.7,77.2L140.35.63a4.71,4.71,0,0,1,4.28-.08c1.14.66,1.08,1.77-.14,2.47L15.55,77.49c-1.22.71-3.22,1.83-4.35,2.68-6,4.49-6.52,10.48-1.37,14.72a20.36,20.36,0,0,0,4.39,2.57c7.4,3.09,18,2.78,25.87-.77,1.29-.58,3.26-1.74,4.48-2.44l129-74.45a4.78,4.78,0,0,1,4.28-.08c1.15.66,1.09,1.77-.13,2.48L45,98.78c-10.22,5.9-26.92,5.9-37.14,0Z" style="fill:#0674ed"/><path d="M7.7,98.63C-2.52,92.74-2.52,83.09,7.7,77.2L140.35.63a4.71,4.71,0,0,1,4.28-.08c1.14.66,1.08,1.77-.14,2.47L15.55,77.49c-1.22.71-3.22,1.83-4.35,2.68-6,4.49-6.52,10.48-1.37,14.72a20.36,20.36,0,0,0,4.39,2.57c7.4,3.09,18,2.78,25.87-.77,1.29-.58,3.26-1.74,4.48-2.44l129-74.45a4.78,4.78,0,0,1,4.28-.08c1.15.66,1.09,1.77-.13,2.48L45,98.78c-10.22,5.9-26.92,5.9-37.14,0Z" style="opacity:0.30000001192092896;isolation:isolate"/><path d="M4.37,106.39a.5.5,0,0,1-.33-.12,15.73,15.73,0,0,1-1.81-1.84.49.49,0,0,1,.06-.7.51.51,0,0,1,.71.06,15.34,15.34,0,0,0,1.7,1.72.51.51,0,0,1,0,.71A.52.52,0,0,1,4.37,106.39Z" style="fill:#f5f5f5"/><path d="M28.06,113.25a.5.5,0,0,1,0-1h0a42,42,0,0,0,5-.45.51.51,0,0,1,.57.42h0a.51.51,0,0,1-.42.57,45.44,45.44,0,0,1-5.08.46Zm-5-.1h0a42,42,0,0,1-5-.68.47.47,0,0,1-.4-.56v0a.51.51,0,0,1,.59-.4,40.82,40.82,0,0,0,4.93.66.5.5,0,0,1,.5.5.5.5,0,0,1-.5.5Zm15-1.41a.5.5,0,0,1-.15-1h0a32.48,32.48,0,0,0,4.66-1.7.49.49,0,0,1,.65.23h0A.51.51,0,0,1,43,110h0a32.92,32.92,0,0,1-4.81,1.75Zm-24.85-.54h-.16a29.89,29.89,0,0,1-4.7-2,.5.5,0,0,1,.47-.88,30.2,30.2,0,0,0,4.55,2,.51.51,0,0,1,.42.58.5.5,0,0,1-.58.42h0Zm34-3.6a.49.49,0,0,1-.49-.5.5.5,0,0,1,.24-.43l4.37-2.52a.5.5,0,0,1,.59.81l-.09.05-4.37,2.52a.41.41,0,0,1-.3.1Zm8.74-5a.54.54,0,0,1-.34-.95l0,0L60,99.1a.51.51,0,0,1,.68.19.49.49,0,0,1-.17.67h0l-4.36,2.52a.42.42,0,0,1-.24.07Zm8.73-5a.48.48,0,0,1-.43-.25.51.51,0,0,1,.18-.69l4.36-2.52a.53.53,0,0,1,.69.19.5.5,0,0,1-.19.68l-4.36,2.52a.41.41,0,0,1-.29,0Zm8.73-5a.48.48,0,0,1-.43-.25.51.51,0,0,1,.18-.69l4.37-2.52a.49.49,0,0,1,.67.18h0A.49.49,0,0,1,78,90l-4.39,2.4a.55.55,0,0,1-.28.07Zm8.73-5a.47.47,0,0,1-.43-.25.49.49,0,0,1,.18-.68l4.37-2.52a.49.49,0,0,1,.67.17h0a.51.51,0,0,1-.18.69l-4.37,2.52a.48.48,0,0,1-.3-.11Zm8.73-5a.49.49,0,0,1-.49-.5.5.5,0,0,1,.24-.43L95,79.15a.49.49,0,0,1,.67.17h0a.51.51,0,0,1-.18.69l-4.37,2.52a.51.51,0,0,1-.3-.15Zm8.74-5a.49.49,0,0,1-.49-.5.5.5,0,0,1,.24-.43l4.36-2.52a.5.5,0,0,1,.66.25.5.5,0,0,1-.16.61l-4.36,2.53a.54.54,0,0,1-.3-.19Zm8.73-5a.5.5,0,0,1-.44-.25.51.51,0,0,1,.19-.68l4.36-2.52A.5.5,0,1,1,113,70L113,70l-4.36,2.52a.48.48,0,0,1-.3-.22Zm8.73-5a.49.49,0,0,1-.49-.5.5.5,0,0,1,.24-.43l4.36-2.52a.5.5,0,1,1,.5.86l-4.36,2.52a.48.48,0,0,1-.3-.26Zm8.73-5a.49.49,0,0,1-.49-.5.5.5,0,0,1,.24-.43l4.37-2.53a.51.51,0,0,1,.68.19.49.49,0,0,1-.17.67h0l-4.37,2.52a.43.43,0,0,1-.3-.3Zm8.73-5a.48.48,0,0,1-.43-.25.51.51,0,0,1,.18-.69l4.36-2.93a.51.51,0,0,1,.68.19.49.49,0,0,1-.17.67h0l-4.37,2.52a.43.43,0,0,1-.29.07Zm8.73-5a.48.48,0,0,1-.43-.25.51.51,0,0,1,.18-.69l4.37-2.52a.49.49,0,0,1,.67.17h0a.51.51,0,0,1-.18.69l-4.37,2.52a.55.55,0,0,1-.3-.38Zm8.74-5a.5.5,0,0,1-.44-.25.51.51,0,0,1,.19-.68l4.36-2.52a.49.49,0,0,1,.67.17h0a.51.51,0,0,1-.18.69l-4.36,2.52a.56.56,0,0,1-.3-.44Zm8.73-5a.5.5,0,0,1-.44-.25.51.51,0,0,1,.19-.68l4.36-2.52a.5.5,0,1,1,.5.87L161,42.54a.58.58,0,0,1-.34-.48Z" style="fill:#f5f5f5"/><path d="M171.58,38.27a.51.51,0,0,1-.5-.5V36.13l-1.41.82a.49.49,0,0,1-.67-.16v0a.51.51,0,0,1,.18-.69l2.16-1.25A.5.5,0,0,1,172,35a.43.43,0,0,1,.07.25v2.5A.5.5,0,0,1,171.58,38.27Z" style="fill:#f5f5f5"/><path d="M171.58,138.41a.51.51,0,0,1-.5-.5v-5a.5.5,0,0,1,1,0v5A.5.5,0,0,1,171.58,138.41Zm0-10a.5.5,0,0,1-.5-.5v-5a.52.52,0,0,1,.5-.5.5.5,0,0,1,.5.5v5a.5.5,0,0,1-.5.48Zm0-10a.51.51,0,0,1-.5-.5v-5a.5.5,0,0,1,1,0v5a.5.5,0,0,1-.5.47Zm0-10a.5.5,0,0,1-.5-.5v-5a.5.5,0,0,1,1,0v5a.5.5,0,0,1-.5.45Zm0-10a.5.5,0,0,1-.5-.5v-5a.52.52,0,0,1,.5-.5.5.5,0,0,1,.5.5v5a.51.51,0,0,1-.5.44Zm0-10a.51.51,0,0,1-.5-.5v-5a.5.5,0,0,1,1,0v5a.51.51,0,0,1-.5.43Zm0-10a.5.5,0,0,1-.5-.5v-5a.5.5,0,0,1,1,0v5a.5.5,0,0,1-.5.41Zm0-10a.51.51,0,0,1-.5-.5v-5a.5.5,0,0,1,1,0v5a.49.49,0,0,1-.5.4Zm0-10a.5.5,0,0,1-.5-.5v-5a.5.5,0,0,1,1,0v5a.49.49,0,0,1-.5.38Zm0-10a.5.5,0,0,1-.5-.5v-5a.52.52,0,0,1,.5-.5.5.5,0,0,1,.5.5v5a.49.49,0,0,1-.5.37Z" style="fill:#f5f5f5"/><path d="M169.42,147.16a.49.49,0,0,1-.49-.5.5.5,0,0,1,.24-.43l1.91-1.11v-2.21a.52.52,0,0,1,.5-.5.5.5,0,0,1,.5.5v2.5a.5.5,0,0,1-.25.44l-2.19,1.25A.43.43,0,0,1,169.42,147.16Z" style="fill:#f5f5f5"/><path d="M28.08,223.4a.5.5,0,0,1-.5-.5.5.5,0,0,1,.5-.5,42,42,0,0,0,5-.46.52.52,0,0,1,.57.42.5.5,0,0,1-.42.57h0a43.2,43.2,0,0,1-5.08.47Zm-5-.1h0a42.84,42.84,0,0,1-5-.68.5.5,0,0,1-.4-.58.51.51,0,0,1,.59-.4,41.09,41.09,0,0,0,4.93.66.5.5,0,0,1,.5.5.5.5,0,0,1-.5.5Zm15-1.42a.48.48,0,0,1-.48-.36.5.5,0,0,1,.34-.62,31.32,31.32,0,0,0,4.66-1.7.49.49,0,0,1,.65.24h0a.49.49,0,0,1-.23.66h0a32.8,32.8,0,0,1-4.8,1.75.34.34,0,0,1-.2,0Zm-24.85-.53a.43.43,0,0,1-.16,0,29.89,29.89,0,0,1-4.7-2,.5.5,0,0,1,.47-.88,30.2,30.2,0,0,0,4.55,2,.51.51,0,0,1,.42.58.5.5,0,0,1-.58.42Zm34-3.61a.49.49,0,0,1-.49-.5.5.5,0,0,1,.24-.43l4.37-2.52a.5.5,0,0,1,.66.25.5.5,0,0,1-.16.61l-4.43,2.48a.47.47,0,0,1-.25.11Zm8.74-5a.5.5,0,0,1-.44-.25.49.49,0,0,1,.17-.67h0l4.36-2.52a.5.5,0,0,1,.59.81l-.09.05-4.42,2.48a.45.45,0,0,1-.25.07Zm8.73-5a.5.5,0,0,1-.44-.25.51.51,0,0,1,.19-.68l4.36-2.53a.53.53,0,0,1,.69.19.51.51,0,0,1-.19.68l-4.42,2.48a.36.36,0,0,1-.25,0Zm8.73-5a.48.48,0,0,1-.43-.25.51.51,0,0,1,.18-.69l4.36-2.52a.52.52,0,0,1,.69.19.5.5,0,0,1-.19.68l-4.4,2.4a.43.43,0,0,1-.27.08Zm8.73-5a.48.48,0,0,1-.43-.25.51.51,0,0,1,.18-.69l4.37-2.52a.5.5,0,1,1,.5.87l-4.37,2.52a.47.47,0,0,1-.31,0Zm8.73-5.05a.47.47,0,0,1-.43-.25.49.49,0,0,1,.18-.68L95,189.24a.5.5,0,1,1,.5.87l-4.37,2.52a.5.5,0,0,1-.31-.1Zm8.73-5a.48.48,0,0,1-.43-.25.49.49,0,0,1,.18-.68l4.37-2.52a.5.5,0,1,1,.59.81l-.09,0-4.37,2.53a.5.5,0,0,1-.31-.14Zm8.74-5a.49.49,0,0,1-.49-.5.5.5,0,0,1,.24-.43l4.36-2.52a.5.5,0,1,1,.59.81l-.09,0-4.36,2.52a.44.44,0,0,1-.31-.17Zm8.73-5a.49.49,0,0,1-.49-.5.5.5,0,0,1,.24-.43l4.36-2.52a.5.5,0,1,1,.59.81l-.09,0-4.36,2.52a.45.45,0,0,1-.31-.21Zm8.73-5a.49.49,0,0,1-.49-.5.5.5,0,0,1,.24-.43l4.37-2.52a.5.5,0,0,1,.59.81l-.09,0-4.37,2.52a.44.44,0,0,1-.31-.25Zm8.73-5a.48.48,0,0,1-.43-.25.51.51,0,0,1,.18-.69l4.37-2.52a.51.51,0,0,1,.68.19.49.49,0,0,1-.17.67h0l-4.37,2.52a.45.45,0,0,1-.31-.29Zm8.73-5a.48.48,0,0,1-.43-.25.51.51,0,0,1,.18-.69l4.37-2.52a.5.5,0,1,1,.5.87l-4.37,2.52a.43.43,0,0,1-.31-.33Zm8.73-5a.48.48,0,0,1-.43-.25.51.51,0,0,1,.18-.69l4.37-2.52a.49.49,0,0,1,.67.17h0a.51.51,0,0,1-.18.69l-4.37,2.52a.51.51,0,0,1-.31-.37Zm8.74-5.05a.5.5,0,0,1-.44-.25.51.51,0,0,1,.19-.68l4.36-2.52a.51.51,0,0,1,.69.18.51.51,0,0,1-.19.69L161,152.58a.54.54,0,0,1-.31-.38Z" style="fill:#f5f5f5"/><path d="M4.37,216.53a.5.5,0,0,1-.33-.12,15.64,15.64,0,0,1-1.81-1.83.53.53,0,0,1,.06-.71.52.52,0,0,1,.71.07,15.34,15.34,0,0,0,1.7,1.72.49.49,0,0,1,.06.69h0A.46.46,0,0,1,4.37,216.53Z" style="fill:#f5f5f5"/><g style="clip-path:url(#clip-path)"><path d="M146.7,28.46V13.39a3.94,3.94,0,0,0-1.77-3.07l-.61-.35a3.92,3.92,0,0,0-3.53,0L1.57,90.35l20.73,12L144.94,31.52A3.92,3.92,0,0,0,146.7,28.46Z" style="fill:#e0e0e0"/><path d="M140.79,10,1.57,90.35l4.15,2.39L144.93,12.37a1.07,1.07,0,0,0,.59-1.41,1.1,1.1,0,0,0-.59-.59l-.61-.35A4,4,0,0,0,140.79,10Z" style="fill:#ebebeb"/><path d="M155,33.24V18.17a3.94,3.94,0,0,0-1.77-3.06l-.61-.35a3.94,3.94,0,0,0-3.54,0L9.86,95.14l20.74,12,122.63-70.8A3.93,3.93,0,0,0,155,33.24Z" style="fill:#e0e0e0"/><path d="M149.08,14.76,9.86,95.14,14,97.53,153.23,17.15a1.07,1.07,0,0,0,.59-1.41,1.1,1.1,0,0,0-.59-.59l-.61-.35A4,4,0,0,0,149.08,14.76Z" style="fill:#ebebeb"/><path d="M163.29,38V23a3.9,3.9,0,0,0-1.77-3.06l-.61-.36a3.94,3.94,0,0,0-3.54,0L18.15,99.92l20.74,12,122.63-70.8A3.9,3.9,0,0,0,163.29,38Z" style="fill:#e0e0e0"/><path d="M157.37,19.54,18.15,99.92l4.15,2.4L161.52,21.94a1.07,1.07,0,0,0,.59-1.41,1.1,1.1,0,0,0-.59-.59l-.61-.36A4,4,0,0,0,157.37,19.54Z" style="fill:#ebebeb"/></g><path d="M196.46,66.06V95.49a3.92,3.92,0,0,1-1.76,3.06l-53.7,31h-.1c-4.06,2.31-7.74,2.61-10.43,1.22-.82-.42-4-2.25-4.74-2.75-2.43-1.57-3.91-4.67-3.91-9,0-9,6.31-19.93,14.24-25h0l50.33-29,.26-.18c.71-.57.62-1.35-.26-1.86l-6.52-3.77V54.37l14.82,8.56a3.91,3.91,0,0,1,1.73,2.71A2,2,0,0,1,196.46,66.06Z" style="fill:#0674ed"/><path d="M196.46,66.06V95.49a3.92,3.92,0,0,1-1.76,3.06l-53.7,31h-.1c-4.06,2.31-7.74,2.61-10.43,1.22-.82-.42-4-2.25-4.74-2.75-2.43-1.57-3.91-4.67-3.91-9,0-9,6.31-19.93,14.24-25h0l50.33-29,.26-.18c.71-.57.62-1.35-.26-1.86l-6.52-3.77V54.37l14.82,8.56a3.91,3.91,0,0,1,1.73,2.71A2,2,0,0,1,196.46,66.06Z" style="opacity:0.30000001192092896;isolation:isolate"/><path d="M196.46,66.06V95.49a3.92,3.92,0,0,1-1.76,3.06l-53.7,31h-.1c-5.29,3-9.94,2.61-12.6-.5a11.6,11.6,0,0,1-2.33-7.64c0-9.26,6.73-20.64,15-25.44l51.32-29.62L194.67,65c.87-.51,1.59-.21,1.73.67A2.9,2.9,0,0,1,196.46,66.06Z" style="fill:#0674ed"/><path d="M138.41,114.29c0,4,2.78,5.57,6.22,3.59a13.75,13.75,0,0,0,6.22-10.77c0-4-2.79-5.58-6.22-3.59A13.72,13.72,0,0,0,138.41,114.29Z" style="fill:#37474f"/><polygon points="151.07 104.26 149.22 103.2 140.23 118.31 142.34 119.53 151.07 104.26" style="fill:#37474f"/><path d="M140.48,115.49c0,4,2.79,5.57,6.22,3.59a13.76,13.76,0,0,0,6.22-10.78c0-4-2.78-5.57-6.22-3.59A13.78,13.78,0,0,0,140.48,115.49Z" style="fill:#455a64"/></g></g></g></svg>