<svg xmlns="http://www.w3.org/2000/svg" viewBox="0 0 258.68 254.75"><polygon points="129.34 0.27 45.09 30.93 0.26 108.58 15.83 196.87 84.51 254.5 174.17 254.5 242.85 196.87 258.42 108.58 213.59 30.93 129.34 0.27" style="fill:none;stroke:#000;stroke-miterlimit:10;stroke-width:0.5px"/><line x1="129.34" y1="0.27" x2="258.42" y2="108.58" style="fill:none;stroke:#000;stroke-miterlimit:10;stroke-width:0.5px"/><line x1="213.59" y1="30.93" x2="242.85" y2="196.87" style="fill:none;stroke:#000;stroke-miterlimit:10;stroke-width:0.5px"/><line x1="258.42" y1="108.58" x2="174.17" y2="254.5" style="fill:none;stroke:#000;stroke-miterlimit:10;stroke-width:0.5px"/><line x1="242.85" y1="196.87" x2="84.51" y2="254.5" style="fill:none;stroke:#000;stroke-miterlimit:10;stroke-width:0.5px"/><line x1="174.17" y1="254.5" x2="15.83" y2="196.87" style="fill:none;stroke:#000;stroke-miterlimit:10;stroke-width:0.5px"/><line x1="84.51" y1="254.5" x2="0.26" y2="108.58" style="fill:none;stroke:#000;stroke-miterlimit:10;stroke-width:0.5px"/><line x1="15.83" y1="196.87" x2="45.09" y2="30.93" style="fill:none;stroke:#000;stroke-miterlimit:10;stroke-width:0.5px"/><line x1="0.26" y1="108.58" x2="129.34" y2="0.27" style="fill:none;stroke:#000;stroke-miterlimit:10;stroke-width:0.5px"/><line x1="45.09" y1="30.93" x2="213.59" y2="30.93" style="fill:none;stroke:#000;stroke-miterlimit:10;stroke-width:0.5px"/><line x1="129.34" y1="0.27" x2="15.83" y2="196.87" style="fill:none;stroke:#000;stroke-miterlimit:10;stroke-width:0.5px"/><line x1="84.51" y1="254.5" x2="129.34" y2="0.27" style="fill:none;stroke:#000;stroke-miterlimit:10;stroke-width:0.5px"/><line x1="174.17" y1="254.5" x2="129.34" y2="0.27" style="fill:none;stroke:#000;stroke-miterlimit:10;stroke-width:0.5px"/><line x1="242.85" y1="196.87" x2="129.34" y2="0.27" style="fill:none;stroke:#000;stroke-miterlimit:10;stroke-width:0.5px"/><line x1="213.59" y1="30.93" x2="0.26" y2="108.58" style="fill:none;stroke:#000;stroke-miterlimit:10;stroke-width:0.5px"/><line x1="258.42" y1="108.58" x2="0.26" y2="108.58" style="fill:none;stroke:#000;stroke-miterlimit:10;stroke-width:0.5px"/><line x1="242.85" y1="196.87" x2="45.09" y2="30.93" style="fill:none;stroke:#000;stroke-miterlimit:10;stroke-width:0.5px"/><line x1="174.17" y1="254.5" x2="45.09" y2="30.93" style="fill:none;stroke:#000;stroke-miterlimit:10;stroke-width:0.5px"/><line x1="0.26" y1="108.58" x2="174.17" y2="254.5" style="fill:none;stroke:#000;stroke-miterlimit:10;stroke-width:0.5px"/><line x1="84.51" y1="254.5" x2="213.59" y2="30.93" style="fill:none;stroke:#000;stroke-miterlimit:10;stroke-width:0.5px"/><line x1="174.17" y1="254.5" x2="213.59" y2="30.93" style="fill:none;stroke:#000;stroke-miterlimit:10;stroke-width:0.5px"/><line x1="84.51" y1="254.5" x2="45.09" y2="30.93" style="fill:none;stroke:#000;stroke-miterlimit:10;stroke-width:0.5px"/><line x1="15.83" y1="196.87" x2="258.42" y2="108.58" style="fill:none;stroke:#000;stroke-miterlimit:10;stroke-width:0.5px"/><line x1="45.09" y1="30.93" x2="258.42" y2="108.58" style="fill:none;stroke:#000;stroke-miterlimit:10;stroke-width:0.5px"/><line x1="213.59" y1="30.93" x2="15.83" y2="196.87" style="fill:none;stroke:#000;stroke-miterlimit:10;stroke-width:0.5px"/><line x1="84.51" y1="254.5" x2="258.42" y2="108.58" style="fill:none;stroke:#000;stroke-miterlimit:10;stroke-width:0.5px"/><line x1="242.85" y1="196.87" x2="15.83" y2="196.87" style="fill:none;stroke:#000;stroke-miterlimit:10;stroke-width:0.5px"/><line x1="0.26" y1="108.58" x2="242.85" y2="196.87" style="fill:none;stroke:#000;stroke-miterlimit:10;stroke-width:0.5px"/></svg>